<svg width="53" height="36" viewBox="0 0 53 36" fill="none" xmlns="http://www.w3.org/2000/svg">
<path d="M20.8388 16.0312L9.33835 17.2037L1.58624 32.6666C7.71623 32.6666 10.8641 32.0669 14.4489 26.9261C15.9635 24.7232 18.6454 20.3445 20.8388 16.0312Z" fill="#051D32"/>
<path d="M51.9212 1.72261L52.8017 0H28.6268C20.4311 0 16.2481 2.7891 13.7051 7.95694C11.7156 11.9997 11.7223 12.0019 11.7223 12.0019H22.7029C26.6081 4.47789 31.3647 1.8827 42.9996 1.72261H51.9212Z" fill="#051D32"/>
<path d="M51.1751 3.38232C36.4327 3.51084 33.9816 5.92791 30.641 12.0022L46.9518 12.0089L51.1751 3.38232Z" fill="#051D32"/>
<path d="M35.5454 24.6602C34.5775 30.1211 30.2937 34.4322 24.8583 35.4243C24.8583 35.4243 21.6051 35.997 19.4699 35.9992C17.3347 36.0015 0 35.9992 0 35.9992L0.750565 34.4592C0.750565 34.4592 7.34434 34.4074 8.22933 34.4074C10.5034 34.4592 14.6215 33.9587 14.6215 33.9587C19.2705 33.4649 22.9292 30.4165 24.092 25.9837L25.4005 21.5126C26.1129 17.8058 29.3572 15.0009 33.2556 15.0009L45.8696 14.1982L45.2669 15.4135L41.3797 15.6548C38.4872 15.8915 36.1705 18.1598 35.8479 21.0323L35.5454 24.6602Z" fill="#051D32"/>
</svg>
