<svg width="36" height="40" viewBox="0 0 36 40" fill="none" xmlns="http://www.w3.org/2000/svg">
<path d="M20.5964 0.000804638C20.3156 0.0100185 20.1939 0.186869 20.2333 0.531283C19.7288 0.559603 19.3817 0.64818 19.1926 0.796519C19.0033 0.944934 18.9528 1.15369 19.0439 1.42214C19.135 1.69066 19.342 1.90992 19.6643 2.07947C19.5802 2.17842 19.5445 2.33458 19.5586 2.54652C19.5724 2.75851 19.7988 2.93283 20.2333 3.07411C20.5556 3.15892 20.8685 3.16787 21.1768 3.0972C21.1067 3.42225 21.2199 3.62652 21.5142 3.71128C21.9206 4.13525 22.4241 4.24041 23.0267 4.02842L22.9638 4.43204L23.7844 4.77223C23.8125 5.16793 23.9941 5.4503 24.3305 5.61984L24.2905 5.70345C24.2484 5.70348 24.2127 5.71845 24.1847 5.74669L23.5128 6.50781C23.4567 6.56437 23.3913 6.57329 23.3212 6.5309C22.9288 6.30484 22.5802 6.12764 22.2719 6.00043C22.1878 5.95807 22.1372 5.88603 22.1232 5.78708L22.249 4.81262C22.249 4.71374 22.2013 4.63566 22.1032 4.5791C21.6547 4.36717 21.199 4.21388 20.7365 4.11494C20.5964 4.07257 20.4981 4.11494 20.442 4.24179L20.0017 5.15282C19.9597 5.23764 19.8882 5.27365 19.7901 5.25949C19.4258 5.18887 19.0326 5.13787 18.6122 5.10957C18.5281 5.10961 18.4803 5.06754 18.4664 4.98272L18.3205 4.00826C18.3067 3.88111 18.2291 3.81802 18.0889 3.81798C17.5984 3.78978 17.1069 3.78978 16.6165 3.81798C16.5043 3.81802 16.4329 3.87218 16.4049 3.9852L16.2591 4.98272C16.2452 5.06754 16.1973 5.10961 16.1132 5.10957C15.6928 5.13785 15.2996 5.18887 14.9353 5.25949C14.8792 5.28777 14.8078 5.26675 14.7237 5.19606L14.2834 4.21873C14.2273 4.13397 14.129 4.10084 13.9889 4.11494C13.8347 4.12906 13.5964 4.19824 13.2741 4.32539V4.24179C13.8627 3.98745 14.4227 3.63911 14.9553 3.20102C15.5158 2.70646 15.8167 2.19275 15.8588 1.65572C15.7607 1.52858 15.4746 1.45655 14.9982 1.44238C15.2504 1.15979 15.3844 0.862448 15.3984 0.551526C15.2162 0.297204 14.6682 0.255135 13.7573 0.424674C12.8043 0.664936 11.9702 1.04037 11.2555 1.54905C10.5267 2.01541 9.87283 2.58461 9.29122 3.2558C8.70961 3.92706 8.24343 4.62244 7.89311 5.3431L8.31341 4.36864C8.52361 3.90235 8.74703 3.35865 8.98532 2.73686C9.05538 2.44013 9.05981 2.22692 8.99679 2.0997C8.9337 1.97257 8.79525 1.93654 8.58504 1.99303C8.3608 2.04959 7.95561 2.34694 7.36704 2.88388C6.72238 3.54808 6.15189 4.36808 5.65438 5.3431C5.15687 6.31818 4.81585 7.08719 4.63365 7.65239C4.73175 7.01652 4.71692 6.47284 4.59077 6.02061C4.52072 5.83693 4.3687 5.78882 4.13045 5.87358C3.9062 6.02904 3.67989 6.26041 3.45568 6.57127C3.23143 6.88218 3.01688 7.18399 2.80667 7.47365C2.59643 7.76337 2.34769 8.17639 2.06039 8.71334C1.77312 9.25036 1.51992 9.88711 1.30271 10.6219C1.0855 11.3568 0.920195 12.33 0.80809 13.5453C0.737995 14.3225 0.794642 15.1575 0.976763 16.0477C1.20101 16.938 1.42447 17.5958 1.64868 18.0197C1.87289 18.4437 2.08436 18.69 2.28056 18.7607C2.40667 19.0716 2.57356 19.5882 2.78377 20.3088C2.89587 20.648 2.94647 20.9049 2.93246 21.0815C2.91862 21.2581 2.96173 21.3828 3.06684 21.4534C3.17194 21.5241 3.2598 21.6652 3.32989 21.8772C3.51205 22.5555 3.75924 23.1833 4.06755 23.7627C4.0115 24.0736 3.98175 24.3859 3.98179 24.6968C3.30909 22.7326 2.76387 21.2487 2.34346 20.2454C1.53064 18.4225 0.893139 17.5875 0.430677 17.7429C0.206428 17.8278 0.0664361 18.032 0.0103837 18.357C-0.00346124 18.4842 -0.00346124 18.8115 0.0103837 19.3344C0.0242287 19.8572 0.0720923 20.407 0.156191 20.9864C0.576603 22.8658 1.29753 24.4338 2.32059 25.6914L3.85596 27.5164C4.16427 27.8273 4.45917 28.0542 4.73947 28.2025C5.01973 28.3509 5.27891 28.3914 5.51716 28.3207C5.86752 28.886 6.30842 29.4778 6.84094 30.0996C7.17729 30.6224 7.52875 30.8716 7.89315 30.8434C8.04727 31.1825 8.27674 31.3508 8.58504 31.3508L8.90241 31.3104C9.33687 31.7344 9.72718 32.0709 10.0775 32.3252L9.68014 33.4727C8.97939 33.5716 8.33303 33.6258 7.74446 33.6399C7.1979 33.2442 6.42923 32.7095 5.43425 32.0312L5.37135 30.7569C5.34327 30.3188 5.41787 29.9523 5.60007 29.6556C5.64212 29.4154 5.51095 29.1961 5.20264 28.9983C4.74018 28.7722 4.40956 28.682 4.21336 28.7244C4.12926 28.7526 4.08156 28.8278 4.06755 28.955V29.6556L2.06897 29.6988C1.88677 29.6988 1.73634 29.768 1.61723 29.9093C1.49812 30.0506 1.49369 30.333 1.60576 30.7569C1.6196 30.9123 1.61367 31.0475 1.58558 31.1605C1.48748 31.6127 1.2283 32.1653 0.807892 32.8154C0.75184 32.9143 0.777038 33.0615 0.88222 33.2593C0.987323 33.4572 1.25093 33.7666 1.67138 34.1906C1.85354 34.3743 2.12914 34.6025 2.50054 34.871C2.8719 35.1394 3.52582 35.548 4.46478 36.0991C5.57191 36.7633 6.63227 37.3159 7.64133 37.754C7.85154 37.7681 9.25166 37.5759 11.8443 37.1802L11.8645 37.4138C11.1217 37.979 10.6451 38.2133 10.4349 38.1143C10.1406 38.1426 10.0511 38.3619 10.1633 38.7717C10.2474 38.9554 10.4022 39.0816 10.6265 39.1522L10.8981 39.4694L11.6758 39.9364C11.9701 40.0212 12.2501 40.0212 12.5164 39.9364C12.7686 39.8375 12.9384 39.6182 13.0225 39.2791L13.7144 38.962C13.8685 38.863 13.946 38.6588 13.946 38.3479L14.555 37.8808C15.0315 37.796 15.3412 37.6249 15.4814 37.3705C15.5095 37.1444 15.572 37.0033 15.6701 36.9467L16.4049 36.4393C16.433 36.3687 16.7366 36.4888 17.3112 36.7997C17.5915 36.8703 17.8358 36.8554 18.0461 36.7565L18.5921 36.4393C19.0826 36.5524 19.9436 37.1652 21.1768 38.2816C21.163 38.4087 21.2403 38.5589 21.4085 38.7284C21.5065 38.8556 21.7746 38.9608 22.209 39.0456L22.5035 39.5962L22.798 39.7029C23.2324 39.717 23.6376 39.5609 24.016 39.2358L24.4792 39.0888C24.7174 38.9051 24.8217 38.7219 24.7937 38.5382L24.605 38.3479L24.2047 38.2412C23.7002 38.001 23.1878 37.6765 22.6693 37.2667L22.3348 37.0102C23.8624 37.2786 25.76 37.4919 28.0303 37.6473C28.3106 37.7038 28.6873 37.5582 29.1568 37.212C29.6263 36.8658 31.0429 35.8459 33.4113 34.1502C33.7616 33.7687 34.0445 33.3301 34.2548 32.8356C34.0445 32.6377 33.8583 32.3554 33.6972 31.9879C33.536 31.6205 33.4333 31.3082 33.3913 31.0538C33.3352 30.8136 33.3292 30.5988 33.3711 30.4081C33.4131 30.2173 33.3505 30.0385 33.1824 29.8689C33.1123 29.77 32.9486 29.704 32.6963 29.6758C32.2478 29.6334 31.7444 29.6423 31.1838 29.6989C30.9175 29.6706 30.7627 29.6075 30.7207 29.5086L30.7436 28.9983C30.7856 28.7722 30.723 28.6731 30.5549 28.7013C29.9382 28.8568 29.5659 29.0129 29.4398 29.1684C29.2576 29.3662 29.2636 29.5794 29.46 29.8055C29.6141 29.9468 29.6915 30.1091 29.6916 30.2928C29.6074 31.2254 29.53 31.8532 29.46 32.1782C28.4369 32.9979 27.7428 33.4995 27.3785 33.6832C27.0842 33.7821 26.4258 33.74 25.4028 33.5563C25.1785 33.3585 25.0177 33.0191 24.9196 32.5386C25.2699 32.3267 25.6422 32.0714 26.0347 31.7746C26.3009 31.7322 26.5244 31.6797 26.7066 31.6161C26.8887 31.5525 26.9811 31.3797 26.9811 31.0971C27.1632 31.0265 27.2944 30.8703 27.3785 30.6301L28.5994 29.1482C28.9917 28.8091 29.4178 28.6108 29.8803 28.5543C30.4408 28.5119 31.1706 28.1935 32.0675 27.6C32.2076 27.4446 32.2076 27.2253 32.0675 26.9427C32.3338 26.7873 32.7687 26.3487 33.3713 25.628C33.6096 25.2889 33.6661 24.9135 33.54 24.5037C34.1006 23.8254 34.4134 23.2906 34.4836 22.8949C34.5396 22.5417 34.5336 22.1602 34.4634 21.7504C34.7296 21.5808 34.9158 21.4352 35.0209 21.315C35.126 21.1949 35.1781 21.0283 35.1782 20.8163C35.1781 20.6043 35.1007 20.4271 34.9466 20.2858C35.3529 19.7064 35.4035 19.1838 35.0953 18.7174C35.2073 17.9544 35.1301 17.4738 34.8637 17.2759C34.5834 17.0781 34.2379 17.1441 33.8315 17.4691C33.5932 17.3419 33.2715 17.4621 32.8651 17.8295C32.9351 17.6458 32.944 17.4807 32.888 17.3394C33.2524 17.1698 33.4862 16.985 33.5914 16.7801C33.6965 16.5752 33.7486 16.2523 33.7487 15.8142C33.7907 15.5458 34.035 15.0652 34.4835 14.3727C34.7917 13.6803 34.5743 13.44 33.8316 13.652C34.238 13.2846 34.4434 12.9662 34.4435 12.6977C34.4715 12.4434 34.3643 12.1189 34.126 11.7232C34.0279 11.4972 33.8819 11.4551 33.6857 11.5964C33.7558 11.4551 33.7931 11.2868 33.8001 11.089C33.8073 10.8912 33.6775 10.4737 33.4113 9.83775C33.3692 9.00404 33.1754 8.6557 32.8251 8.79699C32.769 8.35894 32.629 7.94434 32.4048 7.54864C32.0684 7.03995 31.8004 6.90482 31.6043 7.14501C31.0577 6.32544 30.5453 5.98603 30.0689 6.12731C30.055 5.77406 29.9357 5.45568 29.7115 5.17302C29.5853 4.63608 29.4333 4.26354 29.2512 4.05153C28.9989 3.95265 28.8231 4.09383 28.7251 4.47534C28.683 4.16449 28.5847 3.83718 28.4306 3.498C28.2764 3.15888 28.0321 2.98457 27.6958 2.9704C27.5696 2.95632 27.4504 2.97734 27.3384 3.03383C27.1141 2.89256 26.9235 2.82052 26.7694 2.82049C26.2929 2.3118 25.858 2.26974 25.4656 2.69364L25.4027 2.24965C25.2625 1.72683 24.9825 1.61274 24.5621 1.90945C23.8754 1.1888 23.2885 0.714261 22.798 0.488135C22.3916 0.34686 22.1235 0.382864 21.9974 0.594795C21.7872 0.382864 21.5637 0.247741 21.3255 0.191173C21.0872 0.134686 20.8638 0.0715929 20.6536 0.000897454C20.6334 -0.000299151 20.6153 -0.000391967 20.5964 0.000804638ZM20.7051 0.36407C20.8653 0.359802 21.1915 0.478716 21.6829 0.721559L22.1032 0.975264C22.2153 0.763334 22.403 0.700245 22.6693 0.784989C22.9916 0.940467 23.2954 1.12818 23.5757 1.34718C23.856 1.56624 24.1689 1.88016 24.5192 2.28992C24.8135 2.09212 25.025 2.1342 25.1511 2.41677L25.214 2.92707C24.9057 2.63035 24.5274 2.60931 24.0789 2.86365L23.7844 2.7368C23.378 2.24224 23.1337 1.86681 23.0496 1.61242C22.9655 1.28743 22.9238 1.26035 22.9238 1.52881C22.9376 1.81147 23.1047 2.17191 23.427 2.60994C22.8104 2.41214 22.359 2.15686 22.0718 1.84594C21.7844 1.53509 21.5626 1.27376 21.4085 1.06176C21.2543 0.807433 21.1917 0.807433 21.2197 1.06176C21.3879 1.37268 21.6202 1.66109 21.9145 1.92955C21.6903 1.83067 21.4788 1.73155 21.2826 1.63259C20.7921 1.42066 20.3869 1.30945 20.0646 1.29528C19.9104 1.29532 19.9016 1.32241 20.0417 1.37889C20.5882 1.52024 20.9858 1.6509 21.2311 1.77098C21.4763 1.89113 21.6416 2.00077 21.7257 2.09964C21.3333 2.26926 20.9253 2.34733 20.5048 2.33317C20.2386 2.31905 20.1194 2.32516 20.1475 2.35336C20.1756 2.38164 20.2589 2.41163 20.3991 2.43985C20.9036 2.49641 21.4159 2.43865 21.9345 2.26975C22.3128 2.46763 22.7537 2.65692 23.2583 2.84059C22.9499 2.91128 22.649 3.05535 22.3548 3.26728C22.2426 3.40862 22.2992 3.41467 22.5234 3.28746C22.7477 3.11792 23.0842 3.01276 23.5327 2.97032L23.8901 3.11737C23.8621 3.49894 23.9515 3.88646 24.1618 4.2821L23.933 4.3686L23.2182 4.13507L23.2583 3.64784L22.8608 3.73144C22.4824 3.85866 22.1041 3.74744 21.7257 3.39414C21.4734 3.43657 21.3663 3.33745 21.4084 3.09718C21.5064 2.88525 21.4796 2.77115 21.3255 2.75698L20.7164 2.82041C20.324 2.76392 20.0649 2.64983 19.9387 2.48022C19.8546 2.33894 19.9083 2.16463 20.1046 1.95263C19.7262 1.79722 19.4923 1.62607 19.4012 1.44233C19.3101 1.25866 19.3668 1.11143 19.5699 0.998347C19.7731 0.885331 20.147 0.864303 20.6936 0.934914C20.5674 0.779511 20.5346 0.617296 20.5906 0.447693C20.595 0.394708 20.6323 0.365996 20.7051 0.36407ZM14.6836 0.635074C14.7331 0.633877 14.7822 0.63627 14.8295 0.637866C15.0116 0.680289 15.0593 0.785458 14.9753 0.954997L14.515 1.56908C14.1085 1.62563 13.55 1.85989 12.8423 2.26965C12.1346 2.67948 11.3764 3.22318 10.5636 3.90144L10.2691 4.09172C10.1149 3.9787 9.832 4.02971 9.42563 4.24163C10.7149 3.15357 11.8379 2.32752 12.7909 1.76224C13.4075 1.45139 13.765 1.23212 13.8631 1.10491C13.5547 1.18973 13.1198 1.3835 12.5593 1.68728C11.9987 1.99114 11.0723 2.62341 9.78303 3.5843L8.54498 4.7058C9.24569 3.74492 9.97706 2.94882 10.7408 2.31289C11.5046 1.67703 12.4177 1.18146 13.4828 0.828146C13.9365 0.704529 14.3372 0.639728 14.6836 0.635074ZM14.961 1.71909C15.1607 1.71909 15.3342 1.74621 15.4813 1.8027C15.4813 2.07122 15.3205 2.36856 14.9982 2.69354C14.5076 3.14578 13.8955 3.56327 13.1597 3.94477C12.4239 4.32635 11.4663 4.77697 10.2891 5.29979V5.17294C11.7185 4.09901 13.0441 3.22484 14.2633 2.54652C14.5857 2.34871 14.5559 2.29166 14.1776 2.37642C13.7571 2.58842 13.2954 2.84974 12.7909 3.16059C11.95 3.71174 11.1308 4.25543 10.332 4.79238L10.3521 4.53867C11.9498 3.1256 13.2604 2.21254 14.2835 1.8027C14.5358 1.74619 14.7613 1.71909 14.961 1.71909ZM8.54786 2.41677C8.55459 2.41672 8.55973 2.41478 8.56487 2.41677C8.63493 2.47334 8.65577 2.56641 8.62777 2.69354L7.59845 5.36322C6.92575 6.67745 6.04109 8.05007 4.94801 9.47729C4.48551 9.98604 4.19947 10.3105 4.08737 10.4517C3.97526 10.5931 3.88298 10.7282 3.81292 10.8554L3.89868 10.495L4.29896 9.85785C4.85952 8.93935 5.52986 7.63875 6.31467 5.95712C6.55292 5.46256 6.90439 4.90389 7.36689 4.28209C7.507 3.95711 7.42955 3.96604 7.13528 4.30519C6.44857 5.16721 5.65019 6.53091 4.73927 8.39619L5.13955 7.37848C5.20964 7.15241 5.43306 6.64027 5.81146 5.84183C6.18987 5.04345 6.56218 4.41117 6.92654 3.9448C7.2909 3.47851 7.54122 3.17512 7.68137 3.03377C8.15435 2.62312 8.44438 2.41763 8.54786 2.41677ZM25.9888 2.73103C26.0962 2.72549 26.2108 2.75416 26.3291 2.8204C25.9227 2.82044 25.6843 2.99763 25.6143 3.35087C25.5722 3.577 25.5722 3.85332 25.6143 4.1783C25.4741 3.98049 25.3044 3.80935 25.1082 3.66801C24.7298 3.4702 24.6612 3.49124 24.8995 3.73143C25.1377 3.97169 25.3463 4.22093 25.5285 4.47525C25.2202 4.72964 24.8836 4.84086 24.5192 4.81257C24.3931 4.86912 24.4139 4.90514 24.5821 4.91923C24.7503 4.96166 24.9469 4.94668 25.1711 4.87599C25.143 5.10212 25.1786 5.33032 25.2769 5.55638C25.0807 5.58466 24.8484 5.55439 24.5821 5.4699C24.2738 5.30035 24.1129 5.03298 24.0989 4.66552L24.4792 4.51561C24.6473 4.31781 24.6491 4.17058 24.4879 4.07163C24.3267 3.97275 24.2388 3.71142 24.2249 3.28745C24.379 2.94834 24.7602 2.94834 25.3628 3.28745C25.5458 2.92802 25.7528 2.74318 25.9888 2.73103ZM26.3634 3.18943C26.6929 3.17706 27.0195 3.29388 27.3384 3.54115C27.3522 3.34336 27.482 3.28472 27.7272 3.3624C27.9724 3.44016 28.2003 3.9644 28.4106 4.93942L28.7451 5.06627C28.8572 4.79781 28.9495 4.66556 29.0196 4.66552C29.1317 4.66556 29.242 4.89693 29.3541 5.36322C29.6343 5.61762 29.7684 6.0351 29.7544 6.61445C29.5722 6.85471 29.4739 7.15205 29.4599 7.50531L29.2912 7.12475C29.1931 6.70084 29.1514 6.25338 29.1654 5.78703C29.1512 5.58922 29.1306 5.58922 29.1025 5.78703C29.0604 6.19686 29.0544 6.5452 29.0823 6.82779C28.7039 6.33323 28.2958 5.88866 27.8615 5.49296C27.7773 5.1821 27.7505 4.82771 27.7785 4.43201C27.7365 4.09289 27.7008 4.01481 27.6727 4.19848C27.6447 4.62245 27.6597 5.01891 27.7156 5.38628C27.3933 5.0613 27.015 4.58676 26.5805 3.96496C26.4684 3.76715 26.4178 3.72509 26.4318 3.83811C26.6981 4.34685 26.981 4.7704 27.2753 5.10951C27.5696 5.44869 27.8079 5.71896 27.9901 5.91676C27.6257 5.80374 27.31 5.72724 27.0437 5.69188C26.7774 5.65659 26.5303 5.58297 26.3061 5.4699C26.0958 5.42753 26.1047 5.47855 26.329 5.61981C26.4551 5.70463 26.7099 5.77983 27.0953 5.85045C27.4806 5.92114 27.8425 6.04129 28.1789 6.21083C28.361 6.3239 28.6053 6.6152 28.9137 7.08149L29.1653 7.65233C28.7729 7.4404 28.338 7.29317 27.8615 7.20835C27.385 7.1236 27.105 7.04552 27.0209 6.97483C26.6565 6.81941 26.6148 6.8344 26.8951 7.01807C26.9792 7.10289 27.2785 7.19754 27.79 7.30349C28.3015 7.4095 28.7946 7.6122 29.2711 7.90893L29.314 8.03578C29.2159 8.14886 29.1801 8.30502 29.2082 8.50283L29.354 8.92663C29.2279 8.77121 29.055 8.84037 28.8308 9.13709C28.9148 8.95341 28.894 8.78515 28.7679 8.62968C28.5716 8.33296 28.095 8.01458 27.3383 7.6754L27.2125 7.90893C26.5958 7.71112 26.2087 7.34174 26.0545 6.80473C26.0407 6.63519 26.1894 6.54054 26.4977 6.51931C26.806 6.49813 26.8537 6.40955 26.6435 6.25407C26.2371 6.11279 25.9005 5.8725 25.6342 5.53332C25.452 5.29312 25.452 5.12485 25.6342 5.02591L25.9487 4.93942L26.0974 4.74914L25.9087 4.0082C25.8526 3.62669 25.9569 3.35643 26.2232 3.20096C26.2705 3.19386 26.3163 3.19118 26.3634 3.18943ZM17.2198 3.97361C17.4601 3.9677 17.6996 3.98493 17.9574 4.0111C18.0544 4.00316 18.0861 4.08474 18.1347 4.18119L18.2462 4.93077C18.2671 5.1088 18.279 5.28607 18.5921 5.2998C18.9054 5.31352 19.403 5.37403 19.6701 5.43242C19.9371 5.49082 20.118 5.37837 20.2076 5.19024C20.2076 5.19024 20.4635 4.65607 20.5907 4.38877C20.6212 4.32511 20.6768 4.29611 20.7251 4.30516C21.2054 4.39528 21.5215 4.49964 21.9431 4.71743C21.9994 4.74651 22.0391 4.8176 22.0203 4.93943L21.8974 5.76685C21.8693 5.9576 21.9677 6.08578 22.1633 6.1647C22.5223 6.30957 22.7468 6.43001 22.9839 6.57122C23.2062 6.70366 23.4962 6.83352 23.7444 6.56843L24.4163 5.85056H24.4563L24.3105 6.02065C24.2454 6.09666 24.2104 6.22798 24.2047 6.4041C24.2007 6.51711 24.4159 6.65481 24.5964 6.68375C24.949 6.74029 25.1804 6.72136 25.5057 6.70971L25.2454 7.48524L25.1711 7.69571C25.1458 7.81583 25.0862 7.93595 25.2969 8.05608L25.5514 8.24636L25.9288 8.60674L26.1404 8.79702C26.2704 8.92554 26.3474 9.12651 26.9467 8.79128C26.8908 8.97521 26.8553 9.16052 26.8323 9.35059C26.807 9.56132 26.8363 9.71607 26.9181 9.90124C26.7386 9.98952 26.6309 10.1015 26.6007 10.2616C26.5647 10.4525 26.5956 10.6308 26.6636 10.8123C26.7395 11.0144 26.8846 11.1818 27.001 11.3629C26.8468 11.4053 26.7993 11.4524 26.7265 11.5532C26.6381 11.6757 26.658 11.9428 26.7123 12.1096C26.8312 12.4752 27.2029 12.4852 27.4843 12.6574C27.8513 12.882 28.2023 13.1135 28.4421 13.4704C28.5738 13.6665 28.6729 13.863 28.8052 14.0585C28.8619 14.1423 29.0394 14.303 29.1254 14.3555C29.2226 14.4148 29.4171 14.5025 29.4171 14.5025C29.3523 14.6332 29.3136 14.752 29.2541 14.9581C29.2025 15.1365 29.1963 15.1886 29.1826 15.3732C29.1735 15.4933 29.1826 15.607 29.2255 15.7192C29.2555 15.7942 29.4199 15.9556 29.4199 15.9556C29.4646 16.2403 29.5205 16.5675 29.5514 16.8378C29.5641 16.9486 29.7132 17.14 29.8745 17.1607C30.1025 17.1899 30.2309 17.2032 30.6351 17.2731C30.7295 17.2894 30.8316 17.3877 30.8466 17.5989C30.8799 17.9029 30.851 18.2688 30.8553 18.5734C30.8593 18.7095 30.8478 18.8177 30.6809 18.8472L29.9633 18.9741C29.7476 19.0003 29.6155 19.1153 29.5945 19.2451C29.5715 19.6505 29.5051 20.0472 29.4429 20.4473C29.4172 20.6135 29.4362 20.8015 29.6488 20.9288C29.8302 21.0375 29.869 21.0609 30.2892 21.2315C30.2635 21.3238 30.2722 21.4231 30.3035 21.5198C30.1484 21.462 30.058 21.548 29.989 21.6322C29.9353 21.4351 29.9049 21.3094 29.786 21.2546C29.6464 21.1901 29.4964 21.2514 29.44 21.2834C29.3488 21.3355 29.1884 21.4737 29.1884 21.4737C29.1667 21.2935 29.1459 21.1126 29.1312 20.9317C29.1261 20.8092 29.1039 20.7094 29.217 20.4243C29.2419 20.361 29.3179 20.2899 29.3542 20.1821C29.4878 19.7599 29.4305 19.4367 29.4086 19.0173C29.3995 18.8465 29.3781 18.7161 29.3514 18.5532C29.3312 18.4296 29.3069 18.3091 29.2542 18.1957C29.2221 18.1267 29.1916 18.037 29.1455 17.9766C29.0788 17.8892 29.007 17.7898 28.9025 17.7575C28.7388 17.7068 28.5729 17.7693 28.4536 17.8901C28.0832 17.5666 27.9931 17.584 27.8618 17.6047C27.6935 17.6312 27.561 17.777 27.43 17.9218C27.4529 17.636 27.4383 17.3828 27.4213 17.0655C27.4047 16.7482 27.3498 16.4237 27.2698 16.0363L21.5314 18.2793L26.9581 14.3094H20.2734L26.2261 12.6574C25.6605 11.2745 24.5212 9.98095 23.4699 9.15743C22.4186 8.33391 21.049 7.58201 19.0553 7.50546L19.3556 13.554L17.3513 7.50546L15.3384 13.5857L15.6558 7.45645C13.9651 7.50035 12.1355 8.37444 11.0125 9.24392C9.88948 10.1134 8.85253 11.5921 8.42203 12.6574L14.4721 14.3094H7.73299L13.174 18.285L7.48137 16.0276C7.37484 16.4359 7.32211 16.7039 7.28409 17.0655C6.67578 17.4369 6.45814 18.2766 6.18904 19.2364C5.87863 19.6316 5.62638 19.9809 5.37131 20.3723C5.30391 19.9886 5.26368 19.6046 5.23405 19.2162C5.2202 19.1032 5.16067 19.0183 5.02535 18.9971L4.12471 18.8558C3.93171 18.8432 3.93602 18.6743 3.93029 18.5416C3.92554 18.1811 3.91565 17.7687 3.92159 17.3999C3.92159 17.3296 3.98852 17.2632 4.07309 17.2413C4.31198 17.1797 4.71384 17.1521 4.97088 17.0857C5.16285 17.036 5.19188 16.9741 5.23393 16.8752C5.2545 16.5024 5.31039 16.1349 5.39117 15.771C5.39117 15.771 5.5187 15.3994 5.38247 15.2895C5.20051 15.1426 4.93357 15.0416 4.93357 15.0416C5.23176 14.831 5.4668 14.6473 5.81134 14.3093C6.15593 13.9714 6.50185 13.5854 6.86352 13.0177C7.22523 12.45 7.72725 11.7419 8.0358 11.0573C8.34434 10.3726 8.76044 9.22013 8.69054 8.60671C8.88299 8.28458 8.93849 8.21719 9.19948 7.76197C9.46048 7.30676 9.88003 6.42797 10.1402 5.85054H10.3089L10.9236 6.55111C11.2055 6.87365 11.3731 6.81135 11.647 6.64625C11.9409 6.46906 12.2242 6.32625 12.5247 6.20227C12.6491 6.15093 12.8213 6.04264 12.7792 5.7208L12.682 4.97987C12.6677 4.87158 12.7104 4.81888 12.8278 4.76076C13.1334 4.60945 13.6758 4.39724 13.9114 4.34848C14.0173 4.32658 14.1075 4.3847 14.1402 4.45516L14.489 5.20474C14.5827 5.41546 14.751 5.51351 15.0436 5.44692C15.3366 5.38026 15.6512 5.32641 16.0472 5.29988C16.4432 5.27335 16.4308 5.13399 16.459 4.93085L16.5619 4.17262C16.5492 4.08988 16.6239 3.99059 16.782 4.01117C16.9311 3.99063 17.0756 3.97716 17.2198 3.97361ZM9.83449 4.50984C9.86416 4.50705 9.89066 4.50825 9.91167 4.51559C9.96772 4.65693 9.97971 4.8507 9.9517 5.09795C9.92362 5.34529 9.74193 5.86636 9.40562 6.65767L8.62793 8.18278C8.08133 8.25346 7.56301 8.50874 7.0725 8.94679C7.32476 8.50874 7.63006 8.00712 7.98746 7.44185C8.34482 6.87663 8.90043 6.02955 9.6572 4.89903C9.78331 4.68709 9.78774 4.63451 9.66867 4.74046C9.54953 4.84648 9.23224 5.25057 8.71372 5.95709C8.19517 6.66368 7.5011 7.76 6.63223 9.24373C6.39398 9.61117 5.80418 10.5214 4.86526 11.9768C4.79516 12.0475 4.58373 12.0896 4.23338 12.1037L3.54144 14.1622C3.5975 14.247 3.77325 14.217 4.06755 14.0757C3.9274 14.3442 3.71593 14.4943 3.43567 14.5225L3.26696 14.3928L3.18404 14.0757L3.20422 13.8854L3.37293 13.9056L4.10774 12.0201L3.66743 11.4694L3.77321 11.1523C3.91336 11.4491 4.04449 11.6113 4.17064 11.6395C4.36684 11.258 4.65129 10.7369 5.02266 10.0798C5.39406 9.42274 5.83338 8.75443 6.33789 8.07611L6.31495 7.9089C6.31495 7.81001 6.3655 7.80108 6.46364 7.8858L7.51293 6.36068L6.65233 7.86561C6.79248 8.02109 6.7299 8.12626 6.46364 8.18275C5.56673 9.38393 4.87863 10.5793 4.40216 11.7663L4.61376 11.8298C4.73986 11.8863 4.85901 11.8298 4.97115 11.6597L6.25205 9.37055L7.47294 7.08143C8.04751 6.04989 8.70585 5.24487 9.44862 4.66547C9.61677 4.57011 9.74513 4.5178 9.83449 4.50984ZM12.4535 4.72896V4.79238L12.5793 5.81009C12.5931 5.90903 12.5603 5.97818 12.4764 6.02055C12.126 6.1619 11.7685 6.33909 11.4042 6.55102C11.3341 6.5793 11.2686 6.57328 11.2126 6.53084L10.5636 5.78702L10.372 5.61981L10.5836 5.53332C11.2843 5.25073 11.9069 4.98335 12.4535 4.72896ZM24.8566 5.93694L25.4256 6.00037L25.783 6.29731C25.6848 6.32559 25.6134 6.38872 25.5714 6.4876C24.7866 6.50175 24.4231 6.44471 24.4792 6.3175C24.4371 6.23275 24.5623 6.10655 24.8566 5.93694ZM4.11328 6.45877C4.15992 6.45414 4.19231 6.47787 4.21332 6.53085C4.26937 7.09612 4.26494 7.64427 4.20185 8.17417C4.13879 8.70411 4.00319 9.29145 3.79299 9.94145C3.24643 11.7785 2.9187 13.016 2.80659 13.6519C2.59635 14.4009 2.36407 15.377 2.11181 16.5782C1.99967 15.9988 2.06668 14.7779 2.31193 12.9196C2.55718 11.0614 2.8685 9.73818 3.2469 8.94681C3.42906 8.53704 3.42309 8.47393 3.22673 8.75653C2.37186 10.2262 1.87439 12.3949 1.73424 15.2635C1.70615 16.2668 1.75995 16.9922 1.90006 17.4373C2.04021 17.8824 2.20109 18.1393 2.38325 18.2099C2.48135 18.2665 2.58851 18.2604 2.70062 18.1898C2.78472 17.6528 2.84128 17.2159 2.86933 16.8837C2.89741 16.5517 2.93464 16.1642 2.98369 15.719C3.03274 15.2739 3.1206 14.9029 3.24674 14.6062L3.32965 14.6898C3.1895 15.3398 3.11648 15.7933 3.10948 16.0477C3.10236 16.3021 3.08614 16.5573 3.05802 16.8117C3.02993 17.0661 3.00026 17.5527 2.97226 18.2734C3.14041 17.694 3.32503 17.1414 3.52123 16.6185L4.17024 14.7128L5.01372 12.6976C5.47618 11.7932 6.11965 10.7629 6.94651 9.60413C7.43702 9.02478 7.87191 8.71245 8.25031 8.67003C8.34838 8.81137 8.34838 9.10266 8.25031 9.54071C8.15221 9.97879 7.98247 10.4384 7.74422 10.9188C6.8333 12.6145 5.9515 13.8431 5.09663 14.6062L6.54624 12.2334L7.24102 10.9592C7.50727 10.4787 7.55498 10.3104 7.38682 10.4517C5.97139 12.5997 5.12531 13.9484 4.84501 14.4995C4.56474 15.0506 4.29069 15.5672 4.02443 16.0477C3.75818 16.5281 3.58242 16.9036 3.49837 17.172C3.41427 17.4406 3.23851 17.9212 2.97226 18.6136C2.97226 18.7408 3.05853 19.1072 3.22673 19.7149C3.39488 20.3225 3.53646 20.6785 3.6556 20.7845C3.77471 20.8905 3.78515 21.0062 3.68685 21.1333C3.64481 21.2464 3.67459 21.4596 3.77261 21.7705C3.84271 22.1096 4.00355 22.5752 4.25584 23.1687L4.19295 23.3821C3.92665 22.7886 3.68836 22.1368 3.47815 21.4303C3.47811 21.1477 3.4469 20.9733 3.38377 20.9027C3.32072 20.832 3.25814 20.7014 3.19508 20.5106C3.13199 20.3198 3.03527 20.0346 2.90916 19.6601C2.78302 19.2856 2.69358 18.9507 2.63753 18.6539C2.25916 18.4844 1.98511 18.2004 1.81695 17.7977C1.64876 17.3949 1.49235 16.8678 1.3452 16.2178C1.19804 15.5678 1.13701 14.7898 1.16505 13.8854C1.23511 12.8115 1.38998 11.7662 1.62823 10.7487C1.97858 9.3356 2.69354 7.99294 3.77261 6.72112C3.92151 6.55333 4.03515 6.46649 4.11288 6.45876L4.11328 6.45877ZM30.2376 6.4876C30.3007 6.48046 30.3841 6.50156 30.4892 6.55103C30.6994 6.64999 31.036 7.02541 31.4985 7.67541C31.7227 7.42108 31.9401 7.51127 32.1504 7.9493C32.4026 8.345 32.5009 8.81953 32.4449 9.37062C32.9634 9.08803 33.1451 9.27732 32.991 9.94146C33.2152 10.4078 33.3536 10.7727 33.4027 11.0341C33.4517 11.2956 33.4098 11.5403 33.2769 11.7664C33.1437 11.9925 33.0783 12.1653 33.0853 12.2854C33.0925 12.4055 33.1429 12.401 33.234 12.2738C33.3251 12.1467 33.5112 12.0415 33.7915 11.9567C33.9737 12.3524 34.0511 12.6137 34.0232 12.7409C34.0231 12.8963 33.9264 13.0646 33.7372 13.2483C33.548 13.432 33.4393 13.6513 33.4113 13.9056C33.4113 14.0328 33.4767 14.0988 33.6029 14.0988L33.9803 13.9921C34.1764 13.9639 34.1824 14.12 34.0005 14.4591C33.8042 14.8266 33.6626 15.136 33.5716 15.3904C33.4804 15.6448 33.4343 15.849 33.4343 16.0044C33.4205 16.3295 33.3637 16.5217 33.2656 16.5782C33.2937 16.1684 33.283 15.7404 33.2344 15.2952C33.1853 14.8501 33.0974 14.353 32.9713 13.8018C33.0834 13.7029 33.2383 13.3696 33.4345 12.8043C33.5326 12.5217 33.5117 12.4857 33.3716 12.6976C33.2174 13.1216 33.0626 13.3829 32.9084 13.4818C32.7542 12.959 32.5874 12.3251 32.4052 11.5761C32.6154 11.2229 32.7465 10.7754 32.8026 10.2384C32.8165 9.78625 32.7896 9.75311 32.7197 10.1346C32.6356 10.6716 32.4807 11.0862 32.2565 11.383C32.0743 10.7895 31.8777 10.2337 31.6675 9.71082C31.7376 9.4141 31.7673 9.06575 31.7533 8.67005C31.7395 8.27441 31.7036 8.26231 31.6475 8.62969C31.6475 8.92647 31.6119 9.17887 31.5417 9.39081L31.0786 8.20588L30.7841 7.52549C30.6859 7.29943 30.6531 7.29943 30.6811 7.52549L30.9527 8.41635C30.7425 8.17615 30.5459 7.99895 30.3638 7.88588C30.1815 7.77285 30.1487 7.78178 30.2608 7.90897C30.5691 8.17749 30.8343 8.46589 31.0586 8.77676C31.2407 9.22898 31.4224 9.69459 31.6046 10.175C31.0721 9.72285 30.6997 9.47046 30.4896 9.41391C30.2233 9.31502 30.2233 9.36313 30.4896 9.56094C30.8679 9.80119 31.3177 10.2247 31.8362 10.8324C32.0044 11.327 32.1652 11.8076 32.3194 12.2739C32.0531 12.1184 31.7314 11.809 31.353 11.3426C31.1848 11.1731 31.1788 11.2002 31.3328 11.4263C31.6412 11.8926 31.9986 12.304 32.4051 12.6573L32.7196 13.9489C32.3972 13.6239 31.9771 13.2934 31.4587 12.9543C31.2344 12.813 31.2196 12.8401 31.4158 13.0379C31.8642 13.3629 32.3348 13.8435 32.8254 14.4794C32.9655 14.8751 33.028 15.602 33.0141 16.6618C33.0002 16.9303 32.8034 17.1285 32.4251 17.2557L32.3393 18.2734L31.8161 18.2936C31.5357 17.8979 31.3199 17.5901 31.1728 17.371C31.0256 17.152 30.817 16.8171 30.5437 16.3649C30.2704 15.9127 30.0694 15.5462 29.9433 15.2635C29.8171 14.9809 29.7963 14.6897 29.8804 14.3929C29.9644 14.0961 30.0359 13.8708 30.092 13.7154C30.148 13.5599 30.1391 13.5329 30.069 13.6318C29.9008 13.9285 29.7817 14.2169 29.7116 14.4996L29.2913 13.2916C29.3334 12.8111 29.5865 12.1954 30.049 11.4464C30.1891 11.1921 30.1743 11.1711 30.0061 11.383C29.5857 11.9483 29.3145 12.5219 29.1884 13.1013L28.5365 11.6396C28.5227 11.3711 28.6893 10.8606 29.0397 10.1116C29.2219 9.71596 29.1802 9.73094 28.9139 10.1548C28.6897 10.5788 28.5288 10.9753 28.4307 11.3426C28.2345 10.5372 28.0439 9.85233 27.8618 9.28706L27.7159 9.2438L27.7989 9.47733C27.9109 10.1839 28.0658 10.7968 28.262 11.3196C27.9957 11.0794 27.6949 10.884 27.3585 10.7286C27.1763 10.6297 27.1763 10.6507 27.3585 10.792C27.7649 11.0322 28.0718 11.2725 28.282 11.5127C28.4502 11.9084 28.6051 12.2689 28.7452 12.5939C28.493 12.4102 28.0669 12.197 27.4643 11.9567C27.2401 11.9144 27.2401 11.9415 27.4643 12.0403C28.221 12.3512 28.6888 12.6575 28.871 12.9543L29.2913 14.0757C29.1371 14.0758 28.9346 13.8444 28.6823 13.3781C28.4721 12.9824 27.9477 12.6009 27.1069 12.2335C26.9387 12.1629 26.8613 12.0127 26.8753 11.7866C26.9034 11.6312 27.0642 11.5681 27.3585 11.5963C27.2744 11.3562 27.1761 11.164 27.064 11.0226L26.8953 10.7689C26.6711 10.3026 26.8051 10.0713 27.2957 10.0712C27.1134 9.78863 27.0508 9.56938 27.1069 9.41391C27.0931 9.14544 27.1555 8.88412 27.2957 8.62973C27.3797 8.46018 27.4422 8.28903 27.4843 8.11943C27.7506 8.2749 27.9933 8.40557 28.2106 8.51152C28.4278 8.61753 28.5425 8.8113 28.5565 9.09389L28.4508 9.75122C28.4928 9.87843 28.6059 9.83636 28.7881 9.62436C28.9703 9.37003 29.1163 9.2228 29.2284 9.18038C29.3826 9.25107 29.5314 9.37726 29.6716 9.56094C29.8117 9.82946 29.7612 10.325 29.5229 11.0457L29.2913 11.6396C29.7678 11.0037 30.155 10.7003 30.4493 10.7286C30.5474 10.7992 30.5786 10.942 30.5436 11.161C30.5084 11.3801 30.5084 11.6099 30.5436 11.8501C30.5784 12.0903 30.4968 12.2946 30.3006 12.4641C30.1044 12.6337 29.9732 12.91 29.9032 13.2916C30.3516 12.9524 30.5334 13.0155 30.4493 13.4818L30.1977 14.3929C30.1276 14.831 30.1977 15.0381 30.4064 15.0098C30.6166 14.9816 30.7462 15.0086 30.7953 15.0935C30.8443 15.1783 30.8547 15.3255 30.8265 15.5374C30.7004 15.8342 30.6438 16.0309 30.6578 16.1227C30.6717 16.2146 30.712 16.2926 30.775 16.3562C30.8381 16.4198 30.9737 16.4048 31.1839 16.313C31.3941 16.2211 31.4984 16.2842 31.4984 16.5032C31.4984 16.7223 31.5028 16.9355 31.5099 17.1404C31.517 17.3453 31.5839 17.5451 31.7101 17.7429C31.8081 17.8843 31.9332 17.9773 32.0874 18.0197L32.2762 17.7862C31.9958 17.8003 31.8663 17.6171 31.8873 17.2355C31.9083 16.854 31.9067 16.5567 31.8786 16.3447C31.7665 16.0762 31.6533 15.9261 31.5412 15.8978C31.4291 15.8696 31.1699 15.1637 30.7635 13.7788L31.2038 13.8019C31.5261 14.9889 31.7853 15.6273 31.9815 15.7191C32.1777 15.811 32.27 15.9161 32.256 16.0362C32.2422 16.1564 32.2778 16.4161 32.3618 16.8118C32.614 16.7411 32.7601 16.5069 32.8021 16.1112C32.8722 15.7438 32.7677 15.4614 32.4876 15.2636C32.1933 15.094 32.0235 14.9379 31.9815 14.7965C31.8974 14.5563 31.9898 14.4091 32.256 14.3525C32.4101 14.2678 32.0378 13.9284 31.141 13.3348C30.6785 13.0098 30.5384 12.7185 30.7207 12.4642C30.7907 12.337 30.9203 12.3415 31.1095 12.4757C31.2987 12.61 31.4222 12.6415 31.4783 12.5708C31.5764 12.373 31.4989 12.2363 31.2467 12.1586C30.9944 12.0809 30.8753 11.9923 30.8893 11.8933C30.8755 11.4553 30.8842 11.1579 30.9123 11.0025C30.9404 10.8471 30.9253 10.6638 30.8694 10.4518C30.7152 10.2257 30.4203 10.2407 29.9859 10.4951C30.084 10.2549 30.1093 10.0206 30.0603 9.79449C30.0112 9.56842 29.9024 9.34916 29.7343 9.13716L29.5227 8.47984C29.4666 8.25376 29.5946 8.0976 29.903 8.01279C29.8048 7.57475 29.8048 7.26531 29.903 7.08157C30.001 6.88376 30.0696 6.72156 30.1117 6.59434C30.1327 6.53077 30.1745 6.49467 30.2376 6.4876ZM25.6543 7.06133C25.7104 7.18854 25.8636 7.38389 26.1089 7.65234C26.3542 7.92087 26.6715 8.13408 27.0639 8.28949L26.5378 8.73348C26.4537 8.7759 26.3763 8.76379 26.3062 8.69311C26.0539 8.42465 25.753 8.16332 25.4027 7.90894C25.3326 7.8807 25.3206 7.82365 25.3627 7.73883L25.6543 7.06133ZM15.4385 7.67253L15.0954 14.3092L8.69652 12.5967C9.10411 11.6568 10.1824 10.1003 11.1326 9.40234C12.0827 8.70435 14.0241 7.76205 15.4385 7.67253ZM19.2641 7.69563C20.9985 7.7593 22.3802 8.532 23.3899 9.31011C24.5195 10.2632 25.4721 11.4049 26.006 12.5881L19.61 14.2977L19.2641 7.69563ZM17.3513 8.99009L19.2641 14.7763H25.5085L20.3791 18.5069L22.2919 24.5036L17.3513 20.7326L12.4135 24.5036L14.3262 18.5069L9.19687 14.7763H15.4385L17.3513 8.99009ZM3.62436 11.8299L3.79303 12.0403L3.22693 13.5683C3.32503 12.9324 3.45616 12.3527 3.62436 11.8299ZM4.86522 12.2739C4.57091 12.825 4.34746 13.3206 4.1933 13.7586L4.02463 13.7384L4.46494 12.3603L4.86522 12.2739ZM3.91882 14.586L3.49852 15.7306L3.20402 16.7252L3.30984 15.8776L3.45564 15.2635L3.58432 14.6495L3.91882 14.586ZM29.6086 14.9868C29.6646 15.2553 29.7749 15.5106 29.9431 15.7508C29.873 15.7508 29.794 15.7342 29.7029 15.6989C29.6118 15.6636 29.5508 15.6065 29.5228 15.5288C29.4947 15.4511 29.5267 15.2694 29.6086 14.9868ZM2.78373 15.1367C2.64358 16.2672 2.52443 17.1503 2.42633 17.7862L2.34342 17.6161C2.25932 17.4889 2.40536 16.6629 2.78373 15.1367ZM4.73943 15.2203L5.11684 15.3904C5.2009 15.4328 5.22179 15.5048 5.17974 15.6037C5.09564 15.9853 5.04793 16.3789 5.03393 16.7887C5.03389 16.8735 4.9922 16.9245 4.9081 16.9386L3.91882 17.0856C3.80671 17.1139 3.75015 17.1859 3.75015 17.2989C3.72206 17.7936 3.72206 18.2862 3.75015 18.7808C3.75015 18.9221 3.81557 19.0002 3.94172 19.0143L4.9081 19.1643C4.9922 19.1784 5.03389 19.2265 5.03393 19.3113C5.06202 19.7352 5.10964 20.1317 5.17974 20.4991C5.19358 20.598 5.16075 20.6672 5.07681 20.7096L4.17044 21.1564C4.04429 21.1988 4.0026 21.2979 4.04465 21.4534C4.14275 21.9056 4.27673 22.3231 4.44493 22.7046L4.42475 22.7882C4.2986 22.5904 4.17946 22.3036 4.06735 21.9291C3.95525 21.5546 3.91953 21.3038 3.96158 21.1766C4.07368 20.9788 4.03796 20.7955 3.85576 20.6259C3.71561 20.4847 3.53389 19.8479 3.30968 18.7174C3.32352 18.4207 3.44283 17.9761 3.66708 17.3826C3.89129 16.7891 4.24892 16.0682 4.73943 15.2203ZM32.0246 15.2434L32.362 15.5807C32.1377 15.5101 32.0245 15.3989 32.0246 15.2434ZM29.6315 15.9843L30.046 16.0593C30.2559 16.4126 30.433 16.6982 30.6808 17.0655L29.8602 16.9386C29.7856 16.927 29.7486 16.8533 29.7344 16.7685C29.7035 16.5846 29.6501 16.0636 29.6315 15.9843ZM27.0982 16.3418C27.1745 16.81 27.2012 17.1784 27.1897 17.6161C27.1755 18.1537 27.1309 18.6834 27.0553 19.2133C26.8494 19.1111 26.6587 19.0834 26.4978 19.2681C26.4385 19.3361 26.398 19.4448 26.412 19.6285L26.4549 19.8216C26.4969 19.963 26.5446 20.0831 26.6007 20.182C26.6447 20.2588 26.6875 20.3361 26.7265 20.4155C26.4678 21.1857 26.1936 21.8988 25.9288 22.3846C25.5134 23.1468 25.124 23.6868 24.5421 24.3134L20.9252 18.7174L27.0982 16.3418ZM7.62148 16.3505L13.7773 18.7174L10.1633 24.3134C9.28702 23.5086 8.66123 22.4621 8.26764 21.4332C8.41333 20.8138 8.50799 20.4549 8.58501 19.4843C8.6032 19.255 8.55297 19.0389 8.49925 18.9394C8.41859 18.7899 8.30368 18.7904 8.24762 18.8328C8.30993 18.7374 8.34565 18.6517 8.39632 18.5272C8.47041 18.3451 8.46638 18.2233 8.39632 18.1668C8.26835 18.0803 8.04031 18.1063 7.65008 18.3196C7.5928 18.0133 7.55696 17.7538 7.46135 17.4576C7.47796 17.0498 7.52286 16.7049 7.62148 16.3505ZM7.24121 17.4691C7.39537 17.8789 7.52049 18.6374 7.61863 19.7467C7.71669 20.856 7.71669 21.8548 7.61863 22.745C7.52583 23.89 7.22768 24.6551 6.778 25.628C6.778 24.7519 6.78829 24.04 6.80965 23.4888C6.83061 22.9377 6.85154 22.2063 6.87254 21.2949C6.89351 20.3834 6.95458 19.3486 7.05268 18.1898C7.10874 17.9072 7.09386 17.8413 7.00981 17.9967C6.78556 19.1697 6.65154 20.6745 6.60953 22.5115L6.58935 23.7195L6.54643 25.3743L6.27483 25.0572C6.07863 24.068 5.99232 23.0288 6.02036 21.9406C6.06241 21.1352 6.19042 20.2671 6.40063 19.3344C6.69493 18.1615 6.97492 17.5398 7.24121 17.4691ZM34.1861 17.6882C34.3091 17.6785 34.4221 17.712 34.5264 17.7862C34.6525 17.9982 34.709 18.207 34.6951 18.4118C34.6812 18.6168 34.6095 18.8465 34.4835 19.1009C34.7497 19.1009 34.8897 19.2061 34.9038 19.418C34.7916 19.8985 34.5682 20.2439 34.2319 20.4559C34.5401 20.5124 34.7054 20.6115 34.7265 20.7528C34.7475 20.8942 34.7162 21.0099 34.6321 21.1017C34.548 21.1936 34.3872 21.2761 34.1489 21.3467L33.9173 20.9229C33.9312 20.5838 33.8182 20.2594 33.58 19.9485C33.678 19.8637 33.8329 19.7796 34.0432 19.6948C34.1973 19.6241 34.1704 19.6002 33.9603 19.6285C33.736 19.6709 33.5603 19.7279 33.4342 19.7986H33.3913C33.5174 19.3464 33.72 18.9168 34.0003 18.507C34.0703 18.3233 34.0288 18.3293 33.8745 18.5272C33.6362 18.8663 33.4276 19.2268 33.2455 19.6083C33.1613 19.5235 33.0959 19.3674 33.0539 19.1412C32.9978 18.8728 32.9561 18.8667 32.9281 19.1211C32.9701 19.4461 33.0327 19.6803 33.1168 19.8216C32.8084 20.3021 32.5641 20.4914 32.382 20.3925C32.494 19.7142 32.6429 19.0022 32.8252 18.2533C33.1474 17.9283 33.4275 17.8202 33.6658 17.9332C33.8549 17.7822 34.028 17.7006 34.1861 17.6882ZM27.9703 17.9188C27.9833 17.9172 27.9972 17.9176 28.0103 17.9188C28.0447 17.922 28.081 17.9351 28.1161 17.9563C28.2562 18.0411 28.3456 18.1313 28.3877 18.2302C28.4297 18.3291 28.4923 18.3126 28.5764 18.1783C28.6604 18.0441 28.7319 17.9976 28.788 18.0399C28.844 18.0823 28.9022 18.1665 28.9653 18.2936C29.0283 18.4208 29.0745 18.556 29.1025 18.6973C29.1306 18.8386 29.1558 19.0955 29.1768 19.4699C29.1978 19.8444 29.1515 20.0952 29.0396 20.2224C28.9275 20.3496 28.8653 20.5058 28.8709 20.6894C28.8934 21.4245 28.9555 21.7892 29.0396 21.7821C29.1237 21.7751 29.2264 21.718 29.3455 21.612C29.4646 21.506 29.5689 21.4655 29.6601 21.4938C29.7511 21.5221 29.8033 21.7292 29.8173 22.1107C29.8311 22.4923 29.867 22.5299 29.9231 22.2261C29.9791 21.9223 30.0834 21.7706 30.2376 21.7706C30.3917 21.7706 30.4214 22.1791 30.3234 22.9987C29.7768 23.4933 29.3836 23.9048 29.1454 24.2298C29.0613 23.8765 29.0568 23.6302 29.1339 23.4888C29.211 23.3475 29.2824 23.1869 29.3455 23.0103C29.4085 22.8336 29.4607 22.6759 29.5027 22.5346C29.6148 22.1954 29.594 22.1655 29.4398 22.4481C29.3557 22.6177 29.2827 22.7678 29.2197 22.8949C29.1566 23.0221 29.0807 23.1483 28.9967 23.2755C28.9686 23.0494 28.8792 22.6469 28.725 22.0675C28.5989 21.6718 28.5632 21.6779 28.6193 22.0877C28.7313 22.7519 28.8088 23.3947 28.8508 24.0164C28.6126 23.7621 28.3698 23.5428 28.1246 23.3591C27.8794 23.1754 27.6663 22.9801 27.4842 22.7681C27.33 22.6692 27.3031 22.6813 27.4013 22.8084C27.5694 23.0346 27.8181 23.3004 28.1475 23.6042C28.4768 23.908 28.675 24.1107 28.7451 24.2096C28.8151 24.3085 28.8568 24.3927 28.8709 24.4633C28.7447 24.6329 28.5987 24.8101 28.4305 24.9938C28.3324 24.9373 28.2758 24.8397 28.2619 24.7055C28.248 24.5712 28.2017 24.4721 28.1246 24.4085C28.0475 24.3449 27.8136 24.1512 27.4213 23.8262C27.0709 23.5153 26.9577 23.2329 27.0839 22.9785C26.9858 22.8514 26.8979 22.7041 26.8208 22.5346C26.7437 22.365 26.763 22.1983 26.8752 22.0358C26.9872 21.8733 27.2464 21.9469 27.6529 22.2578C27.7229 22.0176 27.7229 21.7923 27.6529 21.5803C27.5828 21.3683 27.4993 21.1551 27.4013 20.9431C27.219 20.604 27.0433 20.3156 26.8752 20.0753C26.721 19.7504 26.6852 19.5671 26.7694 19.5247C26.8534 19.4823 26.9874 19.5393 27.1697 19.6948C27.52 19.3133 27.7494 19.2036 27.8616 19.3661C27.9737 19.5286 28.0659 19.8005 28.136 20.182C28.2061 20.5636 28.2121 20.9572 28.1562 21.3669L28.0733 21.4534L28.1562 21.537C28.1843 21.6218 28.1515 21.9402 28.0533 22.4913C28.0532 22.6044 28.0861 22.7185 28.1562 22.8315C28.1281 22.662 28.1222 22.5329 28.136 22.4481C28.1499 22.3774 28.1962 22.2136 28.2733 21.9522C28.3504 21.6908 28.3876 21.5407 28.3877 21.5053C28.3876 21.47 28.3311 21.4445 28.219 21.4304C28.3451 21.388 28.4269 21.3294 28.462 21.2516C28.4968 21.1739 28.503 21.0958 28.4822 21.0181C28.4612 20.9404 28.4489 20.7167 28.4422 20.3492C28.4351 19.9818 28.3994 19.7039 28.3364 19.5132C28.2733 19.3224 28.2331 19.1752 28.2191 19.0692C28.2053 18.9632 28.1216 18.9017 27.9675 18.8875C27.8133 18.8734 27.5959 19.0296 27.3156 19.3546C27.4417 18.747 27.5713 18.34 27.7045 18.1351C27.7919 18.0006 27.8798 17.9285 27.9703 17.9188ZM0.616477 18.2475C0.631508 18.2475 0.64654 18.2495 0.662244 18.2532C0.746303 18.2532 0.938471 18.453 1.23978 18.8557C1.54108 19.2585 1.9507 20.1626 2.46925 21.5687C2.98776 22.9747 3.30505 23.8983 3.4242 24.3363C3.5433 24.7744 3.66245 25.1559 3.78159 25.4809C3.9007 25.8059 4.04516 26.1364 4.21332 26.4756C4.46558 26.9843 4.71874 27.3326 4.97104 27.5163C5.30735 27.7566 5.55165 27.7986 5.70581 27.6432L5.13971 26.4756C5.0416 26.2636 4.89271 26.1855 4.69655 26.242C4.3742 26.2561 4.24303 26.0669 4.29912 25.6712C4.3272 25.4168 4.41656 24.9783 4.57072 24.3565C4.87903 23.3108 5.31993 22.2716 5.89453 21.24C5.82444 21.6922 5.79161 22.0737 5.79161 22.3845C5.27305 23.5574 4.89473 24.5036 4.65652 25.2243C4.53037 25.7472 4.53638 26.0025 4.67669 25.9883L4.84536 25.9047L4.71957 25.6078L4.80248 25.3742L5.0541 25.8182L5.20276 25.7144L5.32855 25.9047L5.20276 26.095L6.14916 27.4731L6.37788 27.2828L6.54659 27.4731C6.26629 27.7557 6.15601 27.9389 6.21206 28.0237C6.46431 28.4901 6.69374 28.8655 6.90399 29.1481C7.3244 29.7699 7.66701 29.9442 7.93326 29.6757C8.01736 29.6051 8.12452 29.62 8.25063 29.7189C8.37678 29.8179 8.51677 30.0311 8.67096 30.3561L8.64802 29.8689L7.87033 29.125L7.42998 28.2342C7.06562 27.7113 6.80644 27.3088 6.65229 27.0262C6.49813 26.7436 6.30597 26.4071 6.07476 26.0114C5.84351 25.6157 5.55905 25.1683 5.2227 24.6737L5.28559 24.4401L5.95751 25.2676C6.56012 26.0448 6.98461 26.635 7.22986 27.0377C7.47508 27.4405 7.61954 27.5351 7.66159 27.3232L7.78738 26.9224L7.9761 27.0262L7.85031 27.8536L7.80739 28.1073C7.79355 28.3052 7.8335 28.4237 7.92464 28.4591C8.0157 28.4944 8.09474 28.6251 8.16479 28.8512C8.20684 28.9925 8.42872 29.2853 8.82812 29.7305C9.22753 30.1756 9.64759 30.5482 10.089 30.852C10.5305 31.1558 10.894 31.405 11.1813 31.5958C11.4685 31.7866 11.607 31.9743 11.593 32.158L11.9904 32.2416L11.8875 31.7342L12.139 31.6707C12.2652 31.7555 12.3695 31.9088 12.4536 32.1349C12.8179 32.4175 13.1337 32.6457 13.4 32.8153L12.4764 32.9825L10.8982 32.0311L9.44857 31.0538L9.17409 30.6934C9.08999 30.5945 8.97528 30.5735 8.82812 30.63C8.68097 30.6865 8.56625 30.6024 8.48216 30.3763C8.10379 30.6024 7.71661 30.5182 7.3242 30.1226L6.63227 29.275L5.98041 28.1506L5.74881 27.9805C5.39845 28.2066 4.94868 28.0533 4.40213 27.5163C4.20592 27.3326 3.78587 26.6028 3.14124 25.331C2.28634 23.6918 1.70544 22.4572 1.39713 21.6234C1.17289 20.931 1.02688 20.4925 0.956826 20.3088C0.886731 20.1251 0.857024 20.1206 0.871027 20.2972C0.884872 20.4739 0.989341 20.8704 1.18554 21.485C1.38175 22.0998 1.74804 22.9994 2.2806 24.1864C2.74306 25.1474 3.19884 26.0244 3.6473 26.8157C2.61023 25.6853 1.8596 24.625 1.39713 23.6358C0.934634 22.6607 0.624902 21.7566 0.470748 20.9229C0.400693 20.6261 0.35896 20.171 0.344957 19.5563C0.331112 18.9416 0.339815 18.5977 0.367901 18.5271C0.429214 18.3416 0.512244 18.249 0.616477 18.2475ZM8.12183 18.3282C8.24905 18.319 8.26281 18.4051 8.16471 18.5906L7.76728 19.1845C7.7392 18.9443 7.72353 18.7342 7.68152 18.5646C7.82164 18.4657 7.93564 18.3934 8.06178 18.3368C8.08473 18.3316 8.10364 18.3295 8.12183 18.3282ZM31.0782 18.3369L31.4785 18.9942C31.4084 19.729 31.2832 20.3989 31.1011 21.0065C30.9188 20.8652 30.6805 20.8742 30.3863 21.0296L29.7344 20.7096C29.6502 20.6672 29.6108 20.5975 29.6286 20.4991C29.6949 20.131 29.7453 19.7973 29.7687 19.3719C29.7734 19.2861 29.8192 19.1796 29.9031 19.1643L30.8266 18.9971C30.9527 18.9688 31.0213 18.8847 31.0353 18.7434L31.0782 18.3369ZM32.2762 18.6338C32.08 19.7078 31.8922 20.6119 31.7101 21.3467L31.4156 21.1766C31.6678 20.1592 31.8227 19.3271 31.8788 18.6771C31.9628 18.6488 32.094 18.6338 32.2762 18.6338ZM8.26479 19.0374C8.35811 19.0313 8.39557 19.1803 8.3763 19.4814C8.33426 20.1173 8.15506 21.2952 7.91024 22.0069C7.8964 21.2297 7.88018 20.786 7.8502 20.2858L8.03892 19.7582C8.05277 19.5745 8.01717 19.5656 7.93311 19.7351L7.82448 19.9311L7.7873 19.5448L8.10182 19.1412C8.16748 19.0749 8.22235 19.0402 8.26479 19.0374ZM6.12614 19.6515C5.98868 20.2405 5.92808 20.7294 5.89453 20.9431C5.27788 22.0171 4.80126 23.0863 4.46494 24.1461C4.38084 24.4712 4.31225 24.8587 4.25624 25.3109C4.21415 24.7315 4.30802 23.922 4.53927 22.8834C4.77052 21.8448 5.29928 20.7679 6.12614 19.6515ZM33.2254 20.2944C33.3463 20.2892 33.4434 20.499 33.5171 20.9229C33.475 21.6719 33.6567 22.0263 34.0632 21.9839C34.1332 22.0263 34.1436 22.2216 34.0948 22.5749C34.0457 22.9282 33.931 23.2345 33.7489 23.4888C33.1742 24.153 32.9359 24.5466 33.0341 24.6737C33.1882 24.9422 33.1613 25.2456 32.9512 25.5848C32.6428 25.9663 32.2347 26.3927 31.7303 26.8591C31.8704 27.1417 31.7663 27.382 31.4158 27.5798C31.0093 27.8059 30.5595 28.0013 30.0691 28.1708C30.98 27.4784 31.5429 26.7365 31.7531 25.9451C32.0474 25.6767 32.3066 25.5023 32.5309 25.4176C32.727 25.2904 32.7599 25.2333 32.6338 25.2474C32.3815 25.3464 32.1163 25.5025 31.836 25.7145C32.1023 25.1775 32.2929 24.5978 32.405 23.976C32.9516 23.4391 33.2942 23.0155 33.4343 22.7046C33.6305 22.4079 33.6365 22.3419 33.4545 22.5115C33.2443 22.8648 32.9225 23.2402 32.4881 23.6358C32.6843 23.0282 32.86 22.3494 33.0142 21.6004C33.0842 21.1624 33.0634 21.0843 32.9513 21.3669L32.7397 22.1107C32.6416 21.814 32.5313 21.5858 32.4052 21.4303L32.6768 22.3212C32.6207 22.6745 32.4867 23.1761 32.2766 23.8261C32.0803 23.2609 31.8211 22.7532 31.4989 22.301C31.2045 21.9336 31.1568 21.9276 31.353 22.2808C31.6753 22.7472 31.9405 23.36 32.1507 24.1231C31.9825 24.8014 31.7859 25.3661 31.5618 25.8183C31.3936 25.5639 31.2207 25.3896 31.0385 25.2907C30.8983 25.22 30.8983 25.2621 31.0385 25.4175C31.2207 25.6013 31.3667 25.7845 31.4788 25.9682C31.3106 26.378 31.0887 26.7385 30.8155 27.0493C30.5422 27.3602 30.2726 27.6216 30.0064 27.8335C30.3427 27.3107 30.4558 26.731 30.3437 26.095C30.3437 25.982 30.4316 25.8889 30.6068 25.8183C30.7819 25.7476 30.8401 25.6696 30.7841 25.5848C30.6299 25.2739 30.5553 25.0275 30.5553 24.8438C30.6674 24.7873 30.8343 24.7873 31.0585 24.8438C31.2407 24.7167 31.2243 24.5379 31.0071 24.3047C30.7898 24.0716 30.6514 23.7337 30.5953 23.2956C30.5953 23.0413 30.765 22.9511 31.1014 23.0217C31.2555 23.0077 31.2675 22.8244 31.1415 22.4711L30.7841 21.9839C30.5318 21.4186 30.6389 21.2115 31.1014 21.3669L31.6475 21.7071C32.0119 21.8484 32.1876 21.6021 32.1736 20.9662C32.1736 20.8249 32.2823 20.7933 32.4996 20.871C32.7167 20.9488 32.9149 20.7821 33.0971 20.3723C33.1427 20.3228 33.1851 20.2962 33.2254 20.2944ZM5.07681 20.8969C4.79485 21.4058 4.62183 21.7838 4.47637 22.3125C4.36759 22.0308 4.27594 21.714 4.23618 21.4649C4.22234 21.3943 4.23223 21.3133 4.29912 21.2833L5.07681 20.8969ZM17.3513 21.3496L21.5142 26.539C20.4028 27.1766 18.7044 27.4995 17.3913 27.476C16.0782 27.4525 14.4461 27.1627 13.1683 26.539L17.3513 21.3496ZM27.4122 21.8233C27.22 21.7623 27.0464 21.7208 26.8933 21.774C26.7679 21.8175 26.6337 21.9448 26.6007 22.0242C26.554 22.1367 26.5234 22.2635 26.5378 22.3846C26.5576 22.55 26.6117 22.7465 26.6832 22.8525C26.7026 22.8814 26.7694 22.9987 26.7694 22.9987C26.7178 23.2459 26.8019 23.4968 26.9581 23.6791C27.2173 23.9815 27.5559 24.254 27.8301 24.4777C27.7701 24.7199 27.7263 25.1145 27.7158 25.331C27.7055 25.5475 27.7368 25.6986 27.7587 25.8817C27.6369 26.092 27.5474 26.2392 27.4013 26.4352L26.9896 26.3949C26.9896 26.3949 26.7798 26.2271 26.6693 26.1786C26.5444 26.1239 26.3808 26.1145 26.2462 26.2277C25.9369 26.4877 25.5937 26.7608 25.3198 26.9859C25.1877 27.0784 25.077 27.2091 25.1397 27.3607C25.2437 27.6123 25.4343 27.9997 25.5428 28.2486C25.5725 28.3165 25.6026 28.4104 25.4999 28.4764C25.1197 28.7208 24.8139 28.9427 24.4506 29.1395C24.3451 29.1966 24.3035 29.1889 24.1876 29.0617C24.0097 28.8665 23.8635 28.6763 23.6815 28.4851C23.4844 28.2781 23.3274 28.3611 23.164 28.4534C22.8296 28.6421 22.4435 28.8218 22.1032 28.9983C21.949 29.0548 21.9035 29.2312 21.9145 29.301C21.9625 29.6062 21.9835 29.793 22.0203 30.0996C22.0448 30.304 21.9748 30.3479 21.8888 30.3821C21.4858 30.5423 21.2525 30.6292 20.8194 30.7367C20.6899 30.7689 20.612 30.7473 20.5678 30.6531C20.4213 30.3406 20.2873 30.0461 20.1475 29.7421C20.0749 29.584 19.9741 29.5679 19.8216 29.5951C19.4011 29.694 19.0038 29.6982 18.655 29.7421C18.4819 29.7639 18.3151 29.8184 18.2776 30.0996C18.2571 30.3519 18.2111 30.6041 18.1719 30.8434C18.1331 31.0804 18.0741 31.0527 17.8802 31.0683C17.4959 31.0991 17.1802 31.0911 16.8338 31.0683C16.6212 31.0543 16.6105 31.0372 16.5736 30.8203C16.5232 30.5244 16.5031 30.3282 16.4649 30.0304C16.4266 29.8371 16.2527 29.756 16.0475 29.745C15.7393 29.7284 15.2891 29.6639 14.8066 29.5806C14.708 29.5636 14.5758 29.6712 14.555 29.7421C14.4143 30.0455 14.2912 30.3576 14.1347 30.6531C14.0924 30.7329 13.9919 30.7673 13.8831 30.7367C13.504 30.6303 13.1494 30.5164 12.7851 30.3792C12.6862 30.342 12.6799 30.284 12.6851 30.2293C12.7187 29.8739 12.7726 29.5253 12.8109 29.1885C12.8109 29.1038 12.7631 29.0407 12.6651 28.9983C12.6651 28.9983 12.0895 28.7449 11.9874 28.684C11.8854 28.6231 11.59 28.4512 11.3813 28.3409C11.2476 28.2703 11.1481 28.3875 11.0868 28.4476L10.921 28.6379L10.5836 28.9983L10.5207 29.0617C10.4646 29.1182 10.3812 29.1272 10.2691 29.0848L10.1204 28.9983L9.51139 28.6379L9.23976 28.4419C9.10514 28.3451 9.17298 28.2869 9.23422 28.1709C9.36946 27.914 9.56021 27.6127 9.63738 27.3463C9.63738 27.2067 9.62156 27.1814 9.53157 27.0753C9.46733 26.9996 9.27366 26.8587 9.19707 26.7957C9.05 26.6747 8.95463 26.6012 8.81392 26.4728C8.74751 26.4121 8.63841 26.2943 8.56519 26.2421C8.4587 26.1663 8.40095 26.1147 8.27068 26.1095C8.11309 26.1031 7.9744 26.1744 7.83611 26.2508C7.743 26.3022 7.51301 26.4353 7.51301 26.4353H7.24137L7.12128 26.2335L6.92116 25.9365C7.24655 25.3889 7.51843 24.5873 7.66167 24.0395C7.79782 23.5191 7.85336 23.0638 7.92757 22.4452C8.04612 22.1619 8.11036 21.9986 8.20205 21.7475C8.62876 22.8512 9.40874 23.8709 10.1864 24.5469L13.6288 19.1989L11.5301 25.7981L16.7224 21.834L12.8568 26.5996C14.3064 27.3891 15.8465 27.684 17.3915 27.6865C18.9365 27.6889 20.476 27.4137 21.7975 26.591L17.9833 21.834L23.1756 25.7981L21.0855 19.2249L24.528 24.5498C24.9791 24.1187 25.6658 23.2551 26.0748 22.4532C26.4838 21.6513 26.6089 21.2807 26.8242 20.5994C26.919 20.6962 27.0129 20.849 27.0734 20.9698C27.1625 21.1478 27.2189 21.2899 27.2957 21.4736C27.3576 21.6219 27.414 21.7326 27.4122 21.8233ZM5.79161 23.212C5.77776 23.6784 5.8193 24.159 5.9174 24.6535L5.45422 24.0596L5.79161 23.212ZM30.2376 23.4254L30.2174 23.9529C29.3765 24.9987 28.8493 25.7135 28.6392 26.095C27.9244 27.1831 27.4418 28.0452 27.1896 28.6811C27.0354 29.0344 26.8119 29.3167 26.5176 29.5287C26.2934 29.6418 26.1237 29.7619 26.0115 29.8891C25.9134 30.0728 25.97 30.1209 26.1803 30.0361C26.3204 29.8948 26.4752 29.7897 26.6434 29.719C26.9517 29.5635 27.6101 28.8306 28.6192 27.5164L28.599 26.7725L28.8305 26.3689C28.8167 26.7787 28.8495 27.0069 28.9335 27.0493C29.0175 27.0917 29.1351 26.9731 29.2823 26.6976C29.4294 26.422 29.7885 25.6635 30.3631 24.42C30.2369 24.8016 30.2309 25.1349 30.3429 25.4175C30.0065 25.6578 29.9142 26.0663 30.0684 26.6457L29.3765 27.2828C29.0962 27.5937 29.0039 27.9182 29.102 28.2573C28.7096 28.4693 28.3313 28.7787 27.9669 29.1885C27.6025 29.5983 27.3269 29.9467 27.1378 30.2293C26.9485 30.5119 26.7475 30.6802 26.5373 30.7367C26.2991 30.8497 26.0279 30.7927 25.7196 30.5666L25.6338 31.0971L24.2242 31.9649L23.8897 31.3306C24.8567 30.8219 25.4167 30.3563 25.5709 29.9323C25.7671 29.5791 25.9786 29.2862 26.2028 29.053C26.427 28.8199 26.5879 28.533 26.686 28.1939L26.7062 27.6836L26.6433 27.156C26.8675 27.4104 27.0701 27.4645 27.2523 27.3232C27.5466 26.7721 27.8623 26.26 28.1987 25.7865C28.535 25.3132 28.8924 24.8731 29.2709 24.4633C29.6492 24.0535 29.9713 23.708 30.2376 23.4254ZM28.0303 24.717C28.0441 24.9289 28.086 25.0762 28.1561 25.1609L27.9474 25.5213L28.0303 24.717ZM5.70581 25.9682L6.29481 26.9628L6.23192 27.0897L5.58001 26.095L5.70581 25.9682ZM8.28481 26.3141C8.33892 26.3153 8.38247 26.359 8.41918 26.392C8.67749 26.682 8.98631 26.9359 9.32267 27.1762C9.39272 27.2186 9.41361 27.2817 9.3856 27.3664L8.9424 28.2573C8.91432 28.3704 8.94636 28.4605 9.0282 28.5312C9.42057 28.8279 9.84063 29.0893 10.2891 29.3154C10.3872 29.386 10.4795 29.386 10.5636 29.3154L11.2126 28.5744C11.2686 28.5038 11.3341 28.4977 11.4042 28.5542C11.7685 28.7662 12.126 28.9434 12.4764 29.0847C12.5605 29.1271 12.5933 29.1963 12.5793 29.2952L12.4535 30.3129C12.4396 30.4401 12.502 30.5242 12.6422 30.5666C13.0626 30.7503 13.5124 30.8915 13.9889 30.9904C14.129 31.0045 14.2273 30.9714 14.2834 30.8866L14.7237 29.9093C14.7657 29.8245 14.8321 29.8183 14.9353 29.8458C15.3099 29.9459 15.7068 29.9816 16.1132 29.9958C16.1973 29.9958 16.245 30.0378 16.2591 30.1226L16.4049 31.1173C16.433 31.2303 16.5043 31.2874 16.6165 31.2873C17.1069 31.3156 17.5984 31.3156 18.0889 31.2873C18.2291 31.2874 18.3065 31.2243 18.3205 31.0971L18.4664 30.1226C18.4802 30.0378 18.5281 29.9958 18.6122 29.9958C19.0326 29.9675 19.4258 29.9165 19.7901 29.8458C19.8882 29.8317 19.9597 29.8677 20.0017 29.9525L20.442 30.8635C20.4981 30.9907 20.5964 31.0328 20.7365 30.9904C21.199 30.8915 21.6474 30.7216 22.1032 30.5262C22.2096 30.4807 22.2654 30.4196 22.249 30.2927L22.1232 29.3154C22.1371 29.2165 22.1878 29.1473 22.2719 29.1049C22.5802 28.9777 22.9295 28.8018 23.3212 28.5744C23.392 28.5333 23.4602 28.5348 23.5128 28.5946L24.1847 29.3586C24.2688 29.4293 24.3522 29.4382 24.4363 29.3817C24.8707 29.1132 25.2848 28.8369 25.6772 28.5543C25.7893 28.4836 25.8161 28.3906 25.7601 28.2775L25.3627 27.3665C25.3247 27.2797 25.3706 27.1927 25.4313 27.1474C25.7766 26.8895 26.0307 26.6643 26.3062 26.4122C26.3763 26.3416 26.4553 26.3081 26.5464 26.3315C26.5924 26.3433 26.6597 26.3928 26.7151 26.4353C26.5849 26.4557 26.3318 26.5752 26.3291 26.8591L26.412 27.6432C26.468 27.9683 26.2967 28.3303 25.8973 28.733C25.4979 29.1358 25.2343 29.5067 25.1082 29.8459C25.0381 30.1002 24.767 30.3766 24.2905 30.6733C24.2624 30.5885 24.1493 30.4534 23.9531 30.2697C23.925 30.2132 23.8685 30.1921 23.7844 30.2063C23.3079 30.3334 22.3487 30.757 20.9052 31.4777C20.653 31.6048 20.2955 31.9803 19.8331 32.602H19.0124C18.7882 32.4749 18.5499 32.2977 18.2976 32.0716C18.1154 31.9303 17.7937 31.9813 17.3313 32.2215C16.8968 32.1226 16.4619 32.2127 16.0275 32.4954C15.7612 32.5943 15.5646 32.6153 15.4385 32.5588L14.4092 31.4373C12.279 30.5329 11.1172 30.1304 10.921 30.2293C10.7107 30.3565 10.5559 30.5398 10.4578 30.78C10.2475 30.6811 9.93181 30.4108 9.51139 29.9727L8.85949 29.2318C8.38299 28.6948 8.18639 28.1871 8.27049 27.7067L8.3763 27.0493C8.39015 26.9504 8.3763 26.8724 8.33342 26.8158C8.17923 26.6463 8.03322 26.5472 7.89311 26.5189L8.22761 26.3286C8.24857 26.3174 8.26677 26.3137 8.28481 26.3141ZM26.9124 26.6572C26.9381 26.656 26.9677 26.6604 26.9981 26.6687C27.0976 26.6968 27.1388 26.6955 27.2383 26.7235C27.1788 26.8235 27.1413 26.8993 27.0982 26.9628C27.0079 27.0959 26.948 27.1131 26.8009 26.9859C26.6721 26.8746 26.7322 26.6626 26.9124 26.6572ZM28.3477 27.0493V27.4097L27.8416 28.0036L28.3477 27.0493ZM29.8173 27.3463L29.7544 27.7268C29.5722 27.9105 29.4887 27.8956 29.5028 27.6836L29.8173 27.3463ZM6.79802 27.7902L7.34699 28.5744L7.66151 29.1481L7.76728 29.4653C7.57108 29.3664 7.40134 29.2191 7.26123 29.0213L6.9267 28.5744L6.5693 28.0872L6.79802 27.7902ZM4.34769 28.9665C4.36747 28.9633 4.39338 28.9677 4.42491 28.9781C5.01352 29.1335 5.28468 29.3317 5.24263 29.5719C5.06043 29.8828 4.97701 30.2344 4.99101 30.63L5.01395 31.7342C4.27119 31.2396 3.47 30.8011 2.61514 30.4196C2.7132 30.4054 2.82637 30.3949 2.95252 30.3879C3.07863 30.3808 3.16205 30.3343 3.2041 30.2495C3.24615 30.1647 3.1685 30.1137 2.97253 30.0995C2.53808 30.0996 2.25806 30.1356 2.13191 30.2062C2.03381 30.3193 2.05469 30.4394 2.1948 30.5666C3.20386 31.0753 4.09449 31.5859 4.8653 32.0946C6.08453 32.8718 7.03176 33.5057 7.70447 34.0003C8.36313 33.9862 9.28663 33.896 10.4779 33.7264L12.2849 33.3862C13.0276 33.2449 13.7991 33.1247 14.598 33.0258C14.8922 32.9834 15.2646 32.9563 15.713 32.9422C16.1614 32.9281 16.5755 32.8921 16.9539 32.8355C17.3183 33.528 17.5417 34.1347 17.6258 34.6576C17.6679 34.9261 17.6321 35.0762 17.52 35.1045C15.8523 35.7262 14.6548 36.1182 13.926 36.2807C13.1973 36.4433 12.5389 36.586 11.9504 36.7132C10.4788 36.9817 9.02812 37.2009 7.59869 37.3705C7.23429 37.2716 6.18275 36.7279 4.44501 35.7387C3.21174 34.9898 2.35081 34.383 1.86031 33.9167C1.29971 33.309 1.0734 32.9425 1.18554 32.8154C1.5499 32.2077 1.79706 31.6701 1.9232 31.2038C1.97926 31.0059 1.99124 30.8498 1.96324 30.7367C1.80908 30.2563 1.92222 30.0099 2.30062 29.9958C3.23958 29.9392 3.87103 29.9243 4.19338 29.9525C4.33353 29.9666 4.42297 29.9246 4.46502 29.8257L4.78239 29.1885L4.59081 29.1049L4.31917 29.5287L4.299 29.0415C4.299 28.9973 4.3149 28.972 4.34769 28.9665ZM30.4492 29.0847V29.5489L30.0489 29.4451L30.0918 29.6556C30.1758 29.811 30.3307 29.9162 30.555 29.9727L31.69 30.0361L32.1933 30.0159C32.7819 30.0301 33.0679 30.1757 33.0539 30.4513C33.04 30.7268 33.0606 30.9837 33.1168 31.2239C33.2148 31.8316 33.4532 32.4113 33.8316 32.9624C33.7474 33.2167 33.5657 33.5141 33.2855 33.8532L32.1933 34.574C31.2543 35.2523 29.9793 36.1354 28.3677 37.2235C27.2185 37.2518 25.8364 37.1587 24.2248 36.9467C23.0615 36.7913 21.724 36.4939 20.2104 36.0559L19.8759 35.9722L20.0217 35.8252C20.26 35.5143 20.3895 35.3056 20.4106 35.1996C20.4316 35.0936 20.3959 34.8533 20.3048 34.4788C20.2137 34.1044 19.9529 33.6614 19.5185 33.1526V33.0258L19.8331 32.9826C20.7019 33.0391 21.475 33.1532 22.1547 33.3227C22.8344 33.4923 23.6431 33.6485 24.5821 33.7898C25.493 33.9594 26.1542 34.0601 26.5607 34.0954C26.9671 34.1307 27.274 34.1141 27.4842 34.0435C27.8625 33.8881 28.6401 33.3084 29.8173 32.305C30.9524 31.4431 31.9116 30.8423 32.6965 30.5032C32.9347 30.3619 32.9451 30.2612 32.7281 30.1976C32.5109 30.134 32.1876 30.0995 31.7531 30.0995C31.613 30.2126 31.625 30.3057 31.7932 30.3763C31.9893 30.3622 32.1294 30.3775 32.2135 30.4196C31.2745 30.9142 30.491 31.4068 29.8604 31.9014C29.9164 31.5764 29.9641 31.0206 30.0062 30.2293C29.9919 29.9749 29.9087 29.7467 29.7546 29.5489C29.6565 29.4076 29.7906 29.2814 30.1549 29.1683L30.4492 29.0847ZM11.204 30.4916C11.2932 30.4896 11.3932 30.5136 11.5071 30.5666L12.5164 31.0538L14.2405 31.7112C14.6609 32.1633 14.9201 32.4757 15.0182 32.6452C14.6678 32.6876 14.2895 32.7147 13.8831 32.7289L12.9796 32.0946C12.6152 31.6565 12.35 31.3381 12.1819 31.1403C12.0137 30.9425 11.8528 30.8013 11.6987 30.7165C11.4744 30.5893 11.2898 30.5473 11.1497 30.5897C11.0516 30.6179 10.9473 30.7591 10.8352 31.0135L10.7923 30.9702C10.8483 30.73 10.9362 30.5828 11.0553 30.5262C11.1 30.505 11.1505 30.4929 11.204 30.4916ZM23.6672 30.5752C23.7171 30.5725 23.7624 30.6001 23.8044 30.6531L23.9731 30.8635L23.7415 31.0135C23.6014 31.1265 23.4285 31.1746 23.2183 31.1605C23.0361 31.1464 22.7889 31.2079 22.4806 31.3421C22.1723 31.4764 22.0054 31.6612 21.9774 31.9014C21.9213 32.071 21.8439 32.1791 21.7458 32.2214C21.4375 32.391 21.1575 32.5383 20.9052 32.6654L20.2533 32.6222L20.5907 32.158C20.7589 31.9602 20.9734 31.783 21.2397 31.6275C22.4309 31.034 23.2233 30.6886 23.6157 30.5897C23.6331 30.5825 23.6505 30.5762 23.6672 30.5752ZM11.4213 30.8693C11.4625 30.8705 11.5044 30.8821 11.55 30.9068L11.8874 31.2037L12.0332 31.4372C11.837 31.5362 11.6404 31.5362 11.4442 31.4372L11.1097 31.1807C11.1938 30.9687 11.2978 30.8667 11.4213 30.8693ZM2.59504 31.2239L2.48923 31.3738C2.55932 31.4162 2.58017 31.4704 2.55216 31.541L1.64864 32.9422C1.60659 32.9704 1.55002 32.9616 1.47997 32.9191L1.37704 33.069L1.96316 33.4496L2.06893 33.3025C2.01288 33.2743 1.99801 33.2322 2.02605 33.1757L2.34342 32.6856L2.36359 32.7087C2.33551 33.0902 2.34579 33.3997 2.39524 33.6399C2.44429 33.8801 2.60358 34.0933 2.86988 34.277L2.90991 34.1704C2.75572 34.0573 2.68717 33.811 2.70117 33.4294C2.72926 33.2033 2.72926 33.0322 2.70117 32.9191C2.89738 33.0605 3.09552 33.0799 3.29876 32.9739C3.50197 32.8679 3.63151 32.6802 3.68761 32.4117C3.74366 32.1432 3.63935 31.909 3.37309 31.7112L2.59504 31.2239ZM23.1611 31.5151C23.1935 31.5163 23.225 31.5171 23.2583 31.5209C23.3704 31.535 23.3793 31.7393 23.2813 32.1349C23.1971 32.3328 22.7831 32.5731 22.0404 32.8557L21.3456 32.7721L22.0833 32.3483L22.272 32.6452H22.3749L22.272 32.305C22.2019 32.0648 22.2854 31.8755 22.5236 31.7342C22.7198 31.5858 22.9327 31.512 23.1611 31.5151ZM23.6386 31.541L23.9331 32.0946L23.5328 32.2618C23.5888 32.1205 23.6246 31.8802 23.6386 31.541ZM2.97245 31.7111C3.18266 31.8242 3.30624 31.9338 3.34128 32.0398C3.37649 32.1458 3.35117 32.2854 3.26696 32.455C3.18286 32.6245 3.0681 32.7192 2.92099 32.7404C2.77384 32.7616 2.62336 32.679 2.46925 32.4953L2.97245 31.7111ZM31.5214 31.838L31.8359 33.8734C31.8497 33.9441 31.8141 34.0161 31.7301 34.0867L31.773 34.2136L32.362 33.81L32.2991 33.7264C32.1589 33.8112 32.0874 33.8112 32.0875 33.7264L32.0046 33.3862L32.5707 33.0056L32.8652 33.1959C32.9212 33.2383 32.9092 33.2864 32.8252 33.3429L32.9081 33.4928L33.58 33.046L33.4742 32.9191C33.4181 32.9474 33.3435 32.9474 33.2455 32.9191L31.5214 31.838ZM4.13041 32.1984L4.06751 32.305C4.16561 32.3474 4.18646 32.4195 4.13041 32.5184L3.22693 33.9166C3.18488 34.0014 3.11941 34.0164 3.03535 33.9599L2.97245 34.0867L4.02463 34.7642L4.42491 34.5509L4.36201 34.4471C4.19382 34.5178 3.93464 34.4308 3.58432 34.1905L4.00462 33.5361L4.1933 33.6629C4.2634 33.7053 4.26937 33.7745 4.21348 33.8734L4.33931 33.9599L4.63381 33.4727L4.528 33.4063C4.45794 33.5053 4.38935 33.5352 4.31929 33.4928L4.13057 33.366L4.55086 32.6856C4.81716 32.841 4.95715 32.9972 4.97119 33.1526L5.07697 33.1959L5.15988 32.8557L4.13041 32.1984ZM17.9831 32.3915L18.2347 32.4117L18.452 32.6164L17.9831 32.3915ZM17.0196 32.455C17.2333 32.4479 17.4634 32.481 17.7087 32.5587L18.2147 32.7721L18.4892 32.6539L18.635 32.7923C19.3497 33.5695 19.7533 34.1011 19.8445 34.3837C19.9355 34.6663 19.946 34.9397 19.8761 35.2082C19.6098 35.5615 19.4192 35.6906 19.3071 35.5917L19.2014 35.2515L18.6352 35.9722L18.1721 36.2692C17.9618 36.4529 17.7444 36.5249 17.5202 36.4825L16.7853 36.1222L17.1628 35.929L17.2685 36.0155C17.1984 36.2275 17.282 36.1975 17.5202 35.929L18.1721 35.2947C18.2141 34.9132 18.1218 34.4221 17.8976 33.8215C17.6733 33.2209 17.5064 32.841 17.3944 32.6856C17.3663 32.5584 17.0446 32.5313 16.4279 32.602C16.6101 32.5101 16.8059 32.462 17.0196 32.455ZM30.6579 32.455L30.1318 32.7923L30.2176 32.9422C30.3016 32.8998 30.3911 32.9208 30.4892 33.0056L30.8695 33.6399L29.397 33.2795L28.9967 33.5995L29.0625 33.7033C29.1746 33.6751 29.2849 33.6961 29.397 33.7667L30.1547 34.9776C30.1828 35.0624 30.1618 35.1315 30.0918 35.1881L30.1747 35.2947L30.6808 34.9776L30.595 34.8709C30.5109 34.9133 30.4423 34.9044 30.3863 34.8479L29.8173 33.9166L31.69 34.3606L30.7008 32.9191C30.6447 32.7919 30.6656 32.6718 30.7637 32.5588L30.6579 32.455ZM31.8559 32.5386L32.382 32.8788L31.9817 33.1526L31.8559 32.5386ZM10.4578 32.5587L11.4242 33.1959L10.1633 33.4063L10.4578 32.5587ZM24.625 32.7087C24.681 33.0054 24.8002 33.2817 24.9824 33.5361C24.618 33.4796 24.0311 33.3715 23.2183 33.2161L23.9531 32.9624C24.3455 33.0472 24.5689 32.9636 24.625 32.7087ZM5.43421 33.0258L5.34841 33.1526C5.4185 33.195 5.43935 33.2521 5.41134 33.3227L4.48781 34.7441C4.43175 34.8006 4.37519 34.8066 4.31913 34.7642L4.23333 34.8911L4.8452 35.2717L4.9081 35.1448C4.83804 35.1024 4.82317 35.0482 4.86522 34.9776L5.17974 34.4875L5.28551 34.5942C5.55177 34.8202 5.80051 34.8728 6.03176 34.7527C6.26301 34.6326 6.40743 34.4433 6.46352 34.1819C6.51954 33.9205 6.42124 33.6907 6.16902 33.4928L5.43421 33.0258ZM16.0275 33.046L15.4813 35.0814C15.4393 35.1803 15.3827 35.2373 15.3127 35.2515L15.3328 35.3783L15.9218 35.2515V35.1246C15.8237 35.1387 15.776 35.1238 15.776 35.0814L15.9018 34.6374L16.5108 34.4875L16.6995 34.8075C16.7276 34.9064 16.6948 34.9695 16.5966 34.9978L16.6168 35.1246L17.3316 34.9545V34.8277C17.2194 34.8277 17.142 34.7917 17.1 34.721L16.0275 33.046ZM14.4578 33.4035C14.4107 33.4015 14.3655 33.4035 14.3205 33.4063C14.0205 33.4239 13.77 33.532 13.5686 33.7263C13.3163 34.0372 13.2806 34.4757 13.4628 35.0409C13.6309 35.5355 13.9944 35.7398 14.555 35.655C14.8353 35.5985 15.0527 35.4933 15.2069 35.3379L15.144 34.8276L15.0182 34.891C15.0182 35.1595 14.9347 35.3367 14.7665 35.4215C14.2901 35.5628 13.9683 35.3285 13.8002 34.7209C13.7301 34.085 13.891 33.6975 14.2834 33.5562C14.5636 33.5138 14.7662 33.6339 14.8924 33.9166L14.9753 33.8964L14.9124 33.4726C14.7508 33.4328 14.599 33.4082 14.4578 33.4035ZM5.81162 33.513C6.00779 33.6119 6.12096 33.726 6.149 33.8532C6.17709 33.9804 6.14307 34.1171 6.05177 34.2655C5.96067 34.4139 5.85039 34.498 5.71728 34.5192C5.58413 34.5404 5.43967 34.4817 5.28551 34.3404L5.81162 33.513ZM20.7794 33.6629L20.7565 33.81C20.8265 33.8524 20.8562 33.9244 20.8423 34.0233L20.6307 35.4418C20.6026 35.5265 20.534 35.5626 20.4219 35.5484L20.399 35.7387L21.1367 35.8454L21.1569 35.6551C21.0587 35.641 21.017 35.59 21.0311 35.5052L21.2398 34.0867C21.2536 33.9737 21.3192 33.9227 21.4314 33.9368L21.4714 33.7898L20.7794 33.6629ZM13.2312 33.6831L12.5392 33.81L12.5793 33.9801C12.6634 33.9659 12.7199 33.993 12.748 34.0637L12.9796 35.5686C12.9796 35.6534 12.9378 35.7104 12.8538 35.7387L12.8739 35.9088L13.5487 35.782L13.5258 35.6118C13.4137 35.6401 13.3571 35.6041 13.3571 35.5052L13.1255 33.9801C13.1255 33.8953 13.176 33.8532 13.2742 33.8532L13.2312 33.6831ZM6.54643 33.7264L6.5064 33.81C6.56245 33.8806 6.5833 33.9648 6.5693 34.0637L6.25193 36.249L7.87021 34.8479C7.94027 34.7913 8.01171 34.7853 8.0818 34.8277L8.1447 34.7441L7.68152 34.4471L7.64149 34.5307C7.71155 34.5872 7.71756 34.6503 7.66167 34.721L6.75818 35.5283L6.96689 34.2568C6.98073 34.1862 7.03746 34.1712 7.13556 34.2136L7.17848 34.1271L6.54643 33.7264ZM16.0904 33.7667L16.3849 34.2972L15.9217 34.4039L16.0904 33.7667ZM21.7258 33.8301L21.5771 34.2568L21.6829 34.3203C21.767 34.1648 21.9547 34.1199 22.249 34.1905L21.9774 35.6753C21.9354 35.7742 21.8579 35.8163 21.7458 35.8021L21.7257 35.952L22.4605 36.0789L22.4806 35.929C22.3825 35.9007 22.3408 35.8376 22.3549 35.7387L22.6064 34.2568C22.9007 34.2851 23.0704 34.3903 23.1125 34.574L23.2383 34.5509L23.2585 34.0867C22.7399 34.0302 22.2303 33.9432 21.7258 33.8301ZM11.9503 33.9599L11.2555 34.0867L11.2757 34.2338C11.3737 34.2196 11.4392 34.2496 11.4672 34.3203L11.6988 35.8252C11.6988 35.9241 11.6542 35.9872 11.5701 36.0155L11.5931 36.1625L12.6853 35.952L12.7911 35.4418L12.6653 35.4216C12.5952 35.6335 12.4135 35.7687 12.1192 35.8252L11.8447 34.2568C11.8309 34.172 11.8783 34.121 11.9905 34.1069L11.9503 33.9599ZM10.6779 34.1473C10.6415 34.1457 10.6038 34.1465 10.5636 34.1501L9.72009 34.2769L9.74304 34.424C9.82714 34.424 9.87484 34.46 9.88889 34.5306L10.0576 36.1221C10.0576 36.221 10.0098 36.2751 9.91175 36.2893V36.4392L10.5837 36.3325C11.2143 36.2619 11.4735 35.9855 11.3614 35.5051C11.3193 35.2649 11.2001 35.1237 11.004 35.0813C11.1581 34.9682 11.2147 34.791 11.1726 34.5508C11.0991 34.2911 10.9339 34.1581 10.6779 34.1473ZM24.0989 34.1501L23.0267 35.952C22.9706 36.0226 22.9021 36.0557 22.818 36.0557L22.7979 36.1855L23.4698 36.3123V36.1422C23.3436 36.114 23.293 36.0569 23.3211 35.9721L23.4269 35.802L24.1617 35.9087L24.2246 36.1624C24.2108 36.2472 24.1568 36.2832 24.0587 36.2691L24.0358 36.3959L24.8993 36.4824V36.3527C24.8151 36.3527 24.7586 36.3046 24.7306 36.2057L24.0989 34.1501ZM28.0932 34.1501L28.4106 36.1855C28.4106 36.2844 28.375 36.3596 28.3048 36.4161L28.3477 36.566L28.9338 36.1422L28.8509 36.0557C28.7387 36.1123 28.6762 36.1062 28.6622 36.0356L28.5764 35.7184L29.1454 35.3379L29.397 35.5051C29.453 35.5475 29.447 35.5896 29.3768 35.6319L29.4826 35.802L30.1116 35.3581L30.0058 35.2312C29.9497 35.2595 29.8872 35.2655 29.8171 35.2514L28.0932 34.1501ZM10.5578 34.3375C10.6897 34.3436 10.7678 34.458 10.7923 34.6805C10.8061 34.8784 10.7437 34.9985 10.6036 35.0409L10.3091 35.0813L10.2262 34.3836L10.4978 34.3403C10.5188 34.3368 10.539 34.3367 10.5578 34.3375ZM9.10253 34.3807C9.06574 34.3791 9.02559 34.3799 8.98532 34.3835L8.16471 34.4873L8.18765 34.6372C8.27175 34.6372 8.31946 34.6732 8.33346 34.7439L8.48216 36.3324C8.48216 36.4314 8.43157 36.4884 8.33346 36.5025V36.6496L9.02824 36.5458C9.64486 36.5034 9.91005 36.2271 9.82599 35.7184C9.7839 35.4781 9.65874 35.343 9.44857 35.3147C9.60269 35.2017 9.6593 35.0245 9.61725 34.7843C9.53141 34.5246 9.36001 34.3916 9.10253 34.3807ZM25.234 34.4038V34.5941C25.3321 34.5941 25.3767 34.6511 25.3627 34.7642L25.2769 36.2057C25.2488 36.3329 25.1863 36.3959 25.0882 36.3959L25.068 36.5228L26.5377 36.6727L26.6863 36.1624H26.5805C26.4123 36.3603 26.1114 36.4383 25.6771 36.3959L25.7828 34.8074C25.7967 34.7085 25.8445 34.6575 25.9286 34.6575L25.9488 34.4672L25.234 34.4038ZM27.0439 34.5508V34.7209C27.1279 34.7492 27.1697 34.8123 27.1697 34.9112L27.1068 36.3325C27.0787 36.4173 27.0073 36.4594 26.8952 36.4594L26.875 36.6497L27.6099 36.7131L27.6328 36.5228C27.5487 36.5087 27.4981 36.4606 27.4841 36.3758L27.547 34.9544C27.5751 34.8555 27.6376 34.7985 27.7357 34.7843L27.7587 34.6171L27.0439 34.5508ZM9.02531 34.5681C9.15716 34.5743 9.23525 34.6886 9.25977 34.9112C9.27362 35.109 9.19636 35.2292 9.0282 35.2716L8.77658 35.3148L8.69082 34.6171L8.96527 34.5739C8.98623 34.5703 9.00649 34.5672 9.02531 34.5681ZM28.4106 34.8478L28.9338 35.2082L28.5364 35.4849L28.4106 34.8478ZM23.9331 34.9343L24.1418 35.7185L23.5328 35.632L23.9331 34.9343ZM10.6265 35.2082C10.7946 35.194 10.8989 35.3142 10.941 35.5685C10.983 35.8794 10.9054 36.0566 10.7094 36.099L10.4349 36.1423L10.332 35.2514L10.6265 35.2082ZM9.07108 35.4215C9.23924 35.4074 9.34355 35.5215 9.3856 35.7617C9.42761 36.0726 9.36503 36.2558 9.19687 36.3124L8.90237 36.3527L8.7966 35.4648L9.07108 35.4215ZM14.4521 36.6727C14.6622 36.814 14.6534 36.9763 14.4291 37.16C13.8405 37.7393 13.1762 38.2891 12.4334 38.8119L12.1818 38.7283C12.6162 38.4598 13.2328 38.0213 14.0317 37.4137L14.3891 37.01L14.1975 36.9899C13.9312 37.2301 13.6288 37.4749 13.2854 37.7221C12.9421 37.9694 12.5445 38.2053 12.096 38.4314L11.487 38.7283L11.5928 38.8552L12.056 38.9186C12.3222 39.0882 12.4326 39.2564 12.3905 39.426C12.2504 39.638 12.0269 39.6679 11.7186 39.5125L11.2125 39.2357C11.0303 39.052 10.8486 38.9258 10.6664 38.8552L10.4577 38.6851L10.5406 38.4746L11.1725 38.7283H11.3612L11.2554 38.3478L12.0131 37.8807C12.2093 37.8101 12.2927 37.6899 12.2647 37.5203L12.3276 37.1369C12.6499 37.2076 13.0014 37.155 13.3798 36.9783C13.7582 36.8017 14.1157 36.701 14.4521 36.6727ZM20.8823 36.9149C21.0948 36.9161 21.3892 36.9675 21.7658 37.0735L23.5528 38.4112C23.1744 38.4112 22.9361 38.4533 22.838 38.538H22.5435C22.1371 38.2554 21.8153 37.9941 21.5771 37.7539L20.5907 36.9697C20.659 36.9326 20.7549 36.9142 20.8823 36.9149ZM21.4942 38.3045L21.9145 38.6649C21.8304 38.7214 21.7232 38.7004 21.5971 38.6015C21.471 38.5026 21.4381 38.4034 21.4942 38.3045ZM13.5257 38.4746L13.5686 38.5784L13.3999 38.8119L13.2112 38.9186L13.0425 38.8119L13.0627 38.7283L13.4201 38.4948L13.5257 38.4746ZM23.4899 38.6418L23.996 38.7283L24.3305 38.6418L24.5621 38.6851L24.4792 38.7918L23.9331 38.9618C23.6948 39.1738 23.4119 39.315 23.0896 39.3857L22.7322 39.3222L22.6493 39.0685C22.7334 38.9413 22.8421 38.8483 22.9753 38.7918C23.1084 38.7352 23.2797 38.6842 23.4899 38.6418Z" fill="#051D32"/>
</svg>
