<svg width="27" height="39" viewBox="0 0 27 39" fill="none" xmlns="http://www.w3.org/2000/svg">
<g clip-path="url(#clip0_101_189)">
<path d="M8.70124 38.6783C8.62767 38.4951 8.56747 38.3407 8.56747 38.3353C8.56747 38.3298 8.54923 38.2849 8.52696 38.2353C8.50468 38.1858 8.48444 38.1356 8.48195 38.1239C8.4793 38.1122 8.43935 38.0074 8.39276 37.8909C8.17738 37.3523 8.09467 37.1429 8.02566 36.9614C7.98474 36.8537 7.93763 36.7342 7.92098 36.6958C7.90434 36.6574 7.89121 36.6238 7.89178 36.6212C7.89222 36.6185 7.86733 36.5551 7.83616 36.48C7.80496 36.4049 7.7771 36.3294 7.77423 36.3122C7.77158 36.295 7.76469 36.2767 7.75945 36.2716C7.75417 36.2664 7.73043 36.2119 7.70666 36.1504C7.68288 36.0889 7.65208 36.0134 7.6382 35.9826C7.60958 35.9191 7.58698 35.8608 7.5804 35.8334C7.57596 35.8153 7.43461 35.4605 7.40204 35.386C7.39308 35.3655 7.317 35.1725 7.23298 34.9572C7.14896 34.7419 7.04909 34.486 7.01106 34.3886C6.97303 34.2912 6.93379 34.1989 6.92387 34.1835C6.91393 34.1682 6.90563 34.1472 6.90532 34.1369C6.90505 34.1266 6.86516 34.0176 6.81673 33.8946C6.76827 33.7715 6.69807 33.5911 6.66071 33.4937C6.62335 33.3963 6.58113 33.2913 6.56686 33.2604C6.50266 33.1213 6.49988 33.1041 6.53837 33.0836C6.55834 33.073 6.65684 33.0476 6.75732 33.0271C6.8578 33.0066 6.97014 32.9817 7.00696 32.9717C7.14087 32.9357 8.00182 32.7303 8.06304 32.7198C8.09765 32.7138 8.17245 32.6964 8.22928 32.681C8.28611 32.6655 8.35374 32.6489 8.37957 32.6439C8.4054 32.6389 8.54066 32.606 8.68015 32.5707C8.81964 32.5354 8.95631 32.5026 8.98386 32.4979C9.01142 32.4931 9.13822 32.464 9.26566 32.4332C9.88119 32.2844 10.5339 32.1302 10.7373 32.0854C10.8613 32.0582 10.9707 32.0283 10.9806 32.0191C10.9904 32.0099 11.0176 32.0023 11.041 32.0023C11.0873 32.0023 11.5123 31.9046 11.6484 31.8626C11.6949 31.8483 11.7626 31.8322 11.7987 31.8269C11.8349 31.8216 12.0069 31.783 12.1809 31.741C12.355 31.699 12.508 31.6672 12.5209 31.6703C12.5357 31.6739 12.429 31.9077 12.2292 32.3092C12.0559 32.6575 11.9183 32.949 11.9233 32.9571C11.9283 32.9651 11.9251 32.9717 11.916 32.9717C11.8893 32.9717 11.6621 33.4538 11.6742 33.4849C11.6803 33.5005 11.7255 33.5299 11.7748 33.5501C11.8241 33.5704 11.8796 33.5956 11.8981 33.6062C11.9166 33.6168 11.9389 33.6211 11.9476 33.6157C11.9564 33.6103 11.974 33.6184 11.9867 33.6337C11.9995 33.649 12.0202 33.6615 12.0327 33.6615C12.0452 33.6615 12.1477 33.6997 12.2605 33.7464C12.3733 33.7931 12.5797 33.8734 12.7192 33.9247C12.8587 33.976 13.0024 34.0294 13.0386 34.0432C13.2816 34.1363 13.3634 34.1661 13.3916 34.1715C13.4093 34.1751 13.4449 34.1863 13.4707 34.1966C13.6007 34.2488 14.0364 34.3886 14.069 34.3886C14.0895 34.3886 14.1091 34.395 14.1126 34.4028C14.1187 34.4166 14.3437 34.4939 14.4194 34.5083C14.4401 34.5122 14.4908 34.5276 14.5321 34.5426C14.6162 34.5731 14.8618 34.648 14.9125 34.6586C14.9306 34.6626 15.03 34.6921 15.1333 34.7247C15.3232 34.7845 15.4416 34.8165 15.4609 34.8132C15.4667 34.8122 15.4841 34.8168 15.4997 34.8232C15.5966 34.8636 16.2341 35.0258 16.7114 35.1315C16.8044 35.1522 16.9566 35.1859 17.0496 35.2066C17.4895 35.3043 18.1173 35.4171 18.5619 35.4781C18.6807 35.4945 18.8363 35.5163 18.9078 35.5266C19.2486 35.5759 19.9953 35.638 20.4804 35.6574C21.0338 35.6796 21.906 35.6605 22.2628 35.6184C23.169 35.5165 24.0859 35.4418 24.4464 34.7434C24.6618 34.3258 24.7034 33.8548 24.584 33.1861C24.5675 33.0938 24.5487 33.0057 24.5422 32.9903C24.5356 32.975 24.5279 32.9498 24.525 32.9344C24.5191 32.9038 24.4951 32.8218 24.4374 32.6361C24.3916 32.4884 24.2551 32.166 24.2006 32.0768C24.1787 32.0409 24.1531 31.9945 24.1437 31.9736C24.0895 31.8529 23.6787 31.3126 23.586 31.2402C23.5609 31.2206 23.5403 31.1972 23.5403 31.1881C23.5403 31.1629 23.2674 30.8997 23.2545 30.9125C23.2483 30.9187 23.2376 30.9085 23.2309 30.8897C23.2242 30.871 23.1479 30.797 23.0614 30.7252C22.9749 30.6534 22.8761 30.5708 22.8418 30.5416C22.742 30.4565 22.5673 30.3244 22.5546 30.3244C22.5482 30.3244 22.5249 30.3076 22.5027 30.2871C22.4805 30.2666 22.4513 30.2498 22.4377 30.2498C22.4242 30.2498 22.4131 30.2422 22.4131 30.2328C22.4131 30.2181 22.1776 30.052 22.12 30.0261C22.1086 30.021 22.0494 29.9837 21.9885 29.9433C21.8212 29.8325 21.763 29.7969 21.5583 29.6802C21.301 29.5336 20.7396 29.2451 20.5438 29.159C20.3087 29.0556 20.2085 29.0024 20.2338 28.9946C20.269 28.9837 20.8703 28.8444 21.0604 28.8031C21.1379 28.7863 21.269 28.7559 21.3516 28.7356C21.4343 28.7153 21.5231 28.6952 21.5489 28.6908C21.5747 28.6864 21.6466 28.6714 21.7086 28.6572C21.7706 28.643 21.9016 28.6134 21.9998 28.5913C22.0979 28.5692 22.2501 28.5341 22.3379 28.5131C22.4258 28.4922 22.5188 28.4715 22.5446 28.467C22.5704 28.4626 22.6042 28.4539 22.6197 28.4477C22.6352 28.4415 22.6701 28.4336 22.6973 28.43C22.7244 28.4264 22.7692 28.415 22.7969 28.4046C22.842 28.3875 22.8463 28.378 22.8395 28.3099C22.8355 28.2683 22.8221 28.2246 22.8103 28.2129C22.7985 28.2011 22.7888 28.1804 22.7888 28.1667C22.7888 28.1531 22.7749 28.1107 22.7579 28.0726C22.7409 28.0344 22.7243 27.9949 22.7211 27.9846C22.6941 27.899 22.6374 27.7462 22.6258 27.7278C22.6179 27.7152 22.6096 27.6927 22.6073 27.6778C22.605 27.6628 22.5901 27.6209 22.5741 27.5845C22.5338 27.4925 22.5021 27.4107 22.4965 27.3844C22.4844 27.327 22.3661 27.0331 22.3529 27.0276C22.3447 27.024 22.3379 27.0047 22.3379 26.9843C22.3379 26.964 22.3138 26.8871 22.2844 26.8134C22.224 26.6625 22.1809 26.5497 22.091 26.3067C22.0568 26.2144 22.0244 26.1347 22.019 26.1296C22.0136 26.1245 22.0062 26.1035 22.0026 26.083C21.9991 26.0625 21.983 26.0163 21.967 25.9805C21.951 25.9446 21.9347 25.8991 21.9309 25.8794C21.9269 25.8597 21.9161 25.8343 21.9066 25.823C21.8972 25.8117 21.8864 25.7816 21.8827 25.7563C21.8791 25.7309 21.865 25.6905 21.8517 25.6666C21.8385 25.6426 21.8323 25.6184 21.8381 25.6126C21.8438 25.6069 21.8539 25.6162 21.8603 25.6328C21.8668 25.6496 21.8798 25.6586 21.8891 25.6529C21.8984 25.6472 21.9111 25.6556 21.9173 25.6715C21.9235 25.6875 21.936 25.696 21.9452 25.6904C21.9543 25.6848 22.0011 25.71 22.0492 25.7464C22.0973 25.7828 22.1424 25.8127 22.1494 25.8127C22.1565 25.8127 22.2122 25.8497 22.2732 25.895C22.3342 25.9403 22.3906 25.9734 22.3986 25.9685C22.4065 25.9636 22.413 25.9671 22.413 25.9768C22.413 25.9863 22.4489 26.0182 22.4928 26.0478C22.6209 26.1342 23.0225 26.4332 23.0351 26.4515C23.0414 26.4608 23.0524 26.4671 23.0595 26.4656C23.0667 26.4643 23.1037 26.4886 23.142 26.5199C23.342 26.6841 23.4463 26.7658 23.4463 26.7585C23.4463 26.754 23.4949 26.7951 23.5543 26.8498C23.6137 26.9045 23.6683 26.9494 23.6757 26.9496C23.683 26.9498 23.7042 26.9654 23.7226 26.9845C23.7411 27.0035 23.8281 27.0797 23.9159 27.1539C24.2072 27.3997 24.2921 27.4781 24.6839 27.8634C25.1054 28.2777 25.2054 28.3844 25.4966 28.7309C25.5313 28.7723 25.5704 28.8184 25.5834 28.8335C25.5964 28.8485 25.6429 28.9069 25.6866 28.9633C25.7303 29.0197 25.7817 29.0826 25.8007 29.1032C25.8303 29.1349 26.0237 29.41 26.114 29.5484C26.1294 29.5722 26.1558 29.6118 26.1725 29.6364C26.2352 29.7287 26.4333 30.069 26.4333 30.0845C26.4333 30.0933 26.4432 30.1006 26.4553 30.1006C26.4673 30.1006 26.4722 30.1055 26.4662 30.1115C26.4601 30.1175 26.4835 30.1703 26.5181 30.2289C26.5527 30.2875 26.5872 30.3602 26.5947 30.3905C26.6022 30.4207 26.6188 30.4622 26.6316 30.4827C26.6444 30.5033 26.661 30.541 26.6685 30.5666C26.676 30.5923 26.6912 30.6244 26.7022 30.6381C26.7133 30.6517 26.7243 30.6769 26.7267 30.694C26.7291 30.7111 26.7532 30.7838 26.7804 30.8556C26.8075 30.9274 26.8327 30.9987 26.8364 31.0141C26.84 31.0294 26.8616 31.1133 26.8844 31.2005C26.9851 31.5864 27.0297 32.1747 26.979 32.4496C26.9686 32.506 26.9566 32.5815 26.9523 32.6174C26.5009 34.3035 24.9108 35.6432 23.5214 36.4385C23.4956 36.4562 23.4069 36.5077 23.3243 36.5529C23.2417 36.5981 23.1572 36.6446 23.1364 36.6562C22.9811 36.7434 22.2608 37.0895 22.2241 37.0947C22.1988 37.0982 22.1697 37.1106 22.1594 37.1222C22.149 37.1338 22.0264 37.1869 21.887 37.2401C21.7475 37.2934 21.6055 37.3495 21.5716 37.3648C21.5376 37.3801 21.4953 37.3955 21.4776 37.3992C21.4599 37.4027 21.3609 37.4346 21.2576 37.4697C21.0882 37.5274 21.0006 37.5549 20.6189 37.6703C20.4697 37.7155 19.9882 37.835 19.8998 37.8489C19.8613 37.8549 19.8233 37.8638 19.8154 37.8687C19.8075 37.8735 19.7779 37.8812 19.7497 37.886C19.7214 37.8906 19.6391 37.9063 19.5668 37.9209C19.231 37.9883 18.9891 38.0274 18.6932 38.0619C18.6054 38.0721 18.5222 38.0846 18.5082 38.0897C18.4822 38.0991 18.448 38.103 18.1109 38.1354C16.9911 38.2428 15.6647 38.2355 14.4475 38.1151C14.2357 38.0942 14.0243 38.0741 13.9778 38.0705C13.9313 38.067 13.813 38.0513 13.7148 38.0358C13.6167 38.0203 13.4941 38.0029 13.4424 37.9972C13.3908 37.9915 13.3062 37.9787 13.2545 37.9686C13.2029 37.9586 13.0719 37.9369 12.9634 37.9205C12.8549 37.904 12.7027 37.8787 12.6252 37.8643C12.1533 37.7761 11.9824 37.7432 11.8737 37.7192C11.8066 37.7044 11.7389 37.692 11.7234 37.6917C11.708 37.6914 11.6488 37.6792 11.5919 37.6645C11.5351 37.6499 11.4421 37.628 11.3853 37.6158C11.3285 37.6037 11.2355 37.5818 11.1786 37.5671C11.1218 37.5523 10.9739 37.5154 10.8499 37.4851C10.5317 37.4071 10.1402 37.3054 9.98576 37.2605C9.76191 37.1955 9.78069 37.1831 9.61305 37.5068C9.32 38.0726 9.03698 38.6366 9.03698 38.6548C9.03698 38.6651 9.02806 38.6764 9.01719 38.68C9.00627 38.6835 8.99526 38.699 8.99269 38.7142C8.99004 38.7294 8.97348 38.769 8.95577 38.8022C8.93806 38.8354 8.92399 38.8672 8.92457 38.8728C8.92501 38.8784 8.91263 38.8958 8.89679 38.9116C8.8809 38.9273 8.86794 38.9517 8.86794 38.9657C8.86794 39.0557 8.81835 38.9702 8.70124 38.6783ZM6.82033 36.1803C6.63951 36.0897 6.45352 35.9941 6.40703 35.9679C6.36053 35.9417 6.2929 35.9055 6.25673 35.8875C6.11168 35.815 5.41911 35.4236 5.39591 35.4009C5.38224 35.3876 5.36245 35.3767 5.35184 35.3767C5.34128 35.3767 5.25584 35.3301 5.162 35.2731C5.06817 35.2161 4.9833 35.1679 4.97339 35.1659C4.96349 35.1642 4.93416 35.1434 4.90821 35.1204C4.88225 35.0973 4.84959 35.0785 4.8356 35.0785C4.82162 35.0785 4.81017 35.0716 4.81017 35.0633C4.81017 35.0549 4.7827 35.0339 4.74911 35.0165C4.68201 34.9817 4.37595 34.7872 4.23814 34.6916C4.19008 34.6583 4.14606 34.631 4.14032 34.631C4.1346 34.631 4.10478 34.6101 4.07407 34.5844C4.04336 34.5588 4.00622 34.5378 3.99152 34.5378C3.97683 34.5378 3.9648 34.5294 3.9648 34.5192C3.9648 34.5089 3.95255 34.5006 3.93756 34.5006C3.92256 34.5006 3.90356 34.4897 3.89531 34.4765C3.88705 34.4633 3.82533 34.4158 3.75817 34.3709C3.64998 34.2987 3.5492 34.2275 3.42941 34.1384C3.26262 34.0145 3.21169 33.9786 3.20291 33.9786C3.19732 33.9786 3.17331 33.9577 3.14954 33.9323C3.12575 33.9068 3.1008 33.8914 3.09408 33.8981C3.08738 33.9047 3.08187 33.9004 3.08187 33.8884C3.08187 33.8765 3.06918 33.8667 3.05369 33.8667C3.0382 33.8667 3.02551 33.8591 3.02551 33.8499C3.02551 33.8408 2.94328 33.7715 2.84277 33.6961C2.74226 33.6208 2.64659 33.5465 2.63016 33.5311C2.49162 33.4014 2.38205 33.3061 2.36736 33.3024C2.33674 33.2949 2.03217 33.0115 1.70106 32.6825C1.43028 32.4134 1.19705 32.1539 0.95469 31.8519C0.818531 31.6822 0.592539 31.346 0.502071 31.1785C0.465016 31.1099 0.426061 31.0386 0.415513 31.0201C0.379522 30.9568 0.219156 30.6135 0.215166 30.5913C0.208955 30.5566 0.166257 30.4291 0.153929 30.4084C0.14785 30.3981 0.141416 30.3813 0.139641 30.3711C0.137876 30.3608 0.121668 30.2979 0.103605 30.2313C0.0185557 29.9176 -0.0267267 29.4119 0.0168166 29.2621C0.0272907 29.226 0.0458827 29.1344 0.0581757 29.0585C0.0936777 28.8386 0.265091 28.3641 0.348392 28.2551C0.360153 28.2397 0.405808 28.1684 0.449884 28.0966C0.542664 27.9455 0.583043 27.8882 0.686579 27.7607C0.727894 27.7098 0.770178 27.6574 0.780513 27.6443C0.819788 27.5942 1.24157 27.1806 1.30782 27.1272C1.34599 27.0964 1.41758 27.0377 1.46692 26.9967C1.58036 26.9024 1.74132 26.7851 1.99224 26.6141C2.10073 26.5401 2.19373 26.4742 2.19889 26.4678C2.20408 26.4613 2.2197 26.4536 2.23364 26.4507C2.24758 26.4477 2.30677 26.4148 2.36515 26.3773C2.42352 26.3399 2.51356 26.2871 2.56522 26.26C2.61688 26.2329 2.6972 26.1895 2.74369 26.1635C2.94892 26.049 3.6333 25.701 3.65337 25.701C3.65692 25.701 3.74083 25.6632 3.83966 25.6171C3.9385 25.5709 4.02377 25.5332 4.02915 25.5332C4.03452 25.5332 4.08355 25.513 4.13807 25.4883C4.35263 25.3913 4.45853 25.3467 4.47452 25.3467C4.48371 25.3467 4.52708 25.3302 4.57088 25.31C4.65703 25.2703 4.95822 25.1597 5.1377 25.1019C5.199 25.0822 5.26029 25.0569 5.2739 25.0457C5.28753 25.0344 5.29867 25.0304 5.29867 25.0366C5.29867 25.0429 5.34305 25.0304 5.3973 25.0091C5.45154 24.9877 5.51647 24.9664 5.54158 24.9618C5.56669 24.9571 5.59627 24.9477 5.60733 24.9408C5.61838 24.9339 5.6395 24.9265 5.6543 24.9243C5.66907 24.922 5.76206 24.8956 5.86095 24.8655C5.95983 24.8354 6.09569 24.7961 6.16285 24.7782C6.31597 24.7375 6.46422 24.6947 6.50101 24.6805C6.51649 24.6746 6.53651 24.6714 6.54547 24.6734C6.55444 24.6757 6.58856 24.6683 6.62138 24.6575C6.68603 24.6363 6.78406 24.6137 7.1847 24.5275C7.32825 24.4966 7.46175 24.4663 7.48137 24.4601C7.50099 24.4539 7.54839 24.4452 7.5867 24.4408C7.625 24.4364 7.74514 24.416 7.85364 24.3957C8.23049 24.3248 9.15695 24.2081 9.55381 24.1815C10.1323 24.1428 10.3087 24.1345 10.7937 24.1235C11.7791 24.1012 13.329 24.1996 14.1941 24.3396C14.2561 24.3496 14.3491 24.3618 14.4007 24.3666C14.4524 24.3714 14.6173 24.3974 14.7671 24.4243C14.9169 24.4512 15.1071 24.4846 15.1898 24.4984C15.3646 24.5276 15.8572 24.6306 16.2606 24.7223C16.5284 24.7833 16.6625 24.8165 16.9839 24.9015C17.0614 24.922 17.1731 24.9507 17.2322 24.9653C17.2912 24.9798 17.4265 25.018 17.5327 25.0499C17.639 25.0819 17.7936 25.1275 17.8762 25.1512C17.9589 25.1749 18.1449 25.2331 18.2895 25.2805C18.4342 25.3278 18.5652 25.3687 18.5807 25.3712C18.5962 25.3739 18.6173 25.381 18.6277 25.3874C18.638 25.3938 18.7183 25.4241 18.8062 25.4547C18.9765 25.514 19.0881 25.5557 19.4167 25.6825C19.7194 25.7992 19.8078 25.8302 19.8405 25.8309C19.8586 25.8312 19.8951 25.7796 19.9357 25.6963C19.9897 25.5856 20.2915 25.0021 20.4106 24.7781C20.427 24.7474 20.4404 24.7117 20.4405 24.6989C20.4405 24.6861 20.447 24.6755 20.4547 24.6754C20.4625 24.6754 20.5322 24.5459 20.6097 24.3876C20.6872 24.2294 20.7548 24.0996 20.76 24.0991C20.7651 24.0988 20.789 24.1464 20.8131 24.2052C20.8371 24.264 20.8676 24.3372 20.8809 24.368C20.8941 24.3988 20.949 24.5372 21.003 24.6756C21.0569 24.814 21.1087 24.9441 21.1181 24.9646C21.1275 24.9851 21.1767 25.1109 21.2273 25.2442C21.3244 25.4998 21.4226 25.7473 21.4642 25.8408C21.4778 25.8715 21.5543 26.0645 21.634 26.2696C21.7138 26.4747 21.8069 26.7096 21.8409 26.7916C21.8749 26.8736 21.9467 27.054 22.0005 27.1924C22.1364 27.5425 22.1525 27.5832 22.1885 27.6678C22.206 27.7088 22.2357 27.7843 22.2546 27.8356C22.2734 27.8869 22.2989 27.9456 22.3112 27.9661C22.3235 27.9866 22.3389 28.0261 22.3453 28.0538C22.3562 28.1004 22.3518 28.1051 22.2865 28.116C22.2477 28.1225 22.1314 28.1481 22.0281 28.173C21.9247 28.1979 21.8148 28.2222 21.7838 28.227C21.7528 28.2319 21.5964 28.2658 21.4363 28.3025C21.2761 28.3393 21.124 28.3733 21.0981 28.3782C20.9829 28.4 20.2065 28.5751 20.1958 28.5817C20.1892 28.5857 20.1592 28.5933 20.129 28.5986C20.0989 28.6039 19.977 28.6302 19.8582 28.657C19.7394 28.6838 19.6295 28.7084 19.614 28.7117C19.5222 28.731 19.4753 28.7415 19.3228 28.7762C19.2298 28.7975 18.9657 28.8569 18.736 28.9083C18.5062 28.9597 18.3041 29.0072 18.2868 29.0137C18.2605 29.0238 18.2624 29.0124 18.2983 28.9433C18.322 28.898 18.3473 28.8484 18.3548 28.833C18.3622 28.8176 18.4172 28.7137 18.4769 28.602C18.5765 28.4159 18.6157 28.3402 18.6595 28.25C18.6683 28.2318 18.7179 28.1374 18.7698 28.0403C18.8216 27.9431 18.8574 27.8634 18.8492 27.8633C18.8411 27.8631 18.8436 27.8568 18.855 27.8493C18.8852 27.8292 19.0316 27.533 19.0316 27.4919C19.0316 27.466 19.0032 27.4468 18.9236 27.4187C18.8642 27.3977 18.7437 27.3543 18.6559 27.3222C18.5681 27.2901 18.4817 27.2608 18.464 27.2572C18.4463 27.2537 18.4041 27.2384 18.3701 27.2235C18.2927 27.1893 17.8298 27.0379 17.7917 27.0343C17.7762 27.0329 17.7466 27.0231 17.726 27.0128C17.7053 27.0024 17.6546 26.9841 17.6133 26.9723C17.5719 26.9604 17.4198 26.9162 17.2751 26.874C16.8233 26.7423 16.5961 26.6812 16.4911 26.6632C16.4628 26.6583 16.4332 26.6505 16.4253 26.6458C16.4075 26.6351 15.5639 26.4418 15.3589 26.4013C15.2762 26.385 15.1917 26.3683 15.171 26.364C15.1503 26.3596 15.0193 26.3347 14.8798 26.3083C14.7403 26.2818 14.5797 26.2512 14.5229 26.2402C14.283 26.194 13.516 26.0774 13.1327 26.0289C13.0862 26.023 12.9847 26.0098 12.9072 25.9996C12.5648 25.9546 11.6482 25.8645 11.6149 25.8725C11.6076 25.8742 11.5593 25.8698 11.5076 25.8624C11.1574 25.8126 9.7051 25.7583 8.71784 25.7581C7.05923 25.8959 5.33527 25.9535 4.91023 27.0738C4.89301 27.3305 4.95305 27.7256 5.04442 27.9568C5.05862 27.9927 5.08983 28.0724 5.11382 28.1339C5.13783 28.1955 5.16176 28.25 5.16702 28.2551C5.1723 28.2602 5.20101 28.3129 5.23086 28.3722C5.28538 28.4805 5.46202 28.7619 5.50859 28.8147C5.52231 28.8303 5.54955 28.868 5.56917 28.8986C5.58879 28.9292 5.6162 28.9668 5.63013 28.9822C5.64406 28.9976 5.71864 29.0857 5.79588 29.1779C5.99309 29.4136 6.64976 30.0471 6.67278 30.024C6.67678 30.02 6.71521 30.0505 6.7584 30.0915C6.89891 30.2248 7.21988 30.4737 7.25141 30.4737C7.26233 30.4737 7.2713 30.4804 7.2713 30.4887C7.2713 30.506 7.4334 30.6228 7.45741 30.6228C7.46615 30.6228 7.48439 30.636 7.49788 30.6522C7.51137 30.6683 7.60753 30.7363 7.71153 30.8033C7.81553 30.8703 7.92176 30.9409 7.94759 30.9603C7.99971 30.9994 8.11804 31.0654 8.14052 31.0679C8.14846 31.0689 8.17185 31.0851 8.1925 31.1041C8.21313 31.1232 8.25313 31.1503 8.28137 31.1643C8.3096 31.1782 8.37131 31.2162 8.41847 31.2486C8.46563 31.281 8.53749 31.3231 8.57815 31.3421C8.6188 31.3611 8.68749 31.4002 8.73075 31.4291C8.77402 31.4579 8.84587 31.4983 8.89043 31.519C8.935 31.5396 9.00527 31.577 9.0466 31.602C9.08792 31.627 9.22124 31.6976 9.34283 31.7588L9.56391 31.8702L9.49313 31.8899C9.45421 31.9007 8.97428 32.019 8.42665 32.1528C7.87902 32.2865 7.12662 32.4715 6.75465 32.5638C6.38268 32.6561 6.05338 32.7361 6.02289 32.7415C5.90941 32.7619 5.8345 32.7954 5.82808 32.8284C5.82249 32.8573 5.92206 33.138 6.00135 33.3167C6.01501 33.3475 6.05349 33.4439 6.08689 33.5311C6.12031 33.6183 6.15895 33.7189 6.17279 33.7548C6.18663 33.7907 6.22023 33.8788 6.24748 33.9506C6.27472 34.0224 6.3091 34.1075 6.32387 34.1398C6.33865 34.1722 6.35072 34.2044 6.35072 34.2116C6.35072 34.2188 6.36301 34.251 6.37801 34.2833C6.40397 34.3393 6.47416 34.5199 6.6342 34.9427C6.67383 35.0474 6.75415 35.253 6.81264 35.3995C6.87114 35.5459 6.92067 35.6741 6.92273 35.6844C6.92494 35.6947 6.94133 35.7366 6.95948 35.7776C6.98961 35.8457 7.04015 35.9728 7.11515 36.1691C7.13082 36.2101 7.15123 36.2582 7.1605 36.2761C7.18105 36.3155 7.1823 36.3464 7.16315 36.3457C7.15539 36.3454 7.00115 36.271 6.82033 36.1803Z" fill="#051D32"/>
<path d="M23.7209 21.4653C23.6167 21.4503 23.4909 21.4255 23.4413 21.4102C23.3917 21.3949 23.3125 21.3726 23.2652 21.3607C23.2179 21.3487 23.1748 21.3315 23.1694 21.3225C23.1641 21.3134 23.1452 21.306 23.1276 21.306C23.1099 21.306 23.0191 21.27 22.9258 21.2261C22.6129 21.0788 22.3718 20.9281 22.2269 20.7893C22.1838 20.748 22.1431 20.7143 22.1366 20.7144C22.1301 20.7146 22.0967 20.6871 22.0624 20.6533C22.0281 20.6197 21.9916 20.592 21.9812 20.5919C21.9709 20.5919 21.9381 20.5781 21.9083 20.5615C21.8214 20.5126 21.6114 20.5052 21.5128 20.5474C21.4676 20.5668 21.4305 20.589 21.4305 20.5968C21.4305 20.6046 21.4189 20.6109 21.4049 20.6109C21.3371 20.6109 21.1263 20.8971 21.0219 21.1309L20.9617 21.2656L20.8159 21.2718C20.7357 21.2753 20.6545 21.2718 20.6355 21.2644C20.6016 21.2513 20.6011 21.1724 20.6054 16.9337L20.6098 12.6164H20.8202C20.936 12.6164 21.0346 12.6208 21.0394 12.6258C21.0441 12.6309 21.0533 12.7282 21.0598 12.8418C21.0662 12.9555 21.0832 13.1626 21.0975 13.3021C21.1118 13.4417 21.1279 13.6023 21.1332 13.6591C21.1385 13.716 21.1506 13.8174 21.1599 13.8846C21.1693 13.9518 21.1854 14.087 21.1958 14.1852C21.2061 14.2834 21.2265 14.444 21.2409 14.5422C21.3164 15.0534 21.3803 15.4686 21.4027 15.5944C21.4166 15.6719 21.4452 15.8325 21.4663 15.9513C21.5306 16.3129 21.6444 16.8626 21.7016 17.088C21.7121 17.1294 21.7523 17.2942 21.7909 17.4544C21.8295 17.6146 21.874 17.7921 21.8899 17.849C21.9058 17.9058 21.922 17.965 21.9259 17.9805C21.9815 18.2009 22.2171 18.9165 22.2442 18.9472C22.2529 18.957 22.26 18.9758 22.26 18.9889C22.26 19.002 22.2816 19.0616 22.308 19.1214C22.3344 19.1811 22.3571 19.2341 22.3585 19.2393C22.3885 19.3527 22.5538 19.695 22.6876 19.9207C22.8979 20.2754 23.1281 20.5231 23.3592 20.6433C23.4922 20.7125 23.5001 20.7142 23.6938 20.7138C23.9662 20.7134 24.0481 20.6784 24.2831 20.4631C24.3211 20.4283 24.3521 20.3928 24.3521 20.3842C24.3521 20.3756 24.3727 20.3454 24.398 20.317C24.4492 20.2595 24.544 20.0859 24.537 20.0624C24.5343 20.0541 24.5397 20.0472 24.5481 20.0472C24.5566 20.0472 24.5774 20.007 24.5942 19.958C24.6111 19.9089 24.6317 19.8553 24.6401 19.8388C24.6753 19.7703 24.7648 19.3464 24.7853 19.1515C24.8135 18.8839 24.7993 18.0883 24.7599 17.7268C24.702 17.1945 24.5903 16.5654 24.4414 15.9325C24.4208 15.8447 24.397 15.7432 24.3887 15.7071C24.2831 15.2511 24.1234 14.6935 23.899 13.9973C23.8207 13.7545 23.7534 13.5431 23.7495 13.5276C23.7373 13.4805 23.6523 13.2241 23.6123 13.1142C23.5916 13.0574 23.5433 12.9163 23.5048 12.8006C23.4664 12.6849 23.4059 12.5148 23.3705 12.4225C23.335 12.3302 23.306 12.2491 23.306 12.2423C23.306 12.2355 23.2927 12.1985 23.2763 12.1601C23.26 12.1217 23.2447 12.0818 23.2424 12.0715C23.2404 12.0611 23.2018 11.9554 23.1574 11.8366C22.9921 11.3948 22.873 11.0713 22.8199 10.9199C22.7899 10.8342 22.7494 10.7243 22.7299 10.6756C22.6546 10.4876 22.5616 10.2291 22.5611 10.2067C22.5609 10.1938 22.5548 10.1832 22.5477 10.1832C22.5406 10.1832 22.5304 10.1642 22.5251 10.141C22.5199 10.1177 22.4737 9.98456 22.4226 9.84506C22.3715 9.70555 22.3192 9.56182 22.3064 9.52565C22.2936 9.48948 22.2338 9.32462 22.1734 9.15928C22.1131 8.99394 22.0539 8.82907 22.0419 8.7929C22.03 8.75673 22.0136 8.71023 22.0055 8.68956C21.9729 8.60556 21.8804 8.34114 21.8281 8.18227C21.7975 8.08927 21.7647 7.99627 21.7551 7.9756C21.7456 7.95492 21.7175 7.87461 21.6927 7.79711C21.645 7.64772 21.5424 7.33078 21.5316 7.29921C21.5282 7.28886 21.5231 7.27196 21.5207 7.26162C21.5181 7.25128 21.5082 7.22167 21.4985 7.19586C21.4888 7.17003 21.4624 7.08548 21.4398 7.00797C21.4172 6.93047 21.366 6.75714 21.3261 6.62281C21.2258 6.28542 21.0987 5.79901 21.0757 5.66459C21.0704 5.63356 21.0585 5.59343 21.0492 5.57535C21.0399 5.55724 21.0358 5.54246 21.0401 5.54246C21.0443 5.54246 21.0409 5.51077 21.0322 5.472C21.0163 5.39998 20.9605 5.05506 20.9267 4.8191C20.895 4.59835 20.8863 4.43912 20.8868 4.08634C20.8872 3.79642 20.8958 3.63009 20.9344 3.1657C20.9427 3.06555 21.011 2.65001 21.0428 2.50532C21.0568 2.44179 21.072 2.36833 21.0766 2.34207C21.1025 2.19294 21.2726 1.68561 21.3674 1.47473C21.4046 1.39206 21.4353 1.31386 21.4357 1.30094C21.436 1.28802 21.4414 1.27746 21.4476 1.27746C21.4538 1.27746 21.4868 1.22885 21.521 1.16943C21.5552 1.11001 21.6059 1.02757 21.6336 0.986239C21.6614 0.944919 21.7033 0.881493 21.7268 0.845325C21.8584 0.642324 22.2068 0.337666 22.4463 0.216084C22.6172 0.129317 22.893 0.0374182 22.9824 0.0374182C23.0104 0.0374182 23.0384 0.0289416 23.0445 0.0186451C23.0582 -0.00443372 23.5163 -0.0069633 23.5299 0.0159841C23.5351 0.0248593 23.5818 0.0373315 23.6336 0.0436806C23.7708 0.060636 23.9814 0.126307 24.1321 0.199196C24.2046 0.234214 24.2719 0.262894 24.2817 0.262894C24.2915 0.262894 24.3093 0.271816 24.3213 0.282733C24.3333 0.293652 24.4161 0.35615 24.5054 0.421645C24.5947 0.48714 24.71 0.58215 24.7616 0.632786C24.8132 0.683418 24.9097 0.754074 24.9759 0.789793C25.0832 0.847708 25.1112 0.854627 25.2337 0.853695C25.333 0.852819 25.3945 0.841668 25.4554 0.813085C25.5537 0.766977 25.7096 0.624411 25.6927 0.596011C25.6864 0.58527 25.6897 0.581988 25.7002 0.588735C25.7211 0.602228 25.8044 0.474903 25.8704 0.328668L25.9128 0.234728H26.2552H26.5976L26.6021 4.39526C26.606 7.71129 26.6021 8.55882 26.5841 8.57073C26.5519 8.59203 26.2319 8.58982 26.1928 8.56807C26.1668 8.5536 26.1574 8.51598 26.1469 8.38488C26.1397 8.29415 26.1314 8.19879 26.1284 8.17295C26.1254 8.14713 26.1173 8.03298 26.1102 7.91931C26.1031 7.80564 26.0944 7.69669 26.091 7.67719C26.0876 7.65771 26.0762 7.51819 26.0658 7.36718C26.0553 7.21617 26.0387 7.03343 26.0289 6.96109C26.019 6.88876 25.9902 6.65202 25.9649 6.43501C25.9396 6.218 25.9025 5.92208 25.8824 5.77741C25.8624 5.63274 25.8428 5.48901 25.8388 5.45801C25.835 5.42699 25.8108 5.26637 25.7853 5.10102C25.7598 4.93569 25.7277 4.72431 25.7138 4.63131C25.6628 4.28904 25.5746 3.80618 25.5045 3.48521C25.4841 3.39221 25.4556 3.26115 25.4411 3.19399C25.3734 2.88069 25.2326 2.35258 25.2032 2.30186C25.1973 2.29169 25.1915 2.27057 25.1902 2.25489C25.1864 2.20448 25.1389 2.08546 25.1229 2.08546C25.1144 2.08546 25.1121 2.0776 25.1178 2.06802C25.138 2.03388 24.8668 1.40096 24.7954 1.31577C24.7821 1.29988 24.7585 1.26067 24.7429 1.22858C24.7273 1.19649 24.6423 1.09295 24.554 0.998487C24.421 0.856126 24.3697 0.815303 24.2546 0.759896C24.1011 0.686008 24.0624 0.676395 23.8651 0.663245C23.4788 0.637505 23.1071 0.875534 22.9318 1.26093C22.8431 1.456 22.8443 1.45232 22.7993 1.66059C22.7506 1.88587 22.7331 2.40772 22.7643 2.70687C22.7766 2.82493 22.7888 2.94267 22.7914 2.9685C22.8057 3.11019 22.8234 3.22861 22.8378 3.27851C22.8467 3.30953 22.8587 3.38138 22.8645 3.43822C22.8703 3.49505 22.8821 3.56692 22.8909 3.59792C22.8996 3.62894 22.9167 3.71347 22.9289 3.7858C22.9411 3.85814 22.9783 4.03146 23.0117 4.17097C23.045 4.31047 23.077 4.44998 23.0827 4.48098C23.0885 4.51201 23.1038 4.57117 23.1166 4.6125C23.1295 4.65382 23.1579 4.75529 23.1797 4.83796C23.2014 4.92063 23.2299 5.02209 23.243 5.06342C23.2561 5.10474 23.3087 5.27809 23.36 5.44859C23.4112 5.6191 23.4764 5.82624 23.5047 5.90891C23.5331 5.99158 23.5738 6.11417 23.5951 6.18134C23.6165 6.24852 23.6423 6.31404 23.6526 6.32696C23.6628 6.33987 23.6669 6.35043 23.6617 6.35043C23.6538 6.35043 23.7039 6.50892 23.7448 6.61347C23.7508 6.62896 23.7998 6.76425 23.8535 6.91409C23.9072 7.06393 23.9846 7.27107 24.0254 7.37441C24.0662 7.47775 24.0996 7.57019 24.0996 7.57985C24.0996 7.58948 24.1166 7.63601 24.1374 7.68319C24.2055 7.83769 24.2229 7.87965 24.2902 8.0508C24.3267 8.1438 24.3712 8.24949 24.3891 8.28566C24.4069 8.32183 24.436 8.39369 24.4538 8.44536C24.4715 8.49703 24.4964 8.56044 24.5091 8.58627C24.5218 8.6121 24.5323 8.64267 24.5324 8.65419C24.5324 8.66573 24.5477 8.69529 24.5663 8.71995C24.5849 8.74459 24.6007 8.77322 24.6015 8.78355C24.6042 8.82207 24.6857 9.01841 24.699 9.01841C24.7066 9.01841 24.7128 9.03185 24.7128 9.04832C24.7128 9.07464 24.9652 9.68472 25.1108 10.0104C25.1399 10.0754 25.1637 10.1391 25.1637 10.1518C25.1637 10.1645 25.1746 10.1916 25.188 10.212C25.2013 10.2324 25.2549 10.3548 25.307 10.4839C25.3592 10.6131 25.4165 10.7526 25.4344 10.7939C25.504 10.9542 25.8361 11.8391 25.9246 12.0997C25.9544 12.1876 25.9894 12.2848 26.0025 12.3158C26.0156 12.3468 26.0402 12.4187 26.0573 12.4755C26.0744 12.5324 26.0931 12.5873 26.099 12.5976C26.1048 12.608 26.1109 12.6249 26.1124 12.6352C26.1175 12.6682 26.2831 13.197 26.3037 13.2459C26.3146 13.2717 26.3252 13.3055 26.3273 13.321C26.3293 13.3365 26.3529 13.4253 26.3796 13.5183C26.4063 13.6113 26.4353 13.7128 26.444 13.7438C26.5895 14.2628 26.7835 15.2327 26.8311 15.679C26.8476 15.834 26.8649 15.9862 26.8695 16.0172C26.902 16.2368 26.9173 16.8425 26.899 17.1844C26.888 17.3898 26.8752 17.579 26.8706 17.6048C26.8659 17.6306 26.8567 17.711 26.85 17.7833C26.8091 18.2278 26.6744 18.8126 26.5039 19.2864C26.4448 19.4507 26.422 19.5067 26.3517 19.661C26.3332 19.7017 26.318 19.7426 26.318 19.752C26.318 19.7613 26.3019 19.7903 26.2822 19.8164C26.2625 19.8425 26.2508 19.8713 26.2562 19.8804C26.2616 19.8895 26.2592 19.897 26.2511 19.897C26.2428 19.897 26.216 19.9372 26.1914 19.9863C26.0414 20.2856 25.72 20.6957 25.4433 20.9408C25.3599 21.0146 25.058 21.2166 24.9473 21.2727C24.5891 21.4539 24.1358 21.525 23.7209 21.4653ZM4.97258 21.2262C4.95967 21.1894 4.95801 21.143 4.96103 20.908C4.96444 20.6564 4.94834 20.6763 5.16228 20.6574C5.57694 20.6207 5.81498 20.4185 5.89247 20.0374C5.93243 19.8408 5.93354 1.67516 5.89376 1.45764C5.84656 1.20062 5.75036 1.04791 5.56823 0.940859C5.46265 0.878795 5.20899 0.807805 5.09136 0.807392C4.95524 0.806921 4.95512 0.806517 4.96136 0.513239C4.96435 0.370913 4.97077 0.247889 4.97555 0.239852C4.98032 0.231819 5.69308 0.22525 6.55946 0.22525H8.13468L8.16323 0.361465C8.1789 0.436387 8.20442 0.573777 8.21987 0.666781C8.2946 1.11629 8.3208 1.26845 8.36389 1.50287C8.38954 1.64238 8.41843 1.81147 8.42812 1.87864C8.43778 1.94581 8.44929 2.01345 8.45368 2.02895C8.45806 2.04444 8.47877 2.15859 8.49973 2.2826C8.52065 2.4066 8.54578 2.55456 8.55551 2.6114C8.56527 2.66823 8.57716 2.7401 8.58193 2.7711C8.59437 2.85141 8.65172 3.17807 8.70731 3.48506C8.73352 3.62974 8.76561 3.81575 8.77866 3.89841C8.8072 4.07947 8.87886 4.49746 8.94288 4.85663C8.9948 5.14796 9.03314 5.36724 9.04964 5.46726C9.07737 5.63551 9.13785 5.99043 9.22089 6.47245C9.27073 6.76179 9.32416 7.07462 9.33962 7.16762C9.35509 7.26063 9.37575 7.37477 9.38551 7.42127C9.39531 7.46777 9.41124 7.56077 9.42091 7.62794C9.43063 7.69511 9.4739 7.94876 9.5171 8.1916C9.56031 8.43444 9.61322 8.73882 9.63469 8.86799C9.69214 9.21375 9.74255 9.50483 9.76159 9.60074C9.77083 9.64725 9.80368 9.83748 9.83457 10.0235C9.8655 10.2095 9.91064 10.4716 9.93494 10.6059C9.95922 10.7403 9.98296 10.8755 9.98767 10.9065C9.9924 10.9376 10.0042 11.0094 10.0138 11.0662C10.0867 11.4941 10.102 11.5988 10.1953 12.3063C10.2222 12.5107 10.3349 13.5687 10.3474 13.7342C10.3532 13.8117 10.3615 13.8963 10.3658 13.9221C10.3701 13.9479 10.3783 14.041 10.3839 14.1288C10.3896 14.2166 10.4018 14.3392 10.411 14.4012C10.4202 14.4632 10.4368 14.5901 10.4478 14.683C10.4588 14.776 10.4713 14.8557 10.4755 14.8601C10.4797 14.8645 10.481 11.8376 10.4784 8.1338L10.4738 1.39953L10.4287 1.27828C10.3953 1.1884 10.3564 1.12884 10.2783 1.04812C10.2204 0.988223 10.1645 0.939211 10.1541 0.939211C10.1436 0.939211 10.1017 0.923455 10.061 0.904238C9.93307 0.843901 9.86482 0.825687 9.72224 0.813846C9.64615 0.807544 9.57311 0.795428 9.55992 0.78695C9.53316 0.769772 9.51484 0.401614 9.53513 0.289006L9.54659 0.225247H10.8965C12.1108 0.225247 12.2475 0.228345 12.2574 0.254981C12.2634 0.271313 12.2683 0.393622 12.2683 0.526752C12.2683 0.807799 12.2757 0.796606 12.0789 0.813272C12.0095 0.819132 11.9233 0.836883 11.8874 0.852683C11.8514 0.868484 11.8182 0.877359 11.8135 0.872475C11.8088 0.867591 11.761 0.884769 11.7075 0.910688C11.5476 0.988007 11.431 1.11703 11.3634 1.29126L11.3215 1.39958L11.3124 11.3199L11.3034 21.2403L10.505 21.2452L9.70666 21.2501L9.69052 21.2076C9.68166 21.1843 9.66125 21.0806 9.64522 20.9772C9.6292 20.8739 9.60427 20.7302 9.58985 20.6578C9.57545 20.5855 9.55598 20.4756 9.54662 20.4136C9.5257 20.2752 9.47695 19.9909 9.37096 19.3896C9.32633 19.1364 9.27831 18.8574 9.26423 18.7696C9.25016 18.6818 9.22252 18.5211 9.20281 18.4126C9.18309 18.3041 9.13414 18.0209 9.094 17.7832C9.05387 17.5455 9.01302 17.313 9.00323 17.2665C8.99344 17.22 8.9605 17.0298 8.93001 16.8438C8.89951 16.6578 8.8501 16.3703 8.8202 16.205C8.74935 15.8132 8.71566 15.619 8.70447 15.538C8.69948 15.5018 8.67955 15.3834 8.66013 15.2749C8.60509 14.9669 8.4622 14.1445 8.45286 14.0818C8.44822 14.0508 8.4365 13.979 8.42679 13.9221C8.38572 13.6816 8.33228 13.3735 8.29977 13.1894C8.2806 13.0809 8.25238 12.9118 8.23705 12.8136C8.22171 12.7154 8.1976 12.5759 8.18344 12.5036C8.1693 12.4313 8.13198 12.2199 8.10052 12.0339C8.06908 11.8479 8.03192 11.6323 8.01798 11.5548C8.00405 11.4773 7.97271 11.2955 7.94835 11.1508C7.92398 11.0062 7.8915 10.8159 7.87615 10.7281C7.86081 10.6402 7.83265 10.4754 7.8136 10.3617C7.79455 10.248 7.74184 9.94366 7.69647 9.68532C7.6511 9.42698 7.60953 9.18601 7.60409 9.14984C7.59863 9.11367 7.57865 8.99954 7.55968 8.8962C7.51793 8.66896 7.43107 8.16998 7.40757 8.02253C7.40181 7.98636 7.37681 7.8384 7.35203 7.69373C7.32724 7.54906 7.29064 7.33346 7.27066 7.21462C7.25068 7.09578 7.22323 6.93937 7.20963 6.86703C7.19604 6.7947 7.17589 6.68056 7.16482 6.61339C7.14714 6.50578 7.08409 6.14488 7.03521 5.87124C7.01587 5.76299 7.01092 5.72939 6.98329 5.51918C6.97213 5.43438 6.96037 5.36055 6.95713 5.35509C6.95372 5.34963 6.94652 5.30288 6.94073 5.25122C6.89245 4.82059 6.78427 3.98132 6.77121 3.93602L6.75494 3.87965L6.74271 3.95481C6.73598 3.99613 6.73269 7.63596 6.73542 12.0433L6.74037 20.0566L6.77935 20.1639C6.82305 20.2843 6.92427 20.4418 6.95792 20.4418C6.97006 20.4418 6.98421 20.4532 6.98932 20.4671C7.01335 20.5323 7.28176 20.6368 7.47983 20.658C7.53934 20.6644 7.61036 20.6739 7.63763 20.6793L7.68723 20.689V20.9694V21.2497H6.33399C5.26783 21.2497 4.97907 21.2447 4.97258 21.2262ZM12.9835 21.2369C12.977 21.2301 12.9717 21.1036 12.9717 20.9556C12.9717 20.6467 12.9494 20.6781 13.183 20.6589C13.4254 20.6391 13.6742 20.5121 13.785 20.3518C13.8156 20.3075 13.8581 20.2229 13.8796 20.1639L13.9186 20.0566L13.9232 10.775C13.9258 5.67017 13.9224 1.48079 13.9158 1.46529C13.9092 1.4498 13.9051 1.43093 13.9066 1.42334C13.9133 1.38975 13.8466 1.22217 13.7923 1.13649C13.6817 0.961741 13.4615 0.84379 13.1951 0.816566C13.1367 0.810574 13.0623 0.801521 13.0298 0.796374L12.9707 0.787008L12.9757 0.51082L12.9807 0.234633H15.0187C16.6154 0.234633 17.088 0.239957 17.201 0.259267C17.2804 0.272848 17.3656 0.286389 17.3904 0.289356C17.4402 0.295392 17.5806 0.335734 17.7872 0.403391C18.0472 0.488561 18.367 0.66776 18.5829 0.849236C18.6907 0.939856 18.9394 1.19699 19.0268 1.30827C19.0685 1.36144 19.156 1.48827 19.221 1.5901C19.2861 1.69194 19.3464 1.78455 19.355 1.79592C19.3714 1.81748 19.5136 2.1197 19.6062 2.32952C19.6702 2.47447 19.8137 2.90862 19.8547 3.08106C19.8707 3.14823 19.8908 3.21242 19.8994 3.22371C19.908 3.23498 19.9111 3.24838 19.9062 3.25349C19.9013 3.2586 19.9139 3.32967 19.9342 3.41146C20.0234 3.77117 20.1043 4.35225 20.1718 5.11963C20.2083 5.53516 20.2024 7.16848 20.1627 7.60505C20.0384 8.97297 19.8456 9.79746 19.4588 10.6153C19.4173 10.7031 19.3784 10.7792 19.3723 10.7844C19.3662 10.7895 19.3479 10.821 19.3315 10.8543C19.3026 10.9131 19.2275 11.0374 19.1979 11.0756C19.1899 11.0859 19.1634 11.124 19.139 11.1602C19.0413 11.3053 18.686 11.705 18.6547 11.705C18.6469 11.705 18.625 11.7229 18.6061 11.7447C18.5478 11.8118 18.2352 12.0195 18.0747 12.0975C17.8962 12.1844 17.6246 12.2854 17.5347 12.2984C17.5 12.3034 17.4431 12.3152 17.4084 12.3247C17.2645 12.3636 17.0161 12.3874 16.6419 12.3982L16.2451 12.4096L16.2406 16.1636C16.2357 20.2135 16.2326 20.0692 16.3274 20.2614C16.434 20.4775 16.6773 20.6294 16.9624 20.6578C17.0242 20.664 17.1014 20.6732 17.1339 20.6784L17.193 20.6879L17.188 20.9641L17.183 21.2403L15.0891 21.2447C13.9375 21.2474 12.99 21.2438 12.9835 21.2369ZM16.8043 11.7786C17.0626 11.7451 17.2768 11.6348 17.4213 11.4608C17.5604 11.2933 17.6946 10.8942 17.7497 10.4838C17.7615 10.396 17.7787 10.2691 17.7879 10.202C17.8075 10.0591 17.834 9.59152 17.8593 8.93916C17.8693 8.6838 17.8772 7.48744 17.8771 6.28058C17.8767 3.77805 17.8559 3.00008 17.77 2.28259C17.7513 2.12573 17.7238 1.94393 17.7154 1.92048C17.709 1.90277 17.7081 1.89909 17.6601 1.70014C17.511 1.0812 17.2005 0.844886 16.5035 0.819819C16.2958 0.812362 16.2552 0.81538 16.2465 0.839034C16.2311 0.880887 16.2345 11.7486 16.2499 11.7727C16.2572 11.7841 16.2753 11.7982 16.2902 11.8041C16.3242 11.8177 16.6142 11.8032 16.8043 11.7786ZM0.0943138 20.9611V20.7477L0.219945 20.7356C0.494879 20.709 0.677661 20.6272 0.835413 20.4603C0.895357 20.3969 0.947206 20.3218 0.960323 20.2794C0.972678 20.2395 0.988867 20.1984 0.996323 20.1881C1.04867 20.1157 1.05018 19.8484 1.05018 10.7108C1.05018 1.62806 1.04933 1.44929 1.0155 1.34091C0.982177 1.18418 0.880024 1.06929 0.812288 0.975314C0.682147 0.84933 0.374387 0.732516 0.172621 0.732516H0.0930786L0.0981902 0.521145L0.103302 0.309772L2.13681 0.30498C3.75727 0.300985 4.17055 0.304989 4.17144 0.323754C4.17399 0.373347 4.16803 0.722419 4.16471 0.725468C4.16301 0.72722 4.10855 0.734077 4.04408 0.740736C3.82968 0.762751 3.61604 0.837029 3.55821 0.909621C3.54526 0.925865 3.52366 0.93918 3.51024 0.93918C3.47543 0.93918 3.34256 1.11937 3.29549 1.2304C3.27359 1.28207 3.24578 1.39198 3.2337 1.47465C3.21662 1.59164 3.21304 3.66361 3.21759 10.822C3.22313 19.5384 3.22514 20.0247 3.25521 20.1287C3.29062 20.2511 3.35137 20.3659 3.42617 20.452C3.47062 20.5031 3.65232 20.6372 3.68113 20.6401C3.6873 20.6406 3.72348 20.6554 3.76149 20.6727C3.7995 20.69 3.90095 20.7138 3.98694 20.7255C4.07292 20.7372 4.15341 20.7498 4.16582 20.7534C4.18209 20.7581 4.18835 20.8174 4.18835 20.9672V21.1745H2.14132H0.0942866L0.0943138 20.9611Z" fill="#051D32"/>
</g>
<defs>
<clipPath id="clip0_101_189">
<rect width="27" height="39" fill="white"/>
</clipPath>
</defs>
</svg>
