<?xml version="1.0" encoding="UTF-8"?>
<svg id="Layer_1" xmlns="http://www.w3.org/2000/svg" version="1.1" viewBox="0 0 39 40">
  <!-- Generator: Adobe Illustrator 29.5.1, SVG Export Plug-In . SVG Version: 2.1.0 Build 141)  -->
  <defs>
    <style>
      .st0 {
        fill-rule: evenodd;
      }

      .st0, .st1 {
        fill: #051d32;
      }
    </style>
  </defs>
  <g>
    <rect class="st1" x="21.29" y="9" width="5.46" height="7.36"/>
    <rect class="st1" x="11.47" y="9" width="5.46" height="7.36"/>
    <path class="st0" d="M16.93,20.71h-5.46v3.93c0,1.92,1.49,3.5,3.4,3.64.68.1,1.38.18,2.06.31v-7.88Z"/>
    <path class="st0" d="M21.29,20.71v7.9c.68-.13,1.38-.21,2.06-.33,1.91-.14,3.39-1.72,3.4-3.64v-3.93h-5.46Z"/>
  </g>
  <path class="st1" d="M7.96,6.72c.53,1.03.45,2.27-.21,3.22-.24.38-.54.71-.88,1-.68.53-1.24,1.2-1.64,1.96.16-.72.39-1.42.7-2.09.37-.75.8-1.47,1.28-2.16.08-.15.12-.32.1-.49-.03-.02-.07-.02-.1,0-.28.24-.53.51-.73.82-.38.52-.71,1.06-1,1.64-.3.63-.55,1.28-.74,1.95v.1c-.06-.56-.33-1.04-.4-1.59.22-1.27.92-2.41,1.95-3.19.49-.38.89-.88,1.15-1.45,0-.07.13-.07.2-.06.13.09.23.2.3.34Z"/>
  <path class="st1" d="M3.93,9c.07.1,0,.21,0,.33-.31,1.08-.26,2.23.15,3.27.2.77.22,1.58.07,2.36h-.07s-.16-.24-.21-.38c-.5-.77-.82-1.65-.94-2.56-.05-.4.07-.82,0-1.17,0-.04-.03-.07-.07-.1-.13,0-.14.14-.21.2-.47,1.38.16,2.74.82,3.85.17.28.31.57.43.87.42.88.6,1.85.52,2.82-.02.18-.06.37-.12.54-.15-.39-.41-.73-.74-.98l-.18-.07c-.04-.46-.13-.92-.28-1.37-.25-.97-.82-1.73-1.18-2.67v-.08c-.31-.75-.4-1.56-.29-2.35.19-1.05.82-1.97,1.74-2.53.16-.05.43-.25.56,0Z"/>
  <path class="st1" d="M8.49,11.02c.35,1.21.12,2.51-.62,3.52-.62.72-1.29,1.39-2.03,2-.34.31-.63.67-.88,1.06v-.21c-.03-.31-.08-.61-.17-.91.08-.09.15-.19.21-.29.65-.88,1.64-1.41,2.22-2.33.29-.38.48-.82.58-1.29,0-.07,0-.17-.07-.2s-.23.16-.32.27c-.45.81-1.06,1.52-1.8,2.09-.4.33-.74.72-1.03,1.15v-.43c.32-1.54,1.24-2.89,2.55-3.75.36-.29.65-.68.82-1.11,0-.05.07-.1.13-.09.25,0,.34.32.43.53"/>
  <path class="st1" d="M1.53,14.42c.06.09.09.19.09.29.07.76.27,1.51.58,2.21.03.04.05.09.07.14.41.68.78,1.39,1.1,2.12.08.19.12.38.19.56.13.37.2.75.23,1.15-.62-.56-1.19-1.18-1.7-1.85-.37-.57-.63-1.2-.74-1.87-.02-.21-.06-.41-.11-.61-.01-.08-.06-.16-.12-.2-.14,0-.13.2-.17.32-.05.58.03,1.16.21,1.72.07.11.08.24.15.35.37.79.91,1.49,1.58,2.04.43.41.81.87,1.14,1.37-.2.39-.36.8-.48,1.22-.16-.26-.33-.52-.5-.78-.56-.73-1.17-1.41-1.83-2.04C.42,19.64,0,18.48,0,17.28c.01-1.04.42-2.03,1.14-2.78.09-.12.28-.23.41-.11"/>
  <path class="st1" d="M8.11,15.89c.12.16,0,.34-.05.51-.31.82-.13,1.8-.44,2.61-.45,1.12-1.07,2.16-1.86,3.07-.06.13-.17.25-.24.39-.36.63-.58,1.34-.64,2.06-.21-.34-.53-.59-.92-.71v-.14c.29-.96.75-1.86,1.37-2.65.86-.91,1.45-2.04,1.69-3.27,0-.14,0-.29-.09-.37-.09-.07-.23.23-.29.37-.14.42-.32.83-.52,1.22-.2.3-.38.62-.6.92-.37.54-.82,1.02-1.2,1.57h-.04c-.04-1.91.81-3.72,2.31-4.91.33-.28.69-.52,1.07-.71.13-.07.28-.07.41,0"/>
  <path class="st1" d="M1.18,21.37c.48,1.02,1.22,1.89,2.14,2.53.82.65,1.47,1.49,1.88,2.45h-.12c-1.43-.52-2.64-1.49-3.46-2.76-.1-.13-.15-.29-.32-.32-.17-.03-.07.2-.05.29.26.82.78,1.52,1.49,2,.91.77,2.11,1.06,3.06,1.78.61.43,1.13.98,1.5,1.64h-.06c-.16-.08-.33-.14-.51-.18-.24-.07-.5-.07-.74,0-.42-.44-.91-.81-1.46-1.1-.26-.16-.53-.3-.82-.41-.56-.25-1.08-.56-1.56-.93-1.33-.99-1.97-2.65-1.64-4.28.02-.29.12-.57.29-.82.06-.03.13-.03.19,0,.07,0,.11.11.16.17"/>
  <path class="st1" d="M7.97,21.37c.41,1.32.27,2.76-.38,3.98-.38.73-.56,1.54-.52,2.36-.09-.07-.18-.14-.26-.23-.2-.17-.43-.37-.66-.53.05-.08,0-.19.06-.28.05-.28.13-.56.25-.82.03-.12.07-.24.13-.36.17-.42.41-.82.56-1.26.26-.53.36-1.12.28-1.7,0,0,0-.05-.07-.07-.07-.02-.14.11-.19.18-.13.52-.31,1.02-.54,1.5-.39.66-.69,1.38-.87,2.13l-.05-.07c-.14-.43-.21-.87-.22-1.32.02-.93.36-1.83.97-2.54.39-.48.67-1.04.82-1.64.03-.06.08-.1.15-.12.34.07.47.47.58.75"/>
  <path class="st1" d="M3.12,27.67c.7.63,1.51,1.12,2.4,1.44.3.12.6.26.88.42.08.03.15.07.22.11.42.25.81.54,1.18.87.07.09.17.17.23.27-.28,0-.56-.08-.82-.09-.07,0-.13,0-.2,0-1.04-.13-2.02-.59-2.8-1.3-.11-.07-.21-.17-.35-.14-.14.03,0,.25.09.38.77.9,1.86,1.47,3.03,1.59.65.07,1.28.2,1.91.38.05,0,0,.09.05.13.11.36.26.72.43,1.06-.05,0-.1,0-.15-.04-.84-.29-1.7-.5-2.58-.61-.36-.07-.72-.17-1.06-.29-1.03-.4-1.89-1.13-2.45-2.09-.27-.5-.44-1.06-.49-1.64,0-.21-.04-.49.15-.61.19-.12.26.1.34.18"/>
  <path class="st1" d="M8.9,25.22c.06.23.11.46.13.7.16.73.65,1.32.78,2.07.25,1.1.29,2.26.6,3.34.18.59.46,1.14.82,1.64-.26-.09-.54-.14-.82-.14-.1.01-.21.04-.3.07-.69-1.22-1.04-2.59-1.01-3.99-.07-.58-.17-1.15-.31-1.72-.02-.11-.08-.2-.16-.27-.13,0-.11.12-.16.2.01.69.07,1.38.17,2.06.06.52,0,1.06.11,1.57-.03-.01-.06-.04-.07-.07-.1-.1-.19-.21-.27-.33-.6-.87-.87-1.93-.75-2.98.05-.41.14-.81.29-1.2v-.11c.15-.31.36-.58.61-.82.08-.06.26-.1.31,0"/>
  <path class="st1" d="M7.77,32.97c.72.25,1.48.38,2.25.39.82.08,1.61.36,2.29.82-1.22-.1-2.53.23-3.63-.24-.1,0-.22-.1-.33,0-.11.1,0,0,0,.07.14.17.32.3.52.38.79.27,1.63.36,2.45.27,1.22-.05,2.44.19,3.55.71-.52.1-1.03.26-1.52.47-.67-.16-1.36-.23-2.04-.2-.12,0-.25,0-.37,0-.28,0-.55-.05-.82-.07-.28-.05-.55-.12-.82-.21-1.09-.36-1.98-1.16-2.45-2.22-.08-.14-.11-.29-.09-.45.03-.04.07-.07.11-.09.31.08.61.2.89.36"/>
  <path class="st1" d="M11.24,29.53c1.05.3,1.9,1.07,2.31,2.08.57,1.32,1.48,2.46,2.62,3.32.07.02.13.06.19.11,0,.05-.1.06-.16.06-1.13.04-2.16-.6-2.62-1.64-.32-.58-.56-1.19-.91-1.75-.19-.32-.45-.6-.76-.82-.04,0-.08.03-.1.07,0,.17.11.31.16.46.59.82.82,1.91,1.44,2.71-.93-.29-1.67-1-2-1.91-.2-.84-.47-1.66-.82-2.45,0-.07-.05-.17,0-.24.18-.07.38-.07.56,0l.07.02Z"/>
  <path class="st1" d="M30.51,29.51c0-.16,0-.31,0-.47.08.01.16-.02.2-.08.38-.49.12-1.24.43-1.75.06-.15.2-.25.37-.25.22.09.4.27.49.49,0,.11.09.23.2.25M32.27,27.7c.36-.2.43-.61.55-.97.07-.28.17-.56.3-.82.08-.16.23-.29.4-.35h.11c.18.08.28.26.27.46.02.06.06.12.12.15.21,0,.33-.17.47-.29.22-.52.66-.93,1.19-1.1.17-.03.34.04.43.19.25.45,0,.92-.17,1.34-.04.12-.02.25.04.35.13,0,.29,0,.43.05.1.04.17.14.18.25-.05.49-.52.82-.82,1.02s-.61.3-.82.61c0,.04,0,.09,0,.13.06.07.14.06.2.09.15,0,.29.1.34.25.04.29-.25.43-.43.59-.41.2-.83.35-1.27.46-.21.07-.4.2-.56.37,0,.04-.05.11,0,.16.05.04.35.05.51.14.17.02.31.15.35.32-.04.34-.4.49-.67.61-.05,0-.09,0-.14,0-.11.03-.22.06-.34.07-.23.03-.45.03-.68,0,.18-.43.11-.93-.18-1.29l-.23-.08c.47-.39.91-.82,1.34-1.24,0,0,.05-.06.07-.09l.73-.82c.11-.11.18-.24.27-.34.09-.11.27-.38.42-.6,0,0,0-.06.05-.07.16-.23.28-.48.35-.74v-.1s-.07-.02-.1,0c-.16.09-.3.23-.4.38-1.06,1.28-2.25,2.45-3.55,3.49-.07.01-.15.03-.22.05-.14.02-.27.06-.4.11-.08-.24-.08-.51,0-.75l1.84-1.96Z"/>
  <path class="st1" d="M32.69,16.26c.25-.1.73.31.75-.18.02-.49-.59-.98-.77-1.5-.1-.2-.14-.43-.1-.65.02-.07.07-.14.13-.18.13-.05.27-.05.4,0,.09.04.2.04.29,0,.06-.04.09-.11.07-.17-.11-.29-.25-.56-.43-.82-.13-.3-.34-.66-.15-1,0-.06.06-.07.12-.09.1-.04.21-.04.31,0,.12.06.29.16.45-.08.24-.4,0-.92.06-1.39.02-.28.17-.52.41-.66.1-.02.21,0,.29.05.47.29.53.88.88,1.28.05.06.13.1.21.11.16-.09.26-.29.47-.31.12,0,.23.07.29.18.31.74-.13,1.46-.07,2.21,0,.1.06.19.14.25.1,0,.17,0,.25-.08.1-.16.27-.25.46-.25.1.02.17.1.19.2.11.69-.38,1.19-.61,1.77,0,.12-.07.28,0,.38.07.06.16.07.24.04.14-.1.32-.12.47-.04.17.16.09.46,0,.65-.06.15-.15.3-.25.43-.33-.18-.73-.15-1.04.07-.47.38-.75.94-.77,1.55-.13-.07-.28-.12-.43-.16.08-.47.12-.98.2-1.48-.02-.02-.02-.05,0-.07,0-.43.07-.9.07-1.35,0-.91-.07-1.81-.24-2.71-.11-.24-.11-.55-.36-.69-.08,0-.09.11-.11.17,0,.32.03.63.09.94.11,1.16.09,2.33-.06,3.49-.06.26-.07.56-.13.82-.15,1.03-.35,2.02-.56,3.02-.14-.07-.29-.12-.44-.13v-.28c-.05-.71-.26-1.41-.61-2.03-.19-.31-.29-.67-.29-1.04.01-.13.09-.24.2-.3"/>
  <path class="st1" d="M34.32,21.26v-.07c.01-.21,0-.41-.06-.61.09,0,.2.13.33.07.05-.04.07-.1.08-.16.04-.15.04-.31,0-.47-.13-.34-.2-.7-.21-1.07-.02-.2.09-.38.27-.46.29-.04.43.19.62.35.06.03.14.03.2,0,.21-.22.34-.51.36-.82.07-.43.29-.81.63-1.08.13-.07.29-.07.43,0,.28.29.42.7.38,1.1,0,.06,0,.13,0,.19-.02.13.03.25.12.34.16.05.22-.12.35-.12h.22c.08,0,.21.2.24.35-.09.67-.38,1.29-.82,1.8,0,.1-.09.24,0,.33.09.09.3,0,.43,0,.06,0,.11.02.16.04.1.08.14.22.11.34-.05.21-.15.41-.31.56-.09.12-.19.23-.3.34-.04,0-.08.07-.12.1-.22.26-.57.42-.64.78,0,.05.03.1.07.12.19,0,.36-.07.56,0,.12.01.23.07.31.16.12.34-.19.6-.41.82-.24.17-.49.3-.76.41-.21-.26-.55-.39-.88-.34-.25.04-.49.14-.69.3-.05-.18-.16-.33-.32-.43.28-.39.57-.82.82-1.2.14-.19.25-.42.38-.6.15-.35.35-.67.48-1.04.07-.2.16-.38.2-.59.18-.53.24-1.08.18-1.64,0-.07-.04-.13-.1-.17-.11,0-.15.15-.19.23-.09.3-.13.61-.25.91-.28.88-.67,1.72-1.16,2.49-.07-.25-.28-.43-.53-.47-.09-.02-.18-.02-.27,0,0-.08.05-.14.05-.22.04-.19.04-.39.02-.58Z"/>
  <path class="st1" d="M29.71,8.34c.14-.05.29-.05.43,0,.05.02.1.02.15,0,.24-.06.28-.37.21-.53-.13-.33-.6-.68-.53-1.1.02-.15.12-.29.27-.34.53-.21,1.13.51,1.55.82.18.11.34.26.56.21.23-.05.16-.34.35-.39.18-.01.35.08.43.25.25.51.38,1.07.4,1.64,0,.21,0,.44.04.66-.12.2-.2.42-.25.65-.04.33-.02.67.04,1-.11-.01-.21-.01-.32,0-.22-1.07-.65-2.1-1.26-3.01-.13-.15-.27-.36-.47-.38-.03.04-.03.1,0,.14,0,.07.03.14.07.2,0,.07.05.11.07.18.51.96.88,1.98,1.1,3.04,0,.11-.1.15-.13.25-.04.14-.06.28-.08.43-.34-.51-1.25-.6-1.64-1.11-.09-.11-.12-.26-.08-.4.11-.19.35-.11.52-.16.05-.03.08-.08.09-.14-.13-.26-.35-.47-.61-.6-.45-.19-.8-.54-1-.99-.04-.11,0-.23.11-.29"/>
  <path class="st1" d="M29.84,11.4c.12-.04.25-.04.38,0l.14.06c.56.39,1.15.73,1.77,1.01.08,0,.16-.02.22-.07.05.24.15.46.29.66.02,0,.04.02.07.02-.23.05-.43.21-.52.43l-.04.07c-.23-.32-.53-.59-.88-.77-.05-.01-.1.02-.11.07,0,.28.25.49.38.7.44.64.77,1.36.96,2.11-.13.06-.24.16-.33.27-.22.43-.22.95,0,1.38.11.25.28.48.38.74.17.42.29.86.36,1.31-.02.19-.02.38,0,.57v.06s0-.07-.05-.1c-.26-.89-1.64-1.77-2.18-2.45-.35-.36-.52-.85-.47-1.35.04-.12.15-.21.28-.2.15,0,.3.02.45.05.07,0,.13-.05.16-.11.06-.23-.1-.41-.21-.58-.2-.2-.4-.38-.61-.56,0,0,0-.05-.04-.06-.21-.25-.46-.45-.36-.82.08-.16.26-.14.4-.16.06-.03.1-.08.11-.14,0-.43-.31-.73-.48-1.06-.15-.24-.23-.53-.2-.82.05-.09.07-.2.18-.25"/>
  <path class="st1" d="M29.59,24.83c0-.17.03-.33.07-.5.06-.18.12-.38.33-.43.2-.05.48.47.7.13.07-.25.05-.52-.05-.76-.07-.26-.21-.5-.28-.78-.11-.26-.18-.54-.19-.82,0-.14.05-.28.16-.38.12-.14.29,0,.43-.06.14-.06.09-.05.13-.09.08-.47-.23-.82-.16-1.31,0-.26.12-.51.33-.67.28-.15.63-.07.82.19.19.25.36.53.49.82.18.41.29.78.76.44.15-.11.26-.27.47-.25.12.03.22.12.25.25.05.29.03.59-.06.88-.07.19-.12.39-.13.59-.03.13-.03.27,0,.4,0,.04.05.11.11.11s.2-.1.33-.11c.12-.06.27-.06.39,0,.09.07.13.18.11.29-.06.55-.58.87-.82,1.35-.03.07-.03.15,0,.22.02.04.06.06.1.07h.05s.13,0,.19-.05c.06-.05.34,0,.42.16.1.3-.13.53-.3.74-.18-.21-.45-.32-.72-.29-.74.2-.98.97-1.18,1.77-.07-.11-.17-.21-.29-.29.51-1.51.58-3.14.22-4.69-.02-.3-.14-.59-.34-.82-.05,0-.09.02-.11.06-.02.15-.02.31,0,.47.26,1.62.16,3.28-.29,4.86-.16,0-.31.05-.43.14-.41.36-.62.9-.55,1.45,0,.15-.04.31-.11.44-.34-.93-.82-1.03-1.13-.82.52-.82.38-1.64.34-2.67"/>
  <path class="st1" d="M25.53,30.39c.16-.18.38-.42.62-.29.24.13.08.47.3.6.22.13.38-.31.47-.55.1-.41.23-.81.38-1.21.11-.2.22-.43.5-.35.28.07.17.55.47.51.29-.04.59-1.19,1.16-1.06.29.07.56.57.56,1.23-.07.42-.08.84-.04,1.26,0,0,.05.07.05.11-.16.15-.34.28-.52.41-.06-.13-.14-.25-.25-.35-.08-.06-.16-.12-.25-.16.16-.32.24-.68.23-1.04-.04-.03-.1-.03-.14,0-.21.16-.35.65-.58,1.04-.63.2-1.13.69-1.36,1.32,0,0,0-.06-.05-.07-.17-.22-.45-.33-.73-.27-.73.16-1.1.92-1.52,1.55-.11-.3-.34-.34-.61-.44.64-.82.77-1.64,1.28-2.19"/>
  <path class="st1" d="M22.98,34.26c.26-.45.61-.85,1.01-1.18.11-.05.23-.05.34,0,.15.08.16.46.39.44.24-.02.74-.59.96-.9.17-.3.45-.53.78-.63.11-.03.22.01.28.11.12.19,0,.5.16.65.19,0,.31-.13.42-.25.11-.12.23-.38.35-.52.02-.07.05-.13.1-.18.2-.34.52-.6.89-.73.13-.03.26.03.32.15.05.1.07.2.07.31v.07s0,.13.1.15c.14.02.29,0,.42-.07.53-.2.82-.72,1.38-.82.24-.09.51-.06.73.07.17.19.22.45.12.69v.07c-.14.37-.38.68-.55,1.03v.13c-.02.11.01.21.08.29.06.03.12.06.18.08.12.04.23.13.29.25.02.2-.1.39-.29.47-.6.38-1.4.24-2.03.53-.18.06-.42.15-.46.35-.04.2,0,.13.1.17.1.04.28.16.29.3,0,.15-.25.37-.44.45l-.17.06c-.97.21-2.01-.1-2.98.07-.25.03-.49.09-.72.17-.07,0-.13-.05-.2-.07-.38-.19-.78-.34-1.19-.46l.82-.16h.13c.19-.08.38-.07.56-.16.18-.09.14-.06.21-.05.29-.11.59-.2.89-.29l.75-.29s.07,0,.11,0c.05-.03.11-.06.17-.07l.29-.13c.39-.17.77-.36,1.14-.57.11-.05.24-.13.35-.2.52-.29.97-.67,1.34-1.13.03-.05.03-.11,0-.16-.11-.06-.22,0-.32.05-.5.31-1.01.59-1.54.84l-.82.41-.22.08c-.29.13-.59.23-.88.34l-.64.19-.41.13c-.88.25-2.11.55-2.83.69-.25.05-.5.11-.74.14.39-.21.72-.51.97-.87"/>
  <path class="st0" d="M17.47,35.26c.59-.21,1.15-.53,1.64-.92.56.45,1.2.79,1.88,1.01-.56.55-1.19,1.02-1.89,1.38-.05,0-.06,0-.11-.05-.56-.31-1.08-.68-1.55-1.12-.08-.06-.16-.13-.23-.21.08,0,.18-.06.26-.1"/>
  <path class="st1" d="M13.57,36.46c.06-.05.14,0,.2-.07.62-.19,1.25-.36,1.89-.48.31-.08.64-.16.94-.26.19.21.4.39.62.56-.24.1-.5.18-.75.25-.82.27-1.7.38-2.51.65-.57.17-1.09.47-1.51.89-.19.2-.34.43-.44.68-.18-.25-.29-.51-.47-.74.5-.7,1.22-1.22,2.04-1.48Z"/>
  <path class="st1" d="M20.34,36.65s0-.05.06,0c.17.08.34.14.52.2.52.18,1.04.33,1.58.43.14,0,.27.07.41.07.35.08.73.16,1.06.26.07.05.16,0,.21.09.7.22,1.27.73,1.59,1.39v.07c-.19.29-.34.54-.52.82-.06-.05,0-.13-.06-.2-.24-1.04-1.36-1.42-2.26-1.64-1.14-.21-2.25-.56-3.31-1.04.25-.14.5-.29.73-.46"/>
  <path class="st1" d="M21.51,35.62c.82.29,1.78.38,2.63.66.74.22,1.42.58,2,1.08.16.16.3.35.4.56-.07.08-.13.18-.19.27-.1.14-.18.31-.29.45v-.07c-.17-.38-.42-.71-.74-.97-.03-.02-.06-.04-.09-.07-1.02-.52-2.13-.87-3.27-1.02-.35-.11-.7-.2-1.04-.34.2-.19.43-.38.63-.59"/>
  <path class="st1" d="M12.93,38.3c.65-.5,1.42-.83,2.23-.94h.15s.17,0,.26-.06c.24-.07.5-.1.74-.18.47-.13.94-.28,1.39-.47.24.16.47.35.73.5-1.14.49-2.32.84-3.54,1.05-.59.14-1.13.42-1.59.82-.25.27-.42.61-.49.98l-.49-.82c.13-.34.34-.64.61-.88"/>
  <path class="st1" d="M16.83,31.89c-.35-.17-.73-.26-1.12-.28.72.97,1.5,1.88,2.35,2.73.22-.1.43-.23.61-.39-.66-.65-1.27-1.33-1.84-2.06Z"/>
  <path class="st1" d="M14.9,31.36c-.31-.18-.68-.27-1.04-.25.86,1.35,1.84,2.63,2.93,3.8.24-.08.48-.17.71-.29-.96-1.01-1.83-2.11-2.61-3.27Z"/>
  <path class="st1" d="M21.4,31.89c.35-.17.73-.27,1.11-.28-.72.97-1.5,1.88-2.35,2.73-.22-.1-.42-.23-.61-.39.66-.64,1.28-1.33,1.85-2.06Z"/>
  <path class="st1" d="M23.33,31.36c.31-.18.67-.27,1.03-.25-.86,1.35-1.84,2.63-2.93,3.8-.24-.08-.48-.17-.71-.29.96-1.01,1.84-2.11,2.62-3.27Z"/>
  <path class="st0" d="M19.11,29.36c1.24-.76,2.79-.82,4.24-1.08,1.91-.14,3.39-1.72,3.4-3.64v-15.65h-15.28v15.65c0,1.92,1.49,3.5,3.4,3.64,1.46.22,3,.32,4.24,1.08ZM19.11,30.25c-.16-.18-.36-.33-.57-.43-1.2-.47-2.47-.74-3.75-.82-2.26-.19-3.99-2.08-3.99-4.34V8.3h16.64v16.35c0,2.27-1.73,4.15-3.99,4.34-1.29.07-2.55.35-3.75.82-.22.11-.41.25-.58.43Z"/>
  <path class="st1" d="M13.38,1.42h-.68v1.38h.68v-1.38Z"/>
  <path class="st1" d="M18.16,0h.68v.71h.55V0h.67v1.39h-1.9V0Z"/>
  <path class="st1" d="M13.92,2.29V.71h.68v1.38l.68,1.04v2.15h-.68v-1.95l-.68-1.05Z"/>
  <path class="st1" d="M15.83,1.42h.55v.68h-1.23V.71h.68v.7Z"/>
  <path class="st1" d="M16.99,6.51h-4.84v-2.47l-.68-1.04v-1.59h.68v1.38l.67,1.04v2h4.17v.67Z"/>
  <path class="st1" d="M25.53,1.42h-.68v1.38h.68v-1.38Z"/>
  <path class="st1" d="M24.3,2.29V.71h-.68v1.38l-.68,1.04v2.15h.68v-1.95l.68-1.05Z"/>
  <path class="st1" d="M22.4,1.42h-.56v.68h1.23V.71h-.67v.7Z"/>
  <path class="st1" d="M12.15,7.74v-.68h5.4v-1.23c-.06-.86.59-1.62,1.45-1.68.86-.06,1.62.59,1.68,1.45,0,.08,0,.15,0,.23v1.23h5.4v.68h-6.08v-1.91c0-.49-.4-.89-.89-.89s-.89.4-.89.89v1.91h-6.07Z"/>
  <path class="st1" d="M21.23,6.51h4.85v-2.47l.68-1.04v-1.59h-.68v1.38l-.67,1.04v2h-4.18v.67Z"/>
  <path class="st1" d="M18.22,3.91v-1.58l-.61-.95V0h-.68v1.59l.61.94v1.88c.19-.21.42-.38.67-.5Z"/>
  <path class="st1" d="M20,3.91v-1.58l.61-.95V0h.68v1.59l-.61.94v1.88c-.19-.21-.42-.38-.68-.5Z"/>
</svg>