<svg width="31" height="40" viewBox="0 0 31 40" fill="none" xmlns="http://www.w3.org/2000/svg">
<path d="M15.4393 10.5669C11.1948 10.5669 7.13124 11.3427 3.3606 12.87L3.25317 12.913L3.2542 22.2983C3.2542 30.4975 7.44209 36.6088 15.3682 39.9699L15.4338 39.9999L15.4995 39.9699C23.4256 36.6088 27.6145 30.4974 27.6145 22.2983L27.6134 12.9119L27.5091 12.8679C23.727 11.3406 19.6662 10.5669 15.4393 10.5669ZM15.4393 11.368C19.4265 11.368 23.2647 12.081 26.8469 13.4894L26.8479 22.3413C26.8479 32.1356 20.6616 36.8827 15.4359 39.1463C10.2093 36.8836 4.01968 32.1356 4.01968 22.3413L4.01866 13.4904C7.59553 12.0812 11.4361 11.368 15.4393 11.368ZM6.51956 13.9623V14.0302L6.67976 14.2956L6.67439 15.7149L5.29166 15.7105L5.03684 15.5461H4.96911V16.4471H5.03694L5.29166 16.2805H6.67112L6.67976 17.6975L6.51948 17.962V18.0287H7.50769V17.962L7.34741 17.6975L7.33666 16.2805H8.71507L8.972 16.4471H9.03763V15.5461H8.972L8.71507 15.7106H7.33666L7.34741 14.2956L7.50769 14.0301V13.9622L6.51956 13.9623ZM9.80522 17.2062C9.11996 17.2062 8.50864 17.6245 8.50864 18.4877C8.50864 19.9287 10.5116 19.801 10.5116 20.7284C10.5116 21.197 10.1109 21.4649 9.65904 21.4649C9.386 21.4649 9.16101 21.3868 8.98486 21.2618C8.73824 21.0909 8.63501 20.8709 8.60859 20.7026H8.47419V21.8789C8.74195 21.9494 9.11207 21.9843 9.53221 21.9843C10.5143 21.9843 11.2245 21.4251 11.2245 20.5919C11.2245 19.0946 9.10855 19.2308 9.10855 18.3394C9.10855 17.9272 9.40396 17.7233 9.80208 17.7233C10.2707 17.7233 10.5822 17.9813 10.7407 18.2438H10.874V17.4739C10.5992 17.3207 10.2209 17.2062 9.80522 17.2062ZM12.0072 19.95V20.0898L12.1738 20.4694V24.1078L12.0072 24.3841V24.4519H13.006V24.3841L12.8404 24.1078V20.6113C12.8404 20.5629 12.8525 20.5086 12.9018 20.4866C12.9917 20.4399 13.1085 20.435 13.3727 20.435C13.8554 20.435 14.3404 20.7292 14.3404 21.3853C14.3404 21.7377 14.1399 22.0285 13.9038 22.1703C13.7162 22.2848 13.4864 22.3509 13.2415 22.3755V22.7208C13.5146 22.7208 13.8924 22.6584 14.1038 22.5756C14.4808 22.4241 15.0414 22.0645 15.0414 21.2445C15.0414 20.3593 14.3755 19.95 13.5405 19.95H12.0072ZM16.6004 22.8412C15.3347 22.8412 14.4747 23.831 14.4747 25.0518C14.4747 26.1871 15.2971 27.1211 16.3585 27.2462C16.5857 27.8847 16.9022 28.4056 17.3294 28.7192C17.871 29.112 18.3894 29.1101 18.8077 29.074V28.7353C18.5373 28.6992 18.1986 28.5867 18.0013 28.4396C17.7168 28.2265 17.3741 27.7669 17.0703 27.2032C18.0153 26.983 18.726 26.107 18.726 25.0518C18.726 23.831 17.7745 22.8412 16.6004 22.8412ZM16.5166 23.4035C17.0719 23.4413 17.6166 23.8567 17.8756 24.5034C18.2173 25.3657 17.9196 26.3108 17.2089 26.6182C16.5017 26.9256 15.6451 26.4733 15.3016 25.6119C14.9599 24.7505 15.2592 23.8036 15.9682 23.4971C16.1408 23.4223 16.3289 23.3902 16.5166 23.4035ZM19.683 26.2828V26.4237L19.8486 26.8064V30.4395L19.683 30.718V30.7889H20.6828V30.718L20.5173 30.4395V28.917H21.3226C21.6678 29.6067 22.0277 30.2061 22.4461 30.5717C22.772 30.8579 23.1722 30.9684 23.5977 30.9728C23.6813 30.9728 23.7634 30.9677 23.8471 30.9598V30.6212C23.5652 30.5692 23.322 30.4436 23.1741 30.3115C22.5839 29.7962 22.3095 29.3091 21.8656 28.63C22.328 28.4846 22.7171 28.061 22.7171 27.4365C22.7171 26.5998 22.0526 26.2829 21.215 26.2829L19.683 26.2828ZM21.0463 26.7742C21.4682 26.7742 22.0149 26.9299 22.0149 27.5817C22.0149 27.9384 21.8644 28.1634 21.557 28.3589L20.513 28.3664V26.9484C20.513 26.8991 20.5267 26.8473 20.5742 26.8236C20.665 26.7778 20.7785 26.7742 21.0463 26.7742Z" fill="#051D32"/>
<path d="M15.4348 0.000268174C15.2446 -0.00589733 15.1324 0.0954017 15.0435 0.185242L13.9027 1.31951C13.6904 1.53002 13.7265 1.9019 13.893 2.19256L14.2962 2.90757L14.2167 2.96456C13.941 2.75845 13.6226 2.66561 13.25 2.66561C12.3869 2.66561 11.6867 3.33529 11.6867 4.16235C11.6867 4.98764 12.387 5.65571 13.2501 5.65571C13.6808 5.65571 14.0648 5.48307 14.3467 5.21267L14.5091 5.27406C14.4193 6.80222 13.1439 8.01462 11.5717 8.01462C10.1906 8.01462 9.01478 7.06312 8.6977 5.79655L8.83649 5.70407C9.14916 5.88199 9.53214 5.95131 9.91704 5.85354C10.6895 5.66153 11.1664 4.90668 10.9815 4.1677C10.7965 3.42784 10.0207 2.98657 9.24828 3.17946C8.91446 3.26226 8.64936 3.41375 8.44942 3.66125L8.36556 3.62472L8.56877 2.89787C8.6084 2.74902 8.61852 2.58978 8.58593 2.45062C8.5551 2.31146 8.48446 2.18991 8.36556 2.11944L7.08498 1.35607C6.98457 1.29089 6.85572 1.2495 6.69366 1.29265C6.53247 1.33405 6.43549 1.42758 6.37648 1.5324L5.60983 2.80541C5.56227 2.87763 5.54448 2.96279 5.54536 3.04734C5.54801 3.23671 5.6486 3.43454 5.79481 3.58603L6.31515 4.13538L6.25817 4.20639C5.96662 4.08043 5.65907 4.07196 5.3271 4.15476C4.55289 4.34677 4.07683 5.10073 4.26268 5.84059C4.44588 6.57957 5.2221 7.02261 5.99367 6.82971C6.35982 6.73934 6.67692 6.51095 6.87863 6.19228L7.04305 6.18347C7.14184 6.47288 7.192 6.77667 7.19146 7.08249C7.19146 8.51729 6.10353 9.6779 4.75945 9.6779C3.64262 9.6779 2.69733 8.87781 2.41548 7.78563L2.48756 7.61036C2.72449 7.65352 2.97754 7.63387 3.21975 7.53082C3.85832 7.26041 4.16639 6.54523 3.90568 5.93308C3.64496 5.32093 2.91692 5.04525 2.2757 5.31477C2.00178 5.43367 1.79277 5.60014 1.65537 5.84059L1.57585 5.82122L1.65107 5.16757C1.68278 4.89893 1.58164 4.63699 1.36937 4.52249L0.361931 3.972C0.229813 3.89977 0.153363 3.89917 0.10492 3.92471L0.0437208 3.96011C0.0290515 3.96802 0.0173483 3.98048 0.0103473 3.99561C-0.0345728 4.0969 0.081309 4.35259 0.081309 4.35259L0.872597 6.21897L0.780132 6.37823C0.708788 6.72349 0.733172 7.02533 0.846793 7.2878C0.956891 7.54235 1.15457 7.75895 1.43818 7.9351L1.622 7.97059L1.83708 8.47704L2.59938 9.76828L2.92838 10.4983L2.89823 10.9552L3.06923 11.3563L3.44124 11.5413C7.07184 10.0986 11.1382 9.29247 15.4338 9.28983C19.7303 9.28895 23.7992 10.0984 27.4263 11.5411L27.8004 11.3562L27.9714 10.9552V10.5499L29.2487 7.97059L29.4315 7.9351C29.7142 7.75895 29.9119 7.54227 30.0228 7.28772C30.1356 7.02524 30.1582 6.72349 30.0895 6.37823L29.996 6.21906L30.7884 4.35259C30.7884 4.35259 30.9038 4.0969 30.8571 3.99561C30.8546 3.98791 30.8505 3.98081 30.8452 3.97471C30.8398 3.96861 30.8333 3.96363 30.826 3.96011L30.7637 3.92471C30.7161 3.89917 30.6397 3.89977 30.5067 3.972L29.5004 4.52249C29.2881 4.63699 29.1865 4.89893 29.2165 5.16757L29.2929 5.8213L29.2144 5.84068C29.077 5.60022 28.8675 5.43376 28.5919 5.31485C27.9524 5.04533 27.2227 5.32102 26.9629 5.93317C26.7022 6.54531 27.0105 7.26041 27.6499 7.53082C27.8912 7.63387 28.1452 7.65352 28.3821 7.61036L28.4541 7.78563C28.1732 8.87781 27.2273 9.6779 26.1114 9.6779C24.7673 9.6779 23.6783 8.51729 23.6783 7.08249C23.6783 6.76629 23.729 6.46366 23.8277 6.18357L23.9911 6.1922C24.1925 6.51071 24.5092 6.73916 24.8749 6.82989C25.6465 7.02278 26.422 6.57966 26.607 5.84068C26.792 5.10082 26.3153 4.34685 25.5437 4.15484C25.209 4.07205 24.9046 4.08043 24.6104 4.20639L24.5534 4.13538L25.0749 3.58603C25.2202 3.43454 25.3197 3.23671 25.3232 3.04734C25.3241 2.96279 25.3056 2.87763 25.2598 2.80541L24.4932 1.5324C24.4307 1.42758 24.3369 1.33405 24.1739 1.29265C24.0127 1.2495 23.8836 1.29089 23.7814 1.35607L22.5041 2.11944C22.3861 2.18991 22.3146 2.31146 22.2837 2.45062C22.252 2.58978 22.2595 2.74902 22.3009 2.89787L22.5041 3.62472L22.4192 3.66125C22.2202 3.41375 21.954 3.26226 21.6193 3.17946C20.8486 2.98657 20.0704 3.42784 19.8872 4.1677C19.7014 4.90668 20.178 5.66153 20.9505 5.85354C21.3371 5.95131 21.7197 5.88199 22.0332 5.70407L22.1698 5.79655C21.8562 7.06312 20.6788 8.01462 19.2969 8.01462C17.7265 8.01462 16.4495 6.80222 16.3605 5.27406L16.5229 5.21275C16.8057 5.48315 17.1891 5.65579 17.6207 5.65579C18.4821 5.65579 19.1819 4.98764 19.1819 4.16235C19.1819 3.33529 18.4821 2.66561 17.6207 2.66561C17.2464 2.66561 16.9277 2.75845 16.652 2.96456L16.5724 2.90757L16.9777 2.19256C17.1433 1.9019 17.1794 1.53002 16.968 1.31951L15.8251 0.185242C15.737 0.0954017 15.6251 0.0046721 15.4348 0.000268174Z" fill="#051D32"/>
</svg>
