<svg width="561" height="436" viewBox="0 0 561 436" fill="none" xmlns="http://www.w3.org/2000/svg">
<path d="M488.029 409.914C488.029 417.071 482.22 422.913 475.011 422.913H85.4468C78.2379 422.913 72.4297 417.112 72.4297 409.914V143.641C72.4297 136.442 78.2379 130.642 85.4468 130.642H475.011C482.22 130.642 488.029 136.483 488.029 143.641V409.914Z" fill="white" stroke="#051D32" stroke-width="2" stroke-miterlimit="10" stroke-linecap="round" stroke-linejoin="round"/>
<path d="M467.679 149.317H92.8203V388.235H467.679V149.317Z" fill="#051D32"/>
<path d="M559.416 408.186H1V424.517H559.416V408.186Z" fill="white" stroke="#051D32" stroke-width="2" stroke-miterlimit="10" stroke-linecap="round" stroke-linejoin="round"/>
<path d="M1.82422 424.476C8.41514 431.469 20.5672 434.184 28.9294 434.184H531.446C539.809 434.184 551.961 431.428 558.552 424.476H1.82422Z" fill="#051D32" stroke="#051D32" stroke-width="2" stroke-miterlimit="10" stroke-linecap="round" stroke-linejoin="round"/>
<path d="M242.309 408.186V409.913C242.309 413.122 244.904 415.755 248.158 415.755H312.337C315.55 415.755 318.187 413.122 318.187 409.913V408.186H242.309Z" fill="#051D32"/>
<path d="M328.527 338.707L330.957 321.636C330.998 321.43 331.122 321.266 331.328 321.225C331.534 321.183 331.74 321.266 331.822 321.43C338.454 332.126 348.876 339.571 361.193 342.368C373.51 345.166 386.115 342.985 396.743 336.198C407.412 329.369 415.65 319.579 420.47 307.897L423.024 301.767C424.878 297.283 423.477 292.1 419.687 289.097L408.977 310.653C409.142 310.858 409.142 311.146 408.936 311.311C408.73 311.475 408.442 311.475 408.277 311.27L368.237 264.498C367.743 263.922 367.331 263.305 366.96 262.647L347.187 278.238C347.022 278.361 346.816 278.361 346.652 278.279C346.487 278.196 346.405 277.991 346.405 277.826L351.554 230.355C351.76 228.463 351.142 226.612 349.824 225.213C348.547 223.856 346.693 223.115 344.798 223.198C342.162 223.321 339.896 225.008 338.99 227.476L327.744 259.068C318.558 284.902 318.846 313.121 328.527 338.707Z" fill="white"/>
<path d="M220.686 338.707L218.255 321.636C218.214 321.43 218.09 321.266 217.884 321.225C217.678 321.183 217.472 321.266 217.39 321.43C210.758 332.126 200.336 339.571 188.019 342.368C175.702 345.166 163.097 342.985 152.469 336.198C141.8 329.369 133.562 319.579 128.742 307.897L126.188 301.767C124.334 297.283 125.735 292.1 129.525 289.097L140.235 310.653C140.07 310.858 140.07 311.146 140.276 311.311C140.482 311.475 140.771 311.475 140.935 311.27L180.975 264.498C181.47 263.922 181.881 263.305 182.252 262.647L202.025 278.238C202.19 278.361 202.396 278.361 202.56 278.279C202.725 278.196 202.808 277.991 202.808 277.826L197.7 230.355C197.494 228.463 198.112 226.612 199.43 225.213C200.707 223.856 202.56 223.115 204.455 223.198C207.092 223.321 209.357 225.008 210.264 227.476L221.509 259.068C230.654 284.902 230.366 313.121 220.686 338.707Z" fill="white"/>
<path d="M358.105 249.154L213.97 267.049C185.011 270.627 158.565 250.1 154.981 221.141L137.062 77.206C133.478 48.2463 154.034 21.8781 183.034 18.2993L327.169 0.405151C356.169 -3.17368 382.574 17.3532 386.158 46.3129L404.077 190.248C407.661 219.166 387.105 245.534 358.105 249.154Z" fill="#105898"/>
<path d="M347.642 185.27C347.642 185.27 347.024 180.169 346.694 177.537C343.522 151.95 320.166 133.768 294.544 136.976C286.099 138.046 256.605 141.666 248.16 142.736C222.538 145.903 204.33 169.227 207.543 194.814C207.873 197.446 208.491 202.547 208.491 202.547L347.642 185.27Z" fill="white"/>
<path d="M295.531 81.9369C297.673 99.0083 285.521 114.558 268.426 116.656C251.331 118.795 235.76 106.66 233.659 89.6293C231.517 72.5579 243.669 57.0085 260.723 54.9105C277.859 52.7715 293.43 64.9066 295.531 81.9369Z" fill="white"/>
<path d="M144.23 388.687L170.265 329.081L226.329 317.233L207.709 388.687H144.23Z" fill="white"/>
<path d="M178.955 249.73C178.749 249.565 178.749 249.236 178.914 249.071L185.093 241.955C187.894 238.746 188.8 234.262 187.441 230.231C186.988 229.12 186.082 228.257 184.887 227.886C183.692 227.516 182.457 227.722 181.468 228.421L125.61 267.665C120.461 271.285 118.731 278.031 121.573 283.667L125.404 291.359C125.486 291.483 125.445 291.647 125.404 291.771C126.145 293.251 126.681 294.321 126.681 294.403L175.289 254.172L179.038 249.73C178.996 249.73 178.996 249.73 178.955 249.73Z" fill="white"/>
<path d="M179.408 251.827C179.202 251.663 179.202 251.334 179.367 251.169L185.546 244.053C188.347 240.844 189.253 236.36 187.894 232.329C187.441 231.218 186.535 230.354 185.34 229.984C184.146 229.614 182.91 229.82 181.921 230.519L126.063 269.763C120.914 273.382 119.184 280.129 122.026 285.764L125.857 293.457C125.939 293.58 125.898 293.745 125.857 293.868C126.598 295.349 127.134 296.419 127.134 296.501L175.742 256.27L179.491 251.827C179.449 251.827 179.408 251.827 179.408 251.827Z" fill="white"/>
<path d="M220.686 338.706L218.255 321.635C218.214 321.429 218.09 321.265 217.884 321.224C217.678 321.183 217.472 321.265 217.39 321.429C210.758 332.125 200.336 339.57 188.019 342.368C175.702 345.165 163.097 342.985 152.469 336.197C141.8 329.369 133.562 319.578 128.742 307.896L126.188 301.766C124.334 297.283 125.735 292.099 129.525 289.096L176.362 252.609C177.062 252.074 177.886 251.786 178.751 251.786C179.204 251.786 179.657 251.868 180.069 252.033C181.346 252.485 182.252 253.555 182.541 254.871C183.2 258.039 182.335 261.412 180.234 263.88L140.235 310.693C140.07 310.899 140.07 311.186 140.276 311.351C140.482 311.516 140.771 311.516 140.935 311.31L180.975 264.497C181.47 263.921 181.881 263.304 182.252 262.646L202.025 278.237C202.19 278.36 202.396 278.36 202.561 278.278C202.725 278.195 202.808 277.99 202.808 277.825C202.808 277.784 230.366 313.12 220.686 338.706Z" fill="white"/>
<path d="M142.047 179.634C142.336 178.318 143.407 177.701 144.272 177.536C145.137 177.371 146.331 177.659 147.032 178.77L147.444 178.523L147.073 178.852C149.256 182.349 150.245 186.463 150.039 190.658L147.485 238.829C147.485 238.911 147.526 239.034 147.567 239.117L127.671 250.799C126.971 251.211 126.311 251.663 125.652 252.157L142.047 179.634Z" fill="white"/>
<path d="M185.587 229.08C184.145 228.627 182.58 228.874 181.344 229.779L125.486 269.023C123.344 270.545 121.779 272.519 120.79 274.741L120.378 273.712C117.248 265.444 120.502 256.188 128.123 251.704L181.591 220.277C182.621 219.659 183.898 219.577 185.011 219.989C186.164 220.441 186.988 221.346 187.359 222.498C188.1 224.884 188.347 227.352 188.059 229.861L187.935 230.725C187.4 229.943 186.576 229.368 185.587 229.08Z" fill="white"/>
<path d="M129.234 288.727L136.855 282.803L176.112 252.239C177.389 251.252 178.955 251.087 180.273 251.581C180.273 251.581 183.115 253.844 182.25 261.701C182.127 262.688 181.303 263.428 180.644 264.169L140.604 310.981" stroke="#051D32" stroke-width="2" stroke-miterlimit="10" stroke-linecap="round" stroke-linejoin="round"/>
<path d="M217.8 321.718C206.142 340.558 183.362 348.292 163.219 341.833" stroke="#051D32" stroke-width="2" stroke-miterlimit="10" stroke-linecap="round" stroke-linejoin="round"/>
<path d="M125.773 269.393L181.632 230.149C183.98 228.504 187.069 229.573 188.346 232.165C192.095 239.816 180.561 251.293 180.561 251.293" stroke="#051D32" stroke-width="2" stroke-miterlimit="10" stroke-linecap="round" stroke-linejoin="round"/>
<path d="M125.199 253.185C126.023 252.485 126.929 251.827 127.918 251.251L148.35 237.8" stroke="#051D32" stroke-width="2" stroke-miterlimit="10" stroke-linecap="round" stroke-linejoin="round"/>
<path d="M404.981 388.687L378.947 329.081L322.883 317.233L341.502 388.687H404.981Z" fill="white"/>
<path d="M370.256 249.73C370.462 249.565 370.462 249.236 370.298 249.071L364.119 241.955C361.317 238.746 360.411 234.262 361.771 230.231C362.224 229.12 363.13 228.257 364.325 227.886C365.519 227.516 366.755 227.722 367.744 228.421L423.602 267.665C428.751 271.285 430.481 278.031 427.639 283.667L423.808 291.359C423.725 291.483 423.766 291.647 423.808 291.771C423.066 293.251 422.531 294.321 422.531 294.403L373.923 254.172L370.174 249.73C370.215 249.73 370.256 249.73 370.256 249.73Z" fill="white"/>
<path d="M369.842 251.827C370.048 251.663 370.048 251.334 369.884 251.169L363.705 244.053C360.903 240.844 359.997 236.36 361.356 232.329C361.81 231.218 362.716 230.354 363.91 229.984C365.105 229.614 366.341 229.82 367.33 230.519L423.188 269.763C428.337 273.382 430.067 280.129 427.225 285.764L423.394 293.457C423.311 293.58 423.352 293.745 423.394 293.868C422.652 295.349 422.117 296.419 422.117 296.501L373.509 256.27L369.76 251.827C369.801 251.827 369.801 251.827 369.842 251.827Z" fill="white"/>
<path d="M328.526 338.706L330.957 321.635C330.998 321.429 331.121 321.265 331.327 321.224C331.533 321.183 331.739 321.265 331.822 321.429C338.454 332.125 348.876 339.57 361.192 342.368C373.509 345.165 386.114 342.985 396.742 336.197C407.411 329.369 415.65 319.578 420.47 307.896L423.024 301.766C424.877 297.283 423.477 292.099 419.687 289.096L372.85 252.609C372.15 252.074 371.326 251.786 370.461 251.786C370.008 251.786 369.555 251.868 369.143 252.033C367.866 252.485 366.959 253.555 366.671 254.871C366.012 258.039 366.877 261.412 368.978 263.88L408.977 310.693C409.141 310.899 409.141 311.186 408.935 311.351C408.729 311.516 408.441 311.516 408.276 311.31L368.236 264.497C367.742 263.921 367.33 263.304 366.959 262.646L347.187 278.237C347.022 278.36 346.816 278.36 346.651 278.278C346.486 278.195 346.404 277.99 346.404 277.825C346.404 277.784 318.846 313.12 328.526 338.706Z" fill="white"/>
<path d="M407.163 179.634C406.874 178.318 405.803 177.701 404.938 177.536C404.073 177.371 402.879 177.659 402.178 178.77L401.766 178.523L402.137 178.852C399.954 182.349 398.965 186.463 399.171 190.658L401.725 238.829C401.725 238.911 401.684 239.034 401.643 239.117L421.539 250.799C422.239 251.211 422.898 251.663 423.558 252.157L407.163 179.634Z" fill="white"/>
<path d="M363.624 229.08C365.066 228.627 366.631 228.874 367.867 229.779L423.725 269.023C425.867 270.545 427.432 272.519 428.421 274.741L428.833 273.712C431.964 265.444 428.709 256.188 421.089 251.704L367.62 220.277C366.59 219.659 365.313 219.577 364.201 219.989C363.047 220.441 362.223 221.346 361.853 222.498C361.111 224.884 360.864 227.352 361.152 229.861L361.276 230.725C361.812 229.943 362.677 229.368 363.624 229.08Z" fill="white"/>
<path d="M419.975 288.727L412.354 282.803L373.097 252.239C371.82 251.252 370.255 251.087 368.937 251.581C368.937 251.581 364.447 254.255 366.959 261.701C367.289 262.647 367.907 263.428 368.566 264.169L408.606 310.981" stroke="#051D32" stroke-width="2" stroke-miterlimit="10" stroke-linecap="round" stroke-linejoin="round"/>
<path d="M331.449 321.718C343.107 340.558 365.887 348.292 386.03 341.833" stroke="#051D32" stroke-width="2" stroke-miterlimit="10" stroke-linecap="round" stroke-linejoin="round"/>
<path d="M423.437 269.392L367.579 230.149C365.231 228.503 361.936 229.49 360.865 232.164C360.865 232.164 358.022 240.391 368.938 251.58" stroke="#051D32" stroke-width="2" stroke-miterlimit="10" stroke-linecap="round" stroke-linejoin="round"/>
<path d="M424.011 253.185C423.188 252.486 422.281 251.827 421.293 251.251L400.531 237.389" stroke="#051D32" stroke-width="2" stroke-miterlimit="10" stroke-linecap="round" stroke-linejoin="round"/>
</svg>
