<svg width="591" height="434" viewBox="0 0 591 434" fill="none" xmlns="http://www.w3.org/2000/svg">
<path d="M316.438 39.3643C291.723 36.4884 268.446 46.6413 253.059 64.5505C259.684 63.5482 266.528 63.3739 273.415 64.1583C320.361 69.6487 353.446 116.709 347.3 169.347C346.951 172.267 346.472 175.143 345.905 177.975C364.3 166.254 377.595 146.34 380.341 122.592C385.18 81.3267 356.585 44.0704 316.438 39.3643Z" fill="#051D32"/>
<path d="M283.267 64.3326C297.391 51.4781 353.011 31.1723 383.175 90.0417C398.17 119.324 454.271 103.288 472.622 102.635C501.043 101.633 516.996 154.706 480.119 201.985C469.527 215.537 427.332 261.377 414.56 257.673C401.788 254.013 279.388 281.639 346.168 188.477C363.386 164.424 290.939 146.166 261.429 104.116C256.416 97.0136 264.044 81.8497 283.267 64.3326Z" stroke="#051D32" stroke-width="3" stroke-miterlimit="10" stroke-linecap="round" stroke-linejoin="round"/>
<path d="M274.593 43.765C293.598 32.4792 360.814 20.409 380.037 88.429C389.583 122.243 456.32 114.792 476.981 117.275C509.02 121.11 513.771 180.502 460.853 224.556C445.64 237.236 387.099 278.807 373.717 272.663C360.335 266.519 216.575 274.929 314.304 187.038C339.499 164.38 262.955 132.352 240.331 82.4593C236.452 73.9622 248.744 59.1033 274.593 43.765Z" fill="#051D32"/>
<path d="M534.388 265.508C560.501 239.404 560.501 197.082 534.388 170.978C508.275 144.874 465.937 144.874 439.825 170.978C413.712 197.082 413.712 239.404 439.825 265.508C465.937 291.612 508.275 291.612 534.388 265.508Z" fill="#051D32"/>
<path d="M542.794 264.025C568.907 237.921 568.907 195.598 542.794 169.495C516.681 143.391 474.344 143.391 448.231 169.495C422.118 195.598 422.118 237.921 448.231 264.025C474.344 290.129 516.681 290.129 542.794 264.025Z" stroke="#051D32" stroke-width="3" stroke-miterlimit="10" stroke-linecap="round" stroke-linejoin="round"/>
<path d="M441.909 283.173C463.647 261.442 463.647 226.21 441.909 204.48C420.171 182.749 384.926 182.749 363.188 204.48C341.45 226.21 341.45 261.442 363.188 283.173C384.926 304.903 420.171 304.903 441.909 283.173Z" fill="#051D32"/>
<path d="M87.8093 231.181C99.8837 232.837 228.3 164.425 249.746 192.748C300.092 186.561 351.964 211.747 358.633 215.451C339.89 244.733 151.581 310.792 112.35 314.801C-7.34747 327.133 60.9579 228.131 87.8093 231.181Z" fill="#105898"/>
<path d="M358.042 139.651C377.55 120.15 377.55 88.532 358.042 69.0307C338.534 49.5295 306.905 49.5294 287.397 69.0307C267.889 88.5319 267.889 120.15 287.397 139.651C306.905 159.152 338.534 159.152 358.042 139.651Z" fill="#051D32"/>
<path d="M306.32 103.322C322.701 101.227 334.282 86.2542 332.186 69.8789C330.09 53.5036 315.112 41.9271 298.731 44.0221C282.35 46.1171 270.769 61.0902 272.865 77.4655C274.961 93.8408 289.939 105.417 306.32 103.322Z" fill="#051D32"/>
<path d="M245.342 155.275C228.298 135.623 234.924 101.983 260.163 80.152C285.358 58.3211 319.619 56.5781 336.663 76.2303C350.873 92.6579 348.606 118.803 332.783 139.675C339.322 136.843 347.168 137.583 353.183 142.289C361.553 148.826 363.34 161.157 357.194 169.785C350.524 179.154 337.491 181.027 328.468 174.055C326.55 172.574 324.981 170.787 323.76 168.826L297.345 216.497C302.358 220.724 194.516 247.871 225.509 211.486L253.755 162.377C250.66 160.504 247.827 158.151 245.342 155.275Z" fill="white" stroke="#051D32" stroke-width="3" stroke-miterlimit="10" stroke-linejoin="round"/>
<path d="M351.573 151.833C351.573 151.833 339.455 143.467 330.258 157.89" stroke="#051D32" stroke-width="3" stroke-miterlimit="10" stroke-linecap="round" stroke-linejoin="round"/>
<path d="M254.715 163.074C267.007 170.308 283.353 170.831 299.22 164.904" stroke="#051D32" stroke-width="3" stroke-miterlimit="10" stroke-linecap="round" stroke-linejoin="round"/>
<path d="M269.774 79.6711C274.417 79.4989 278.13 77.9947 278.068 76.3113C278.005 74.6279 274.191 73.4028 269.548 73.575C264.905 73.7471 261.191 75.2514 261.254 76.9348C261.316 78.6182 265.131 79.8433 269.774 79.6711Z" fill="#051D32"/>
<path d="M305.495 109.085C303.49 109.695 300.526 105.686 298.913 100.152C297.257 94.6184 297.562 89.6509 299.567 89.0408C301.572 88.4308 304.536 92.4397 306.149 97.9736C307.806 103.551 307.501 108.519 305.495 109.085Z" fill="#051D32"/>
<path d="M291.548 140.547C291.548 140.547 283.31 148.26 270.625 145.558" stroke="#051D32" stroke-width="3" stroke-miterlimit="10" stroke-linecap="round" stroke-linejoin="round"/>
<path d="M345.958 119.488C355.943 114.868 357.264 96.4987 348.911 78.4593C340.557 60.4198 325.691 49.5414 315.707 54.1616C305.723 58.7819 304.401 77.1512 312.755 95.1907C321.108 113.23 335.974 124.109 345.958 119.488Z" fill="#051D32"/>
<path d="M317.439 132.572C316.131 137.583 319.139 142.681 324.151 143.989C329.164 145.296 334.264 142.289 335.572 137.278C336.88 132.267 359.416 106.34 345.162 102.68C328.292 98.3224 318.746 127.605 317.439 132.572Z" fill="#051D32"/>
<path d="M378.902 102.157C378.902 102.157 375.546 99.6729 372.625 100.152" stroke="#051D32" stroke-width="3" stroke-miterlimit="10" stroke-linecap="round" stroke-linejoin="round"/>
<path d="M372.102 97.4089C372.102 97.4089 375.894 97.191 377.55 93.7051" stroke="#051D32" stroke-width="3" stroke-miterlimit="10" stroke-linecap="round" stroke-linejoin="round"/>
<path d="M105.722 73.6163L118.494 94.2707C124.161 103.465 126.907 114.184 126.253 124.947L117.84 273.101C116.315 299.769 91.7735 319.072 65.4888 314.323C38.3759 309.399 22.2476 281.293 31.663 255.41L81.7478 117.67L47.4426 93.0942L53.5887 54.2256L105.722 73.6163Z" fill="white" stroke="#051D32" stroke-width="3" stroke-miterlimit="10" stroke-linecap="round" stroke-linejoin="round"/>
<path d="M211.342 78.7581L186.277 71.089L185.1 67.5159C183.27 61.9819 179.041 57.5809 173.636 55.4893L134.623 40.3689L119.28 27.0786L51.0179 0.84668L26.7383 79.1939L115.618 99.2382L122.287 94.14L163.393 102.986C167.534 103.857 171.806 102.986 175.249 100.502L179.085 97.7131L205.718 102.811C210.557 98.3232 212.911 91.787 212.126 85.2072L211.342 78.7581Z" fill="#051D32"/>
<path d="M1.5 40.3686C1.5 61.8509 18.8924 79.2372 40.3822 79.2372C61.872 79.2372 79.2644 61.8509 79.2644 40.3686C79.2644 23.4181 68.4105 8.99484 53.2848 3.67873C49.231 2.24077 44.9156 1.5 40.3822 1.5C18.8924 1.5 1.5 18.8863 1.5 40.3686Z" fill="#051D32" stroke="#051D32" stroke-width="3" stroke-miterlimit="10" stroke-linecap="round" stroke-linejoin="round"/>
<path d="M49.6237 81.0668C69.557 81.0668 85.7161 64.9134 85.7161 44.987C85.7161 25.0607 69.557 8.90723 49.6237 8.90723C29.6904 8.90723 13.5312 25.0607 13.5312 44.987C13.5312 64.9134 29.6904 81.0668 49.6237 81.0668Z" fill="white" stroke="#051D32" stroke-width="3" stroke-miterlimit="10" stroke-linecap="round" stroke-linejoin="round"/>
<path d="M286.926 99.7178L261.861 92.0487L260.684 88.4756C258.854 82.9416 254.625 78.5406 249.22 76.449L210.207 61.3286L194.864 48.0383L130.133 22.8086L110.953 101.897L191.202 120.198L197.871 115.1L238.977 123.945C243.118 124.817 247.39 123.945 250.833 121.462L254.669 118.673L281.303 123.771C286.141 119.283 288.495 112.747 287.71 106.167L286.926 99.7178Z" fill="#051D32"/>
<path d="M77.043 61.3285C77.043 82.8108 94.4354 100.197 115.925 100.197C137.415 100.197 154.807 82.8108 154.807 61.3285C154.807 44.378 143.953 29.9548 128.828 24.6387C124.774 23.2007 120.459 22.46 115.925 22.46C94.4789 22.46 77.043 39.8462 77.043 61.3285Z" fill="#051D32" stroke="#051D32" stroke-width="3" stroke-miterlimit="10" stroke-linecap="round" stroke-linejoin="round"/>
<path d="M133.218 99.8597C151.962 95.4355 163.568 76.66 159.142 57.9235C154.716 39.187 135.934 27.5845 117.191 32.0088C98.4482 36.433 86.8417 55.2085 91.2675 73.945C95.6932 92.6815 114.475 104.284 133.218 99.8597Z" fill="white" stroke="#051D32" stroke-width="3" stroke-miterlimit="10" stroke-linecap="round" stroke-linejoin="round"/>
<path d="M276.728 433.412L376.331 258.242L171.459 278.897L135.715 433.412H276.728Z" fill="#105898"/>
<path d="M321.842 287.524L232.57 360.381C219.798 367.963 205.588 372.756 190.811 374.499C158.99 378.246 131.31 352.711 132.444 320.728L138.982 135.1C139.331 125.818 144.3 117.321 152.277 112.484L161.562 105.425L175.816 86.7317L174.726 65.293C174.508 60.9355 177.647 57.1445 181.962 56.4909L184.97 56.0552L184.926 54.9222C184.621 49.3447 188.675 44.4643 194.167 43.68L200.4 42.8085L200.488 43.2878C202.144 40.9348 204.716 39.2789 207.724 38.8432L213.957 37.9717L216.703 53.5714C218.272 50.5212 221.193 48.2989 224.767 47.776L231.001 46.9045L236.624 84.6837L229.911 111.395L187.106 157.541L215.744 271.096L286.97 228.306" fill="white"/>
<path d="M321.842 287.524L232.57 360.381C219.798 367.963 205.588 372.756 190.811 374.499C158.99 378.246 131.31 352.711 132.444 320.728L138.982 135.1C139.331 125.818 144.3 117.321 152.277 112.484L161.562 105.425L175.816 86.7317L174.726 65.293C174.508 60.9355 177.647 57.1445 181.962 56.4909L184.97 56.0552L184.926 54.9222C184.621 49.3447 188.675 44.4643 194.167 43.68L200.4 42.8085L200.488 43.2878C202.144 40.9348 204.716 39.2789 207.724 38.8432L213.957 37.9717L216.703 53.5714C218.272 50.5212 221.193 48.2989 224.767 47.776L231.001 46.9045L236.624 84.6837L229.911 111.395L187.106 157.541L215.744 271.096L286.97 228.306" stroke="#051D32" stroke-width="3" stroke-miterlimit="10" stroke-linecap="round" stroke-linejoin="round"/>
<path d="M215.524 59.019C215.219 53.4415 219.273 48.5611 224.765 47.7768L230.998 46.9053L236.621 84.6845L229.909 111.396" fill="white"/>
<path d="M215.524 59.019C215.219 53.4415 219.273 48.5611 224.765 47.7768L230.998 46.9053L236.621 84.6845L229.909 111.396" stroke="#051D32" stroke-width="3" stroke-miterlimit="10" stroke-linecap="round" stroke-linejoin="round"/>
<path d="M198.438 50.0854C198.133 44.5079 202.187 39.6275 207.679 38.8432L213.912 37.9717L221.061 78.1911L213.215 109.129" fill="white"/>
<path d="M198.438 50.0854C198.133 44.5079 202.187 39.6275 207.679 38.8432L213.912 37.9717L221.061 78.1911L213.215 109.129" stroke="#051D32" stroke-width="3" stroke-miterlimit="10" stroke-linecap="round" stroke-linejoin="round"/>
<path d="M184.926 54.9233C184.621 49.3458 188.675 44.4654 194.167 43.6811L200.401 42.8096L206.024 80.5888L199.311 107.3" fill="white"/>
<path d="M184.926 54.9233C184.621 49.3458 188.675 44.4654 194.167 43.6811L200.401 42.8096L206.024 80.5888L199.311 107.3" stroke="#051D32" stroke-width="3" stroke-miterlimit="10" stroke-linecap="round" stroke-linejoin="round"/>
<path d="M161.562 105.382L175.816 86.689L174.727 65.2502C174.509 60.8928 177.647 57.1018 181.963 56.4482L186.845 55.751L191.247 85.2946L186.016 106.167" fill="white"/>
<path d="M161.562 105.382L175.816 86.689L174.727 65.2502C174.509 60.8928 177.647 57.1018 181.963 56.4482L186.845 55.751L191.247 85.2946L186.016 106.167" stroke="#051D32" stroke-width="3" stroke-miterlimit="10" stroke-linecap="round" stroke-linejoin="round"/>
<path d="M222.371 262.948C261.428 240.942 305.497 214.493 305.497 214.493C314.259 209.699 322.105 202.074 331.956 203.904C359.287 209.089 395.728 235.016 371.013 266.739C361.684 278.722 357.631 282.948 330.779 304.344L272.935 345.434C272.935 345.042 272.979 344.65 272.979 344.258C273.938 311.01 250.748 279.767 222.371 262.948Z" fill="#105898"/>
<path d="M342.199 294.191C342.199 294.191 272.978 344.694 272.978 344.302C273.937 311.01 249.919 280.072 221.586 263.253C231.001 258.547 263.912 238.197 263.912 238.197" stroke="#051D32" stroke-width="3" stroke-miterlimit="10" stroke-linecap="round" stroke-linejoin="round"/>
<path d="M221.412 303.56L215.789 271.097" stroke="#051D32" stroke-width="3" stroke-miterlimit="10" stroke-linecap="round" stroke-linejoin="round"/>
</svg>
