<svg width="514" height="317" viewBox="0 0 514 317" fill="none" xmlns="http://www.w3.org/2000/svg">
<path d="M513.433 0H0V316.507H513.433V0Z" fill="white"/>
<path fill-rule="evenodd" clip-rule="evenodd" d="M152.441 31.7285H359.163V240.065H152.441V31.7285Z" stroke="#009A49" stroke-width="5.06515"/>
<path fill-rule="evenodd" clip-rule="evenodd" d="M153.277 127.536L357.827 236.268L357.902 74.9797C357.902 74.9797 333.321 84.4455 304.172 83.2012C271.416 81.8029 232.785 69.7629 214.714 71.5278C180.559 74.8633 153.539 85.1309 153.539 85.1309L153.277 127.536Z" fill="#009A49"/>
<path fill-rule="evenodd" clip-rule="evenodd" d="M151.82 251.119H361.797V255.136H151.82V251.119Z" fill="#F32837" stroke="#F32837" stroke-width="2.68622"/>
<path d="M151.938 277.762V264.146C151.938 263.73 151.896 263.456 151.811 263.324C151.726 263.192 151.553 263.135 151.291 263.154H150.824V260.83H153.498H156.681C158.152 260.83 159.238 261.26 159.938 262.119C160.645 262.979 160.999 264.306 160.999 266.101C160.999 268.028 160.638 269.402 159.917 270.224C159.443 270.762 158.746 271.131 157.827 271.329C158.23 271.452 158.559 271.627 158.813 271.853C159.62 272.496 160.097 273.605 160.246 275.183L160.415 277.166C160.493 277.95 160.564 278.46 160.628 278.697C160.698 278.923 160.815 279.037 160.978 279.037C161.211 279.037 161.363 278.886 161.434 278.583C161.505 278.272 161.54 277.596 161.54 276.557H162.739C162.739 278.172 162.523 279.367 162.092 280.142C161.66 280.916 160.995 281.304 160.097 281.304C159.086 281.304 158.371 281.001 157.954 280.397C157.537 279.792 157.3 278.716 157.243 277.166L157.179 275.183C157.137 274.059 157.017 273.294 156.819 272.888C156.621 272.481 156.271 272.278 155.768 272.278H155.057V277.762C155.057 278.092 155.089 278.328 155.153 278.47C155.217 278.602 155.326 278.668 155.482 278.668H156.172V280.992H153.498H150.824V278.668H151.27C151.517 278.668 151.691 278.597 151.79 278.456C151.889 278.324 151.938 278.092 151.938 277.762ZM155.057 269.955H155.896C156.603 269.955 157.109 269.69 157.413 269.161C157.724 268.632 157.88 267.754 157.88 266.526C157.88 265.317 157.724 264.453 157.413 263.933C157.109 263.413 156.603 263.154 155.896 263.154H155.057V269.955Z" fill="#009A49"/>
<path d="M167.927 281.389C166.526 281.389 165.476 280.714 164.776 279.363C164.076 278.012 163.722 275.981 163.715 273.27C163.715 270.711 164.079 268.741 164.808 267.362C165.543 265.974 166.583 265.279 167.927 265.279C169.151 265.279 170.081 265.884 170.717 267.093C171.354 268.302 171.672 270.068 171.672 272.392V273.78H166.548C166.569 275.764 166.693 277.138 166.919 277.903C167.159 278.716 167.619 279.122 168.298 279.122C168.892 279.122 169.32 278.796 169.582 278.144C169.851 277.483 169.953 276.491 169.89 275.169H171.672C171.722 277.256 171.435 278.815 170.813 279.845C170.197 280.874 169.235 281.389 167.927 281.389ZM168.882 271.683C168.868 270.144 168.793 269.1 168.659 268.552C168.503 267.919 168.189 267.603 167.715 267.603C167.248 267.603 166.937 267.985 166.781 268.751C166.668 269.308 166.594 270.286 166.558 271.683H168.882Z" fill="#009A49"/>
<path d="M175.025 276.855C175.025 277.28 175.153 277.572 175.407 277.733C175.662 277.884 176.143 277.96 176.85 277.96H178.983C180.228 277.96 181.158 278.281 181.773 278.923C182.396 279.566 182.707 280.534 182.707 281.828C182.707 283.226 182.3 284.274 181.487 284.973C180.673 285.672 179.45 286.022 177.816 286.022C176.182 286.022 174.955 285.781 174.134 285.299C173.321 284.827 172.914 284.109 172.914 283.145C172.914 282.569 173.063 282.088 173.36 281.7C173.664 281.322 174.095 281.077 174.654 280.963C174.477 280.85 174.311 280.723 174.155 280.581C173.469 279.948 173.126 279.117 173.126 278.087C173.126 277.502 173.264 276.94 173.54 276.401C173.816 275.853 174.155 275.48 174.559 275.282L174.346 275.041C173.745 274.229 173.445 272.939 173.445 271.173C173.445 269.284 173.77 267.829 174.421 266.809C175.078 265.789 176.012 265.279 177.222 265.279C178.219 265.279 179.025 265.595 179.641 266.228C179.704 265.964 179.803 265.704 179.938 265.449C180.348 264.674 180.942 264.287 181.72 264.287C182.293 264.287 182.742 264.533 183.068 265.024C183.393 265.506 183.556 266.176 183.556 267.036C183.556 267.697 183.45 268.202 183.237 268.552C183.025 268.892 182.714 269.062 182.304 269.062C181.957 269.062 181.692 268.934 181.508 268.679C181.331 268.415 181.243 268.037 181.243 267.546C181.243 267.045 181.324 266.686 181.487 266.469C181.656 266.242 181.929 266.129 182.304 266.129H182.314C182.152 265.883 181.954 265.761 181.72 265.761C181.324 265.761 181.027 265.997 180.829 266.469C180.695 266.79 180.631 267.168 180.638 267.603C180.638 267.688 180.652 267.834 180.68 268.042C180.716 268.24 180.758 268.438 180.808 268.637C180.949 269.26 181.016 269.959 181.009 270.734C181.009 272.651 180.705 274.054 180.097 274.942C179.496 275.82 178.537 276.26 177.222 276.26C176.627 276.269 176.104 276.189 175.651 276.019C175.475 276.066 175.326 276.17 175.206 276.33C175.086 276.491 175.025 276.666 175.025 276.855ZM177.222 267.177C176.797 267.177 176.493 267.451 176.309 267.999C176.132 268.547 176.044 269.468 176.044 270.762C176.044 272.141 176.129 273.091 176.299 273.61C176.468 274.13 176.776 274.389 177.222 274.389C177.639 274.389 177.94 274.106 178.123 273.539C178.314 272.972 178.41 272.047 178.41 270.762C178.41 269.515 178.314 268.604 178.123 268.028C177.932 267.461 177.632 267.177 177.222 267.177ZM174.813 282.621C174.813 283.141 175.064 283.528 175.566 283.783C176.069 284.038 176.822 284.166 177.826 284.166C178.831 284.166 179.58 284.024 180.076 283.741C180.578 283.457 180.829 283.027 180.829 282.451C180.829 282.092 180.698 281.847 180.436 281.714C180.182 281.592 179.701 281.53 178.993 281.53H176.861C176.528 281.53 176.214 281.502 175.917 281.445C175.605 281.455 175.344 281.573 175.131 281.799C174.919 282.026 174.813 282.3 174.813 282.621Z" fill="#009A49"/>
<path d="M185.008 277.988V268.68C185.008 268.33 184.965 268.094 184.881 267.971C184.796 267.839 184.637 267.773 184.403 267.773H184V265.676H185.56H187.119H187.819V277.988C187.819 278.319 187.865 278.555 187.957 278.697C188.049 278.829 188.209 278.895 188.435 278.895H188.849V280.992H186.43H184V278.895H184.403C184.622 278.895 184.778 278.824 184.87 278.683C184.962 278.55 185.008 278.319 185.008 277.988ZM186.26 260.434C186.734 260.434 187.133 260.651 187.459 261.085C187.784 261.52 187.947 262.049 187.947 262.672C187.947 263.296 187.784 263.825 187.459 264.259C187.133 264.684 186.734 264.897 186.26 264.897C185.786 264.897 185.386 264.684 185.061 264.259C184.736 263.825 184.573 263.296 184.573 262.672C184.573 262.049 184.736 261.52 185.061 261.085C185.386 260.651 185.786 260.434 186.26 260.434Z" fill="#009A49"/>
<path d="M194.25 281.389C192.814 281.389 191.764 280.742 191.099 279.448C190.441 278.144 190.109 276.085 190.102 273.27C190.109 270.503 190.441 268.481 191.099 267.206C191.764 265.922 192.814 265.279 194.25 265.279C195.693 265.279 196.75 265.922 197.422 267.206C198.08 268.472 198.409 270.465 198.409 273.185V273.27C198.416 276.085 198.084 278.144 197.412 279.448C196.747 280.742 195.693 281.389 194.25 281.389ZM194.25 279.065C194.752 279.065 195.088 278.683 195.258 277.918C195.428 277.143 195.513 275.599 195.513 273.285C195.513 271.008 195.428 269.492 195.258 268.736C195.088 267.981 194.752 267.603 194.25 267.603C193.748 267.603 193.412 267.981 193.242 268.736C193.079 269.492 192.998 271.008 192.998 273.285C192.998 275.599 193.079 277.143 193.242 277.918C193.412 278.683 193.748 279.065 194.25 279.065Z" fill="#009A49"/>
<path d="M200.625 277.988V268.68C200.625 268.33 200.583 268.094 200.498 267.971C200.413 267.839 200.254 267.773 200.02 267.773H199.617V265.676H201.177H202.736H203.437V267.56L203.659 267.192C204.423 265.917 205.339 265.279 206.407 265.279C207.122 265.279 207.681 265.577 208.084 266.172C208.487 266.767 208.688 267.589 208.688 268.637V277.988C208.688 278.319 208.734 278.555 208.826 278.697C208.918 278.829 209.078 278.895 209.304 278.895H209.718V280.992H207.352H204.975V278.895H205.336C205.534 278.895 205.672 278.829 205.75 278.697C205.834 278.555 205.877 278.319 205.877 277.988V269.572C205.877 269.176 205.792 268.854 205.622 268.609C205.46 268.363 205.244 268.241 204.975 268.241C204.445 268.241 204.049 268.585 203.787 269.275C203.532 269.955 203.415 270.985 203.437 272.364V277.988C203.437 278.319 203.476 278.555 203.553 278.697C203.631 278.829 203.766 278.895 203.957 278.895H204.307V280.992H201.962H199.617V278.895H200.02C200.24 278.895 200.395 278.824 200.487 278.683C200.579 278.551 200.625 278.319 200.625 277.988Z" fill="#009A49"/>
<path d="M215.204 281.389C213.804 281.389 212.753 280.714 212.053 279.363C211.353 278.012 210.999 275.981 210.992 273.27C210.992 270.711 211.356 268.741 212.085 267.362C212.821 265.974 213.86 265.279 215.204 265.279C216.428 265.279 217.358 265.884 217.995 267.093C218.631 268.302 218.949 270.068 218.949 272.392V273.78H213.825C213.846 275.764 213.97 277.138 214.196 277.903C214.437 278.716 214.897 279.122 215.576 279.122C216.17 279.122 216.598 278.796 216.859 278.144C217.128 277.483 217.231 276.491 217.167 275.169H218.949C218.999 277.256 218.713 278.815 218.09 279.845C217.475 280.874 216.513 281.389 215.204 281.389ZM216.159 271.683C216.145 270.144 216.071 269.1 215.936 268.552C215.781 267.919 215.466 267.603 214.992 267.603C214.525 267.603 214.214 267.985 214.058 268.751C213.945 269.308 213.871 270.286 213.836 271.683H216.159Z" fill="#009A49"/>
<path d="M220.285 280.992V278.668H220.731C220.978 278.668 221.152 278.602 221.251 278.47C221.35 278.328 221.399 278.092 221.399 277.762V264.146C221.399 263.73 221.357 263.456 221.272 263.324C221.187 263.192 221.014 263.135 220.752 263.154H220.285V260.83H224.518H230.163V264.245V267.659H228.688V266.767C228.688 265.454 228.508 264.528 228.147 263.99C227.793 263.451 227.181 263.182 226.311 263.182H224.518V269.317H225.41C225.707 269.317 225.915 269.213 226.036 269.005C226.163 268.788 226.227 268.42 226.227 267.9V266.483H227.701V270.436V274.404H226.227V273.029C226.227 272.519 226.163 272.16 226.036 271.952C225.915 271.745 225.707 271.641 225.41 271.641H224.518V278.668H226.248C227.146 278.668 227.776 278.357 228.136 277.733C228.504 277.11 228.688 276.038 228.688 274.517V273.483H230.163V277.237V280.992H224.518H220.285Z" fill="#009A49"/>
<path d="M232.309 277.988V268.68C232.309 268.33 232.266 268.094 232.181 267.971C232.097 267.839 231.937 267.773 231.704 267.773H231.301V265.676H232.86H234.42H235.12V267.759L235.428 267.192C236.178 265.917 237.08 265.279 238.133 265.279C238.841 265.279 239.396 265.572 239.799 266.158C240.068 266.554 240.248 267.06 240.34 267.674L240.616 267.192C241.38 265.917 242.296 265.279 243.364 265.279C244.078 265.279 244.637 265.577 245.04 266.172C245.444 266.767 245.645 267.589 245.645 268.637V277.988C245.645 278.319 245.691 278.555 245.783 278.697C245.875 278.829 246.034 278.895 246.26 278.895H246.674V280.992H244.329H241.985V278.895H242.324C242.508 278.895 242.639 278.829 242.717 278.697C242.795 278.555 242.834 278.319 242.834 277.988V269.572C242.834 269.176 242.749 268.854 242.579 268.609C242.416 268.363 242.2 268.241 241.932 268.241C241.401 268.241 241.005 268.585 240.743 269.275C240.489 269.955 240.372 270.985 240.393 272.364V277.988C240.393 278.319 240.432 278.555 240.51 278.697C240.595 278.829 240.736 278.895 240.934 278.895H241.295V280.992H239.014H236.733V278.895H237.072C237.256 278.895 237.387 278.829 237.465 278.697C237.543 278.555 237.582 278.319 237.582 277.988V269.587C237.582 269.18 237.497 268.854 237.327 268.609C237.164 268.363 236.945 268.241 236.669 268.241C236.132 268.241 235.732 268.585 235.47 269.275C235.216 269.955 235.099 270.985 235.12 272.364V277.988C235.12 278.319 235.159 278.555 235.237 278.697C235.322 278.829 235.467 278.895 235.672 278.895H236.043V280.992H233.677H231.301V278.895H231.704C231.923 278.895 232.079 278.824 232.171 278.683C232.263 278.551 232.309 278.319 232.309 277.988Z" fill="#009A49"/>
<path d="M248.328 277.988V268.68C248.328 268.33 248.286 268.094 248.201 267.971C248.116 267.839 247.957 267.773 247.723 267.773H247.32V265.676H248.88H250.44H251.14V277.988C251.14 278.319 251.186 278.555 251.278 278.697C251.37 278.829 251.529 278.895 251.755 278.895H252.169V280.992H249.75H247.32V278.895H247.723C247.943 278.895 248.098 278.824 248.19 278.683C248.282 278.55 248.328 278.319 248.328 277.988ZM249.58 260.434C250.054 260.434 250.454 260.651 250.779 261.085C251.104 261.52 251.267 262.049 251.267 262.672C251.267 263.296 251.104 263.825 250.779 264.259C250.454 264.684 250.054 264.897 249.58 264.897C249.106 264.897 248.707 264.684 248.381 264.259C248.056 263.825 247.893 263.296 247.893 262.672C247.893 262.049 248.056 261.52 248.381 261.085C248.707 260.651 249.106 260.434 249.58 260.434Z" fill="#009A49"/>
<path d="M254.09 277.988V263.834C254.09 263.484 254.058 263.248 253.994 263.125C253.931 262.993 253.811 262.927 253.634 262.927H253.082V260.83H254.642H256.201H256.902V277.988C256.902 278.319 256.947 278.555 257.039 278.697C257.131 278.829 257.291 278.895 257.517 278.895H257.931V280.992H255.512H253.082V278.895H253.485C253.704 278.895 253.86 278.824 253.952 278.682C254.044 278.55 254.09 278.319 254.09 277.988Z" fill="#009A49"/>
<path d="M259.531 277.988V268.68C259.531 268.33 259.489 268.094 259.404 267.971C259.319 267.839 259.16 267.773 258.927 267.773H258.523V265.676H260.083H261.643H262.343V277.988C262.343 278.319 262.389 278.555 262.481 278.697C262.573 278.829 262.732 278.895 262.958 278.895H263.372V280.992H260.953H258.523V278.895H258.927C259.146 278.895 259.301 278.824 259.393 278.683C259.485 278.55 259.531 278.319 259.531 277.988ZM260.783 260.434C261.257 260.434 261.657 260.651 261.982 261.085C262.308 261.52 262.47 262.049 262.47 262.672C262.47 263.296 262.308 263.825 261.982 264.259C261.657 264.684 261.257 264.897 260.783 264.897C260.309 264.897 259.91 264.684 259.584 264.259C259.259 263.825 259.096 263.296 259.096 262.672C259.096 262.049 259.259 261.52 259.584 261.085C259.91 260.651 260.309 260.434 260.783 260.434Z" fill="#009A49"/>
<path d="M267.585 281.389C266.652 281.389 265.898 281.039 265.325 280.34C264.759 279.632 264.477 278.702 264.477 277.549C264.477 276.548 264.714 275.703 265.187 275.013C265.661 274.314 266.499 273.587 267.702 272.831L268.975 272.038C269.166 271.915 269.339 271.764 269.495 271.584C269.735 271.31 269.909 270.999 270.015 270.649C270.128 270.29 270.178 269.884 270.163 269.431C270.149 268.977 270.057 268.618 269.888 268.354C269.583 267.815 269.028 267.546 268.222 267.546C267.543 267.546 267.026 267.693 266.673 267.985L266.694 267.971L266.97 267.943C267.38 267.943 267.702 268.118 267.935 268.467C268.176 268.807 268.296 269.275 268.296 269.87C268.296 270.38 268.13 270.829 267.797 271.216C267.465 271.603 267.076 271.797 266.63 271.797C266.072 271.797 265.626 271.57 265.294 271.117C264.968 270.654 264.805 270.035 264.805 269.261C264.805 268.071 265.195 267.112 265.973 266.384C266.758 265.648 267.79 265.279 269.071 265.279C270.28 265.279 271.214 265.648 271.872 266.384C272.529 267.112 272.858 268.156 272.858 269.516V276.572C272.858 277.639 272.876 278.333 272.911 278.654C272.954 278.976 273.039 279.136 273.166 279.136C273.35 279.136 273.467 279.051 273.516 278.881C273.573 278.711 273.601 278.343 273.601 277.776V276.699H274.768V277.776C274.768 278.909 274.57 279.783 274.174 280.397C273.785 281.002 273.226 281.304 272.498 281.304C271.635 281.304 271.009 280.846 270.62 279.93C270.528 279.693 270.443 279.429 270.365 279.136C270.245 279.401 270.114 279.641 269.972 279.859C269.322 280.879 268.526 281.389 267.585 281.389ZM270.047 275.41V273.072L270.004 273.129C268.788 274.517 268.041 275.438 267.766 275.892C267.497 276.345 267.362 276.888 267.362 277.521C267.362 278.04 267.454 278.437 267.638 278.711C267.822 278.985 268.091 279.122 268.445 279.122C268.926 279.122 269.297 278.824 269.559 278.229C269.658 278.003 269.753 277.715 269.845 277.365C269.902 277.148 269.948 276.85 269.983 276.472C270.025 276.095 270.047 275.74 270.047 275.41Z" fill="#009A49"/>
<path d="M275.625 271.939H278.999V274.433H275.625V271.939Z" fill="#009A49"/>
<path d="M281.333 277.762V264.146C281.333 263.73 281.29 263.456 281.205 263.324C281.121 263.192 280.947 263.135 280.686 263.154H280.219V260.83H282.892H286.075C287.547 260.83 288.632 261.26 289.332 262.119C290.04 262.979 290.393 264.306 290.393 266.101C290.393 268.028 290.033 269.402 289.311 270.224C288.837 270.762 288.141 271.131 287.221 271.329C287.624 271.452 287.953 271.627 288.208 271.853C289.014 272.496 289.492 273.605 289.64 275.183L289.81 277.166C289.888 277.95 289.958 278.46 290.022 278.697C290.093 278.923 290.21 279.037 290.372 279.037C290.606 279.037 290.758 278.886 290.828 278.583C290.899 278.272 290.935 277.596 290.935 276.557H292.133C292.133 278.172 291.918 279.367 291.486 280.142C291.055 280.916 290.39 281.304 289.492 281.304C288.48 281.304 287.766 281.001 287.348 280.397C286.931 279.792 286.694 278.716 286.638 277.166L286.574 275.183C286.532 274.059 286.411 273.294 286.213 272.888C286.015 272.481 285.665 272.278 285.163 272.278H284.452V277.762C284.452 278.092 284.484 278.328 284.548 278.47C284.611 278.602 284.721 278.668 284.876 278.668H285.566V280.992H282.892H280.219V278.668H280.664C280.912 278.668 281.085 278.597 281.184 278.456C281.283 278.324 281.333 278.092 281.333 277.762ZM284.452 269.955H285.29C285.998 269.955 286.503 269.69 286.807 269.161C287.119 268.632 287.274 267.754 287.274 266.526C287.274 265.317 287.119 264.453 286.807 263.933C286.503 263.413 285.998 263.154 285.29 263.154H284.452V269.955Z" fill="#009A49"/>
<path d="M297.207 281.389C295.771 281.389 294.721 280.742 294.056 279.448C293.398 278.144 293.066 276.085 293.059 273.27C293.066 270.503 293.398 268.481 294.056 267.206C294.721 265.922 295.771 265.279 297.207 265.279C298.65 265.279 299.707 265.922 300.379 267.206C301.037 268.472 301.366 270.465 301.366 273.185V273.27C301.373 276.085 301.041 278.144 300.369 279.448C299.704 280.742 298.65 281.389 297.207 281.389ZM297.207 279.065C297.709 279.065 298.045 278.683 298.215 277.918C298.385 277.143 298.47 275.599 298.47 273.285C298.47 271.008 298.385 269.492 298.215 268.736C298.045 267.981 297.709 267.603 297.207 267.603C296.705 267.603 296.369 267.981 296.199 268.736C296.036 269.492 295.955 271.008 295.955 273.285C295.955 275.599 296.036 277.143 296.199 277.918C296.369 278.683 296.705 279.065 297.207 279.065Z" fill="#009A49"/>
<path d="M303.606 277.988V268.68C303.606 268.33 303.563 268.094 303.478 267.971C303.393 267.839 303.234 267.773 303.001 267.773H302.598V265.676H304.157H305.717H306.417V267.759L306.725 267.192C307.475 265.917 308.376 265.279 309.43 265.279C310.138 265.279 310.693 265.572 311.096 266.158C311.365 266.554 311.545 267.06 311.637 267.674L311.913 267.192C312.677 265.917 313.593 265.279 314.661 265.279C315.375 265.279 315.934 265.577 316.337 266.172C316.74 266.767 316.942 267.589 316.942 268.637V277.988C316.942 278.319 316.988 278.555 317.08 278.697C317.172 278.829 317.331 278.895 317.557 278.895H317.971V280.992H315.626H313.282V278.895H313.621C313.805 278.895 313.936 278.829 314.014 278.697C314.092 278.555 314.13 278.319 314.13 277.988V269.572C314.13 269.176 314.046 268.854 313.876 268.609C313.713 268.363 313.497 268.241 313.229 268.241C312.698 268.241 312.302 268.585 312.04 269.275C311.786 269.955 311.669 270.985 311.69 272.364V277.988C311.69 278.319 311.729 278.555 311.807 278.697C311.892 278.829 312.033 278.895 312.231 278.895H312.592V280.992H310.311H308.03V278.895H308.369C308.553 278.895 308.684 278.829 308.762 278.697C308.84 278.555 308.879 278.319 308.879 277.988V269.587C308.879 269.18 308.794 268.854 308.624 268.609C308.461 268.363 308.242 268.241 307.966 268.241C307.429 268.241 307.029 268.585 306.767 269.275C306.513 269.955 306.396 270.985 306.417 272.364V277.988C306.417 278.319 306.456 278.555 306.534 278.697C306.619 278.829 306.764 278.895 306.969 278.895H307.34V280.992H304.974H302.598V278.895H303.001C303.22 278.895 303.376 278.824 303.468 278.683C303.56 278.551 303.606 278.319 303.606 277.988Z" fill="#009A49"/>
<path d="M322.077 281.389C321.144 281.389 320.39 281.039 319.818 280.34C319.252 279.632 318.969 278.702 318.969 277.549C318.969 276.548 319.206 275.703 319.68 275.013C320.153 274.314 320.992 273.587 322.194 272.831L323.467 272.038C323.658 271.915 323.832 271.764 323.987 271.584C324.228 271.31 324.401 270.999 324.507 270.649C324.62 270.29 324.67 269.884 324.656 269.431C324.641 268.977 324.549 268.618 324.38 268.354C324.076 267.815 323.52 267.546 322.714 267.546C322.035 267.546 321.519 267.693 321.165 267.985L321.186 267.971L321.462 267.943C321.872 267.943 322.194 268.118 322.427 268.467C322.668 268.807 322.788 269.275 322.788 269.87C322.788 270.38 322.622 270.829 322.29 271.216C321.957 271.603 321.568 271.797 321.122 271.797C320.564 271.797 320.118 271.57 319.786 271.117C319.46 270.654 319.298 270.035 319.298 269.261C319.298 268.071 319.687 267.112 320.465 266.384C321.25 265.648 322.282 265.279 323.563 265.279C324.772 265.279 325.706 265.648 326.364 266.384C327.021 267.112 327.35 268.156 327.35 269.516V276.572C327.35 277.639 327.368 278.333 327.403 278.654C327.446 278.976 327.531 279.136 327.658 279.136C327.842 279.136 327.959 279.051 328.008 278.881C328.065 278.711 328.093 278.343 328.093 277.776V276.699H329.26V277.776C329.26 278.909 329.062 279.783 328.666 280.397C328.277 281.002 327.718 281.304 326.99 281.304C326.127 281.304 325.501 280.846 325.112 279.93C325.02 279.693 324.935 279.429 324.857 279.136C324.737 279.401 324.606 279.641 324.465 279.859C323.814 280.879 323.018 281.389 322.077 281.389ZM324.539 275.41V273.072L324.496 273.129C323.28 274.517 322.534 275.438 322.258 275.892C321.989 276.345 321.855 276.888 321.855 277.521C321.855 278.04 321.947 278.437 322.13 278.711C322.314 278.985 322.583 279.122 322.937 279.122C323.418 279.122 323.789 278.824 324.051 278.229C324.15 278.003 324.245 277.715 324.337 277.365C324.394 277.148 324.44 276.85 324.475 276.472C324.518 276.095 324.539 275.74 324.539 275.41Z" fill="#009A49"/>
<path d="M332.049 276.855C332.049 277.28 332.176 277.572 332.431 277.733C332.685 277.884 333.166 277.96 333.874 277.96H336.006C337.251 277.96 338.181 278.281 338.797 278.923C339.419 279.566 339.73 280.534 339.73 281.828C339.73 283.226 339.324 284.274 338.51 284.973C337.697 285.672 336.473 286.022 334.839 286.022C333.205 286.022 331.978 285.781 331.158 285.299C330.344 284.827 329.938 284.109 329.938 283.145C329.938 282.569 330.086 282.088 330.383 281.7C330.687 281.322 331.119 281.077 331.677 280.963C331.501 280.85 331.334 280.723 331.179 280.581C330.493 279.948 330.15 279.117 330.15 278.087C330.15 277.502 330.288 276.94 330.563 276.401C330.839 275.853 331.179 275.48 331.582 275.282L331.37 275.041C330.769 274.229 330.468 272.939 330.468 271.173C330.468 269.284 330.793 267.829 331.444 266.809C332.102 265.789 333.036 265.279 334.245 265.279C335.242 265.279 336.049 265.595 336.664 266.228C336.728 265.964 336.827 265.704 336.961 265.449C337.371 264.674 337.966 264.287 338.744 264.287C339.316 264.287 339.766 264.533 340.091 265.024C340.416 265.506 340.579 266.176 340.579 267.036C340.579 267.697 340.473 268.202 340.261 268.552C340.049 268.892 339.737 269.062 339.327 269.062C338.981 269.062 338.715 268.934 338.531 268.679C338.355 268.415 338.266 268.037 338.266 267.546C338.266 267.045 338.347 266.686 338.51 266.469C338.68 266.242 338.952 266.129 339.327 266.129H339.338C339.175 265.883 338.977 265.761 338.744 265.761C338.347 265.761 338.05 265.997 337.852 266.469C337.718 266.79 337.654 267.168 337.661 267.603C337.661 267.688 337.676 267.834 337.704 268.042C337.739 268.24 337.782 268.438 337.831 268.637C337.973 269.26 338.04 269.959 338.033 270.734C338.033 272.651 337.729 274.054 337.12 274.942C336.519 275.82 335.561 276.26 334.245 276.26C333.651 276.269 333.128 276.189 332.675 276.019C332.498 276.066 332.349 276.17 332.229 276.33C332.109 276.491 332.049 276.666 332.049 276.855ZM334.245 267.177C333.821 267.177 333.517 267.451 333.333 267.999C333.156 268.547 333.067 269.468 333.067 270.762C333.067 272.141 333.152 273.091 333.322 273.61C333.492 274.13 333.799 274.389 334.245 274.389C334.662 274.389 334.963 274.106 335.147 273.539C335.338 272.972 335.433 272.047 335.433 270.762C335.433 269.515 335.338 268.604 335.147 268.028C334.956 267.461 334.655 267.177 334.245 267.177ZM331.837 282.621C331.837 283.141 332.088 283.528 332.59 283.783C333.092 284.038 333.845 284.166 334.85 284.166C335.854 284.166 336.604 284.024 337.099 283.741C337.601 283.457 337.852 283.027 337.852 282.451C337.852 282.092 337.721 281.847 337.46 281.714C337.205 281.592 336.724 281.53 336.017 281.53H333.884C333.552 281.53 333.237 281.502 332.94 281.445C332.629 281.455 332.367 281.573 332.155 281.799C331.943 282.026 331.837 282.3 331.837 282.621Z" fill="#009A49"/>
<path d="M342.031 277.988V268.68C342.031 268.33 341.989 268.094 341.904 267.971C341.819 267.839 341.66 267.773 341.427 267.773H341.023V265.676H342.583H344.143H344.843V267.56L345.066 267.192C345.83 265.917 346.746 265.279 347.814 265.279C348.528 265.279 349.087 265.577 349.49 266.172C349.893 266.767 350.095 267.589 350.095 268.637V277.988C350.095 278.319 350.141 278.555 350.233 278.697C350.325 278.829 350.484 278.895 350.71 278.895H351.124V280.992H348.758H346.381V278.895H346.742C346.94 278.895 347.078 278.829 347.156 278.697C347.241 278.555 347.283 278.319 347.283 277.988V269.572C347.283 269.176 347.198 268.854 347.029 268.609C346.866 268.363 346.65 268.241 346.381 268.241C345.851 268.241 345.455 268.585 345.193 269.275C344.938 269.955 344.822 270.985 344.843 272.364V277.988C344.843 278.319 344.882 278.555 344.96 278.697C345.037 278.829 345.172 278.895 345.363 278.895H345.713V280.992H343.368H341.023V278.895H341.427C341.646 278.895 341.801 278.824 341.893 278.683C341.985 278.551 342.031 278.319 342.031 277.988Z" fill="#009A49"/>
<path d="M355.304 281.389C354.37 281.389 353.617 281.039 353.044 280.34C352.478 279.632 352.195 278.702 352.195 277.549C352.195 276.548 352.432 275.703 352.906 275.013C353.38 274.314 354.218 273.587 355.421 272.831L356.694 272.038C356.885 271.915 357.058 271.764 357.214 271.584C357.454 271.31 357.627 270.999 357.734 270.649C357.847 270.29 357.896 269.884 357.882 269.431C357.868 268.977 357.776 268.618 357.606 268.354C357.302 267.815 356.747 267.546 355.941 267.546C355.262 267.546 354.745 267.693 354.392 267.985L354.413 267.971L354.689 267.943C355.099 267.943 355.421 268.118 355.654 268.467C355.895 268.807 356.015 269.275 356.015 269.87C356.015 270.38 355.849 270.829 355.516 271.216C355.184 271.603 354.795 271.797 354.349 271.797C353.79 271.797 353.345 271.57 353.012 271.117C352.687 270.654 352.524 270.035 352.524 269.261C352.524 268.071 352.913 267.112 353.691 266.384C354.476 265.648 355.509 265.279 356.789 265.279C357.999 265.279 358.932 265.648 359.59 266.384C360.248 267.112 360.577 268.156 360.577 269.516V276.572C360.577 277.639 360.595 278.333 360.63 278.654C360.672 278.976 360.757 279.136 360.885 279.136C361.069 279.136 361.185 279.051 361.235 278.881C361.291 278.711 361.32 278.343 361.32 277.776V276.699H362.487V277.776C362.487 278.909 362.289 279.783 361.893 280.397C361.504 281.002 360.945 281.304 360.216 281.304C359.353 281.304 358.727 280.846 358.338 279.93C358.246 279.693 358.161 279.429 358.084 279.136C357.963 279.401 357.833 279.641 357.691 279.859C357.04 280.879 356.245 281.389 355.304 281.389ZM357.765 275.41V273.072L357.723 273.129C356.506 274.517 355.76 275.438 355.484 275.892C355.216 276.345 355.081 276.888 355.081 277.521C355.081 278.04 355.173 278.437 355.357 278.711C355.541 278.985 355.81 279.122 356.163 279.122C356.644 279.122 357.016 278.824 357.277 278.229C357.376 278.003 357.472 277.715 357.564 277.365C357.62 277.148 357.666 276.85 357.702 276.472C357.744 276.095 357.765 275.74 357.765 275.41Z" fill="#009A49"/>
</svg>
