<svg width="600" height="400" viewBox="0 0 600 400" fill="none" xmlns="http://www.w3.org/2000/svg">
<path d="M600 0H0V400H600V0Z" fill="white"/>
<path d="M0 62.3789H600V103.12H0V303.12H600V343.86H0V62.3789Z" fill="#CE1021"/>
<path d="M308.326 130.805C308.281 132.105 307.483 131.883 307.24 130.998C307.858 134.177 305.515 131.991 304.704 132.679C305.077 135.099 304.543 137.659 305.177 140.159C306.445 144.037 300.937 144.481 300.043 147.565C300.153 149.215 298.504 149.571 298.236 151.268C297.148 155.643 295.72 160.032 296.392 164.759C295.963 166.755 298.302 168.997 297.651 170.964C296.703 169.859 296.553 170.191 295.713 168.363C292.401 164.623 287.011 163.1 282.948 160.999C283.34 163.012 280.242 162.624 278.937 162.712C277.227 162.771 275.459 161.54 274.356 160.868C273.966 161.753 275.317 163.648 273.417 163.302C264.729 163.262 255.629 160.83 247.939 157.75C248.309 158.848 248.207 159.676 248.942 160.398C249.825 160.501 249.665 162.362 249.104 160.581C248.4 161.417 251.275 162.837 249.636 162.743C251.025 163.412 250.041 164.211 250.984 164.164C250.61 165.508 252.862 166.589 253.104 167.564C254.216 167.713 255.699 169.766 254.859 169.606C254.935 170.337 256.198 171.124 256.013 171.027C257.44 170.701 256.006 171.806 257.622 172.009C258.174 171.856 259.178 172.945 258.019 172.865C258.41 173.991 253.823 171.818 252.937 173.21C253.01 174.01 254.361 173.08 253.833 174.361C255.891 175.092 252.649 174.994 252.294 173.915C250.585 171.701 244.054 173.954 240.501 172.672C240.226 174.203 241.657 176.899 241.896 176.521C243.915 177.876 246.265 179.61 247.996 181.19C248.791 182.026 251.64 183.805 253.731 184.507C255.935 184.907 256.233 186.156 258.097 186.612C260.563 186.697 260.554 188.997 262.563 189.484C264.827 191.021 268.981 189.476 270.214 191.323C274.074 191.932 277.643 194.988 281.863 194.285C284.151 196.623 288.763 198.121 282.509 198.332C278.169 199.419 273.244 198.506 269.342 200.672C268.295 201.184 267.774 200.813 266.741 201.727C264.266 202.504 262.347 205.023 260.369 206.621C258.074 208.29 256.91 211.41 255.862 213.128C255.368 214.788 255.008 216.728 253.444 217.772C252.354 218.38 250.244 219.335 249.662 217.176C248.591 213.362 250.935 209.571 250.43 205.827C249.628 204.384 249.352 203.723 248.299 202.187C247.066 200.467 244.434 198.917 243.081 198.583C241.035 198.168 240.173 198.521 238.052 198.625C236.793 199.325 234.775 199.98 233.837 200.735C231.055 202.144 231.127 204.079 230.092 206.119C230.304 207.033 229.556 209.785 230.266 211.463C231.314 213.582 232.791 215.731 233.372 217.819C232.646 220.013 229.532 217.952 227.585 218.022C225.859 217.425 224.665 220.002 224.733 221.49C228.663 222.244 232.18 225.04 236.359 223.653C239.615 221.554 239.585 216.818 238.031 213.562C237.365 211.707 237.639 209.856 239.013 208.814C243.418 208.238 241.747 214.597 242.7 217.187C242.586 222.894 248.928 226.403 253.987 224.457C257.338 222.545 257.444 228.254 259.68 229.753C261.19 232.389 264.53 233.207 266.117 236.036C269.574 240.331 275.05 243.109 280.545 243.045C281.374 244.272 281.342 245.63 282.238 246.879C283.307 249.586 282.274 248.372 281.031 251.997C283.026 254.334 284.588 257.48 288.202 256.844C295.379 257.485 300.414 263.173 306.639 265.906C307.651 267.491 308.676 269.877 311.074 269.19C312.599 268.911 317.233 269.132 316.625 266.543C315.686 265.138 314.117 264.049 313.246 263.498C315.129 263.001 315.463 261.933 314.144 260.756C313.135 259.601 312.297 257.969 310.848 256.803C310.653 256.319 307.396 257.448 306.675 255.842C305.914 255.429 305.669 254.976 304.445 254.243C302.086 252.616 298.395 254.411 296.438 252.812C296.111 252.072 293.924 250.713 293.665 249C292.446 245.214 294.322 240.948 296.234 237.546C295.6 231.719 301.271 231.542 305.422 231.195C314.03 229.684 322.723 225.927 328.658 219.71C330.179 220.709 331.774 222.121 333.745 221.365C336.25 221.152 337.561 218.548 339.969 217.903C345.149 214.376 348.272 208.548 352.046 204.062C353.837 202.029 357.574 202.123 359.483 204.364C363.248 207.086 363.507 212.781 367.078 215.213C366.055 216.833 365.062 219.261 367.323 220.407C369.063 221.654 370.986 225.461 372.708 224.927C372.79 221.798 375.432 218.853 373.81 215.683C372.046 212.799 371.496 209.16 368.77 206.887C366.145 204.101 362.51 201.169 360.805 197.726C360.026 197.643 359.745 196.055 358.821 195.789C356.708 193.917 353.423 193.767 351.07 195.141C348.181 193.908 355.144 190.738 356.862 193.621C359.763 195.476 361.816 197.321 364.315 199.91C365.597 200.795 368.393 200.698 367.842 202.958C368.368 206.217 372.75 207.341 375.29 207.749C375.453 205.333 375.076 202.166 373.758 200.374C372.135 197.877 368.71 196.616 366.504 194.451C362.13 191.215 357.508 188.251 352.804 185.583C350.304 184.891 346.974 185.515 346.022 188.094C344.529 190.199 342.761 192.292 340.222 192.613C340.237 188.246 337.211 185.015 335.171 181.749C334.242 173.683 329.564 166.643 324.26 160.884C322.397 159.255 323.26 157.485 325.007 156.913C326.458 155.276 327.722 152.199 329.844 151.551C330.726 151.49 333.749 152.278 334.967 151.708C337.005 150.132 339.941 149.904 340.222 146.782C339.56 143.352 336.226 146.841 334.278 145.957C334.94 144.826 339.193 145.015 340.013 143.267C341.296 142.682 340.833 140.105 339.271 139.073C334.201 132.838 328.45 139.763 322.636 140.028C320.122 139.26 317.526 139.059 314.875 140.055C310.422 142.289 314.296 136.877 311.662 135.448C310.327 134.277 308.012 132.645 308.325 130.805H308.326Z" fill="white"/>
<path d="M310.798 268.663C303.063 264.799 296.884 257.415 287.852 256.619C283.582 258.007 278.849 248.699 283.51 250.511C286.355 252.612 286.291 247.426 283.25 248.127C283.047 245.551 284.588 243.764 282.1 243.879C284.269 247.258 281.415 250.781 281.676 244.501C274.505 241.847 266.391 238.45 261.408 231.44C258.375 226.481 254.988 222.388 248.531 224.623C240.52 223.696 244.133 214.053 240.95 209.431C232.419 207.316 244.282 223.263 234.663 223.747C230.139 225.873 221.346 219.114 227.467 218.838C227.388 221.571 234.377 221.467 234.143 221.217C233.872 217.076 228.086 210.936 230.455 205.268C229.924 200.502 242.589 197.158 238.193 199.839C243.062 200.161 245.456 198.122 249.052 204.17C250.707 207.321 250.779 217.45 246.382 216.612C243.704 218.393 251.668 225.88 254.429 219.985C254.045 212.749 259.584 206.54 265.201 202.608C270.558 200.228 276.969 197.421 282.534 200.074C285.011 200.75 291.657 205.038 286.02 203.631C282.13 201.367 275.622 203.481 271.405 205.551C271.883 207.235 267.037 207.973 268.259 212.586C269.813 218.685 276.591 221.324 278.776 225.034C283.825 224.059 288.287 235.113 289.131 225.971C282.579 224.935 292.098 218.59 293.074 225.056C297.453 228.576 294.206 218.733 290.858 218.394C289.717 214.655 287.767 217.707 286.55 213.361C292.839 213.121 298.841 219.161 305.705 219.061C308.431 218.643 313.917 222.787 314.476 219.137C310.305 216.937 302.215 213.409 303.497 214.187C298.474 214.34 301.924 209.324 303.963 211.755C305.272 210.747 315.438 212.286 308.825 208.162C308.841 204.58 301.997 205.211 307.345 202.236C300.962 203.555 295.313 197.599 289.146 198.271C285.696 201.351 283.345 191.897 277.996 194.041C270.914 190.109 262.769 191.113 256.407 185.655C251.132 183.851 240.64 177.143 241.408 173.794C244.738 180.261 253.408 178.124 259.162 178.98C261.318 177.501 267.847 178.827 267.951 176.875C261.796 178.129 255.659 177.223 249.266 177.054C245.706 177.227 243.149 172.735 247.863 175.994C252.898 176.865 241.462 173.271 247.96 174.674C249.907 173.426 254.796 175.546 255.076 174.208C258.462 173.678 262.217 174.761 257.457 171.866C250.774 167.714 265.556 173.778 257.689 170.556C254.918 170.187 248.341 162.003 254.159 166.814C258.922 169.592 265.143 172.855 269.93 169.446C266.645 169.319 259.952 166.673 267.275 167.992C269.877 166.96 261.68 167.021 267.28 165.659C269.502 164.414 271.108 170.157 269.21 166.067C267.7 163.328 278.608 166.862 274.271 163.181C276.85 164.549 280.214 168.16 281.808 163.952C278.446 162.702 286.213 160.718 285.9 165.459C286.185 166.87 294.14 167.18 288.871 164.968C284.758 160.882 298.847 170.708 295.036 168.559C295.488 171.812 299.88 175.34 297.499 169.839C294.959 162.777 296.959 152.581 300.229 147.57C306.496 145.7 304.661 135.534 305.326 134.231C305.986 134.594 308.003 129.446 308.532 134.411C309.16 136.903 313.482 135.465 312.496 139.724C314.639 142.74 320.599 137.767 324.462 140.728C328.196 140.764 331.579 133.655 332.94 139.901C336.415 141.894 338.892 138.631 333.945 138.638C330.827 133.365 346.556 142.319 338.009 144.438C333.181 145.948 334.803 146.509 338.728 146.116C341.652 151.416 332.345 151.855 328.968 152.197C324.335 155.562 320.669 160.988 327.16 164.821C331.861 170.035 334.275 176.589 335.798 183.317C338.988 188.017 341.816 198.091 345.28 188.863C347.499 184.062 350.595 188.558 354.271 189.411C352.316 189.238 349.239 189.86 353.366 190.904C358.622 190.428 363.042 196.924 368.604 198.131C368.854 201.12 371.763 201.082 370.305 204.052C373.299 205.388 376.638 208.919 371.301 206.762C366.99 201.178 361.864 196.301 355.429 193.165C351.798 190.777 348.171 195.955 352.685 196.298C348.902 198.739 343.585 200.654 340.096 203.461C340.714 196.635 328.519 201.826 333.876 202.4C336.859 201.999 334.974 212.342 337.48 209.059C340.757 204.634 347.803 207.169 350.12 200.773C350.772 197.291 360.44 195.895 354.464 198.886C360.832 199.771 365.045 205.723 368.658 210.901C374.692 209.344 376.096 223.107 371.323 224.529C364.454 220.386 366.938 211.71 361.364 206.253C356.11 198.138 348.699 206.353 345.952 211.994C340.965 217.856 334.649 222.446 326.91 220.931C320.379 227.285 311.363 230.433 302.403 231.402C294.544 230.306 294.934 244.994 292.684 245.465C292.386 241.577 290.947 250.922 289.834 246.936C287.461 252.16 292.998 250.846 294.583 250.643C292.24 257.72 302.534 258.781 307.173 261.776C307.267 263.187 316.292 269.542 310.794 268.664L310.798 268.663ZM290.916 239.24C292.041 237.213 293.112 231.639 289.62 235.469C289.269 236.265 289.265 240.568 290.916 239.24ZM260.746 227.65C260.8 224.101 257.571 218.295 259.24 224.777C259.519 225.4 259.927 228.302 260.746 227.65ZM372.204 220.762C371.21 217.768 374.19 214.358 369.874 212.385C368.947 214.767 369.725 223.118 372.204 220.762ZM314.409 217.111C312.68 214.372 306.839 215.446 312.412 216.606L313.467 216.858L314.409 217.111ZM332.043 215.782C329.356 213.649 324.122 212.739 329.162 215.82C329.972 215.716 332.188 217.357 332.043 215.782ZM330.606 209.954C331.81 203.93 317.92 204.323 326.648 208.176C328.544 207.17 329.038 211.321 330.606 209.954ZM247.417 207.302C250.953 200.135 231.575 200.561 242.426 202.591C245.438 202.625 245.861 205.493 247.417 207.302ZM345.677 198.801C345.465 196.623 339.172 192.313 342.773 195.629C339.608 193.913 346.725 200.442 345.677 198.801ZM336.176 197.47C340.823 192.874 333.009 190.588 329.305 191.492C324.974 187.181 321.779 191.087 327.369 192.82C332.043 192.883 332.023 199.093 336.176 197.47ZM286.193 192.225C286.661 188.87 295.498 191.831 291.069 188.221C289.592 188.506 280.274 191.97 286.193 192.225ZM273.339 191.231C278.367 190.048 266.791 190.463 272.688 191.354L273.339 191.231ZM335.772 190.181C334.493 185.758 329.613 184.325 330.859 179.047C327.333 176.487 332.585 175.835 332.327 177.265C330.589 171.31 326.882 164.483 321.765 160.162C320.421 158.274 312.541 157.286 313.007 156.833C315.433 159.255 324.17 159.352 316.625 160.654C321.061 165.887 309.622 158.168 308.424 155.307C303.619 150.544 312.289 161.1 311.757 161.006C309.374 159.826 313.064 163.657 311.259 164.1C316.298 166.345 319.083 171.754 322.841 175.129C326 176.786 330.652 182.51 323.82 179.532C321.329 178.148 310.531 173.561 316.476 177.364C318.723 178.897 321.707 180.055 319.142 181.642C328.297 185.718 313.991 183.767 311.49 182.156C313.617 191.275 301.591 176.026 303.711 179.788C297.757 179.874 310.548 188.113 313.639 185.632C319.854 183.198 326.435 188.464 332.862 189.239C333.713 189.749 335.075 189.503 335.771 190.182L335.772 190.181ZM314.85 189.535C316.551 186.092 308.054 188.039 313.578 189.542L314.85 189.535ZM268.258 189.158C272.104 190.136 281.404 187.092 277.974 187.446C282.008 189.896 290.447 183.48 281.671 185.156C275.64 186.075 268.433 186.723 263.181 188.45C265.262 188.332 266.395 189.937 268.258 189.158ZM299.006 186.244C304.916 183.451 291.44 185.353 298.578 186.168L299.006 186.244ZM289.934 184.442C291.432 185.228 294.767 182.108 290.359 182.433C288.656 182.375 288.713 186.392 289.934 184.442ZM263.185 184.467C266.596 182.861 276.704 184.867 275.518 180.732C269.143 182.643 262.268 182.078 255.25 181.928C247.542 182.313 259.659 184.362 261.57 184.145C261.981 184.529 262.653 184.796 263.185 184.467ZM254.027 180.701C262.264 181.358 251.445 179.043 249.045 179.936C250.535 180.593 252.41 181.2 254.027 180.701ZM260.4 180.857C256.952 179.485 263.231 180.997 260.4 180.857ZM283.365 179.263C279.569 179.768 289.402 177.512 283.365 179.263ZM283.802 177.335C281.992 174.556 277.155 178.997 283.014 177.686L283.802 177.335ZM298.057 176.061C298.634 172.125 289.812 169.935 295.715 173.919C296.432 174.336 296.84 176.744 298.057 176.061ZM264.598 173.951C265.782 170.07 256.403 172.346 262.65 173.947L263.495 174.046L264.598 173.951ZM269.741 173.93C268.236 172.52 267.395 171.519 265.436 173.278C266.552 173.461 269.346 174.663 269.741 173.93ZM277.861 172.591C277.8 171.192 283.732 171.763 279.129 171.004C275.538 170.945 272.22 170.661 276.49 172.833C276.812 173.119 277.808 173.273 277.861 172.591ZM284.048 170.744C289.298 167.775 279.865 170.427 284.034 168.103C290.937 168.535 277.323 161.291 282.493 167.75C275.9 166.312 282.742 169.997 284.048 170.744ZM290.35 170.344C285.936 168.882 288.329 171.516 290.76 170.446L290.35 170.344ZM278.363 168.889C275.53 169.512 276.683 167.586 278.363 168.889ZM318.985 157.371C316.506 156.15 311.245 153.798 316.748 157.13L318.119 157.47L318.985 157.371ZM324.109 146.994C324.83 144.362 319.106 142.068 321.154 146.086C315.655 145.024 323.345 148.085 324.109 146.994ZM315.616 266.719C311.402 264.931 313.189 261.824 315.943 265.773C317.284 266.144 316.203 267.328 315.616 266.719ZM309.407 262.217C306.762 260.556 305.886 255.499 309.312 259.625C309.214 262.059 312.799 260.547 309.407 262.217ZM284.407 220.142C279.585 220.248 270.837 213.927 275.041 209.59C278.198 211.236 280.433 217.404 285.896 218.39C286.909 219.962 285.946 220.519 284.407 220.142ZM284.25 212.753C279.019 209.351 284.815 207.725 285.053 211.892L284.696 212.479L284.25 212.753ZM343.922 203.781C345.516 200.491 348.905 200.734 345.096 203.089C345.121 202.828 343.077 205.022 343.922 203.781ZM261.866 167.546C258.264 167.395 247.858 162.519 250.36 161.445C254.138 166.016 261.459 164.608 261.866 167.546ZM266.276 166.1C263.643 163.78 264.585 163.405 267.103 165.506C267.494 166.183 266.625 166.412 266.276 166.1ZM260.775 164.915C256.389 163.649 260.169 163.533 261.362 164.794L260.775 164.915Z" fill="#B9B9B9"/>
<path d="M309.394 268.223C307.829 266.504 302.564 264.589 305.559 262.706C303.963 258.496 306.058 262.48 306.29 262.441C309.199 260.254 303.4 265.703 306.075 264.015C307.299 260.709 309.807 264.502 308.752 266.722C310.647 265.599 310.907 268.428 309.394 268.223ZM302.737 263.521C298.583 260.516 294.607 257.627 289.322 256.656C287.435 256.399 282.883 255.015 283.989 254.857C285.327 252.315 282.233 253.443 281.188 252.117C282.7 249.187 283.592 250.987 284.84 251.67C286.092 254.353 286.515 244.155 283.823 248.73C282.304 245.989 285.19 245.488 283.848 244.092C281.647 242.641 280.177 243.216 276.472 242.202C271.566 241.309 267.012 237.657 264.088 233.468C262.337 232.603 261.483 231.269 260.151 229.945C258.919 228.92 257.468 226.463 256.825 224.856C254.06 222.317 245.876 227.574 244.289 221.18C241.995 219.065 242.93 214.64 242.237 212.129C242.304 205.973 236.631 209.394 236.501 211.046C235.884 210.065 236.57 209.597 236.176 208.138C237.539 206.283 236.106 208.196 235.021 205.736C235.3 203.473 232.908 205.012 234.132 208.119C234.647 210.13 235.738 210.811 235.962 212.646C236.726 214.744 237.601 213.773 238.651 215.898C239.303 219.24 237.49 223.553 236.363 222.597C234.554 225.437 231.682 223 230.396 223.151C228.82 222.056 228.204 221.95 225.781 221.659C224.95 222.153 224.664 218.575 226.753 218.336C224.799 220.051 228.065 221.055 229.861 221.074C229.378 222.333 234.236 222.961 233.951 222.561C234.72 222.875 235.954 222.529 235.782 221.143C234.793 221.365 234.166 221.066 234.913 219.702C234.149 219.174 234.853 218.124 232.784 219.692C236.189 217.132 229.477 213.809 230.585 210.447C228.798 208.148 231.339 204.257 231.757 202.287C234.295 200.354 236.471 199.189 237.878 200.148C240.742 199.937 235.423 202.111 235.109 204.086C237.346 203.159 236.282 202.738 238.103 202.441C240.472 201.414 241.471 202.837 243.516 202.843C245.727 204.159 248.064 207.843 246.679 209.993C247.624 209.712 245.462 212.72 246.264 214.021C244.499 217.035 245.886 221.527 249.674 222.039C253.533 222.149 250.556 223.83 254.439 220.784C255.637 219.989 254.155 218.37 254.802 216.094C256.255 212.414 257.992 208.822 261.224 206.083C263.769 202.989 268.358 200.785 268.504 202.011C270.679 200.442 272.25 200.484 270.838 203.106C268.033 202.919 271.298 203.235 271.501 204.012C271.406 203.45 269.288 205.036 268.189 206.403C266.579 208.712 267.466 206.57 268.45 208.655C267.8 210.305 267.79 211.455 268.015 213.177C268.497 214.06 271.058 218.702 270.43 217.7C272.062 218.86 271.549 221.941 273.531 221.714C274.535 219.752 275.589 227.083 275.351 221.872C275.977 221.648 277.02 221.317 276.018 224.426C277.307 224.617 277.41 226.559 279.263 225.733C279.773 226.06 279.926 227.206 281.563 226.932C282.536 227.449 282.488 225.924 284.409 227.668C284.316 229.973 285.389 230.624 284.451 231.407C288.875 233.266 289.284 227.826 290.189 228.639C290.055 226.215 289.028 225.415 287.339 224.44C285.589 224.403 289.536 220.126 290.313 223.103C292.516 222.16 292.243 228.252 295.511 227.032C295.822 224.87 295.022 222.484 294.136 220.411C292.965 219.341 290.381 218.936 291.411 217.593C291.137 216.178 288.621 215.577 287.693 214.573C286.478 213.713 288.249 213.66 288.776 213.594C289.179 215.823 290.073 212.365 290.648 215.057C293.219 215.286 293.918 215.879 295.453 216.545C297.381 217.406 298.352 217.179 300.069 218.128C301.8 219.117 304.509 218.994 305.716 219.863C307.73 219.244 309.242 220.629 310.411 220.996C312.147 220.467 313.199 222.911 315.371 221.007C315.856 219.434 314.192 218.861 312.598 217.9C307.493 214.867 316.728 217.342 316.887 219.84C317.629 218.429 321.986 218.928 319.116 218.388C316.071 217.998 310.747 215.296 309.929 214.014C312.477 212.175 310.624 211.784 312.239 213.246C313.592 212.98 315.542 212.056 314.355 210.506C312.234 205.721 314.116 213.807 312.521 211.224C312.256 209.163 311.984 209.616 310.041 209.112C309.729 207.076 308.057 206.545 307.577 205.288C310.023 204.451 303.92 203.402 307.295 203.397C310.21 201.057 307.819 201.446 304.156 202.416C303.247 202.319 299.849 201.066 297.964 199.836C294.853 200.266 292.913 197.624 289.574 197.813C287.332 198.792 286.103 197.896 283.719 195.747C282.814 192.961 277.34 195.486 281.239 191.898C281.116 192.998 276.08 191.743 279.241 193.113C279.643 195.226 269.31 190.792 275.19 191.015C279.466 190.575 269.112 189.813 266.897 190.241C263.253 189.315 269.112 189.871 270.389 189.186C268.46 189.9 275.754 189.13 277.145 188.887C277.155 185.944 278.086 190.125 280.349 187.89C282.247 188.25 285.784 186.8 282.072 189.495C282.062 190.397 283.939 190.677 281.382 191.73C282.031 195.053 284.347 189.851 285.534 192.86C287.565 191.323 288.44 189.433 287.938 191.793C290.002 189.77 291.66 190.938 290.809 192.649C291.098 195.307 288.8 194.726 289.751 192.574C288.539 193.052 284.773 193.682 285.906 194.419C287.654 193.659 289.362 194.003 288.566 196.452C289.923 193.4 291.209 198.645 292.136 193.919C289.647 192.069 296.835 192.794 293.887 191.088C291.935 192.018 291.378 190.942 293.607 189.095C292.668 187.071 288.888 189.32 289.471 187.515C289.964 185.897 283.714 187.069 284.919 188.256C282.092 186.537 290.019 185.669 285.263 184.8C283.322 185.23 282.708 182.422 280.605 183.037C278.771 183.103 276.365 184.103 274.598 184.079C270.67 184.914 277.873 183.134 277.127 182.554C280.13 182.019 280.491 180.908 277.819 179.934C274.663 179.877 274.301 179.321 272.143 181.027C271.38 178.954 270.453 183.068 268.699 181.313C267.06 182.201 264.661 181.719 262.04 181.971C259.65 181.326 261.406 177.056 262.117 179.317C264.984 178.26 266.025 178.283 268.394 178.735C269.101 176.009 269.334 179.397 272.191 178.387C270.766 178.163 270.135 176.621 272.53 177.042C273.835 176.976 277.066 178.289 273.527 176.41C273.575 175.545 271.6 176.709 270.41 174.177C270.151 175.744 269.531 175.373 268.115 176.426C269.369 174.732 265.693 176.371 267.612 176.366C267.374 176.697 264.291 175.035 264.868 176.477C268.127 176.749 256.3 178.287 259.244 176.185C257.547 173.301 258.091 179.934 256.13 175.794C254.769 173.635 258.836 176.71 256.943 173.905C260.044 174.218 263.893 176.711 261.831 173.718C265.901 174.982 264.518 172.791 266.038 175.388C265.635 172.765 267.901 174.534 269.795 174.602C268.295 173.045 269.061 170.329 272.089 170.838C274.206 168.417 273.478 173.113 275.675 172.316C276.289 171.577 277.349 174.451 279.351 171.96C276.248 174.235 283.015 173.657 282.205 172.763C282.901 170.232 277.608 171.859 279.168 169.596C277.282 171.175 277.23 170.259 274.793 170.556C273.801 170.058 279.087 170.207 273.707 169.56C268.383 168.988 274.324 168.388 276.066 168.75C277.144 169.362 279.033 168.476 277.031 167.108C276.472 166.681 271.167 166.892 272.143 165.259C274.506 164.632 275.152 166.107 277.702 165.825C279.545 166.222 280.408 166.882 279.211 166.859C278.359 169.067 282.814 168.047 282.967 170.837C284.443 172.165 285.24 169.898 286.531 168.917C286.915 166.046 286.996 172.628 290.962 170.939C293.719 171.8 289.072 169.758 290.708 169.089C288.409 168.171 289.405 167.474 286.037 167.11C283.665 164.089 288.12 168.128 290.267 167.273C288.44 169.087 292.384 166.801 293.117 169.137C294.897 168.598 297.338 173.119 293.425 171.059C292.269 172.318 296.621 174.59 297.58 176.38C299.907 174.211 293.417 171.582 299.174 173.197C297.355 171.911 298.963 169.101 296.639 167.207C298.295 165.614 295.026 163.685 296.755 160.11C295.646 157.321 298.931 153.639 297.987 152.045C298.619 150.44 301.491 145.034 302.34 146.741C300.655 148.224 306.952 141.953 305.112 139.792C304.305 136.748 306.489 132.832 307.18 137.708C308.466 136.12 304.388 132.875 308.299 132.895C306.171 133.868 309.266 137.374 310.358 136.274C314.1 134.516 310.348 144.893 315.389 140.638C317.667 137.977 314.804 147.026 317.529 142.888C319.24 140.567 316.045 140.167 319.236 139.723C320.457 141.001 320.795 140.35 323.576 140.772C323.689 142.448 325.596 139.027 324.431 141.614C327.927 139.071 328.226 139.307 331.769 137.227C330.71 140.739 336.554 140.862 335.747 140.676C337.601 140.059 336.918 137.197 339.277 139.567C341.729 141.46 340.201 144.462 337.244 144.643C332.221 144.831 335.112 147.442 337.09 147.961C339.497 146.563 334.051 146.388 338.821 145.774C342.424 150.755 332.039 152.369 328.67 151.979C327.976 155.121 321.851 157.399 323.441 160.143C322.131 162.08 321.543 158.025 319.903 158.52C316.751 158.869 308.419 154.236 315.603 158.468C320.025 159.645 317.094 159.442 316.209 160.863C319.361 163.022 318.112 162.506 315.691 161.949C314.658 160.591 314.08 160.167 312.236 159.03C310.453 157.943 309.182 155.987 307.771 154.506C306.718 151.047 305.031 152.171 307.594 155.832C308.666 158.352 314.87 161.816 310.037 160.418C309.539 162.015 312.901 163.246 308.966 162.463C311.308 164.627 311.641 165.562 312.952 166.64C312.238 166.666 314.376 164.458 314.217 167.178C314.286 166.176 317.017 168.368 316.314 168.697C313.649 167.735 317.278 169.666 317.683 170.454C318.316 170.51 317.974 172.369 319.832 171.549C320.486 173.259 322.108 174.166 322.772 175.465C324.483 175.993 325.439 177.833 326.473 178.917C328.678 180.884 322.505 179.517 322.824 178.377C320.986 178.813 320.983 177.983 319.65 177.134C318.298 176.763 316.981 176.65 316.217 174.462C313.406 173.592 313.976 176.504 312.846 175.039C310.947 174.843 314.424 176.272 315.07 177.359C316.953 177.733 318.2 178.84 320.488 180.271C319.866 181.292 313.401 181.329 316.153 180.895C315.617 183.006 325.993 182.972 319.68 183.454C316.947 185.073 314.039 182.432 311.93 180.986C307.466 181.57 313.537 184.05 311.214 185.108C309.664 184.129 310.135 183.886 308.805 183.74C306.336 181.276 305.503 181.295 304.044 178.322C302.268 180.051 300.807 174.791 299.813 176.97C301.09 177.674 304.402 180.796 300.777 179.006C299.704 179.74 302.413 181.887 304.042 182.699C305.878 182.878 308.082 188.204 307.359 184.948C308.921 185.198 312.328 187.697 313.906 185.865C315.713 183.794 318.355 185.145 320.399 185.682C322.229 186.675 322.787 187.091 324.44 187.081C327.213 187.232 327.959 189.554 330.332 188.424C331.219 189.77 334.123 188.906 334.546 190.395C336.018 191.517 338.148 189.659 335.583 189.419C336.072 187.973 335.147 186.056 333.826 186.65C332.699 185.212 332.727 184.384 331.302 184.422C334.314 183.372 331.11 183.832 332.591 182.908C331.453 181.169 331.134 179.45 330.255 177.648C331.467 176.831 332.402 178.587 334.076 177.125C334.524 179.141 335.098 183.185 336.2 184.518C336.732 185.075 337.641 186.488 338.617 188.262C340.242 189.509 338.827 192.719 341.156 192.76C342.001 192.172 339.685 195.914 341.667 196.699C342.497 196.172 340.713 200.393 342.707 197.887C342.689 195.736 342.238 200.708 344.265 197.477C344.027 201.701 347.699 196.471 345.739 200.469C341.959 200.135 339.523 206.107 339.87 200.605C338.652 200.921 339.042 200.625 336.857 199.118C335.181 198.637 329.055 201.873 333.145 202.535C331.836 204.34 335.517 201.489 333.727 204.119C336.31 205.199 335.942 208.652 335.815 207.958C335.606 209.134 335.349 210.3 336.262 210.635C336.828 210.879 336.644 214.896 337.653 210.956C339.042 208.999 336.455 211.486 338.412 208.566C337.243 207.9 342.193 205.32 340.543 209.634C341.991 208.054 340.997 206.971 343.706 207.353C345.231 206.063 348.708 204.116 350.233 200.676C352.852 196.211 354.699 200.566 357.723 200.002C360.439 200.231 361.498 203.261 363.397 204.238C364.744 206.196 366.961 208.132 368.268 210.757C370.708 211.91 371.977 209.316 372.74 214.239C374.92 216.642 373.592 218.66 373.605 220.96C373.166 227.34 370.071 223.465 367.197 220.147C364.075 218.046 369.694 214.585 365.116 213.18C363.565 209.472 362.339 206.378 359.139 203.892C352.988 199.251 349.24 207.669 346.117 211.523C344.487 213.581 343.206 214.434 341.164 216.543C338.644 218.387 334.651 221.07 333.264 221.125C330.138 221.88 327.991 217.854 325.48 222.278C322.036 224.633 318.66 226.688 314.475 228.508C309.36 230.725 303.227 230.859 297.733 232.222C296.129 234.804 293.859 245.01 292.695 243.08C291.075 246.323 290.267 247.395 290.512 243.612C288.632 246.606 289.143 248.744 289.679 250.183C289.894 251.444 290.419 250.843 291.182 252.709C290.488 251.031 293.23 252.146 294.187 250.249C295.711 252.191 291.297 252.556 292.765 252.733C293.092 254.526 295.602 255.367 296.94 257.006C298.636 258.638 300.521 258.748 302.222 260.086C303.857 257.718 304.999 265.927 302.737 263.521ZM290.926 254.337C289.994 252.388 287.112 253.997 289.371 254.223C289.845 254.125 291.196 255.038 290.926 254.337ZM290.662 241.248C289.163 239.951 292.693 235.337 293.204 236.742C293.297 236.962 295.066 233.393 294.515 233.755C291.678 235.613 292.38 231.644 291.276 233.602C289.765 232.567 290.353 233.352 289.144 236.601C289.386 237.69 288.682 240.799 289.333 239.622C289.955 238.317 290.256 242.099 290.662 241.248ZM261.964 229.457C260.308 227.772 260.299 221.904 259.101 220.014C256.33 221.57 260.068 222.726 258.058 224.305C259.755 223.923 258.86 226.555 260.154 227.963C260.273 228.382 261.943 231.555 261.964 229.457ZM299.499 227.582C296.738 226.18 301.045 226.974 298.746 224.079C296.32 221.061 297.207 228.856 299.499 227.582ZM297.896 223.304C299.018 222.132 298.424 222.445 297.687 223.426L297.95 223.407L297.896 223.304ZM372.306 221.129C370.686 219.027 374.124 217.71 372.256 214.806C370.926 214.321 370.558 209.093 369.517 213.234C371.027 215.673 367.479 217.599 369.675 220.02C371.875 218.703 369.506 224.159 372.306 221.129ZM334.59 220.152C333.77 218.942 336.624 217.244 332.616 216.723C331.929 214.923 326.868 213.499 326.68 213.3C326.355 216.261 330.158 215.586 331.702 217.301C332.567 215.658 333.369 221.174 334.59 220.152ZM320.782 218.797C324.46 216.492 320.754 217.298 320.499 218.904L320.835 218.981L320.782 218.797ZM258.55 217.492C261.374 212.55 256.59 215.836 258.592 218.124L258.55 217.492ZM336.012 215.697C337.756 214.708 343.031 212.623 341.298 212.298C339.089 211.639 338.165 215.33 337.596 214.133C336.464 214.292 334.42 215.765 336.012 215.697ZM320.104 214.476C320.36 212.754 319.743 211.388 317.319 213.204C317.751 213.622 319.565 214.728 320.104 214.476ZM331.09 210.126C329.027 209.23 331.761 205.494 329.233 206.543C327.125 206.334 326.738 204.012 324.382 204.356C325.459 206.126 320.373 203.911 322.291 205.938C323.386 207.986 323.979 206.029 325.67 208.004C328.112 208.57 327.812 208.987 329.168 209.499C328.986 210.174 330.629 211.273 331.09 210.126ZM243.595 206.728C244.453 205.765 239.707 204.092 242.697 206.119C242.677 206.607 243.213 206.724 243.595 206.728ZM237.374 205.767C237.809 203.75 242.616 206.146 240.557 203.99C238.563 203.327 235.725 205.728 237.374 205.767ZM233.169 203.782C237.343 199.53 232.217 203.218 232.806 204.093L233.169 203.782ZM343.309 200.131C345.722 199.864 340.003 197.435 341.762 200.893C341.989 201.044 342.798 199.877 343.309 200.131ZM326.108 200.268C327.054 200.742 328.739 198.925 326.22 197.738C325.531 199.166 323.815 196.551 322.979 198.791C320.903 194.673 319.179 199.738 322.849 199.251C322.96 200.81 324.671 199.929 326.108 200.268ZM303.744 198.548C306.132 198.837 303.005 196.196 303.735 198.862L303.744 198.548ZM336.295 198.569C339.561 196.697 336.365 191.939 336.679 192.667C337.474 189.885 334.115 191.937 332.812 191.275C331.251 191.968 329.425 192.074 327.798 190.306C326.265 189.638 325.02 188.352 322.79 188.708C321.752 187.471 321.935 191.067 322.778 189.443C322.337 190.512 323.088 191.955 325.079 192.236C325.516 192.967 327.996 193.275 328.747 193.918C330.624 193.506 330.977 195.122 331.291 196.169C329.419 195.888 333.002 198.116 334.236 197.169C335.372 197 334.956 199.15 336.295 198.569ZM320.287 197.899C319.032 195.296 317.893 196.39 318.981 197.792C320.307 195.997 319.268 199.055 320.287 197.899ZM300.073 196.436C298.21 196.138 301.331 193.349 300.073 196.436ZM295.711 195.466C295.556 191.408 299.204 194.667 296.666 191.499C294.468 191.918 295.607 192.281 294.934 194.173C296.277 194.735 293.678 196.316 295.711 195.466ZM293.435 195.437C291.527 194.175 295.335 192.743 293.435 195.437ZM297.295 194.367C301.552 196.09 296.267 193.452 297.006 194.804L297.295 194.367ZM309.721 194.489C307.998 193.792 310.152 191.966 309.721 194.489ZM305.381 193.416C307.876 190.608 300.402 191.958 304.439 193.839L305.381 193.416ZM301.965 191.532C303.413 190.947 299.762 190.553 301.428 191.712C301.665 191.682 302.119 192.268 301.965 191.532ZM278.615 190.538C280.648 191.866 283.4 190.1 280.962 189.087C279.374 189.812 277.18 189.344 277.811 190.307C277.525 191.561 278.439 190.761 278.615 190.538ZM306.208 190.485C306.407 189.81 307.069 188.024 304.31 190.307C303.993 190.383 306.08 191.363 306.208 190.485ZM314.042 190.513C318.483 187.422 312.467 187.191 309.65 187.169C309.104 189.012 309.943 188.463 311.246 188.159C310.92 192.048 313.652 187.033 313.599 190.941L314.042 190.513ZM303.862 189.205C304.704 186.273 301.796 188.989 302.926 190.427C303.462 190.685 303.984 189.97 303.862 189.205ZM302.44 188.018C301.758 183.305 297.965 189.216 301.888 187.957C300.618 188.468 302.418 189.261 302.44 188.018ZM294.932 186.658C294.593 184.611 294.558 183.287 291.826 182.284C293.181 180.109 288.937 183.833 290.616 181.255C289.049 180.198 286.196 178.832 286.809 181.511C285.518 179.198 281.409 181.808 279.762 180.162C281.803 181.619 283.069 182.22 284.226 182.379C285.275 180.999 286.774 184.407 289.174 181.553C289.286 183.594 287.825 183.856 288.085 183.699C285.43 185.621 292.814 185.105 293.437 184.519C291.671 185.112 294.794 186.991 294.932 186.658ZM299.238 186.363C299.567 185.101 302.124 184.704 302.266 185.471C303.56 182.766 296.659 184.573 296.322 185.786C296.833 185.47 299.492 187.113 299.238 186.363ZM264.797 181.017C264.9 179.851 260.559 179.253 261.854 180.427C263.136 180.378 263.143 181.626 264.797 181.017ZM268.405 180.433C268.19 180.186 264.053 179.266 265.493 180.559C266.168 180.376 267.853 181.646 268.405 180.433ZM286.447 180.077C287.791 177.612 285.354 177.68 283.476 178.525C285.126 177.108 286.098 176.304 283.937 176.512C282.493 176.706 279.643 176.484 278.467 176.563C276.616 177.489 282.026 178.113 282.566 178.474C278.562 178.278 279.045 178.498 282.087 179.736C283.601 180.141 286.516 178.109 286.447 180.077ZM277.16 179.812C279.141 177.926 271.16 179.205 275.768 179.395C276.018 179.096 277.676 180.691 277.16 179.812ZM307.684 177.151C304.356 178.016 306.74 174.963 307.684 177.151ZM262.021 176.421C263.976 176.868 264.068 175.627 262.32 175.697C261.872 175.469 258.675 176.199 261.476 176.542L261.72 176.282L262.021 176.421ZM288.772 176.143C287.603 174.763 281.762 174.308 287.524 175.945C287.923 175.819 289.095 177.359 288.772 176.143ZM306.407 174.79C304.589 175.141 308.721 173.488 306.407 174.79ZM313.597 174.397C312.594 173.382 313.263 175.311 313.412 174.808L313.597 174.397ZM302.691 174.359C305.388 172.305 304.076 171.225 301.578 173.254C300.469 172.841 302.932 175.533 302.691 174.359ZM286.128 173.985C286.29 173.015 283.018 172.505 284.338 173.17C284.552 173.751 285.956 174.254 286.128 173.985ZM272.568 173.569C271.371 172.575 268.165 172.321 272.23 174.114C272.413 173.986 272.276 173.614 272.568 173.569ZM311.229 173.232C312.995 170.865 307.05 170.547 310.311 173.016C310.804 172.798 310.593 174.238 311.229 173.232ZM304.05 166.63C302.44 165.846 301.752 166.051 303.992 166.943L304.05 166.63ZM302.155 162.392C297.942 163.558 304.417 159.843 302.155 162.392ZM309.597 160.094C307.412 157.349 305.508 154.675 307.493 158.925C307.669 159.469 309.231 160.731 309.597 160.094ZM319.841 157.658C317.728 156.705 315.781 155.73 313.743 154.605C311.7 153.462 315.619 157.842 317.222 157.285C317.87 157.928 319.06 157.837 319.841 157.658ZM303.318 155.054C301.233 155.407 302.121 154.069 303.318 155.054ZM323.746 147.279C325.039 144.437 321.869 145.373 322.265 143.05C321.494 139.98 320.041 145.066 320.933 146.2C317.626 143.621 319.845 148.176 321.878 146.958C322.201 147.287 323.361 147.923 323.746 147.279ZM325.181 143.127C330.376 142.784 321.453 141.786 324.041 143.202L324.369 143.336L325.181 143.127ZM282.347 247.122C281.857 245.607 280.843 241.816 282.679 246.656L282.588 247.12L282.347 247.122ZM284.329 219.797C282.574 219.939 281.605 219.017 279.464 218.415C277.44 217.234 278.168 217.059 276.057 215.272C275.141 215.004 272.46 210.981 275.712 211.864C273.959 212.926 277.148 211.336 277.85 213.042C278.31 213.895 279.367 217.533 279.454 215.499C281.418 216.252 280.199 217.495 282.513 217.816C282.792 215.76 286.608 219.624 285.548 219.503C285.913 220.122 284.068 220.656 284.329 219.797ZM246.436 216.305C246.457 214.769 247.005 215.642 248.042 213C248.181 212.464 246.262 210.973 247.895 210.258C247.398 205.487 249.174 209.379 248.958 204.702C251.43 206.925 249.116 212.117 248.571 215.469C250.301 216.235 246.757 217.565 246.436 216.305ZM307.149 215.155C310.797 215.569 305.327 213.433 307.149 215.155ZM308.737 214.788C309.982 213.092 306.229 213.463 308.483 212.316C306.992 211.931 311.329 214.28 308.737 214.788ZM306.382 213.667C303.279 211.494 308.909 210.282 306.468 213.856L306.382 213.667ZM282.764 211.362C281.304 210.397 283.194 208.861 284.016 210.208C281.697 210.08 285.229 210.919 282.764 211.362ZM373.818 207.411C371.02 206.582 367.467 205.23 367.558 201.231C365.312 200.341 360.202 198.067 364.241 196.133C365.448 196.961 369.014 197.252 368.795 199.804C370.454 201.875 368.716 200.678 369.57 203.922C370.239 203.716 371.788 206.305 373.818 206.662C374.581 206.995 375.413 208.171 373.818 207.411ZM366.426 198.717C363.285 195.123 363.62 198.259 366.451 199.712L366.629 199.376L366.426 198.717ZM273.159 203.056C271.939 203.065 271.106 199.486 273.036 200.442C274.097 200.002 281.988 198.602 278.48 200.043C280.31 199.879 279.029 201.79 281.496 201.022C281.251 201.032 285.873 201.086 284.259 202.455C284.388 201.635 281.516 203.479 281.632 202.151C280.268 202.977 277.371 201.503 277.901 201.84C275.453 202.443 275.077 204.294 274.901 200.888C272.341 201.19 272.875 202.033 274.613 202.228C274.743 202.84 273.748 203.82 273.159 203.056ZM347.802 198.099C349.993 194.767 343.849 199.076 346.07 197.396C346.267 195.505 348.188 194.561 349.548 194.825C350.472 195.04 354.136 195.914 351.908 197.378C350.775 196.693 349.136 199.143 347.802 198.099ZM361.54 197.176C361.569 194.6 358.743 195.503 357.196 193.438C354.262 190.072 349.522 195.709 349.297 193.052C345.574 193.476 350.277 191.692 350.061 189.38C349.325 190.067 346.662 192.129 346.911 192.355C349.052 194.858 348.731 193.681 345.916 193.464C347.956 199.313 340.998 195.2 343.856 192.447C342.884 192.396 346.349 187.378 348.264 186.153C346.266 190.44 351.353 186.929 353.602 188.594C353.493 190.077 355.62 190.795 357.998 192.567C360.336 192.563 357.994 194.368 360.276 194.519C360.049 193.154 361.583 195.344 362.899 195.554C363.36 196.334 360.64 195.306 362.397 197.107C361.976 197.357 361.903 197.904 361.54 197.176ZM353.58 190.489C351.213 187.443 349.414 189.582 352.613 191.693C353.037 191.491 353.744 191.085 353.58 190.489ZM283.273 190.602C285.254 188.795 285.62 189.566 287.623 188.012C289.92 187.148 287.25 189.843 286.056 189.768C285.858 190.347 283.603 191.008 283.273 190.602ZM263.897 189.878C257.638 188.484 268.696 188.743 263.984 190.029L263.897 189.878ZM261.116 188.641C257.635 186.099 267.124 186.077 263.111 188.023C262.543 186.582 261.7 188.789 261.116 188.641ZM264.935 187.645C267.005 184.746 269.063 187.407 265.487 187.378C265.357 187.242 264.867 188.361 264.935 187.645ZM268.506 186.718C269.817 185.408 271.955 186.34 273.338 185.322C277.492 185.399 272.136 186.369 269.435 186.836C268.927 186.779 268.596 188.011 268.506 186.718ZM257.492 185.97C257.057 184.182 254.142 185.257 256.221 184.097C258.355 184.275 259.645 184.459 261.803 184.524C264.871 184.804 268.848 184.609 270.887 183.486C274.951 183.929 268.838 186.567 267.246 185.161C264.99 186.359 263.296 184.945 260.377 185.697C259.113 185.603 257.035 186.421 257.492 185.97ZM281.725 184.84C279.225 183.917 278.881 183.222 282.384 184.153C282.91 184.216 281.636 185.823 281.725 184.84ZM256.755 182.066C260.15 179.103 257.123 180.047 254.426 180.153C248.73 179.01 263.505 177.928 258.21 180.752C258.082 181.535 257.94 182.035 256.755 182.066ZM250.856 181.724C248.178 181.07 245.58 179.42 243.877 177.547C240.467 175.434 243.848 176.01 244.864 177.778C248.098 178.739 248.325 177.99 251.035 178.913C247.267 179.333 247.105 179.579 250.384 180.872C252.06 180.714 253.522 181.936 250.856 181.724ZM249.278 176.943C244.431 175.819 249.848 175.995 249.957 177.005L249.563 177.125L249.278 176.943ZM252.613 177.112C249.186 173.777 256.893 175.878 253.203 176.842C254.306 177.296 251.917 177.326 252.613 177.112ZM332.865 176.573C334.11 174.812 331.086 175.953 331.354 174.118C331.694 172.778 330.071 171.883 331.79 172.388C332.365 172.404 334.875 178.436 332.865 176.573ZM266.324 172.736C265.435 171.011 266.547 171.138 269.011 170.466C270.398 170.954 269.004 171.419 267.875 172.434C269.541 168.559 267.031 173.498 266.324 172.736ZM265.103 172.271C260.971 171.015 263.51 171.145 265.318 170.719C265.586 170.732 265.219 173.2 265.103 172.271ZM257.495 170.599C264.035 171.193 254.959 168.037 257.495 170.599ZM329.21 169.527C327.641 167.987 327.292 163.927 328.993 167.4C329.859 167.782 330.758 170.832 329.21 169.527ZM255.068 168.795C251.682 166.685 252.403 164.736 255.056 167.643C256.051 167.862 256.178 168.574 255.068 168.795ZM261.896 167.518C264.604 167.484 258.489 166.562 261.896 167.518ZM284.344 165.313C282.942 164.364 280.6 162.05 283.367 162.369C284.268 162.343 285.922 166.541 284.344 165.313ZM324.816 163.219C325.6 164.285 325.77 161.594 324.816 163.219ZM335.485 138.973C330.48 138.331 334.611 135.552 336.768 138.214C336.938 138.616 335.09 139.979 335.485 138.973Z" fill="#8C8C8C"/>
<path d="M307.231 266.456C303.74 264.002 310.971 262.279 308.259 266.312C307.984 266.463 307.514 266.744 307.231 266.456ZM300.515 261.81C299.83 260.736 295.117 258.941 298.566 258.883C293.511 259.195 289.619 254.563 287.005 256.071C285.321 253.14 285.861 244.985 284.027 246.6C284.206 239.715 272.349 243.866 268.867 238.501C263.582 233.818 261.272 229.962 260.074 222.814C260.147 219.222 257.088 220.413 256.713 217.837C252.738 222.136 257.261 210.641 257.755 210.101C260.033 206.657 269.287 197.692 266.463 207.031C266.379 213.496 269.424 218.194 273.814 223.303C275.097 225.227 279.886 229.407 283.683 228.586C284.582 229.656 281.797 232.524 285.407 232.332C282.103 231.922 286.654 236.172 285.524 237.039C287.154 237.984 289.888 233.635 287.735 238.198C291.135 242.599 287.546 246.404 289.616 251.477C292.891 253.421 296.992 257.561 300.574 260.246C302.625 258.546 301.652 261.639 300.515 261.81ZM291.49 255.484C292.942 254.158 285.73 250.536 286.803 250.882C287.334 254.726 288.304 254.547 291.49 255.484ZM258.628 218.188C261.136 214.753 258.833 211.603 257.3 216.911C257.108 217.69 257.974 218.211 258.628 218.188ZM290.824 245.506C290.98 241.322 291.371 236.247 294.674 236.888C295.384 233.361 296.082 228.34 292.358 232.285C290.155 232.085 290.698 231.136 289.078 233.307C287.615 230.373 291.744 228.565 291.216 229.77C292.504 225.582 295.102 231.275 296.175 224.985C298.064 225.939 298.607 233.215 299.773 226.564C303.235 226.005 296.238 221.652 297.512 221.548C300.66 219.349 293.194 220.134 293.872 218.528C289.454 216.764 294.709 214.917 296.52 217.855C301.426 219.239 307.184 219.965 309.183 221.328C309.732 226.493 311.72 219.285 311.765 223.578C312.718 218.721 314.805 230.255 316.06 223.713C319.198 219.731 317.561 226.432 315.229 227.333C321.452 224.878 311.322 229.929 309.253 229.876C303.124 231.117 294.632 230.76 294.9 239.398C293.799 244.307 291.307 237.985 292.087 244.2C292.494 244.465 290.28 247.598 290.824 245.506ZM305.756 228.817C309.636 228.34 302.119 224.837 305.787 227.706C308.121 227.531 302.438 229.464 305.756 228.817ZM310.088 225.146C306.963 226.427 313.086 222.149 310.088 225.146ZM258.983 228.369C257.634 223.271 254.269 223.166 249.756 224.535C242.488 224.599 242.365 214.891 242.611 210.8C242.093 209.069 237.677 206.801 242.516 209.139C242.687 205.861 235.773 207.872 241.034 205.529C246.855 210.89 242.302 201.031 238.022 204.148C233.016 204.185 245.485 199.656 245.886 205.632C248.513 210.651 241.335 220.512 249.98 222.398C250.296 224.773 259.372 223.561 255.563 220.417C258.844 220.47 259.359 228.507 258.983 228.369ZM318.677 225.503C320.465 224.093 325.742 220.039 321.844 224.723C320.962 225.302 319.776 226.093 318.677 225.503ZM288.73 224.895C286.418 219.527 294.866 226.433 289.054 224.759L288.73 224.895ZM295.619 224.497C294.35 221.322 294.68 219.612 296.746 223.489C296.761 223.646 295.762 225.073 295.619 224.497ZM371.157 224.335C368.516 220.885 364.808 218.849 366.508 214.082C363.004 209.775 359.589 198.738 351.977 203.837C349.357 205.628 344.905 214.113 344.598 211.738C350.018 206.251 344.309 209.439 345.166 208.874C342.5 213.139 340.984 208.91 344.554 207.946C345.573 204.597 349.722 204.005 348.557 204.952C349.379 200.757 352.969 196.553 356.22 200.175C361.876 200.563 363.75 206.429 367.299 209.989C372.26 213.459 365.887 219.404 371.432 222.171C370.926 224.471 375.33 214.673 372.935 220.166C374.964 218.675 372.315 224.691 371.157 224.335ZM324.647 221.976C319.586 217.849 330.169 219.137 325.182 217.899C323.282 219.095 321.133 219.422 322.642 217.292C318.472 219.671 312.274 215.751 310.649 214.184C313.174 214.141 315.712 212.411 317.31 214.874C320.047 214.714 325.059 214.526 319.79 211.721C313.965 214.639 315.745 206.003 309.869 208.357C308.705 205.861 308.132 204.028 311.243 204.267C310.343 207.712 314.48 201.538 309.946 202.572C307.474 199.298 300.633 204.699 298.297 199.107C294.154 199.579 289.089 197.429 285.403 196.653C287.995 197.316 293.053 195.374 292.226 194.53C293.604 196.121 293.779 198.57 296.105 196.287C302.571 197.641 291.022 197.911 297.282 198.612C300.245 196.18 301.031 196.103 301.473 198.186C304.697 197.44 300.487 190.041 305.26 194.292C306.58 192.57 314.107 197.396 309.541 192.82C306.107 193.185 299.788 188.401 301.555 192.765C298.011 196.627 296.724 188.012 293.122 190.352C295.85 187.221 283.179 185.665 289.086 185.755C291.943 183.91 290.132 187.642 293.971 186.669C294.424 189.954 299.544 187.833 298.989 191.934C300.491 191.253 301.587 186.681 303.591 190.7C310.011 192.385 305.724 188.553 304.545 186.902C307.786 182.328 306.467 191.979 310.847 189.178C313.796 192.01 316.636 190.822 315.685 188.22C311.801 181.267 322.051 188.128 324.303 187.143C326.326 189.985 336.944 188.999 330.588 191.351C327.874 190.146 322.453 185.63 320.509 189.989C324.578 192.996 329.246 195.073 332.793 197.421C334.95 197.037 337.567 200.89 333.712 198.547C327.683 203.121 337.528 205.488 335.608 210.877C337.949 214.421 332.275 214.323 336.881 216.898C338.798 213.66 343.594 212.676 339.007 216.513C334.964 217.265 343.732 216.435 338.628 217.626C333.853 219.305 329.578 211.649 326.221 213.797C327.405 216.82 336.338 218.375 331.579 221.193C327.07 217.295 328.016 220.96 324.647 221.976ZM331.362 210.583C329.898 207.557 331.984 205.606 327.014 205.268C325.381 204.344 318.057 206.105 318.418 204.839C322.655 205.978 326.183 209.49 329.03 210.083C330.782 210.585 330.58 213.255 331.362 210.583ZM329.948 202.224C333.319 198.298 324.123 196.46 321.318 196.382C314.191 194.614 323.192 203.098 326.356 200.518C328.25 200.017 328.7 203.871 329.948 202.224ZM305.192 201.003C308.332 199.816 304.61 195.289 305.187 200.253C303.489 197.221 307.406 194.317 303.275 195.555C304.796 197.801 300.344 200.051 305.192 201.003ZM318.982 221.335C314.294 219.876 325.783 218.09 318.965 220.929C318.924 220.772 319.561 222.162 318.982 221.335ZM334.85 220.739C335.007 216.974 340.552 217.316 335.76 220.196L334.85 220.739ZM315.435 219.481C309.996 216.97 317.998 217.804 316.096 220.176L315.657 219.965L315.435 219.481ZM235.933 219.857C235.924 216.897 231.465 209.946 234.002 216.962C230.18 213.293 228.333 206.136 232.866 201.951C235.491 200.316 228.862 207.971 232.168 208.741C232.872 205.835 235.855 199.424 233.786 206.576C231.204 211.29 241.015 217.084 236.915 217.377C234.799 217.516 237.125 218.636 235.933 219.857ZM276.915 215.713C276.402 214.422 273.788 212.296 278.071 214.361C278.853 214.868 277.173 216.039 276.915 215.713ZM337.401 213.003C338.365 208.699 340.369 206.569 340.505 210.61C341.703 212.161 338.468 212.969 337.401 213.003ZM236.706 210.962C235.64 208.419 239.231 206.925 237.036 210.593L237.107 211.313L236.706 210.962ZM248.319 210.083C248.488 204.898 251.637 206.208 248.762 210.346L248.319 210.083ZM369.83 205.354C366.411 202.367 369.717 202.179 370.694 205.226C370.355 206.2 370.1 205.639 369.83 205.354ZM341.35 201.741C339.267 199.952 348.142 199.933 342.361 201.805L341.35 201.741ZM339.644 200.175C335.151 198.219 341.716 191.07 337.569 193.232C335.478 188.389 339.601 186.942 339.43 190.512C339.326 194.514 342.326 196.516 340.19 200.191L339.644 200.175ZM348.712 197.68C349.274 194.226 354.867 196.058 350.184 197.926C349.615 196.026 349.054 198.454 348.712 197.68ZM283.244 195.241C278.272 192.601 291.694 191.45 285.029 194.116C290.068 195.211 285.059 195.815 283.244 195.241ZM345.082 193.982C343.65 192.596 346.817 191.125 345.387 189.644C347.037 186.758 348.196 186.221 348.446 188.889C347.497 190.08 346.446 192.38 345.082 193.982ZM350 193.776C348.536 190.556 351.575 189.406 351.524 191.541C358.212 191.772 350.225 192.264 350 193.776ZM356.6 193.034C357.444 191.416 353.548 193.225 354.52 190.829C357.294 190.92 358.701 193.064 356.6 193.034ZM275.419 192.385C272.747 189.83 284.3 191.167 277.77 192.211L276.439 192.126L275.419 192.385ZM274.256 190.331C271.241 191.333 268.312 187.967 273.1 189.882L274.256 190.331ZM275.701 190.345C276.124 187.399 281.649 189.137 276.643 189.953L275.701 190.345ZM298.116 188.599C297.835 186.726 292.455 184.001 297.836 186.73C299.501 187.078 301.128 188.431 298.116 188.599ZM335.36 187.897C339.404 187.512 330.551 184.318 335.523 184.813C336.223 185.91 339.888 188.35 335.36 187.897ZM258.064 185.444C255.509 183.477 268.151 185.517 259.775 185.289L258.754 185.338L258.064 185.444ZM304.195 185.601C304.156 182.223 298.663 185.312 297.031 182.486C294.984 181.674 289.962 181.735 287.845 178.941C292.447 180.783 289.884 178.77 289.095 177.112C291.228 174.52 282.955 174.192 288.67 174.983C287.358 172.56 275.591 169.787 282.034 169.793C284.586 173.318 286.428 168.074 289.105 171.058C294.88 171.573 297.877 176.832 301.208 178.849C296.912 180.955 310.135 184.08 304.195 185.601ZM283.689 184.076C280.472 182.042 278.417 180.03 282.883 182.015C285.346 182.677 287.011 183.903 283.689 184.076ZM317.717 183.73C313.395 182.988 312.855 180.201 317.177 182.46C319.89 180.885 320.597 183.98 317.717 183.73ZM332.701 182.895C329.858 177.918 334.055 179.945 333.193 182.513L333.468 182.999L332.701 182.895ZM308.057 182.639C303.688 180.054 305.233 176.084 302.873 174.517C308.878 172.386 301.239 170.047 301.318 174.565C303.28 175.608 302.8 179.564 300.619 176.015C299.151 175.07 302.371 174.039 298.945 172.197C299.915 171.24 294.348 164.367 297.392 162.249C294.636 157.342 299.239 152.993 299.678 149.075C300.379 143.027 306.805 154.823 304.774 147.196C301.545 149.841 304.031 141.42 304.392 145.827C306.011 143.721 304.832 132.075 306.807 137.822C310.497 134.962 313.744 136.311 312.064 141.438C314.826 140.512 317.188 139.958 316.205 144.197C316.884 144.427 319.382 139.499 321.828 140.938C324.018 140.337 323.362 145.465 327.488 142.902C330.619 140.884 320.69 143.488 326.586 140.748C328.807 139.223 331.686 135.496 331.892 139.595C336.187 139.404 335.123 146.808 338.577 141.224C334.646 137.31 344.15 141.475 338.94 144.158C335.872 144.083 333.106 146.441 335.029 147.468C335.299 149.658 340.047 146.618 337.141 146.396C344.049 146.767 333.825 154.12 330.158 151.525C325.395 152.774 323.635 162.523 317.806 156.513C314.663 156.273 309.082 147.783 312.633 154.518C315.301 156.845 320.232 159.442 313.873 156.645C310.348 153.014 310.877 156.048 313.73 158.223C310.454 161.175 305.735 147.982 305.625 152.329C306.81 153.593 308.519 158.333 305.749 155.569C306.896 158.821 308.765 163.958 308.451 163.25C309.751 165.366 310.976 166.617 310.862 166.203C314.458 167.796 316.752 170.444 319.476 172.905C320.96 171.393 320.565 176.651 322.83 175.596C325.991 177.746 326.643 180.899 322.112 178.36C317.636 175.604 313.418 171.977 308.577 170.055C307.673 175.303 318.305 177.589 318.575 180.725C314.787 181.572 308.322 177.225 312.691 181.638C310.976 180.613 308.787 180.259 308.057 182.639ZM307.284 179.073C308.937 178.016 304.584 178.956 307.27 179.083L307.284 179.073ZM308.932 178.62C308.601 176.813 306.267 171.854 304.748 174.898C306.477 176.309 306.616 178.216 308.932 178.62ZM304.221 168.13C304.797 164.421 298.163 165.264 302.39 167.447L302.894 167.891L304.221 168.13ZM302.937 160.397C303.823 156.212 296.58 157.837 302.144 161.081L302.681 161.084L302.937 160.397ZM300.368 157.004C301.058 153.819 295.727 156.643 300.511 156.613C299.472 155.969 299.45 158.1 300.368 157.004ZM323.849 150.646C328.288 147.174 320.359 149.549 323.292 151.093L323.849 150.646ZM302.859 149.741C300.411 150.475 300.213 146.752 302.859 149.741ZM324.513 146.641C324.24 142.535 319.187 139.553 320.085 145.278C315.665 142.044 321.83 150.541 324.513 146.641ZM311.549 141.189C312.858 136.609 305.133 138.006 310.705 140.224L311.549 141.189ZM264.827 181.748C268.279 182.494 266.155 179.739 264.827 181.748ZM281.968 181.188C278.892 177.521 288.981 181.128 283.162 180.224L282.832 180.474L281.968 181.188ZM246.613 179.44C242.635 177.378 248.961 178.794 246.617 179.46L246.613 179.44ZM272.436 179.002C271.148 176.218 278.764 179.661 275.001 176.197C273.82 174.188 266.673 173.551 273.085 173.958C272.134 172.898 269.493 169.483 273.403 171.035C275.649 174.728 283.49 171.967 283.21 172.893C290.25 177.082 270.357 171.583 277.177 175.576C284.507 177.432 272.286 174.83 277.783 177.736C283.355 179.315 270.216 178.362 272.436 179.002ZM286.88 177.576C285.684 174.299 276.494 177.824 283.402 175.46C284.585 174.507 291.303 178.656 286.88 177.576ZM263.781 175.379C262.202 173.116 268.604 176.557 263.521 175.596L263.781 175.379ZM293.84 171.111C292.195 170.902 293.292 170.531 294.774 170.72L293.84 171.111ZM292.228 170.871C289.677 169.454 294.107 170.302 290.56 168.352C292.24 166.798 293.719 169.909 292.228 170.871ZM272.303 169.124C270.024 168.182 278.387 169.938 272.414 169.21L272.303 169.124ZM277.654 166.948C274.543 166.805 275.497 164.959 277.77 166.084C278.487 166.177 278.074 166.945 277.654 166.948ZM273.051 166.207C271.412 163.452 277.529 167.58 273.075 165.752C273.156 166.126 274.537 167.652 273.051 166.207ZM316.821 159.935C311.666 157.169 318.913 160.091 318.018 159.778L316.821 159.935Z" fill="#606060"/>
<path d="M295.378 258.384C290.611 257.238 297.502 256.046 295.517 257.899L295.918 258.054L295.378 258.384ZM287.319 245.3C286.878 240.498 282.18 245.008 284.188 240.561C285.809 235.795 289.2 242.957 288.236 244.791C288.337 245.261 287.65 245.816 287.319 245.3ZM273.799 241.334C269.72 238.738 265.724 236.38 263.857 231.813C260.748 227.056 258.988 219.977 260.435 215.763C263.059 215.409 258.509 210.601 261.872 211.01C263.109 203.736 262.961 217.241 264.8 211.282C264.521 215.411 269.093 214.994 267.268 217.336C270.92 221.831 272.605 222.618 274.143 227.055C277.371 229.809 272.659 223.056 275.556 226.924C277.519 229.799 282.33 230.255 281.008 232.985C279.329 230.158 280.346 235.267 278.592 230.428C277.275 230.28 276.787 232.317 276.727 229.372C277.158 232.973 276.238 232.362 273.908 231.629C275.26 233.721 270.319 230.589 268.837 232.493C270.542 234.388 274.63 234.702 272.316 236.686C274.363 236.782 275.878 241.442 275.218 237.105C277.736 236.77 275.042 242.063 273.799 241.334ZM274.06 240.493C274.475 236.092 272.319 241.905 273.086 237.359C270.775 236.764 272.674 241.454 274.06 240.493ZM270.783 239.007C272.552 236.789 266.555 236.406 270.763 235.872C267.514 231.23 264.788 235.49 270.157 238.168L270.783 239.007ZM249.285 224.386C246.484 224.575 248.172 223.117 249.603 224.089L249.285 224.386ZM304.536 223.586C303.007 218.756 306.724 222.692 304.941 223.805L304.536 223.586ZM332.051 221.249C327.997 218.85 322.216 213.967 320.618 211.109C325.151 209.099 312.95 205.521 320.325 206.553C321.782 207.588 323.191 208.389 325.177 209.682C323.637 210.59 330.015 209.913 330.408 212.71C335.778 207.561 327.143 202.642 322.945 203.997C320.646 203.685 319.335 202.898 317.034 202.094C315.098 206.056 317.834 197.726 314.706 198.957C318.451 195.64 319.877 202.384 324.652 201.811C327.843 200.86 329.068 203.941 331.416 204.469C332.36 207.186 335.117 206.514 333.431 209.93C335.781 210.626 332.785 214.51 333.276 216.167C332.42 212.434 328.419 215.314 326.884 211.488C325.662 214.396 322.564 213.743 327.154 215.422C327.697 217.195 329.706 218.879 331.301 217.582C328.328 219.58 332.726 218.133 332.658 220.456C333.067 220.943 332.268 221.098 332.051 221.249ZM368.021 220.602C366.16 216.707 366.658 216.301 368.619 219.918L368.453 220.29L368.021 220.602ZM320.166 217.156C322.615 217.164 322.47 213.749 320.166 217.156ZM367.608 214.766C368.255 211.401 365.634 215.335 366.252 212.242C364.241 215.13 365.514 208.429 365.486 212.448C366.642 210.468 371.384 212.232 367.608 214.766ZM364.254 210.593C363.531 207.132 356.906 201.492 360.668 201.922C357.935 203.49 367.186 209.28 364.254 210.593ZM245.07 209.255C247.23 208.304 243.145 207.037 245.062 204.531C246.109 205.656 247.724 208.95 245.07 209.255ZM244.079 205.656C240.202 202.943 243.098 203.005 245.108 205.64C244.848 205.454 244.263 206.136 244.079 205.656ZM352.236 202.783C349.6 201.058 351.655 200.585 353.203 201.521C352.766 199.679 354.877 204.015 352.236 202.783ZM312.367 202.584C314.225 200.827 308.021 200.92 312.456 198.181C315.538 198.035 309.794 199.607 313.418 201.005C312.994 201.541 313.621 202.918 312.367 202.584ZM338.616 199.248C338.312 195.658 341.578 195.155 339.004 199.155L338.616 199.248ZM320.189 196.334C316.816 194.645 319.485 186.491 320.268 191.81C318.329 193.533 320.444 194.298 323.277 193.559C324.115 195.399 327.418 193.884 324.285 195.475C322.785 195.229 321.162 195.32 320.189 196.334ZM318.74 189.43C316.16 189.034 317.405 187.859 317.04 185.674C320.331 185.036 318.687 188.455 318.74 189.43ZM297.36 182.493C297.735 179.253 292.584 180.013 292.861 177.587C289.46 178.367 288.265 172.907 291.913 176.82C295.026 173.629 283.857 173.182 289.021 171.159C291.76 172.858 293.271 172.702 294.332 173.82C295.736 175.614 302.136 180.76 298.57 182.4C297.956 180.77 296.943 182.505 297.36 182.493ZM309.51 179.366C311.753 177.832 306.251 172.487 309.931 174.021C310.764 175.979 312.862 178.831 314.322 178.55C313.425 180.834 311.582 177.536 309.51 179.366ZM318.228 175.666C316.701 172.391 313.487 173.674 314.968 171.109C315.332 168.784 318.421 175.494 316.879 172.88C319.168 172.503 322.995 175.827 318.228 175.666ZM313.698 172.189C311.201 170.844 312.057 166.994 314.501 170.737C313.941 171.122 314.793 172.348 313.698 172.189ZM307.008 171.085C304.028 166.129 303.41 162.951 304.302 157.733C306.65 153.838 303.869 160.644 306.527 162.441C305.469 163.097 308.031 165.322 305.294 165.286C305.767 168.802 309.053 161.804 309.407 167.625C304.616 165.746 306.334 167.569 307.008 171.085ZM299.935 169.579C295.679 168.551 299.65 165.756 299.441 167.896C297.158 170.562 304.466 164.862 300.387 169.224L300.169 169.658L299.935 169.579ZM299.552 166.188C297.164 166.351 294.987 160.927 297.887 163.64C296.431 161.647 298.178 159.111 299.452 162.096C296.135 162.08 304.462 166.035 299.281 164.716C298.071 165.025 302.254 166.687 299.552 166.188ZM321.522 158.298C320.206 155.747 314.952 156.847 316.736 153.839C313.896 150.965 310.515 149.43 307.215 148.234C305.253 145.243 309.155 137.2 309.243 144.513C311.507 143.285 315.717 141.17 311.905 144.492C316.422 143.041 320.423 149.678 323.998 147.243C325.958 146.725 330.787 145.24 327.245 143.163C332.482 141.948 325.073 142.053 328.72 139.653C331.579 135.804 331.746 143.353 334.222 142.075C335.951 140.207 335.005 143.859 335.549 145.219C333.437 146.773 331.347 146.767 332.867 143.932C328.079 145.787 333.577 151.707 336.352 150.416C332.201 152.833 328.002 148.963 325.535 155.196C324.491 156.523 323.262 157.941 321.522 158.298ZM324.818 155.43C323.348 153.488 330.714 149.384 324.604 150.836C325.691 149.645 328.683 147.592 324.022 148.472C319.109 148.279 325.195 152.977 322.904 154.822C323.412 155.245 324.729 154.546 324.818 155.43ZM320.51 150.834C323.183 148.849 313.384 148.358 318.722 150.527C322.916 149.334 317.391 152.411 320.51 150.834ZM313.727 153.736C317.182 153.734 311.002 151.589 313.727 153.736Z" fill="#333333"/>
<path fill-rule="evenodd" clip-rule="evenodd" d="M308.326 130.805C308.281 132.105 307.483 131.883 307.24 130.998C307.858 134.177 305.515 131.991 304.704 132.679C305.077 135.099 304.543 137.659 305.177 140.159C306.445 144.037 300.937 144.481 300.043 147.565C300.153 149.215 298.504 149.571 298.236 151.268C297.148 155.643 295.72 160.032 296.392 164.759C295.963 166.755 298.302 168.997 297.651 170.964C296.703 169.859 296.553 170.191 295.713 168.363C292.401 164.623 287.011 163.1 282.948 160.999C283.34 163.012 280.242 162.624 278.937 162.712C277.227 162.771 275.459 161.54 274.356 160.868C273.966 161.753 275.317 163.648 273.417 163.302C264.729 163.262 255.629 160.83 247.939 157.75C248.309 158.848 248.207 159.676 248.942 160.398C249.825 160.501 249.665 162.362 249.104 160.581C248.4 161.417 251.275 162.837 249.636 162.743C251.025 163.412 250.041 164.211 250.984 164.164C250.61 165.508 252.862 166.589 253.104 167.564C254.216 167.713 255.699 169.766 254.859 169.606C254.935 170.337 256.198 171.124 256.013 171.027C257.44 170.701 256.006 171.806 257.622 172.009C258.174 171.856 259.178 172.945 258.019 172.865C258.41 173.991 253.823 171.818 252.937 173.21C253.01 174.01 254.361 173.08 253.833 174.361C255.891 175.092 252.649 174.994 252.294 173.915C250.585 171.701 244.054 173.954 240.501 172.672C240.226 174.203 241.657 176.899 241.896 176.521C243.915 177.876 246.265 179.61 247.996 181.19C248.791 182.026 251.64 183.805 253.731 184.507C255.935 184.907 256.233 186.156 258.097 186.612C260.563 186.697 260.554 188.997 262.563 189.484C264.827 191.021 268.981 189.476 270.214 191.323C274.074 191.932 277.643 194.988 281.863 194.285C284.151 196.623 288.763 198.121 282.509 198.332C278.169 199.419 273.244 198.506 269.342 200.672C268.295 201.184 267.774 200.813 266.741 201.727C264.266 202.504 262.347 205.023 260.369 206.621C258.074 208.29 256.91 211.41 255.862 213.128C255.368 214.788 255.008 216.728 253.444 217.772C252.354 218.38 250.244 219.335 249.662 217.176C248.591 213.362 250.935 209.571 250.43 205.827C249.628 204.384 249.352 203.723 248.299 202.187C247.066 200.467 244.434 198.917 243.081 198.583C241.035 198.168 240.173 198.521 238.052 198.625C236.793 199.325 234.775 199.98 233.837 200.735C231.055 202.144 231.127 204.079 230.092 206.119C230.304 207.033 229.556 209.785 230.266 211.463C231.314 213.582 232.791 215.731 233.372 217.819C232.646 220.013 229.532 217.952 227.585 218.022C225.859 217.425 224.665 220.002 224.733 221.49C228.663 222.244 232.18 225.04 236.359 223.653C239.615 221.554 239.585 216.818 238.031 213.562C237.365 211.707 237.639 209.856 239.013 208.814C243.418 208.238 241.747 214.597 242.7 217.187C242.586 222.894 248.928 226.403 253.987 224.457C257.338 222.545 257.444 228.254 259.68 229.753C261.19 232.389 264.53 233.207 266.117 236.036C269.574 240.331 275.05 243.109 280.545 243.045C281.374 244.272 281.342 245.63 282.238 246.879C283.307 249.586 282.274 248.372 281.031 251.997C283.026 254.334 284.588 257.48 288.202 256.844C295.379 257.485 300.414 263.173 306.639 265.906C307.651 267.491 308.676 269.877 311.074 269.19C312.599 268.911 317.233 269.132 316.625 266.543C315.686 265.138 314.117 264.049 313.246 263.498C315.129 263.001 315.463 261.933 314.144 260.756C313.135 259.601 312.297 257.969 310.848 256.803C310.653 256.319 307.396 257.448 306.675 255.842C305.914 255.429 305.669 254.976 304.445 254.243C302.086 252.616 298.395 254.411 296.438 252.812C296.111 252.072 293.924 250.713 293.665 249C292.446 245.214 294.322 240.948 296.234 237.546C295.6 231.719 301.271 231.542 305.422 231.195C314.03 229.684 322.723 225.927 328.658 219.71C330.179 220.709 331.774 222.121 333.745 221.365C336.25 221.152 337.561 218.548 339.969 217.903C345.149 214.376 348.272 208.548 352.046 204.062C353.837 202.029 357.574 202.123 359.483 204.364C363.248 207.086 363.507 212.781 367.078 215.213C366.055 216.833 365.062 219.261 367.323 220.407C369.063 221.654 370.986 225.461 372.708 224.927C372.79 221.798 375.432 218.853 373.81 215.683C372.046 212.799 371.496 209.16 368.77 206.887C366.145 204.101 362.51 201.169 360.805 197.726C360.026 197.643 359.745 196.055 358.821 195.789C356.708 193.917 353.423 193.767 351.07 195.141C348.181 193.908 355.144 190.738 356.862 193.621C359.763 195.476 361.816 197.321 364.315 199.91C365.597 200.795 368.393 200.698 367.842 202.958C368.368 206.217 372.75 207.341 375.29 207.749C375.453 205.333 375.076 202.166 373.758 200.374C372.135 197.877 368.71 196.616 366.504 194.451C362.13 191.215 357.508 188.251 352.804 185.583C350.304 184.891 346.974 185.515 346.022 188.094C344.529 190.199 342.761 192.292 340.222 192.613C340.237 188.246 337.211 185.015 335.171 181.749C334.242 173.683 329.564 166.643 324.26 160.884C322.397 159.255 323.26 157.485 325.007 156.913C326.458 155.276 327.722 152.199 329.844 151.551C330.726 151.49 333.749 152.278 334.967 151.708C337.005 150.132 339.941 149.904 340.222 146.782C339.56 143.352 336.226 146.841 334.278 145.957C334.94 144.826 339.193 145.015 340.013 143.267C341.296 142.682 340.833 140.105 339.271 139.073C334.201 132.838 328.45 139.763 322.636 140.028C320.122 139.26 317.526 139.059 314.875 140.055C310.422 142.289 314.296 136.877 311.662 135.448C310.327 134.277 308.012 132.645 308.325 130.805H308.326Z" stroke="#333333" stroke-width="0.541513"/>
</svg>
