<svg width="960" height="727" viewBox="0 0 960 727" fill="none" xmlns="http://www.w3.org/2000/svg">
<path d="M960 0H0V726.4H960V0Z" fill="#0085CE"/>
<path d="M303.992 465.563L331.115 452.711L336.824 464.715C337.972 467.128 338.6 469.078 338.71 470.564C338.82 472.051 338.437 473.462 337.561 474.797C336.685 476.133 335.5 477.154 334.008 477.861C332.084 478.773 330.166 478.92 328.255 478.302C326.344 477.683 324.592 476.16 322.999 473.732C322.993 474.896 322.885 475.83 322.676 476.533C322.211 478.035 321.48 479.596 320.482 481.215L315.339 489.422L313.196 484.916L317.136 478.66C318.266 476.842 319.102 475.39 319.643 474.304C320.185 473.217 320.501 472.325 320.591 471.626C320.682 470.926 320.663 470.268 320.536 469.649C320.429 469.202 320.156 468.517 319.717 467.593L317.74 463.438L305.696 469.145L303.992 465.563ZM320.849 461.966L324.511 469.666C325.29 471.304 326.068 472.504 326.847 473.267C327.625 474.029 328.501 474.474 329.476 474.6C330.451 474.727 331.376 474.583 332.251 474.168C333.534 473.56 334.368 472.595 334.752 471.274C335.136 469.953 334.851 468.289 333.897 466.283L329.822 457.714L320.849 461.966Z" fill="white" stroke="#FBFFFF" stroke-width="2"/>
<path d="M322.199 499.141L347.07 482.354L359.231 500.303L356.296 502.285L346.361 487.62L338.744 492.761L348.048 506.495L345.13 508.465L335.826 494.731L327.36 500.445L337.685 515.686L334.75 517.667L322.199 499.141Z" fill="white" stroke="#FBFFFF" stroke-width="2"/>
<path d="M361.523 528.827L364.2 526.542L372.48 536.178L364.012 543.405C361.56 542.933 359.362 542.164 357.416 541.099C355.471 540.034 353.789 538.672 352.369 537.015C350.453 534.778 349.191 532.335 348.585 529.688C347.979 527.04 348.185 524.475 349.203 521.993C350.22 519.511 351.85 517.314 354.092 515.401C356.313 513.506 358.783 512.2 361.502 511.485C364.221 510.769 366.793 510.883 369.217 511.826C371.642 512.769 373.826 514.375 375.769 516.644C377.179 518.291 378.187 520.008 378.793 521.795C379.399 523.582 379.548 525.261 379.241 526.832C378.934 528.403 378.181 530.041 376.982 531.745L373.906 529.663C374.775 528.33 375.325 527.126 375.554 526.051C375.784 524.977 375.695 523.798 375.287 522.514C374.879 521.231 374.183 520.014 373.198 518.864C372.018 517.487 370.787 516.475 369.506 515.829C368.226 515.182 366.979 514.843 365.766 514.812C364.553 514.78 363.39 514.943 362.278 515.3C360.369 515.925 358.59 516.941 356.94 518.349C354.906 520.085 353.504 521.887 352.733 523.755C351.962 525.623 351.816 527.509 352.297 529.412C352.777 531.315 353.66 533.017 354.947 534.519C356.065 535.825 357.408 536.884 358.976 537.698C360.544 538.511 361.888 538.995 363.009 539.151L367.259 535.524L361.523 528.827Z" fill="white" stroke="#FBFFFF" stroke-width="2"/>
<path d="M370.781 555.934L391.829 534.562L394.662 537.343L373.615 558.714L370.781 555.934Z" fill="white" stroke="#FBFFFF" stroke-width="2"/>
<path d="M395.66 553.777C398.79 549.906 402.282 547.715 406.135 547.202C409.988 546.69 413.561 547.761 416.855 550.414C419.012 552.152 420.54 554.232 421.44 556.656C422.34 559.08 422.501 561.578 421.921 564.15C421.342 566.721 420.109 569.174 418.223 571.507C416.31 573.872 414.121 575.603 411.656 576.699C409.191 577.795 406.693 578.117 404.164 577.664C401.635 577.212 399.356 576.168 397.327 574.533C395.127 572.761 393.59 570.648 392.716 568.192C391.842 565.736 391.7 563.232 392.291 560.678C392.882 558.124 394.005 555.824 395.66 553.777ZM398.809 556.393C396.537 559.203 395.504 562.027 395.71 564.864C395.916 567.701 397.162 570.039 399.446 571.88C401.773 573.754 404.348 574.48 407.172 574.058C409.996 573.636 412.621 571.925 415.048 568.923C416.583 567.025 417.601 565.109 418.103 563.175C418.605 561.242 418.553 559.387 417.945 557.61C417.338 555.833 416.264 554.325 414.723 553.083C412.534 551.32 410.044 550.553 407.253 550.783C404.462 551.013 401.647 552.883 398.809 556.393Z" fill="white" stroke="#FBFFFF" stroke-width="2"/>
<path d="M424.125 590.235L429.211 560.699L433.228 561.388L444.776 587.244L448.77 564.055L452.524 564.699L447.438 594.235L443.421 593.545L431.876 567.67L427.879 590.879L424.125 590.235Z" fill="white" stroke="#FBFFFF" stroke-width="2"/>
<path d="M462.859 597.072L462.917 567.104L484.626 567.145L484.619 570.681L466.883 570.648L466.865 579.826L483.475 579.858L483.468 583.374L466.859 583.342L466.839 593.543L485.271 593.578L485.264 597.115L462.859 597.072Z" fill="white" stroke="#FBFFFF" stroke-width="2"/>
<path d="M521.383 591.83L508.672 564.68L514.09 562.153L529.529 578.374C530.96 579.887 532.021 581.025 532.709 581.787C532.556 580.655 532.359 578.979 532.118 576.759L529.787 554.831L534.629 552.572L547.341 579.722L543.871 581.341L533.232 558.617L535.967 585.028L532.72 586.543L514.032 567.1L524.853 590.213L521.383 591.83Z" fill="white" stroke="#FBFFFF" stroke-width="2"/>
<path d="M551.525 559.567C549.203 555.166 548.568 551.098 549.622 547.363C550.676 543.628 553.076 540.776 556.821 538.808C559.273 537.519 561.792 536.941 564.379 537.076C566.965 537.21 569.326 538.052 571.463 539.601C573.6 541.15 575.368 543.251 576.768 545.904C578.187 548.593 578.912 551.284 578.945 553.978C578.977 556.672 578.285 559.088 576.867 561.228C575.45 563.367 573.587 565.043 571.28 566.256C568.779 567.57 566.226 568.142 563.621 567.972C561.016 567.801 558.655 566.939 556.54 565.387C554.424 563.834 552.753 561.894 551.525 559.567ZM555.178 557.716C556.864 560.911 559.053 562.976 561.744 563.91C564.436 564.844 567.081 564.628 569.678 563.263C572.323 561.872 574.011 559.799 574.741 557.043C575.47 554.288 574.935 551.204 573.134 547.791C571.995 545.633 570.636 543.941 569.055 542.715C567.475 541.49 565.748 540.804 563.873 540.657C561.998 540.511 560.184 540.898 558.433 541.819C555.944 543.127 554.253 545.106 553.359 547.755C552.466 550.404 553.072 553.725 555.178 557.716Z" fill="white" stroke="#FBFFFF" stroke-width="2"/>
<path d="M593.287 547.074L570.844 527.168L573.483 524.203L593.278 541.761L603.1 530.728L605.748 533.077L593.287 547.074Z" fill="white" stroke="#FBFFFF" stroke-width="2"/>
<path d="M615.426 523.394L590.91 506.094L593.204 502.855L617.72 520.155L615.426 523.394Z" fill="white" stroke="#FBFFFF" stroke-width="2"/>
<path d="M619.486 505.281L620.991 501.839C622.395 502.401 623.674 502.627 624.83 502.518C625.985 502.409 627.15 501.898 628.325 500.985C629.5 500.071 630.495 498.867 631.311 497.37C632.036 496.042 632.478 494.762 632.638 493.529C632.797 492.297 632.667 491.245 632.249 490.373C631.831 489.502 631.214 488.844 630.398 488.401C629.571 487.951 628.718 487.798 627.839 487.941C626.96 488.084 626.011 488.592 624.99 489.465C624.329 490.022 623.048 491.35 621.148 493.452C619.247 495.553 617.775 496.949 616.73 497.638C615.385 498.536 614.056 499.028 612.742 499.113C611.429 499.198 610.166 498.912 608.955 498.253C607.624 497.53 606.586 496.477 605.84 495.094C605.095 493.711 604.817 492.132 605.007 490.358C605.198 488.584 605.776 486.811 606.743 485.04C607.807 483.089 609.061 481.54 610.503 480.392C611.946 479.244 613.497 478.601 615.158 478.464C616.818 478.327 618.438 478.649 620.018 479.43L618.448 482.906C616.683 482.18 615.093 482.103 613.676 482.675C612.26 483.248 611 484.545 609.897 486.568C608.747 488.675 608.297 490.42 608.544 491.804C608.792 493.187 609.462 494.176 610.553 494.769C611.5 495.284 612.465 495.367 613.449 495.017C614.426 494.679 616.008 493.269 618.194 490.787C620.38 488.305 622 486.668 623.054 485.876C624.597 484.728 626.111 484.085 627.594 483.944C629.078 483.805 630.527 484.119 631.942 484.888C633.345 485.65 634.448 486.77 635.251 488.246C636.055 489.723 636.391 491.4 636.262 493.276C636.131 495.153 635.554 497.031 634.529 498.91C633.229 501.292 631.793 503.099 630.219 504.33C628.645 505.562 626.91 506.256 625.014 506.412C623.117 506.569 621.275 506.191 619.486 505.281Z" fill="white" stroke="#FBFFFF" stroke-width="2"/>
<path d="M646.474 479.187L619.293 466.459L628.513 446.842L631.721 448.344L624.188 464.371L632.513 468.269L639.567 453.26L642.756 454.753L635.702 469.763L644.954 474.095L652.783 457.439L655.99 458.941L646.474 479.187Z" fill="white" stroke="#FBFFFF" stroke-width="2"/>
<path d="M336.246 223.367V265.468C336.296 340.444 353.144 491.491 480.246 531.207C607.35 491.49 624.197 340.44 624.246 265.466V223.367" fill="#D71919"/>
<path d="M336.246 223.367V265.468C336.296 340.444 353.144 491.491 480.246 531.207C607.35 491.49 624.197 340.44 624.246 265.466V223.367" stroke="#BEBEBE" stroke-width="3"/>
<path fill-rule="evenodd" clip-rule="evenodd" d="M422.044 306.555L403.872 300.477L395.327 317.606L386.781 300.477L368.61 306.555L374.696 288.409L357.543 279.876L374.696 271.343L368.61 253.197L386.781 259.275L395.327 242.146L403.872 259.275L422.044 253.197L415.957 271.343L433.111 279.876L415.957 288.409L422.044 306.555Z" fill="#BEBEBE"/>
<path fill-rule="evenodd" clip-rule="evenodd" d="M588.994 228.777L375.844 432.234C384.646 452.663 395.797 471.102 409.937 484.948L621.374 283.123L620.518 229.584L588.994 228.777Z" fill="#BEBEBE"/>
<path d="M631.933 215.043H328.578V230.403H631.933V215.043Z" fill="#BEBEBE"/>
</svg>
