<svg width="1010" height="673" viewBox="0 0 1010 673" fill="none" xmlns="http://www.w3.org/2000/svg">
<path d="M1009.44 0H0V672.961H1009.44V0Z" fill="#0A4FA2"/>
<path d="M316.053 152.028C320.144 151.533 322.455 151.183 322.987 150.98C323.351 150.834 323.687 150.398 323.996 149.67V149.19C323.996 148.462 324.108 145.828 324.332 141.287C324.388 140.006 324.416 138.755 324.416 137.532L324.29 132.337L324.374 126.442L324.332 115.483L324.374 107.624C324.402 104.306 324.156 102.283 323.638 101.556C323.12 100.828 321.782 100.311 319.625 100.006C317.468 99.7 316.277 99.4745 316.053 99.3289C315.829 99.1835 315.717 98.9505 315.717 98.6303C315.717 98.4266 315.759 98.1646 315.843 97.8444C316.123 97.5825 316.768 97.437 317.776 97.4078C317.916 97.4079 318.301 97.3714 318.932 97.2988C319.562 97.226 320.157 97.1896 320.718 97.1896H324.164L335.216 97.0586C341.463 97.0586 345.841 97.5389 348.348 98.4994C350.855 99.46 352.851 101.083 354.336 103.368C355.821 105.653 356.563 108.207 356.563 111.03C356.563 116.386 353.86 120.475 348.453 123.299C347.528 123.794 346.8 124.23 346.268 124.609C347.22 126.704 348.551 129.222 350.26 132.162L355.597 141.68C357.726 145.173 359.197 147.363 360.009 148.251C360.822 149.139 361.809 149.874 362.972 150.456C364.135 151.038 366.089 151.591 368.834 152.115C368.862 152.406 368.876 152.639 368.876 152.814C368.876 152.988 368.863 153.206 368.834 153.468C364.996 153.527 360.5 153.556 355.345 153.556C354.981 153.556 354.476 153.526 353.832 153.468C351.843 149.51 349.504 145.158 346.814 140.414L340.595 128.625C339.754 127.403 339.061 126.639 338.515 126.333C337.968 126.028 337.247 125.875 336.35 125.875L332.778 125.918L331.602 125.875C331.518 126.806 331.476 128.713 331.476 131.594V146.526C331.448 147.079 331.56 147.851 331.812 148.84C332.036 149.393 332.421 149.837 332.967 150.172C333.514 150.507 335.09 151.009 337.695 151.678L339.418 152.115C339.642 152.406 339.754 152.799 339.754 153.294C338.998 153.439 338.465 153.512 338.157 153.512C335.636 153.512 333.857 153.483 332.82 153.425C332.288 153.396 331.854 153.382 331.518 153.382L325.802 153.469L320.213 153.425C319.961 153.425 318.687 153.469 316.389 153.556L315.549 153.381L315.465 152.945C315.465 152.683 315.661 152.377 316.053 152.028ZM331.686 123.473C332.442 123.502 333.003 123.517 333.367 123.517C335.384 123.517 337.709 123.27 340.343 122.775C342.192 122.396 343.69 121.778 344.839 120.919C345.988 120.06 346.947 118.787 347.718 117.099C348.488 115.411 348.873 113.664 348.873 111.859C348.873 109.88 348.271 107.784 347.066 105.572C346.142 103.884 344.58 102.472 342.381 101.337C340.182 100.202 337.541 99.6344 334.459 99.6344C333.703 99.6344 332.722 99.6781 331.518 99.7654C331.406 101.279 331.35 102.443 331.35 103.258L331.56 111.423L331.518 114.785C331.518 117.055 331.574 119.951 331.686 123.473Z" fill="#DEB308" stroke="#DEB308"/>
<path d="M369.864 152.241C370.101 151.977 370.302 151.817 370.468 151.758C370.871 151.612 371.558 151.495 372.529 151.407C374.827 151.232 376.248 150.968 376.793 150.617C377.125 150.032 377.29 149.213 377.29 148.16L377.255 145.089L377.29 133.946L377.219 128.681L377.255 117.669L377.077 105.165C377.054 102.182 376.9 100.5 376.615 100.12C376.189 99.5642 374.921 99.2425 372.813 99.1547C371.913 99.1257 371.119 99.0378 370.432 98.8915C370.124 98.6868 369.97 98.4236 369.97 98.1018C369.97 97.8678 370.03 97.59 370.148 97.2682C370.361 97.122 370.551 97.0488 370.717 97.0488C371.048 97.0488 371.451 97.0642 371.925 97.0926C373.322 97.2387 374.767 97.312 376.26 97.3119L378.889 97.2243L385.143 97.3997C388.27 97.3998 390.71 97.356 392.463 97.2682C394.216 97.1806 395.401 97.1366 396.017 97.1366C396.562 97.1367 397.912 97.1952 400.068 97.3121L405.114 97.2684L405.718 97.3999L408.667 97.2684L409.022 97.4878C409.141 97.7218 409.224 97.9704 409.271 98.2336C409.271 98.6431 409.218 99.2719 409.111 100.12C409.005 100.968 408.951 101.495 408.951 101.699C408.951 104.741 409.034 107.315 409.2 109.421C409.176 109.597 409.105 109.714 408.987 109.772C408.726 109.772 408.489 109.728 408.276 109.641C408.015 109.085 407.666 108.105 407.228 106.701C406.789 105.297 406.132 103.674 405.256 101.831C404.663 100.603 404.201 99.8716 403.87 99.6376C403.538 99.4036 402.851 99.2866 401.809 99.2866C401.596 99.2866 400.518 99.2575 398.575 99.1987C398.054 99.1697 397.545 99.155 397.047 99.155L386.92 99.4183H386.032C384.729 99.4183 383.947 99.6231 383.686 100.032C383.284 100.734 383.082 102.797 383.082 106.219C383.082 106.57 383.141 110.079 383.26 116.748V122.846C383.52 122.934 383.805 122.978 384.113 122.978H384.717C385.119 122.978 385.712 122.993 386.493 123.022C387.725 123.08 388.554 123.109 388.981 123.109C389.265 123.109 389.514 123.094 389.727 123.065C392.286 122.949 395.578 122.89 399.606 122.89C400.861 122.627 401.596 122.32 401.809 121.969C402.164 121.442 402.431 120.068 402.608 117.845C402.786 115.622 403.183 114.364 403.799 114.072C404.107 114.072 404.391 114.145 404.651 114.291C404.699 114.525 404.723 114.744 404.723 114.949C404.723 115.154 404.699 115.49 404.651 115.958C404.533 117.04 404.474 120.433 404.474 126.137C404.474 127.658 404.539 129.354 404.669 131.226C404.8 133.098 404.865 134.107 404.865 134.253C404.865 134.516 404.829 134.867 404.758 135.306C404.569 135.423 404.415 135.481 404.296 135.481H404.048C403.669 134.663 403.301 133.39 402.946 131.665C402.33 128.71 401.685 126.86 401.009 126.115C400.334 125.369 399.239 124.996 397.722 124.996C397.391 124.996 396.787 125.018 395.91 125.062C395.034 125.105 393.731 125.128 392.001 125.128H389.692C386.399 125.128 384.243 125.215 383.225 125.391L383.189 126.839L383.225 134.911L383.189 140L383.225 144.958C383.248 147.941 383.402 149.667 383.686 150.135C384.089 150.779 384.966 151.1 386.316 151.1L388.484 151.057C388.673 151.057 389.413 151.078 390.704 151.122C391.996 151.166 393.589 151.188 395.484 151.188C400.056 151.188 403.1 150.947 404.616 150.464C406.132 149.982 407.382 149.126 408.365 147.898C409.348 146.669 410.586 144.022 412.078 139.957C412.528 138.757 412.978 138.158 413.429 138.158C413.642 138.158 413.879 138.275 414.139 138.509C413.452 141.404 413.061 143.306 412.967 144.212C412.706 146.26 412.552 148.351 412.505 150.486C412.505 151.451 412.315 152.256 411.936 152.899H411.154L401.169 153.031L396.692 152.987L386.032 153.162H381.697C381.152 153.162 380.642 153.178 380.169 153.206C375.904 153.44 372.766 153.557 370.752 153.557C370.397 153.557 370.154 153.484 370.024 153.338C369.893 153.192 369.828 152.972 369.828 152.68L369.864 152.241Z" fill="#DEB308" stroke="#DEB308"/>
<path d="M472.917 100.791L473.386 107.264C473.557 109.224 473.643 110.558 473.643 111.268L472.447 111.481C470.539 107.165 468.169 103.928 465.336 101.77C462.503 99.6127 459.037 98.5338 454.937 98.5337C449.926 98.5338 446.026 99.1442 443.236 100.365C439.193 102.097 435.734 105.107 432.858 109.394C429.982 113.681 428.545 118.849 428.545 124.896C428.545 128.388 429.071 131.526 430.125 134.308C431.178 137.091 432.666 139.682 434.588 142.081C436.509 144.48 438.78 146.56 441.399 148.32C443.107 149.484 445.143 150.364 447.506 150.96C448.844 151.273 450.837 151.429 453.485 151.429C455.193 151.429 457.087 151.188 459.165 150.705C461.243 150.222 462.809 149.576 463.863 148.767C464.916 147.958 465.635 147.042 466.019 146.02C466.404 144.998 466.596 143.011 466.596 140.058C466.596 135.146 466.269 132.285 465.614 131.476C464.959 130.667 462.895 130.135 459.421 129.879L457.713 129.751L456.56 129.794C456.389 129.766 456.161 129.723 455.877 129.666L455.236 128.602C455.236 128.46 455.336 128.275 455.535 128.048C457.015 127.821 460.233 127.707 465.187 127.707C466.297 127.707 468.105 127.735 470.61 127.792L475.009 127.963L478.981 127.92C479.749 127.92 480.675 127.948 481.757 128.005C481.956 128.034 482.084 128.083 482.141 128.154C482.198 128.225 482.227 128.346 482.227 128.516C482.227 128.829 482.155 129.226 482.013 129.709C480.817 129.964 479.892 130.092 479.237 130.092L476.461 130.049C475.522 130.049 474.767 130.376 474.198 131.029C473.913 131.341 473.771 132.406 473.771 134.223L473.814 139.802C473.813 143.635 473.657 146.077 473.344 147.128C473.173 147.752 472.817 148.313 472.276 148.81C471.735 149.307 470.596 149.896 468.86 150.577C466.383 151.571 464.133 152.238 462.112 152.579C458.354 153.232 454.724 153.558 451.222 153.558C445.585 153.558 440.965 152.842 437.364 151.408C433.762 149.974 430.659 147.979 428.054 145.424C425.449 142.869 423.591 140.285 422.481 137.673C420.801 133.84 419.961 129.936 419.961 125.961C419.961 120.992 421.278 116.13 423.911 111.374C426.545 106.619 430.794 102.75 436.659 99.7688C440.787 97.6678 446.396 96.6172 453.485 96.6172C458.382 96.6172 462.39 97.0431 465.507 97.8949C468.625 98.7467 471.094 99.712 472.917 100.791Z" fill="#DEB308" stroke="#DEB308"/>
<path d="M485.477 152.153C486.029 151.891 486.594 151.73 487.171 151.672C491.013 151.38 493.21 150.847 493.763 150.074C494.315 149.3 494.591 145.557 494.591 138.844L494.553 134.248V129.432L494.403 124.135L494.478 121.026L494.44 117.611V113.584L494.365 111.789L494.44 109.512C494.465 108.987 494.478 108.374 494.478 107.674C494.478 105.835 494.403 103.894 494.252 101.851C494.152 101.442 494.014 101.048 493.838 100.669C492.909 100.114 491.409 99.7423 489.337 99.5525C487.266 99.3628 486.092 99.1512 485.816 98.9177C485.615 98.7426 485.502 98.2902 485.477 97.5605H488.64L498.621 97.8232C501.182 97.8233 504.597 97.7358 508.866 97.5605C508.866 98.0276 508.841 98.4654 508.79 98.8739C508.288 99.0199 507.447 99.1804 506.267 99.3555C503.882 99.6766 502.425 99.983 501.898 100.275C501.572 100.421 501.333 100.669 501.182 101.019C500.931 101.544 500.781 102.522 500.73 103.952L500.542 109.6L500.693 129.082V136.787C500.642 139.209 500.617 140.858 500.617 141.734C500.617 145.003 500.686 147.09 500.824 147.994C500.963 148.899 501.201 149.548 501.54 149.942C501.879 150.336 502.438 150.65 503.216 150.884C504.371 151.205 505.275 151.38 505.928 151.409C507.334 151.467 508.225 151.701 508.602 152.109C508.677 152.489 508.715 152.81 508.715 153.073V153.423C506.43 153.51 504.748 153.554 503.668 153.554C503.04 153.554 501.923 153.511 500.316 153.423L495.119 153.51L486.268 153.467H485.552L485.477 152.153Z" fill="#DEB308" stroke="#DEB308"/>
<path d="M515.793 124.714C515.793 121.738 516.153 119.091 516.874 116.771C517.595 114.452 518.809 111.935 520.516 109.222C522.223 106.509 524.282 104.24 526.695 102.417C529.108 100.593 532.448 98.9814 536.715 97.5809C539.716 96.6182 543.512 96.1367 548.103 96.1367C551.193 96.1367 554.216 96.5452 557.173 97.3621C560.131 98.1791 562.816 99.3169 565.229 100.776C567.642 102.235 570.055 104.481 572.468 107.515C574.145 109.616 575.41 111.877 576.264 114.299C577.382 117.479 577.941 120.761 577.941 124.146C577.941 127.997 577.566 131.191 576.815 133.73C576.065 136.268 574.807 138.777 573.041 141.257C571.658 143.183 569.29 145.4 565.935 147.909C563.699 149.601 560.918 150.965 557.593 152.001C554.268 153.037 550.678 153.555 546.823 153.555C542.909 153.555 539.422 153.102 536.362 152.198C533.302 151.294 530.749 150.192 528.704 148.894C526.659 147.596 524.555 145.677 522.392 143.139C520.229 140.601 518.588 137.8 517.47 134.736C516.352 131.673 515.793 128.332 515.793 124.714ZM546.426 151.935C548.897 151.935 551.465 151.593 554.128 150.907C556.791 150.221 559.152 149.083 561.212 147.493C563.272 145.903 564.883 144.094 566.045 142.067C567.208 140.039 568.142 137.435 568.848 134.255C569.554 131.075 569.908 127.895 569.908 124.714C569.908 120.747 569.319 116.822 568.142 112.942C567.23 109.995 565.744 107.362 563.684 105.043C561.624 102.723 559.138 100.929 556.224 99.6597C553.311 98.3906 550.207 97.756 546.911 97.756C544.233 97.756 541.614 98.1937 539.054 99.0689C536.494 99.9442 534.39 101.06 532.742 102.417C531.095 103.774 529.564 105.699 528.152 108.194C526.739 110.688 525.665 113.438 524.93 116.443C524.194 119.448 523.826 122.103 523.826 124.408C523.826 126.83 524.194 129.572 524.93 132.636C525.665 135.699 526.673 138.354 527.953 140.601C529.233 142.847 530.808 144.838 532.676 146.574C534.545 148.31 536.641 149.638 538.966 150.557C541.291 151.476 543.777 151.935 546.426 151.935Z" fill="#DEB308" stroke="#DEB308"/>
<path d="M583.669 98.9035L583.629 96.8015C587.732 96.8016 590.736 96.6848 592.642 96.4511C593.383 96.3635 593.9 96.32 594.191 96.3198C594.429 96.3198 594.786 96.3352 595.263 96.3635C596.375 97.3854 597.407 98.5532 598.36 99.8669C598.572 100.13 598.81 100.422 599.075 100.743L607.453 110.946L608.644 112.523C610.338 114.713 611.88 116.581 613.27 118.128C614.659 119.676 617.366 122.902 621.39 127.807L630.879 139.412C631.806 140.55 632.997 141.966 634.453 143.66L634.493 142.959C634.334 138.901 634.254 136.755 634.254 136.521L634.413 133.894L634.334 129.777V127.894C634.334 126.697 634.241 123.004 634.056 116.815C634.029 115.968 633.923 114.37 633.738 112.019C633.553 109.669 633.46 107.604 633.46 105.823C633.46 102.611 633.288 100.743 632.944 100.217C632.706 99.8378 631.581 99.4436 629.569 99.0348C629.093 99.0057 628.351 98.9181 627.345 98.7721C626.154 98.7137 625.453 98.6407 625.241 98.5531C625.029 98.4655 624.817 98.2174 624.606 97.8087C624.659 97.3416 624.778 96.9037 624.963 96.4948C625.678 96.2613 626.379 96.1445 627.068 96.1445C627.809 96.1445 628.728 96.2468 629.827 96.4511C630.926 96.6555 631.912 96.7577 632.785 96.7576C634.003 96.7577 635.896 96.67 638.463 96.4948C639.919 96.3781 640.925 96.32 641.481 96.3198H642.156L642.076 97.6773C641.653 97.8818 641.07 98.0058 640.329 98.0496C639.588 98.0933 638.9 98.2175 638.265 98.4218C637.312 98.743 636.742 99.0204 636.557 99.2539C635.922 100.013 635.604 100.787 635.604 101.575L636.041 115.413L636.359 121.763L636.319 123.603L636.557 132.405C636.716 138.419 636.795 143.645 636.796 148.083C636.795 149.046 636.743 151.134 636.637 154.345L634.771 154.52C633.844 153.352 630.654 149.674 625.201 143.485C623.931 142.054 623.07 141.047 622.62 140.463L619.206 136.127C617.882 134.522 617.022 133.5 616.625 133.062C616.228 132.624 615.937 132.303 615.751 132.098C612.866 128.478 609.12 123.953 604.514 118.523C603.27 117.063 601.444 114.786 599.035 111.691C597.526 109.735 596.573 108.538 596.176 108.1C595.779 107.662 595.236 107.166 594.548 106.611L594.429 108.1C594.429 113.793 594.561 121.647 594.826 131.66L595.104 146.156C595.131 147.382 595.197 148.564 595.303 149.703L596.692 150.053C599.207 150.316 601.682 150.71 604.117 151.236C604.303 151.411 604.461 151.542 604.594 151.63L604.554 153.294C604.131 153.44 603.786 153.513 603.522 153.513C603.231 153.513 602.873 153.484 602.45 153.425C599.829 153.192 596.639 153.075 592.88 153.075C590.233 153.075 587.904 153.148 585.892 153.294L585.336 153.338C585.098 153.338 584.754 153.308 584.304 153.25L584.264 151.936L585.297 151.411L587.163 151.104C588.83 150.841 590.048 150.55 590.816 150.228C591.319 150.024 591.729 149.717 592.047 149.309C592.338 147.294 592.483 144.346 592.483 140.463C592.483 138.653 592.444 135.339 592.364 130.522V124.566L592.285 112.129C592.232 106.582 592.06 103.312 591.769 102.319C591.61 101.794 591.279 101.327 590.776 100.918C589.77 100.13 588.453 99.6332 586.825 99.4288C585.198 99.2245 584.145 99.0496 583.669 98.9035Z" fill="#DEB308" stroke="#DEB308"/>
<path d="M647.238 152.236C647.488 151.972 647.701 151.81 647.876 151.752C648.301 151.605 649.026 151.488 650.052 151.4C652.478 151.224 653.978 150.96 654.553 150.608C654.904 150.021 655.079 149.199 655.079 148.143L655.041 145.062L655.079 133.883L655.004 128.602L655.041 117.555L654.854 105.011C654.829 102.019 654.666 100.331 654.366 99.95C653.916 99.3925 652.578 99.0698 650.352 98.9817C649.401 98.9524 648.564 98.8644 647.838 98.7176C647.513 98.5123 647.351 98.2482 647.351 97.9254C647.351 97.6907 647.413 97.412 647.538 97.0892C647.763 96.9424 647.963 96.8691 648.138 96.8691C648.489 96.8691 648.914 96.8845 649.414 96.9131C650.89 97.0598 652.415 97.1332 653.991 97.1331L656.767 97.0453L663.37 97.2213C666.671 97.2214 669.247 97.1774 671.098 97.0894C672.949 97.0014 674.199 96.9575 674.849 96.9575C675.425 96.9575 676.85 97.0162 679.126 97.1335L684.453 97.0896L685.091 97.2215L688.205 97.0896L688.58 97.3097C688.705 97.5444 688.793 97.7938 688.843 98.0578C688.843 98.4687 688.787 99.0995 688.673 99.9503C688.561 100.801 688.504 101.329 688.504 101.535C688.504 104.586 688.59 107.168 688.766 109.281C688.741 109.457 688.666 109.574 688.541 109.633C688.266 109.633 688.016 109.589 687.791 109.501C687.516 108.944 687.147 107.961 686.684 106.552C686.221 105.144 685.527 103.515 684.602 101.667C683.977 100.435 683.489 99.7011 683.139 99.4663C682.789 99.2316 682.063 99.1143 680.963 99.1142C680.738 99.1143 679.6 99.0849 677.549 99.0262C676.999 98.9969 676.461 98.9823 675.936 98.9823L665.244 99.2464H664.306C662.931 99.2464 662.105 99.4518 661.83 99.8625C661.405 100.567 661.192 102.635 661.192 106.068C661.192 106.42 661.255 109.941 661.38 116.631V122.749C661.655 122.837 661.955 122.881 662.28 122.881H662.918C663.343 122.881 663.969 122.896 664.794 122.924C666.094 122.983 666.97 123.013 667.42 123.012C667.72 123.012 667.983 122.997 668.208 122.968C670.909 122.851 674.385 122.792 678.637 122.792C679.963 122.528 680.738 122.22 680.963 121.868C681.338 121.34 681.62 119.961 681.807 117.731C681.995 115.501 682.414 114.239 683.064 113.946C683.389 113.946 683.689 114.019 683.964 114.166C684.014 114.401 684.039 114.621 684.039 114.826C684.039 115.032 684.014 115.369 683.964 115.839C683.839 116.924 683.777 120.328 683.777 126.049C683.777 127.575 683.845 129.277 683.983 131.155C684.121 133.032 684.189 134.045 684.189 134.191C684.189 134.456 684.152 134.808 684.077 135.248C683.877 135.365 683.714 135.424 683.589 135.424H683.327C682.926 134.602 682.539 133.326 682.164 131.595C681.513 128.631 680.832 126.775 680.119 126.027C679.406 125.279 678.249 124.905 676.649 124.905C676.299 124.905 675.661 124.927 674.736 124.971C673.81 125.015 672.435 125.037 670.609 125.037H668.17C664.694 125.037 662.418 125.125 661.343 125.301L661.305 126.754L661.343 134.852L661.305 139.957L661.343 144.93C661.368 147.923 661.53 149.654 661.83 150.124C662.255 150.769 663.181 151.092 664.606 151.092L666.895 151.048C667.095 151.048 667.876 151.07 669.239 151.114C670.603 151.158 672.284 151.18 674.285 151.18C679.112 151.18 682.326 150.938 683.927 150.454C685.527 149.97 686.847 149.112 687.885 147.879C688.923 146.647 690.229 143.992 691.805 139.913C692.28 138.71 692.755 138.109 693.231 138.109C693.456 138.109 693.706 138.226 693.981 138.461C693.256 141.366 692.843 143.273 692.743 144.182C692.468 146.236 692.305 148.334 692.255 150.476C692.255 151.444 692.055 152.251 691.655 152.897H690.83L680.288 153.029L675.561 152.985L664.306 153.161H659.729C659.154 153.161 658.616 153.176 658.116 153.205C653.614 153.439 650.301 153.557 648.175 153.557C647.799 153.557 647.543 153.483 647.406 153.337C647.268 153.19 647.199 152.97 647.199 152.677L647.238 152.236Z" fill="#DEB308" stroke="#DEB308"/>
<path d="M348.914 522.601C349.254 524.789 349.424 527.034 349.424 529.335C349.424 529.789 349.41 530.4 349.381 531.167C348.984 531.253 348.687 531.295 348.489 531.295C348.318 531.295 348.078 531.267 347.766 531.21C346.576 527.886 344.635 525.329 341.943 523.539C339.251 521.749 335.921 520.854 331.954 520.854C329.857 520.854 328.086 521.096 326.641 521.579C324.091 522.459 321.852 523.674 319.925 525.222C317.998 526.771 316.369 528.618 315.037 530.763C313.705 532.908 312.65 535.507 311.87 538.562C311.091 541.616 310.702 544.734 310.702 547.916C310.702 553.996 311.622 559.018 313.464 562.981C315.306 566.945 317.828 569.772 321.03 571.462C324.232 573.153 327.463 573.998 330.721 573.998L332.719 573.955C334.986 573.671 336.531 573.401 337.352 573.145C339.421 572.549 341.128 571.846 342.474 571.036C343.82 570.226 345.138 569.083 346.427 567.605C347.716 566.128 348.814 564.409 349.721 562.449L350.231 562.278C350.373 562.278 350.586 562.363 350.869 562.534C350.841 563.216 350.812 563.656 350.784 563.855C349.594 568.656 348.73 571.938 348.191 573.699C347.738 573.813 347.171 573.984 346.491 574.211C343.176 575.347 338.741 575.916 333.187 575.916C328.71 575.916 325.359 575.61 323.134 574.999C320.91 574.388 318.487 573.437 315.866 572.144C313.245 570.851 310.942 569.139 308.959 567.009C306.975 564.878 305.374 562.186 304.156 558.933C302.937 555.679 302.328 552.135 302.328 548.299C302.328 544.663 302.81 541.488 303.773 538.775C304.737 536.061 306.224 533.312 308.236 530.528C310.248 527.744 312.621 525.428 315.356 523.581C318.09 521.735 321.13 520.428 324.473 519.661C326.825 519.149 330.155 518.894 334.462 518.894C337.607 518.894 340.569 519.313 343.346 520.151C346.123 520.989 347.978 521.806 348.914 522.601Z" fill="#DEB308" stroke="#DEB308"/>
<path d="M352.318 574.878C352.714 574.655 353.068 574.544 353.379 574.544H354.355C354.553 574.544 354.892 574.53 355.373 574.502C357.552 574.307 358.839 574.112 359.235 573.918C360.225 573.389 361.074 572.471 361.781 571.163C363.252 568.326 364.907 564.305 366.746 559.103C367.623 556.627 368.174 555.124 368.401 554.596C369.108 552.927 369.787 551.174 370.437 549.338L374.426 538.362C375.049 536.637 376.548 532.687 378.924 526.51C379.518 524.952 380.24 522.866 381.088 520.25L382.319 520.167L383.804 520.209C385.021 522.574 386.096 525.119 387.029 527.846C387.538 529.292 388.373 531.449 389.533 534.314L395.983 551.466L399.42 560.772C401.23 566.058 402.418 569.306 402.984 570.517C403.55 571.727 404.073 572.527 404.554 572.916C404.696 573.027 405.226 573.194 406.146 573.417C407.065 573.64 407.709 573.806 408.076 573.918C409.378 574.279 410.283 574.585 410.792 574.836C410.905 575.142 410.962 575.378 410.962 575.545C410.962 575.685 410.919 575.893 410.835 576.171C409.929 576.199 409.293 576.213 408.925 576.213C407.482 576.213 404.936 576.171 401.287 576.088L397.043 575.963L391.909 576.046C391.569 576.046 391.223 576.025 390.869 575.984C390.516 575.942 390.212 575.921 389.957 575.921H389.023C388.712 575.893 388.429 575.81 388.175 575.67C388.175 575.281 388.245 574.905 388.387 574.544C388.726 574.377 389.038 574.279 389.32 574.252L393.776 573.959C394.936 573.904 395.813 573.751 396.407 573.5C396.577 573 396.662 572.624 396.662 572.374C396.662 571.873 396.294 570.579 395.558 568.493C395.049 567.102 394.603 565.78 394.222 564.528C393.84 563.276 392.333 559.159 389.702 552.175C388.542 551.981 387.524 551.883 386.647 551.883L377.566 551.967L374.893 551.925C373.931 551.925 372.87 551.994 371.71 552.134C371.343 552.968 371.102 553.566 370.989 553.928L367.255 565.404C365.671 569.772 364.879 572.179 364.879 572.624C364.879 572.874 365.006 573.292 365.26 573.876C365.854 574.043 366.647 574.196 367.637 574.335L373.408 574.836C373.719 575.086 373.875 575.309 373.875 575.503C373.875 575.643 373.832 575.851 373.747 576.129C372.474 576.157 371.498 576.171 370.819 576.171C368.556 576.171 365.925 576.102 362.927 575.963C361.541 575.907 360.55 575.879 359.956 575.879C359.362 575.879 358.33 575.907 356.859 575.963C355.897 576.018 355.204 576.046 354.779 576.046C354.1 576.046 353.223 576.004 352.148 575.921V575.671C352.148 575.476 352.205 575.211 352.318 574.878ZM372.559 549.838C375.586 550.005 379.037 550.089 382.913 550.089C385.12 550.089 387.057 550.019 388.726 549.88C388.444 548.795 388.118 547.78 387.751 546.834C385.912 541.993 384.893 539.322 384.695 538.821L380.834 529.181L380.409 528.43C380.24 528.764 379.617 530.197 378.542 532.728C376.732 537.068 375.43 540.449 374.638 542.869C374.271 543.954 373.889 545.032 373.493 546.103C373.097 547.175 372.849 547.926 372.75 548.357C372.651 548.788 372.503 549.226 372.305 549.671L372.559 549.838Z" fill="#DEB308" stroke="#DEB308"/>
<path d="M413.711 575.975C413.735 575.53 413.829 575.13 413.996 574.774C415.845 574.152 417.648 573.737 419.403 573.529C420.565 573.411 421.312 573.085 421.644 572.551C421.881 572.166 422.023 570.743 422.071 568.282L422.32 556.544L422.284 548.584L422.32 538.18V535.423C422.343 529.168 422.32 525.27 422.248 523.728C422.225 523.432 422.13 523.017 421.964 522.483C421.347 522.128 420.831 521.891 420.416 521.772C420.001 521.654 418.146 521.224 414.849 520.482C414.826 520.156 414.814 519.919 414.814 519.771C414.814 519.593 414.825 519.356 414.849 519.06C415.3 519.06 416.035 519.089 417.055 519.148L422.462 519.371L425.592 519.46L426.517 519.415C426.636 519.415 426.98 519.445 427.549 519.504C428.948 519.504 429.754 519.488 429.968 519.459L432.814 519.193C434.735 519.193 436.086 519.237 436.869 519.326C436.845 519.859 436.762 520.438 436.62 521.06C436.359 521.119 435.126 521.201 432.92 521.305C430.715 521.408 429.446 521.579 429.114 521.816C428.569 522.201 428.296 523.387 428.296 525.373C428.296 525.847 428.272 526.811 428.225 528.263V530.931L428.26 539.157V541.959L428.331 556.676L428.225 569.216L428.26 571.972C428.26 572.862 428.379 573.41 428.616 573.618C429.209 573.647 430.952 573.677 433.845 573.706H436.264L442.418 573.44C444.031 573.38 445.181 573.18 445.869 572.839C446.557 572.498 447.707 571.498 449.319 569.838C450.292 568.771 451.051 567.674 451.596 566.548C451.715 566.31 451.916 565.955 452.201 565.48C452.651 564.71 453.256 563.168 454.015 560.856H455.189C455.047 561.923 454.892 562.931 454.727 563.88C454.039 568.059 453.564 571.542 453.304 574.329C453.256 574.922 453.209 575.47 453.161 575.974L439.857 575.485C428.426 575.485 421.644 575.618 419.509 575.885C418.845 575.945 418.146 575.974 417.411 575.974L413.711 575.975Z" fill="#DEB308" stroke="#DEB308"/>
<path d="M454.666 575.046C455.046 574.823 455.385 574.711 455.684 574.711H456.62C456.81 574.711 457.135 574.698 457.596 574.669C459.685 574.474 460.92 574.278 461.3 574.083C462.249 573.553 463.063 572.632 463.741 571.32C465.152 568.474 466.739 564.441 468.503 559.223C469.344 556.739 469.873 555.232 470.09 554.702C470.768 553.027 471.419 551.269 472.043 549.427L475.869 538.418C476.465 536.688 477.903 532.725 480.182 526.53C480.752 524.967 481.444 522.874 482.258 520.25L483.438 520.167L484.862 520.209C486.029 522.581 487.06 525.135 487.955 527.869C488.443 529.321 489.244 531.483 490.356 534.358L496.542 551.562L499.838 560.897C501.574 566.2 502.714 569.458 503.257 570.672C503.799 571.886 504.301 572.688 504.762 573.079C504.898 573.19 505.407 573.358 506.288 573.581C507.17 573.804 507.787 573.972 508.14 574.083C509.388 574.446 510.256 574.753 510.744 575.004C510.853 575.311 510.907 575.549 510.907 575.716C510.907 575.856 510.866 576.065 510.785 576.344C509.917 576.372 509.307 576.386 508.954 576.386C507.57 576.386 505.129 576.344 501.629 576.261L497.559 576.135L492.635 576.219C492.31 576.219 491.977 576.198 491.638 576.156C491.299 576.114 491.007 576.093 490.763 576.093H489.868C489.569 576.065 489.298 575.981 489.054 575.842C489.054 575.451 489.122 575.074 489.258 574.712C489.583 574.544 489.882 574.446 490.153 574.419L494.426 574.125C495.538 574.07 496.379 573.916 496.949 573.665C497.112 573.163 497.193 572.786 497.193 572.535C497.193 572.032 496.84 570.735 496.135 568.642C495.647 567.246 495.219 565.921 494.853 564.665C494.487 563.409 493.042 559.279 490.519 552.274C489.407 552.079 488.43 551.981 487.589 551.981L478.88 552.065L476.316 552.023C475.394 552.023 474.377 552.093 473.264 552.232C472.912 553.069 472.681 553.669 472.572 554.032L468.991 565.544C467.472 569.925 466.712 572.339 466.712 572.786C466.712 573.037 466.834 573.455 467.079 574.041C467.648 574.209 468.408 574.362 469.358 574.502L474.892 575.004C475.191 575.255 475.34 575.479 475.34 575.674C475.34 575.814 475.299 576.023 475.218 576.302C473.997 576.33 473.061 576.344 472.41 576.344C470.239 576.344 467.716 576.274 464.841 576.135C463.511 576.079 462.562 576.051 461.992 576.051C461.422 576.051 460.432 576.079 459.021 576.135C458.099 576.191 457.434 576.218 457.027 576.218C456.376 576.218 455.535 576.176 454.504 576.093V575.842C454.504 575.646 454.558 575.381 454.666 575.046ZM474.078 549.93C476.981 550.097 480.291 550.181 484.008 550.181C486.124 550.181 487.982 550.111 489.583 549.972C489.312 548.883 489 547.865 488.647 546.916C486.883 542.06 485.907 539.381 485.717 538.878L482.014 529.209L481.607 528.455C481.444 528.79 480.847 530.227 479.816 532.767C478.08 537.12 476.832 540.511 476.072 542.939C475.719 544.027 475.353 545.109 474.973 546.183C474.594 547.258 474.356 548.011 474.261 548.444C474.166 548.876 474.024 549.316 473.834 549.762L474.078 549.93Z" fill="#DEB308" stroke="#DEB308"/>
<path d="M514.336 521.275V519.887C514.861 519.768 515.277 519.693 515.586 519.663L519.937 519.44C523.547 519.141 527.59 518.902 532.064 518.723C533.854 518.664 536.678 518.634 540.535 518.634C545.781 518.634 549.623 519.007 552.061 519.753C555.61 520.857 558.256 522.521 560 524.744C561.743 526.967 562.615 529.436 562.615 532.152C562.615 536.568 559.359 540.284 552.848 543.298L552.617 543.656C555.949 544.521 558.681 545.73 560.81 547.281C562.939 548.833 564.575 550.728 565.716 552.966C566.55 554.607 566.966 556.756 566.966 559.412C566.966 563.858 564.875 567.82 560.694 571.296C556.513 574.773 550.75 576.511 543.405 576.511H536.508L529.519 576.735C523.347 576.794 519.736 576.824 518.687 576.824C517.607 576.824 516.542 576.779 515.493 576.69V576.197C515.493 575.839 515.57 575.586 515.725 575.436C515.91 575.258 516.265 575.108 516.789 574.989C520.647 574.213 522.83 573.683 523.339 573.4C523.848 573.116 524.195 572.661 524.381 572.035C524.751 570.841 524.936 567.767 524.936 562.814C524.936 562.366 524.923 561.799 524.89 561.113C524.828 559.113 524.797 557.964 524.797 557.666V553.011C524.797 545.133 524.705 538.254 524.52 532.376L524.473 523.378L524.427 522.259C521.804 521.901 519.49 521.678 517.484 521.588C516.188 521.558 515.139 521.454 514.336 521.275ZM532.713 543.924C534.255 544.223 535.876 544.372 537.573 544.372C544.238 544.372 548.759 542.954 551.135 540.12C553.512 537.285 554.7 534.465 554.7 531.66C554.7 530.406 554.491 529.131 554.075 527.832C553.658 526.534 552.918 525.363 551.853 524.319C550.788 523.274 549.469 522.498 547.895 521.991C545.21 521.126 542.464 520.693 539.656 520.693C537.033 520.693 534.595 520.976 532.342 521.543C532.311 522.17 532.296 522.633 532.296 522.931C532.296 523.229 532.327 524.08 532.388 525.482C532.419 526.378 532.435 527.273 532.435 528.168L532.296 533.584L532.342 536.807L532.666 543.119L532.713 543.924ZM543.59 574.362C546.645 574.153 549.207 573.527 551.274 572.482C552.231 572.005 553.365 571.147 554.677 569.908C555.988 568.67 557.006 567.185 557.732 565.455C558.457 563.724 558.819 562.053 558.819 560.441C558.819 559.218 558.565 557.711 558.056 555.92C557.546 554.13 556.682 552.556 555.463 551.198C554.244 549.84 552.432 548.721 550.025 547.841C547.618 546.961 544.964 546.52 542.063 546.52C536.446 546.52 533.299 546.625 532.62 546.834C532.589 547.52 532.574 548.027 532.574 548.356L532.62 550.012L532.574 553.369V557.174C532.666 564.186 532.836 568.334 533.083 569.618C533.33 570.901 534.171 572.005 535.606 572.93C537.041 573.855 539.702 574.332 543.59 574.362Z" fill="#DEB308" stroke="#DEB308"/>
<path d="M572.439 574.898C576.606 574.397 578.96 574.043 579.502 573.837C579.873 573.689 580.216 573.247 580.53 572.51V572.024C580.53 571.287 580.644 568.619 580.872 564.02C580.929 562.723 580.958 561.455 580.958 560.217L580.829 554.955L580.915 548.985L580.872 537.886L580.915 529.926C580.944 526.566 580.694 524.517 580.166 523.78C579.638 523.043 578.275 522.519 576.078 522.21C573.88 521.9 572.668 521.672 572.439 521.524C572.211 521.377 572.097 521.141 572.097 520.817C572.097 520.611 572.14 520.345 572.225 520.021C572.51 519.756 573.167 519.608 574.194 519.579C574.337 519.579 574.729 519.542 575.371 519.468C576.013 519.395 576.62 519.357 577.191 519.357H580.701L591.959 519.225C598.323 519.225 602.782 519.711 605.336 520.684C607.89 521.657 609.923 523.3 611.436 525.614C612.948 527.929 613.705 530.516 613.705 533.375C613.705 538.799 610.951 542.941 605.443 545.801C604.501 546.302 603.759 546.744 603.217 547.127C604.187 549.25 605.543 551.8 607.284 554.778L612.72 564.418C614.889 567.955 616.387 570.174 617.215 571.073C618.042 571.972 619.048 572.716 620.233 573.306C621.417 573.895 623.408 574.456 626.204 574.986C626.233 575.281 626.247 575.517 626.247 575.694C626.247 575.871 626.234 576.092 626.204 576.357C622.295 576.416 617.714 576.445 612.463 576.445C612.092 576.445 611.579 576.416 610.922 576.357C608.896 572.348 606.513 567.94 603.774 563.135L597.438 551.196C596.582 549.958 595.876 549.184 595.319 548.874C594.763 548.565 594.028 548.41 593.115 548.41L589.476 548.454L588.278 548.41C588.192 549.353 588.149 551.284 588.149 554.203V569.326C588.121 569.886 588.235 570.667 588.492 571.67C588.72 572.23 589.112 572.679 589.669 573.018C590.225 573.357 591.831 573.866 594.485 574.544L596.24 574.986C596.468 575.281 596.582 575.679 596.582 576.18C595.812 576.328 595.269 576.401 594.956 576.401C592.387 576.401 590.575 576.372 589.519 576.313C588.977 576.283 588.535 576.268 588.192 576.268L582.37 576.357L576.677 576.313C576.42 576.313 575.122 576.357 572.782 576.445L571.926 576.268L571.84 575.826C571.84 575.561 572.04 575.252 572.439 574.898ZM588.363 545.978C589.134 546.008 589.705 546.023 590.076 546.023C592.13 546.023 594.499 545.772 597.182 545.271C599.065 544.888 600.592 544.261 601.762 543.391C602.932 542.522 603.909 541.232 604.694 539.522C605.479 537.812 605.871 536.044 605.871 534.216C605.871 532.211 605.258 530.089 604.031 527.848C603.089 526.138 601.498 524.708 599.258 523.559C597.017 522.409 594.328 521.834 591.189 521.834C590.418 521.834 589.419 521.878 588.192 521.967C588.078 523.5 588.021 524.679 588.021 525.504L588.235 533.773L588.192 537.178C588.192 539.478 588.249 542.411 588.363 545.978Z" fill="#DEB308" stroke="#DEB308"/>
<path d="M624.098 575.126C624.665 574.858 625.244 574.694 625.837 574.634C629.779 574.336 632.034 573.792 632.6 573.002C633.167 572.211 633.451 568.387 633.451 561.527L633.412 556.83V551.91L633.258 546.497L633.335 543.321L633.296 539.832V535.716L633.219 533.882L633.296 531.556C633.322 531.019 633.335 530.393 633.335 529.677C633.335 527.798 633.257 525.815 633.103 523.728C633 523.31 632.858 522.908 632.678 522.52C631.724 521.953 630.185 521.573 628.059 521.379C625.933 521.185 624.729 520.969 624.446 520.73C624.239 520.552 624.123 520.089 624.098 519.344H627.344L637.586 519.612C640.214 519.612 643.718 519.523 648.099 519.344C648.099 519.821 648.073 520.268 648.021 520.686C647.506 520.835 646.643 520.999 645.432 521.178C642.984 521.506 641.49 521.819 640.949 522.117C640.614 522.266 640.369 522.52 640.214 522.878C639.957 523.415 639.802 524.414 639.75 525.875L639.557 531.645L639.712 551.552V559.425C639.66 561.9 639.635 563.585 639.635 564.48C639.635 567.82 639.705 569.952 639.847 570.877C639.989 571.801 640.234 572.465 640.582 572.867C640.929 573.27 641.503 573.59 642.301 573.829C643.487 574.157 644.414 574.336 645.084 574.366C646.527 574.426 647.442 574.664 647.828 575.082C647.905 575.469 647.944 575.797 647.944 576.066V576.424C645.599 576.513 643.873 576.558 642.765 576.558C642.121 576.558 640.974 576.513 639.325 576.424L633.992 576.513L624.909 576.468H624.175L624.098 575.126Z" fill="#DEB308" stroke="#DEB308"/>
<path d="M651.905 574.837C652.278 574.608 652.611 574.493 652.904 574.493H653.823C654.009 574.493 654.329 574.48 654.782 574.45C656.832 574.249 658.044 574.048 658.417 573.848C659.349 573.303 660.148 572.356 660.814 571.009C662.199 568.083 663.757 563.939 665.488 558.576C666.314 556.024 666.833 554.476 667.046 553.931C667.712 552.21 668.351 550.403 668.964 548.51L672.719 537.197C673.305 535.419 674.717 531.347 676.954 524.98C677.513 523.374 678.192 521.223 678.991 518.527L680.15 518.441L681.548 518.485C682.694 520.922 683.706 523.546 684.584 526.357C685.064 527.848 685.85 530.071 686.942 533.024L693.014 550.705L696.25 560.298C697.954 565.746 699.073 569.095 699.606 570.342C700.138 571.59 700.631 572.414 701.084 572.816C701.217 572.93 701.716 573.102 702.582 573.332C703.448 573.561 704.053 573.733 704.4 573.848C705.625 574.221 706.477 574.536 706.957 574.794C707.063 575.11 707.116 575.354 707.116 575.526C707.116 575.669 707.076 575.884 706.997 576.171C706.145 576.2 705.545 576.214 705.199 576.214C703.841 576.214 701.444 576.171 698.008 576.085L694.013 575.956L689.179 576.042C688.86 576.042 688.533 576.021 688.201 575.977C687.867 575.934 687.581 575.913 687.341 575.913H686.463C686.17 575.884 685.903 575.798 685.664 575.655C685.664 575.253 685.729 574.866 685.863 574.493C686.183 574.321 686.476 574.221 686.742 574.192L690.937 573.891C692.029 573.834 692.855 573.676 693.414 573.418C693.574 572.902 693.654 572.514 693.654 572.256C693.654 571.74 693.307 570.407 692.615 568.256C692.136 566.822 691.716 565.46 691.357 564.169C690.997 562.879 689.579 558.634 687.102 551.436C686.01 551.235 685.051 551.135 684.225 551.135L675.676 551.221L673.159 551.178C672.254 551.178 671.255 551.249 670.163 551.393C669.817 552.253 669.59 552.87 669.484 553.242L665.968 565.072C664.477 569.575 663.731 572.055 663.731 572.514C663.731 572.772 663.851 573.202 664.091 573.805C664.65 573.977 665.396 574.134 666.328 574.278L671.761 574.794C672.054 575.052 672.2 575.282 672.201 575.482C672.2 575.626 672.161 575.841 672.081 576.128C670.882 576.156 669.963 576.171 669.324 576.171C667.193 576.171 664.717 576.099 661.893 575.956C660.588 575.898 659.656 575.87 659.097 575.87C658.538 575.87 657.565 575.898 656.181 575.956C655.275 576.013 654.622 576.042 654.223 576.042C653.584 576.042 652.758 575.998 651.746 575.913V575.655C651.746 575.454 651.799 575.181 651.905 574.837ZM670.961 549.027C673.811 549.199 677.061 549.285 680.709 549.285C682.787 549.285 684.611 549.213 686.182 549.07C685.916 547.951 685.61 546.905 685.264 545.93C683.532 540.94 682.574 538.186 682.387 537.67L678.752 527.733L678.352 526.959C678.192 527.303 677.606 528.78 676.594 531.39C674.89 535.863 673.665 539.348 672.919 541.843C672.573 542.961 672.213 544.073 671.84 545.177C671.468 546.281 671.234 547.055 671.141 547.5C671.048 547.944 670.908 548.396 670.722 548.855L670.961 549.027Z" fill="#DEB308" stroke="#DEB308"/>
<path d="M649.707 335.038C649.707 422.894 584.795 494.116 504.723 494.116C424.65 494.116 359.738 422.894 359.738 335.038C359.738 247.182 424.65 175.961 504.723 175.961C584.795 175.961 649.707 247.182 649.707 335.038Z" fill="#D5D6D8"/>
<path d="M497.48 187.653L501.726 175.992C503.681 175.868 505.706 175.955 507.715 175.992L511.96 187.653H497.48Z" fill="#0A4FA2"/>
<path d="M504.738 484.128C544.511 484.128 580.288 465.336 605.117 435.393L404.332 234.678C429.168 204.753 464.955 185.949 504.741 185.949C544.518 185.949 580.298 204.744 605.114 234.696L404.352 435.397C429.182 465.333 464.962 484.128 504.738 484.128Z" fill="#DEB308"/>
<path d="M525.316 305.37V309.116H484.012V305.37H501.882V252.231L485.953 248.045L494.833 223.556L486.609 224.568L504.664 175.947L522.719 224.568L514.495 223.556L523.375 248.045L507.446 252.231V305.37H525.316Z" fill="#32B457"/>
<path d="M521.427 259.109L504.661 264.85L487.895 259.109" stroke="#32B457" stroke-width="3"/>
<path d="M521.427 254.666L504.661 260.407L487.895 254.666" stroke="#32B457" stroke-width="3"/>
<path d="M435.533 299.095L427.173 339.079L435.533 380.062H415.586L423.992 339.079L415.586 299.095H435.533Z" fill="black"/>
<path d="M417.655 296.076C417.655 297.87 416.201 299.325 414.406 299.325C412.611 299.325 411.156 297.87 411.156 296.076C411.156 294.282 412.611 292.827 414.406 292.827C416.201 292.827 417.655 294.282 417.655 296.076Z" fill="black"/>
<path d="M440.269 296.076C440.269 297.87 438.814 299.325 437.019 299.325C435.224 299.325 433.77 297.87 433.77 296.076C433.77 294.282 435.224 292.827 437.019 292.827C438.814 292.827 440.269 294.282 440.269 296.076Z" fill="black"/>
<path d="M417.655 383.123C417.655 384.917 416.201 386.372 414.406 386.372C412.611 386.372 411.156 384.917 411.156 383.123C411.156 381.329 412.611 379.874 414.406 379.874C416.201 379.874 417.655 381.329 417.655 383.123Z" fill="black"/>
<path d="M440.269 383.123C440.269 384.917 438.814 386.372 437.019 386.372C435.224 386.372 433.77 384.917 433.77 383.123C433.77 381.329 435.224 379.874 437.019 379.874C438.814 379.874 440.269 381.329 440.269 383.123Z" fill="black"/>
<path d="M385.039 329.762L425.033 338.12L466.026 329.762V349.704L425.033 341.301L385.039 349.704V329.762Z" fill="black"/>
<path d="M385.273 350.883C385.273 352.677 383.818 354.132 382.023 354.132C380.229 354.132 378.773 352.677 378.773 350.883C378.773 349.088 380.229 347.634 382.023 347.634C383.818 347.634 385.273 349.088 385.273 350.883Z" fill="black"/>
<path d="M385.273 328.276C385.273 330.07 383.818 331.525 382.023 331.525C380.229 331.525 378.773 330.07 378.773 328.276C378.773 326.481 380.229 325.026 382.023 325.026C383.818 325.026 385.273 326.481 385.273 328.276Z" fill="black"/>
<path d="M472.34 350.883C472.34 352.677 470.885 354.132 469.09 354.132C467.295 354.132 465.84 352.677 465.84 350.883C465.84 349.088 467.295 347.634 469.09 347.634C470.885 347.634 472.34 349.088 472.34 350.883Z" fill="black"/>
<path d="M472.339 328.275C472.339 330.069 470.884 331.524 469.089 331.524C467.295 331.524 465.84 330.069 465.84 328.275C465.84 326.481 467.295 325.026 469.089 325.026C470.884 325.026 472.339 326.481 472.339 328.275Z" fill="black"/>
<path d="M578.625 293.98H592.241V384.116H578.625V293.98Z" fill="black"/>
<path d="M540.352 332.241H630.51V345.854H540.352V332.241Z" fill="black"/>
<path d="M573.75 299.866H597.118V310.535H573.75V299.866Z" fill="black"/>
<path d="M573.75 367.561H597.118V378.23H573.75V367.561Z" fill="black"/>
<path d="M546.238 327.367H556.91V350.729H546.238V327.367Z" fill="black"/>
<path d="M613.953 327.367H624.625V350.729H613.953V327.367Z" fill="black"/>
<path d="M480.32 432.025H529.537V475.368C529.537 475.368 529.279 478.047 525.899 478.047H515.856C515.856 478.047 506.103 475.519 500.116 467.573C494.129 459.627 481.383 459.356 480.32 459.356V432.025Z" fill="#00AEEF"/>
<path d="M489.832 439.317V465.313" stroke="#DEB308" stroke-width="3"/>
<path d="M499.875 439.317V471.572" stroke="#DEB308" stroke-width="3"/>
<path d="M509.918 439.377V477.407" stroke="#DEB308" stroke-width="3"/>
<path d="M519.965 439.317V479.274" stroke="#DEB308" stroke-width="3"/>
<path d="M482.486 427.734C482.486 427.734 473.755 427.734 468.478 422.493C463.201 417.252 463.297 408.2 463.297 408.2H546.224C546.224 408.2 546.32 417.252 541.043 422.493C535.766 427.734 527.035 427.734 527.035 427.734H482.486Z" fill="#00AEEF"/>
<path d="M456.973 394.534H552.998V404.691H456.973V394.534Z" fill="#00AEEF"/>
</svg>
