<svg width="346" height="231" viewBox="0 0 346 231" fill="none" xmlns="http://www.w3.org/2000/svg">
<path d="M344.956 0.300781H0.300781V229.956H344.956V0.300781Z" fill="#00943A" stroke="#395475" stroke-width="0.6" stroke-linecap="round"/>
<path d="M217.626 45.8223H127.633V184.435H217.626V45.8223Z" fill="#B2B2B2" stroke="white" stroke-width="3.5" stroke-linecap="round"/>
<path fill-rule="evenodd" clip-rule="evenodd" d="M145.39 45.8457C144.37 46.3509 143.361 47.7949 143.361 48.8293C143.361 49.8637 144.37 51.3076 145.39 51.8128L141.871 65.2608V66.2014V67.3184V97.198V98.1387V99.2556L145.39 112.704C144.37 113.209 143.361 114.653 143.361 115.687C143.361 116.722 144.37 118.166 145.39 118.671L141.871 132.119V133.059V164.056V164.997L145.39 178.445V184.412H152.998V178.445L156.532 164.997V164.056V133.059V132.119L152.998 118.671C154.018 118.166 155.042 116.722 155.042 115.687C155.042 114.653 154.018 113.209 152.998 112.704L156.532 99.2556V98.1387V67.3184V66.2014V65.2608L152.998 51.8128C154.018 51.3076 155.042 49.8637 155.042 48.8293C155.042 47.7949 154.018 46.3509 152.998 45.8457H145.39Z" fill="#FF0000" stroke="white" stroke-width="3.6"/>
<path fill-rule="evenodd" clip-rule="evenodd" d="M168.218 45.8457C167.198 46.3509 166.189 47.7949 166.189 48.8293C166.189 49.8637 167.198 51.3076 168.218 51.8128L164.699 65.2608V66.2014V67.3184V97.198V98.1387V99.2556L168.218 112.704C167.198 113.209 166.189 114.653 166.189 115.687C166.189 116.722 167.198 118.166 168.218 118.671L164.699 132.119V133.059V164.056V164.997L168.218 178.445V184.412H175.826V178.445L179.36 164.997V164.056V133.059V132.119L175.826 118.671C176.846 118.166 177.87 116.722 177.87 115.687C177.87 114.653 176.846 113.209 175.826 112.704L179.36 99.2556V98.1387V67.3184V66.2014V65.2608L175.826 51.8128C176.846 51.3076 177.87 49.8637 177.87 48.8293C177.87 47.7949 176.846 46.3509 175.826 45.8457H168.218Z" fill="#FF0000" stroke="white" stroke-width="3.6"/>
<path fill-rule="evenodd" clip-rule="evenodd" d="M191.05 45.8457C190.03 46.3509 189.021 47.7949 189.021 48.8293C189.021 49.8637 190.03 51.3076 191.05 51.8128L187.531 65.2608V66.2014V67.3184V97.198V98.1387V99.2556L191.05 112.704C190.03 113.209 189.021 114.653 189.021 115.687C189.021 116.722 190.03 118.166 191.05 118.671L187.531 132.119V133.059V164.056V164.997L191.05 178.445V184.412H198.658V178.445L202.192 164.997V164.056V133.059V132.119L198.658 118.671C199.679 118.166 200.702 116.722 200.702 115.687C200.702 114.653 199.679 113.209 198.658 112.704L202.192 99.2556V98.1387V67.3184V66.2014V65.2608L198.658 51.8128C199.679 51.3076 200.702 49.8637 200.702 48.8293C200.702 47.7949 199.679 46.3509 198.658 45.8457H191.05Z" fill="#FF0000" stroke="white" stroke-width="3.6"/>
<path d="M127.727 65.3164H217.534" stroke="white" stroke-width="3.6"/>
<path d="M217.438 99.2891H127.816" stroke="white" stroke-width="3.6"/>
<path d="M217.438 132.334H127.816" stroke="white" stroke-width="3.6"/>
<path d="M217.438 164.822H127.816" stroke="white" stroke-width="3.6"/>
</svg>
