<svg width="895" height="606" viewBox="0 0 895 606" fill="none" xmlns="http://www.w3.org/2000/svg">
<path d="M894.609 4.57227H0V600.978H894.609V4.57227Z" fill="#00A040"/>
<path d="M444.808 192.469C429.815 165.201 433.739 131.43 454.584 108.327C475.429 85.2229 508.621 77.858 537.281 89.9765C565.942 102.095 583.782 131.037 581.729 162.087C579.677 193.137 558.183 219.479 528.176 227.719C514.41 232.409 504.369 244.333 502.092 258.698C499.814 273.062 505.674 287.507 517.315 296.225C528.956 304.944 544.466 306.503 557.609 300.277C584.877 285.284 618.648 289.208 641.752 310.053C664.855 330.898 672.22 364.089 660.102 392.75C647.983 421.411 619.041 439.25 587.991 437.198C556.942 435.145 530.599 413.651 522.359 383.645C517.669 369.878 505.745 359.838 491.381 357.56C477.016 355.283 462.571 361.142 453.853 372.783C445.135 384.424 443.575 399.934 449.802 413.078C464.794 440.345 460.87 474.117 440.025 497.22C419.18 520.324 385.989 527.689 357.328 515.57C328.668 503.452 310.828 474.51 312.88 443.46C314.933 412.41 336.427 386.068 366.433 377.828C380.2 373.138 390.241 361.214 392.518 346.849C394.796 332.485 388.936 318.04 377.295 309.322C365.654 300.603 350.144 299.044 337 305.27C309.733 320.263 275.961 316.339 252.858 295.494C229.754 274.649 222.389 241.458 234.508 212.797C246.626 184.136 275.569 166.297 306.618 168.349C337.668 170.402 364.01 191.896 372.251 221.902C376.941 235.669 388.865 245.709 403.229 247.987C417.593 250.264 432.038 244.405 440.757 232.764C449.475 221.123 451.034 205.612 444.808 192.469Z" fill="white"/>
</svg>
