<svg width="973" height="649" viewBox="0 0 973 649" fill="none" xmlns="http://www.w3.org/2000/svg">
<path d="M973 0H0V648.667H973V0Z" fill="#2C70AC"/>
<path d="M331.863 130.775V447.657C331.863 481.717 363.469 496.244 399.033 498.372C418.601 499.543 442.893 500.979 461.2 502.709C479.315 504.44 486.542 517.89 486.542 517.89C486.542 517.89 493.769 504.44 511.884 502.709C530.192 500.979 554.483 499.543 574.051 498.372C609.615 496.244 641.139 481.717 641.139 447.657V130.775H331.863Z" fill="white"/>
<mask id="mask0_231_4199" style="mask-type:luminance" maskUnits="userSpaceOnUse" x="332" y="132" width="309" height="386">
<path d="M332.211 132.047V447.222C332.211 481.099 363.745 495.547 399.23 497.664C418.754 498.828 442.991 500.257 461.256 501.978C479.331 503.699 486.542 517.077 486.542 517.077C486.542 517.077 493.753 503.699 511.827 501.978C530.093 500.257 554.33 498.828 573.854 497.664C609.338 495.547 640.791 481.099 640.791 447.222V132.047H332.211Z" fill="white"/>
</mask>
<g mask="url(#mask0_231_4199)">
<path d="M329.426 54.2051L772.836 628.275" stroke="#D20019" stroke-width="46.3033"/>
</g>
<path fill-rule="evenodd" clip-rule="evenodd" d="M331.863 130.775V447.657C331.863 481.717 363.469 496.244 399.033 498.372C418.601 499.543 442.893 500.979 461.2 502.709C479.315 504.44 486.542 517.89 486.542 517.89C486.542 517.89 493.769 504.44 511.884 502.709C530.192 500.979 554.483 499.543 574.051 498.372C609.615 496.244 641.139 481.717 641.139 447.657V130.775H331.863Z" stroke="black" stroke-width="1.50011"/>
</svg>
