<svg width="1081" height="721" viewBox="0 0 1081 721" fill="none" xmlns="http://www.w3.org/2000/svg">
<path d="M1081 0H0V720.666H1081V0Z" fill="#120A8F"/>
<path d="M706.561 526.07C706.561 532.285 701.518 537.324 695.298 537.324C653.584 537.324 611.87 537.324 570.156 537.324C553.569 537.324 540.123 550.762 540.123 567.337C540.123 550.762 526.676 537.324 510.089 537.324C470.657 537.324 424.39 537.324 387.45 537.324C381.23 537.324 376.188 532.285 376.188 526.07V144.654H706.561V526.07Z" fill="#C5C5C5"/>
<path fill-rule="evenodd" clip-rule="evenodd" d="M705.689 530.405C705.689 536.621 700.647 541.66 694.427 541.66C652.713 541.66 610.999 541.66 569.285 541.66C552.698 541.66 539.251 555.098 539.251 571.673C539.251 555.098 525.805 541.66 509.218 541.66C469.786 541.66 423.519 541.66 386.579 541.66C380.359 541.66 375.316 536.621 375.316 530.405V148.99H705.689V530.405Z" stroke="#2C4878" stroke-width="8"/>
<path d="M708.183 379.416C703.166 383.501 696.764 385.951 689.789 385.951C682.811 385.951 676.405 383.498 671.168 379.561C666.059 376.005 659.962 373.805 653.351 373.805C646.659 373.805 640.494 376.059 635.411 379.657C630.24 383.521 623.86 385.951 616.913 385.951C609.92 385.951 603.503 383.489 598.269 379.543C593.17 376.001 587.079 373.805 580.475 373.805C573.78 373.805 567.613 376.061 562.567 379.631C557.424 383.497 551.016 385.951 544.036 385.951C537.046 385.951 530.631 383.49 525.441 379.58C520.37 376.028 514.244 373.805 507.598 373.805C500.933 373.805 494.79 376.042 489.686 379.636C484.484 383.521 478.106 385.951 471.16 385.951C464.133 385.951 457.687 383.465 452.487 379.519C447.429 376.005 441.332 373.805 434.722 373.805C428.064 373.805 421.927 376.037 416.833 379.617C411.634 383.511 405.244 385.951 398.283 385.951C391.054 385.951 384.44 383.319 379.345 378.962L378.555 392.836C383.746 397.611 390.674 400.526 398.283 400.526C405.245 400.526 411.637 398.085 416.815 394.206C421.895 390.624 428.046 388.38 434.722 388.38C441.338 388.38 447.439 390.584 452.554 394.149C457.791 398.08 464.19 400.526 471.16 400.526C478.145 400.526 484.557 398.069 489.731 394.174C494.795 390.615 500.935 388.38 507.598 388.38C514.228 388.38 520.34 390.593 525.413 394.134C530.613 398.059 537.036 400.526 544.036 400.526C550.983 400.526 557.363 398.096 562.592 394.189C567.714 390.6 573.835 388.38 580.475 388.38C587.087 388.38 593.185 390.581 598.224 394.082C603.412 398.029 609.871 400.526 616.913 400.526C623.883 400.526 630.282 398.08 635.464 394.191C640.541 390.618 646.685 388.38 653.351 388.38C659.966 388.38 666.067 390.584 671.207 394.318C676.348 398.052 682.78 400.526 689.789 400.526C696.754 400.526 703.149 398.083 708.162 394.008L708.183 379.416Z" fill="#2C4878"/>
<path d="M708.178 350.26C703.161 354.345 696.759 356.794 689.784 356.794C682.806 356.794 676.4 354.342 671.163 350.405C666.054 346.849 659.957 344.648 653.346 344.648C646.654 344.648 640.489 346.903 635.406 350.501C630.235 354.364 623.855 356.794 616.908 356.794C609.915 356.794 603.498 354.333 598.264 350.387C593.165 346.844 587.074 344.648 580.47 344.648C573.775 344.648 567.608 346.905 562.562 350.474C557.418 354.341 551.011 356.794 544.031 356.794C537.041 356.794 530.626 354.334 525.436 350.424C520.365 346.872 514.239 344.648 507.593 344.648C500.928 344.648 494.785 346.885 489.681 350.48C484.479 354.365 478.101 356.794 471.155 356.794C464.128 356.794 457.682 354.308 452.482 350.363C447.424 346.849 441.327 344.648 434.717 344.648C428.059 344.648 421.922 346.88 416.828 350.461C411.629 354.355 405.239 356.794 398.278 356.794C389.313 356.794 381.293 352.747 375.945 346.38L376.353 361.43C381.696 367.523 389.538 371.37 398.278 371.37C405.24 371.37 411.632 368.929 416.81 365.049C421.89 361.468 428.041 359.224 434.717 359.224C441.333 359.224 447.434 361.428 452.548 364.992C457.786 368.924 464.185 371.37 471.155 371.37C478.14 371.37 484.552 368.913 489.726 365.018C494.79 361.459 500.93 359.224 507.593 359.224C514.223 359.224 520.335 361.437 525.407 364.977C530.608 368.902 537.031 371.37 544.031 371.37C550.978 371.37 557.358 368.94 562.587 365.032C567.709 361.444 573.83 359.224 580.47 359.224C587.082 359.224 593.18 361.425 598.219 364.925C603.407 368.873 609.866 371.37 616.908 371.37C623.878 371.37 630.277 368.923 635.459 365.034C640.536 361.461 646.68 359.224 653.346 359.224C659.961 359.224 666.062 361.427 671.202 365.161C676.343 368.896 682.775 371.37 689.784 371.37C696.749 371.37 703.143 368.927 708.157 364.852L708.178 350.26Z" fill="#2C4878"/>
<path d="M708.178 321.112C703.161 325.197 696.759 327.646 689.785 327.646C682.806 327.646 676.4 325.194 671.163 321.257C666.054 317.701 659.957 315.5 653.347 315.5C646.655 315.5 640.49 317.755 635.406 321.353C630.235 325.216 623.855 327.646 616.908 327.646C609.916 327.646 603.498 325.184 598.264 321.239C593.165 317.696 587.074 315.5 580.47 315.5C573.776 315.5 567.609 317.756 562.563 321.326C557.419 325.193 551.012 327.646 544.032 327.646C537.042 327.646 530.626 325.186 525.436 321.276C520.365 317.724 514.239 315.5 507.593 315.5C500.928 315.5 494.786 317.737 489.681 321.331C484.48 325.217 478.101 327.646 471.155 327.646C464.129 327.646 457.683 325.16 452.482 321.214C447.425 317.701 441.328 315.5 434.717 315.5C428.059 315.5 421.923 317.732 416.829 321.312C411.63 325.207 405.239 327.646 398.279 327.646C389.743 327.646 382.063 323.977 376.732 318.13L376.227 332.136C381.572 338.313 389.469 342.221 398.279 342.221C405.241 342.221 411.633 339.781 416.811 335.901C421.89 332.319 428.042 330.075 434.717 330.075C441.333 330.075 447.434 332.279 452.549 335.844C457.787 339.775 464.185 342.221 471.155 342.221C478.141 342.221 484.552 339.764 489.727 335.87C494.79 332.311 500.931 330.075 507.593 330.075C514.223 330.075 520.336 332.288 525.408 335.829C530.608 339.754 537.032 342.221 544.032 342.221C550.979 342.221 557.358 339.791 562.587 335.884C567.709 332.295 573.83 330.075 580.47 330.075C587.082 330.075 593.18 332.277 598.22 335.777C603.407 339.724 609.866 342.221 616.908 342.221C623.879 342.221 630.278 339.775 635.46 335.886C640.537 332.313 646.68 330.075 653.347 330.075C659.962 330.075 666.063 332.279 671.203 336.013C676.343 339.747 682.775 342.221 689.785 342.221C696.75 342.221 703.144 339.779 708.158 335.704L708.178 321.112Z" fill="#2C4878"/>
<path d="M708.188 291.959C703.171 296.044 696.769 298.494 689.795 298.494C682.816 298.494 676.41 296.041 671.173 292.104C666.064 288.548 659.967 286.348 653.357 286.348C646.665 286.348 640.5 288.602 635.416 292.2C630.245 296.063 623.866 298.494 616.918 298.494C609.926 298.494 603.509 296.032 598.274 292.086C593.175 288.544 587.084 286.348 580.48 286.348C573.786 286.348 567.619 288.604 562.573 292.173C557.429 296.04 551.022 298.494 544.042 298.494C537.052 298.494 530.636 296.033 525.446 292.123C520.375 288.571 514.249 286.348 507.604 286.348C500.938 286.348 494.796 288.585 489.691 292.179C484.49 296.064 478.111 298.494 471.165 298.494C464.139 298.494 457.693 296.008 452.492 292.062C447.435 288.548 441.338 286.348 434.727 286.348C428.069 286.348 421.933 288.58 416.839 292.16C411.64 296.054 405.249 298.494 398.289 298.494C389.55 298.494 381.71 294.649 376.367 288.558L376.432 303.207C381.773 309.255 389.586 313.069 398.289 313.069C405.251 313.069 411.643 310.628 416.821 306.749C421.9 303.167 428.052 300.923 434.727 300.923C441.343 300.923 447.444 303.127 452.559 306.692C457.797 310.623 464.195 313.069 471.165 313.069C478.151 313.069 484.562 310.612 489.737 306.717C494.8 303.158 500.941 300.923 507.604 300.923C514.233 300.923 520.346 303.136 525.418 306.676C530.618 310.602 537.042 313.069 544.042 313.069C550.989 313.069 557.368 310.639 562.597 306.732C567.719 303.143 573.84 300.923 580.48 300.923C587.092 300.923 593.19 303.124 598.23 306.624C603.417 310.572 609.876 313.069 616.918 313.069C623.889 313.069 630.288 310.623 635.47 306.734C640.547 303.16 646.69 300.923 653.357 300.923C659.972 300.923 666.073 303.127 671.213 306.861C676.353 310.595 682.785 313.069 689.795 313.069C696.76 313.069 703.154 310.626 708.168 306.551L708.188 291.959Z" fill="#2C4878"/>
</svg>
