<svg width="355" height="237" viewBox="0 0 355 237" fill="none" xmlns="http://www.w3.org/2000/svg">
<path d="M354.758 0H0V236.505H354.758V0Z" fill="#FF0000"/>
<path d="M118.253 0H0V236.505H118.253V0Z" fill="#009C31"/>
<path d="M354.757 0H236.504V236.505H354.757V0Z" fill="#009CCE"/>
<path d="M179.047 125.141H176.871V177.754H179.047V125.141Z" fill="#B5CECE"/>
<path fill-rule="evenodd" clip-rule="evenodd" d="M117.291 134.539C117.208 135.836 117.121 137.132 117.121 138.45C117.121 171.728 144.135 198.742 177.413 198.742C209.811 198.742 236.26 173.129 237.637 141.068L221.382 140.184C221.404 140.699 221.416 141.228 221.416 141.748C221.416 161.283 205.551 177.114 186.016 177.114C166.482 177.114 150.651 161.283 150.651 141.748C150.651 139.928 150.793 138.121 151.059 136.375L117.291 134.539Z" fill="#BDBDBD" stroke="#6B6B6B" stroke-width="4"/>
<path fill-rule="evenodd" clip-rule="evenodd" d="M118.543 131.092H237.237V60.3143C237.237 45.7306 216.178 37.7656 178.516 37.7656C135.372 37.7656 118.543 48.9921 118.543 60.3143V131.092Z" fill="white"/>
<path fill-rule="evenodd" clip-rule="evenodd" d="M118.551 83.9727V90.3657H237.23V83.9727H118.551Z" fill="#FF0000"/>
<path fill-rule="evenodd" clip-rule="evenodd" d="M158.163 70.1303C157.966 70.4559 150.914 69.192 150.585 69.3824C150.264 69.5675 148.039 76.1973 147.668 76.1894C147.288 76.1812 144.857 69.4427 144.527 69.2524C144.206 69.0672 137.352 70.4549 137.174 70.1303C136.991 69.7966 141.611 64.322 141.611 63.9413C141.611 63.571 136.982 58.3288 137.174 58.0122C137.371 57.6866 144.422 58.9505 144.752 58.7602C145.073 58.575 147.298 51.9452 147.668 51.9531C148.049 51.9613 150.48 58.6998 150.81 58.8902C151.13 59.0753 157.985 57.6876 158.163 58.0122C158.346 58.346 153.726 63.8205 153.726 64.2013C153.726 64.5715 158.355 69.8137 158.163 70.1303Z" fill="#BDBDBD"/>
<path fill-rule="evenodd" clip-rule="evenodd" d="M218.761 70.1303C218.563 70.4559 211.512 69.192 211.182 69.3824C210.862 69.5675 208.636 76.1973 208.266 76.1894C207.885 76.1812 205.454 69.4427 205.125 69.2524C204.804 69.0672 197.95 70.4549 197.771 70.1303C197.588 69.7966 202.208 64.322 202.208 63.9413C202.208 63.571 197.579 58.3288 197.771 58.0122C197.969 57.6866 205.02 58.9505 205.35 58.7602C205.67 58.575 207.896 51.9452 208.266 51.9531C208.647 51.9613 211.078 58.6998 211.407 58.8902C211.728 59.0753 218.582 57.6876 218.761 58.0122C218.944 58.346 214.324 63.8205 214.324 64.2013C214.324 64.5715 218.953 69.8137 218.761 70.1303Z" fill="#BDBDBD"/>
<path fill-rule="evenodd" clip-rule="evenodd" d="M218.761 116.951C218.563 117.276 211.512 116.012 211.182 116.203C210.862 116.388 208.636 123.018 208.266 123.01C207.885 123.002 205.454 116.263 205.125 116.073C204.804 115.888 197.95 117.275 197.771 116.951C197.588 116.617 202.208 111.142 202.208 110.762C202.208 110.391 197.579 105.149 197.771 104.833C197.969 104.507 205.02 105.771 205.35 105.58C205.67 105.395 207.896 98.7655 208.266 98.7734C208.647 98.7816 211.078 105.52 211.407 105.71C211.728 105.896 218.582 104.508 218.761 104.833C218.944 105.166 214.324 110.641 214.324 111.022C214.324 111.392 218.953 116.634 218.761 116.951Z" fill="#BDBDBD"/>
<path fill-rule="evenodd" clip-rule="evenodd" d="M158.163 116.951C157.966 117.276 150.914 116.012 150.585 116.203C150.264 116.388 148.039 123.018 147.668 123.01C147.288 123.002 144.857 116.263 144.527 116.073C144.206 115.888 137.352 117.275 137.174 116.951C136.991 116.617 141.611 111.142 141.611 110.762C141.611 110.391 136.982 105.149 137.174 104.833C137.371 104.507 144.422 105.771 144.752 105.58C145.073 105.395 147.298 98.7655 147.668 98.7734C148.049 98.7816 150.48 105.52 150.81 105.71C151.13 105.896 157.985 104.508 158.163 104.833C158.346 105.166 153.726 110.641 153.726 111.022C153.726 111.392 158.355 116.634 158.163 116.951Z" fill="#BDBDBD"/>
<path fill-rule="evenodd" clip-rule="evenodd" d="M178.502 37.7598C177.224 37.7598 175.994 37.7743 174.762 37.7938V131.105H181.189V37.7938C180.288 37.7843 179.423 37.7598 178.502 37.7598Z" fill="#FF0000"/>
<path fill-rule="evenodd" clip-rule="evenodd" d="M118.543 131.092H237.237V60.3143C237.237 45.7306 216.178 37.7656 178.516 37.7656C135.372 37.7656 118.543 48.9921 118.543 60.3143V131.092Z" stroke="#B5CECE" stroke-width="4"/>
</svg>
