<svg width="353" height="235" viewBox="0 0 353 235" fill="none" xmlns="http://www.w3.org/2000/svg">
<path d="M352.5 0H0V235H352.5V0Z" fill="white"/>
<path fill-rule="evenodd" clip-rule="evenodd" d="M116.301 69.2812V157.108C116.301 190.199 143.158 217.057 176.25 217.057C209.342 217.057 236.199 190.199 236.199 157.108V69.2812H116.301Z" fill="white"/>
<path fill-rule="evenodd" clip-rule="evenodd" d="M206.689 96.2953C203.38 96.2312 200.105 97.4944 197.684 99.9342L168.773 129.091L186.212 146.53L194.107 138.574V168.302C194.044 172.75 196.386 176.883 200.228 179.126C204.07 181.369 208.813 181.369 212.656 179.126C216.498 176.883 218.84 172.75 218.777 168.302V108.63C218.78 103.631 215.767 99.126 211.145 97.2204C209.7 96.6249 208.193 96.3245 206.689 96.2953Z" fill="black"/>
<path fill-rule="evenodd" clip-rule="evenodd" d="M134.277 110.725V168.225C134.277 175.402 140.13 181.27 147.306 181.27C154.483 181.27 160.335 175.402 160.335 168.225V163.63C164.892 166.751 170.402 168.58 176.325 168.58C184.286 168.58 191.488 165.268 196.647 159.961L160.335 123.649V109.918L155.401 114.68V121.105C150.787 126.152 147.954 132.854 147.954 140.209C147.954 147.569 150.783 154.279 155.401 159.329V168.225C155.401 172.754 151.835 176.336 147.306 176.336C142.778 176.336 139.211 172.754 139.211 168.225V114.68L134.277 110.725ZM156.866 127.165L189.385 159.683C188.475 160.294 187.527 160.851 186.532 161.333L170.096 144.896L166.595 148.397L181.336 163.122C180.459 163.313 179.564 163.448 178.653 163.538L165.054 149.938L161.553 153.439L171.206 163.091C160.713 160.758 152.888 151.414 152.888 140.209C152.888 135.372 154.366 130.893 156.866 127.165ZM157.483 161.379C157.692 161.565 157.901 161.754 158.115 161.934C157.901 161.753 157.692 161.566 157.483 161.379Z" fill="black"/>
<path fill-rule="evenodd" clip-rule="evenodd" d="M158.835 108.594C158.835 112.737 156.626 116.565 153.038 118.637C149.45 120.709 145.029 120.709 141.441 118.637C137.854 116.565 135.644 112.737 135.645 108.594C135.644 104.45 137.854 100.622 141.441 98.5499C145.029 96.4781 149.45 96.4781 153.038 98.5499C156.626 100.622 158.835 104.45 158.835 108.594Z" stroke="black" stroke-width="4" stroke-linecap="round" stroke-linejoin="round"/>
<path d="M135.646 107.143L122.418 118.717H141.892" stroke="black" stroke-width="4"/>
<path fill-rule="evenodd" clip-rule="evenodd" d="M116.301 69.2812V115.06L127.896 104.899V82.3565H224.604V154.641C224.604 181.877 203.486 203.981 176.25 203.981C149.014 203.981 127.896 181.877 127.896 154.641V125.499H116.301V157.108C116.301 190.199 143.158 217.057 176.25 217.057C209.342 217.057 236.199 190.199 236.199 157.108V69.2812H116.301Z" fill="#019903"/>
<path fill-rule="evenodd" clip-rule="evenodd" d="M206.689 96.2953C203.38 96.2312 200.105 97.4944 197.684 99.9342L168.773 129.091L186.212 146.53L194.107 138.574V168.302C194.044 172.75 196.386 176.883 200.228 179.126C204.07 181.369 208.813 181.369 212.656 179.126C216.498 176.883 218.84 172.75 218.777 168.302V108.63C218.78 103.631 215.767 99.126 211.145 97.2204C209.7 96.6249 208.193 96.3245 206.689 96.2953Z" fill="black"/>
<path fill-rule="evenodd" clip-rule="evenodd" d="M134.277 110.725V168.225C134.277 175.402 140.13 181.27 147.306 181.27C154.483 181.27 160.335 175.402 160.335 168.225V163.63C164.892 166.751 170.402 168.58 176.325 168.58C184.286 168.58 191.488 165.268 196.647 159.961L160.335 123.649V109.918L155.401 114.68V121.105C150.787 126.152 147.954 132.854 147.954 140.209C147.954 147.569 150.783 154.279 155.401 159.329V168.225C155.401 172.754 151.835 176.336 147.306 176.336C142.778 176.336 139.211 172.754 139.211 168.225V114.68L134.277 110.725ZM156.866 127.165L189.385 159.683C188.475 160.294 187.527 160.851 186.532 161.333L170.096 144.896L166.595 148.397L181.336 163.122C180.459 163.313 179.564 163.448 178.653 163.538L165.054 149.938L161.553 153.439L171.206 163.091C160.713 160.758 152.888 151.414 152.888 140.209C152.888 135.372 154.366 130.893 156.866 127.165ZM157.483 161.379C157.692 161.565 157.901 161.754 158.115 161.934C157.901 161.753 157.692 161.566 157.483 161.379Z" fill="black"/>
<path fill-rule="evenodd" clip-rule="evenodd" d="M158.835 108.594C158.835 112.737 156.626 116.565 153.038 118.637C149.45 120.709 145.029 120.709 141.441 118.637C137.854 116.565 135.644 112.737 135.645 108.594C135.644 104.45 137.854 100.622 141.441 98.5499C145.029 96.4781 149.45 96.4781 153.038 98.5499C156.626 100.622 158.835 104.45 158.835 108.594Z" stroke="black" stroke-width="4" stroke-linecap="round" stroke-linejoin="round"/>
<path d="M135.646 107.143L122.418 118.717H141.892" stroke="black" stroke-width="5"/>
<path d="M82.8151 73.9158L85.9009 76.3402C86.4965 76.8081 86.9001 77.0661 87.1118 77.1143C87.3235 77.1624 87.5477 77.1306 87.7843 77.0188C88.021 76.9071 88.3371 76.5994 88.7326 76.096L89.0331 76.332L84.6053 81.9677L84.3049 81.7317C84.7047 81.2228 84.9285 80.8404 84.9762 80.5846C85.024 80.3289 85.0008 80.1049 84.9066 79.9127C84.8124 79.7205 84.4676 79.3905 83.8721 78.9226L76.7259 73.3082C76.1304 72.8403 75.7268 72.5823 75.5151 72.5341C75.3034 72.486 75.0792 72.5178 74.8425 72.6296C74.6059 72.7414 74.2898 73.049 73.8942 73.5524L73.5938 73.3164L77.6132 68.2004C78.6595 66.8686 79.5172 65.9664 80.1861 65.4939C80.8551 65.0213 81.5903 64.7848 82.3919 64.7841C83.1935 64.7835 83.9273 65.0448 84.5932 65.568C85.4052 66.206 85.8469 67.0257 85.9181 68.0272C85.9602 68.6645 85.8015 69.3847 85.4419 70.1879L91.2492 70.469C92.0032 70.5011 92.4972 70.4908 92.7312 70.4382C93.0734 70.3481 93.3675 70.1633 93.6134 69.8837L93.9138 70.1197L91.1896 73.5872L83.3829 73.1931L82.8151 73.9158ZM77.4149 69.6731L82.2385 73.4628L82.6022 73C83.1934 72.2475 83.5667 71.6302 83.7222 71.1482C83.8776 70.6662 83.8593 70.1768 83.6673 69.6801C83.4753 69.1834 83.0897 68.7075 82.5104 68.2524C81.6713 67.5932 80.8972 67.3024 80.1882 67.3801C79.4792 67.4579 78.7823 67.9326 78.0975 68.8042L77.4149 69.6731ZM88.7581 56.796L92.7385 60.8768L92.9381 60.6821C93.5739 60.062 93.84 59.4129 93.7365 58.7349C93.6329 58.0569 93.2408 57.29 92.5601 56.4344L92.8411 56.1604L97.9608 61.4093L97.6798 61.6833C97.0631 61.1693 96.4819 60.8225 95.9364 60.6428C95.391 60.4632 94.9312 60.4331 94.5573 60.5526C94.1834 60.6721 93.7574 60.965 93.2793 61.4313L96.0338 64.2554C96.5722 64.8074 96.9249 65.1221 97.0919 65.1997C97.2589 65.2772 97.445 65.2929 97.65 65.2468C97.8551 65.2007 98.1005 65.0382 98.3864 64.7594L98.9852 64.1753C99.9216 63.2619 100.46 62.3132 100.602 61.329C100.743 60.3449 100.504 59.2891 99.8854 58.1616L100.159 57.8948L102.816 61.5209L94.1515 69.972L93.8847 69.6985L94.2173 69.374C94.5081 69.0904 94.6917 68.8103 94.7682 68.5337C94.8291 68.3397 94.8123 68.1253 94.7178 67.8904C94.6567 67.7193 94.3809 67.3823 93.8906 66.8796L87.4585 60.2852C87.0162 59.8318 86.7323 59.5654 86.6067 59.4859C86.3892 59.3615 86.1682 59.3173 85.9438 59.3535C85.6219 59.3982 85.2983 59.5791 84.973 59.8964L84.6404 60.2209L84.3736 59.9474L92.7644 51.7631L95.656 54.7276L95.375 55.0016C94.5254 54.4165 93.8174 54.0925 93.251 54.0294C92.6846 53.9664 92.0927 54.0917 91.4754 54.4053C91.1129 54.5858 90.5521 55.0462 89.7931 55.7865L88.7581 56.796ZM107.164 40.1368L110.095 44.1087L109.788 44.3356C108.615 43.5238 107.45 43.1092 106.29 43.092C105.131 43.0748 104.111 43.3911 103.23 44.0411C102.388 44.6625 101.862 45.4165 101.652 46.303C101.442 47.1896 101.534 48.1425 101.926 49.1617C102.319 50.181 102.845 51.1366 103.503 52.0284C104.3 53.1087 105.127 53.9619 105.982 54.5882C106.838 55.2145 107.691 55.5092 108.541 55.4724C109.391 55.4356 110.206 55.129 110.987 54.5526C111.259 54.3523 111.516 54.1178 111.758 53.849C112 53.5803 112.23 53.2802 112.448 52.9487L110.718 50.6054C110.391 50.1622 110.149 49.8981 109.992 49.8128C109.835 49.7276 109.622 49.7029 109.354 49.7387C109.085 49.7745 108.815 49.8925 108.543 50.0929L108.252 50.3075L108.026 50L113.501 45.9589L113.728 46.2664C113.333 46.6007 113.086 46.8711 112.986 47.0775C112.886 47.284 112.865 47.5197 112.923 47.7845C112.951 47.9265 113.116 48.2025 113.419 48.6125L115.148 50.9557C114.665 51.8085 114.095 52.6037 113.437 53.3415C112.779 54.0793 112.032 54.7569 111.196 55.3742C110.127 56.1632 109.132 56.6729 108.211 56.9033C107.29 57.1337 106.384 57.2114 105.495 57.1363C104.605 57.0613 103.789 56.8398 103.047 56.4719C102.095 55.9936 101.27 55.2808 100.571 54.3335C99.3197 52.6384 98.8584 50.767 99.1869 48.7192C99.5153 46.6714 100.582 44.9811 102.388 43.6484C102.948 43.2355 103.485 42.9078 103.999 42.6653C104.275 42.5297 104.763 42.3645 105.462 42.1695C106.161 41.9746 106.56 41.8403 106.66 41.7667C106.815 41.6523 106.917 41.4892 106.966 41.2775C107.015 41.0659 106.979 40.7613 106.857 40.3637L107.164 40.1368ZM123.804 46.5368L123.995 46.8675L117.659 50.5354L117.467 50.2047L117.869 49.9719C118.221 49.7684 118.468 49.5421 118.61 49.2928C118.716 49.1197 118.753 48.9077 118.719 48.6568C118.702 48.4759 118.517 48.0815 118.165 47.4737L113.551 39.5011C113.192 38.8814 112.935 38.5131 112.78 38.3961C112.625 38.2791 112.414 38.2203 112.147 38.2196C111.88 38.219 111.577 38.3169 111.237 38.5135L110.835 38.7463L110.643 38.4156L116.98 34.7477L117.172 35.0784L116.77 35.3112C116.418 35.5147 116.171 35.7411 116.029 35.9904C115.923 36.1635 115.883 36.3772 115.911 36.6315C115.928 36.8124 116.113 37.2068 116.465 37.8146L121.079 45.7872C121.438 46.4069 121.696 46.7744 121.855 46.8897C122.013 47.0049 122.225 47.0629 122.492 47.0635C122.759 47.0642 123.062 46.9662 123.402 46.7696L123.804 46.5368ZM126.097 30.1338C128.107 29.1628 130.028 29.0313 131.86 29.7392C133.693 30.4471 135.026 31.7533 135.86 33.6576C136.573 35.2846 136.725 36.9246 136.314 38.5778C135.771 40.77 134.349 42.3704 132.047 43.379C129.74 44.3904 127.612 44.3905 125.666 43.3793C124.128 42.5799 122.987 41.3321 122.244 39.6358C121.409 37.7315 121.362 35.86 122.101 34.0215C122.84 32.183 124.172 30.8871 126.097 30.1338ZM126.475 30.6894C125.303 31.2034 124.673 32.1935 124.586 33.6596C124.519 34.8616 124.889 36.3833 125.696 38.2246C126.655 40.4128 127.748 41.8617 128.976 42.5713C129.833 43.0679 130.743 43.1048 131.708 42.682C132.358 42.3974 132.831 42.0021 133.128 41.4962C133.506 40.8494 133.655 40.0154 133.576 38.994C133.497 37.9726 133.145 36.7494 132.52 35.3242C131.777 33.6279 131.063 32.428 130.379 31.7243C129.695 31.0206 129.033 30.6025 128.392 30.4698C127.751 30.3371 127.112 30.4103 126.475 30.6894ZM140.771 24.9495L149.738 31.488L148.139 25.6835C147.916 24.8737 147.649 24.3581 147.338 24.1367C146.914 23.8395 146.328 23.8008 145.582 24.0207L145.48 23.6523L149.941 22.4236L150.042 22.792C149.491 23.0223 149.134 23.2224 148.97 23.3925C148.806 23.5626 148.706 23.7938 148.669 24.0862C148.631 24.3785 148.7 24.8433 148.876 25.4805L151.972 36.7212L151.634 36.8144L139.408 28.0887L141.772 36.6711C141.986 37.4477 142.308 37.9231 142.738 38.0974C143.168 38.2718 143.612 38.2958 144.07 38.1697L144.388 38.0819L144.49 38.4503L139.701 39.7695L139.599 39.4011C140.341 39.1897 140.817 38.8944 141.026 38.5153C141.236 38.1361 141.242 37.5881 141.045 36.8713L138.42 27.3431L138.033 27.0642C137.649 26.7844 137.331 26.6182 137.081 26.5657C136.831 26.5132 136.499 26.537 136.083 26.6371L135.982 26.2687L140.771 24.9495ZM158.106 21.97L158.875 27.6184L159.151 27.5808C160.031 27.4609 160.631 27.0978 160.952 26.4913C161.272 25.8849 161.414 25.0353 161.376 23.9426L161.765 23.8896L162.754 31.1548L162.365 31.2078C162.176 30.4276 161.915 29.803 161.584 29.334C161.253 28.8649 160.901 28.5671 160.529 28.4405C160.158 28.314 159.641 28.2958 158.979 28.3859L159.512 32.2948C159.616 33.0588 159.712 33.5217 159.8 33.6834C159.888 33.8451 160.028 33.9685 160.22 34.0535C160.413 34.1384 160.707 34.154 161.102 34.1001L161.931 33.9872C163.227 33.8107 164.225 33.3691 164.924 32.6624C165.624 31.9557 166.06 30.9651 166.234 29.6908L166.613 29.6392L166.589 34.1345L154.596 35.7679L154.545 35.3893L155.005 35.3265C155.408 35.2717 155.722 35.156 155.948 34.9793C156.113 34.8596 156.227 34.6773 156.291 34.4323C156.343 34.2584 156.322 33.8235 156.228 33.1277L154.984 24.0001C154.899 23.3726 154.829 22.9894 154.776 22.8508C154.675 22.6214 154.524 22.4544 154.322 22.3498C154.037 22.1941 153.669 22.1469 153.219 22.2083L152.758 22.271L152.707 21.8924L164.321 20.3105L164.88 24.4139L164.491 24.4668C164.156 23.491 163.78 22.8091 163.363 22.4213C162.945 22.0335 162.395 21.7819 161.712 21.6664C161.313 21.5956 160.589 21.6318 159.538 21.7749L158.106 21.97ZM200.24 31.5829L205.862 23.3319L211.44 24.5068L211.361 24.8807L210.917 24.787C210.513 24.7019 210.174 24.7045 209.902 24.7949C209.714 24.8538 209.546 24.9837 209.398 25.1847C209.29 25.3308 209.164 25.7441 209.021 26.4245L207.118 35.4588C206.97 36.1594 206.915 36.6051 206.952 36.7959C206.989 36.9866 207.109 37.1718 207.31 37.3515C207.512 37.5311 207.804 37.6613 208.188 37.7422L208.633 37.8358L208.554 38.2097L201.399 36.7029L201.478 36.329L201.923 36.4226C202.327 36.5077 202.665 36.5051 202.938 36.4147C203.126 36.3559 203.295 36.2226 203.444 36.0148C203.552 35.8687 203.679 35.4521 203.823 34.7649L205.962 24.6089L198.075 36.0026L197.832 35.9515L195.11 22.4183L193.078 32.069C192.936 32.7427 192.865 33.1605 192.866 33.3226C192.883 33.6779 193.015 33.9925 193.264 34.2664C193.512 34.5404 193.95 34.7433 194.576 34.8753L194.497 35.2492L189.809 34.2616L189.887 33.8877L190.029 33.9175C190.33 33.9881 190.624 33.9989 190.908 33.9498C191.193 33.9007 191.421 33.8027 191.593 33.656C191.765 33.5092 191.921 33.2853 192.062 32.9842C192.091 32.913 192.17 32.5708 192.299 31.9577L194.125 23.2873C194.271 22.5934 194.325 22.1527 194.287 21.9653C194.25 21.7779 194.13 21.5944 193.928 21.4148C193.727 21.2352 193.434 21.1049 193.05 21.0241L192.616 20.9325L192.695 20.5586L198.293 21.7377L200.24 31.5829ZM218.545 37.9192L213.929 36.1407L212.889 37.2011C212.546 37.5558 212.321 37.8713 212.215 38.1476C212.074 38.5138 212.118 38.8405 212.346 39.1278C212.48 39.2975 212.878 39.5392 213.539 39.8529L213.401 40.2095L209.055 38.535L209.193 38.1784C209.689 38.2884 210.149 38.2426 210.574 38.041C210.998 37.8393 211.624 37.326 212.451 36.501L221.142 27.8749L221.325 27.9454L221.909 40.477C221.967 41.6653 222.09 42.4468 222.278 42.8216C222.42 43.1049 222.683 43.3394 223.069 43.525L222.932 43.8815L216.61 41.4459L216.748 41.0893L217.008 41.1896C217.516 41.3851 217.899 41.4518 218.159 41.3897C218.34 41.3414 218.468 41.2208 218.542 41.0281C218.587 40.9125 218.613 40.7862 218.622 40.6493C218.631 40.5865 218.628 40.3084 218.611 39.8151L218.545 37.9192ZM218.492 37.0799L218.279 31.8296L214.541 35.5576L218.492 37.0799ZM231.193 41.1255L229.29 44.5574C228.923 45.2197 228.732 45.6592 228.718 45.8759C228.704 46.0926 228.771 46.3088 228.919 46.5247C229.067 46.7406 229.421 47.0038 229.981 47.3143L229.796 47.6485L223.528 44.1727L223.713 43.8385C224.279 44.1524 224.692 44.3125 224.953 44.319C225.213 44.3255 225.43 44.267 225.605 44.1435C225.78 44.02 226.051 43.6271 226.418 42.9648L230.825 35.0171C231.193 34.3549 231.383 33.9154 231.397 33.6987C231.411 33.482 231.344 33.2658 231.196 33.0499C231.048 32.834 230.694 32.5708 230.134 32.2603L230.319 31.9261L236.009 35.0814C237.49 35.9028 238.517 36.6061 239.09 37.1915C239.663 37.7768 240.014 38.4652 240.142 39.2565C240.27 40.0478 240.128 40.8138 239.717 41.5543C239.217 42.4575 238.477 43.0238 237.5 43.2532C236.878 43.3961 236.141 43.3539 235.291 43.1265L235.937 48.9046C236.025 49.6542 236.113 50.1403 236.202 50.3629C236.346 50.6864 236.575 50.9474 236.89 51.1458L236.705 51.4799L232.848 49.3413L231.997 41.5713L231.193 41.1255ZM234.524 35.1196L231.549 40.4843L232.064 40.7698C232.9 41.2339 233.569 41.5044 234.07 41.5812C234.57 41.6581 235.051 41.5622 235.51 41.2937C235.97 41.0252 236.379 40.5689 236.736 39.9246C237.254 38.9914 237.418 38.181 237.228 37.4933C237.039 36.8057 236.459 36.1931 235.49 35.6555L234.524 35.1196ZM256.461 48.4321L253.546 52.3134L253.224 52.0715C253.742 50.8766 253.874 49.7614 253.618 48.7258C253.363 47.6902 252.817 46.8582 251.98 46.2298C251.281 45.7048 250.488 45.4241 249.603 45.3878C248.718 45.3515 247.896 45.5569 247.139 46.0039C246.167 46.5748 245.3 47.3695 244.535 48.388C243.782 49.39 243.224 50.3976 242.859 51.4108C242.494 52.424 242.423 53.3438 242.647 54.1701C242.87 54.9964 243.411 55.732 244.27 56.3769C244.975 56.9061 245.736 57.2366 246.554 57.3686C247.371 57.5006 248.388 57.4333 249.604 57.1669L248.879 58.1331C247.759 58.317 246.749 58.3009 245.848 58.0849C244.947 57.8689 244.042 57.4198 243.134 56.7377C241.939 55.8406 241.058 54.8043 240.49 53.6287C239.922 52.4532 239.723 51.2276 239.893 49.9519C240.063 48.6763 240.528 47.532 241.289 46.5189C242.091 45.4509 243.131 44.6477 244.409 44.1094C245.687 43.571 247 43.3942 248.346 43.5788C249.693 43.7634 250.9 44.2567 251.968 45.0587C252.755 45.6499 253.459 46.4448 254.078 47.4434C254.435 48.0219 254.683 48.3629 254.821 48.4662C254.997 48.5985 255.198 48.6486 255.425 48.6163C255.651 48.5841 255.889 48.4421 256.138 48.1902L256.461 48.4321ZM257.691 59.911L254.621 62.9749C254.114 63.4807 253.825 63.8248 253.754 64.0073C253.683 64.1898 253.682 64.4101 253.75 64.6682C253.818 64.9263 253.99 65.1942 254.268 65.472L254.596 65.8009L254.325 66.0708L249.153 60.8882L249.424 60.6183L249.752 60.9472C250.039 61.2347 250.321 61.4151 250.599 61.4884C250.793 61.5471 251.007 61.5278 251.241 61.4307C251.412 61.3676 251.745 61.088 252.242 60.5919L258.763 54.0848C259.27 53.579 259.56 53.2361 259.633 53.0561C259.706 52.876 259.709 52.657 259.641 52.3989C259.573 52.1408 259.4 51.8729 259.123 51.5951L258.795 51.2661L259.065 50.9962L264.237 56.1789L263.967 56.4488L263.639 56.1199C263.352 55.8323 263.07 55.6519 262.792 55.5786C262.598 55.52 262.381 55.5368 262.142 55.6291C261.972 55.6922 261.638 55.9718 261.141 56.4678L258.334 59.2691L261.828 62.7705L264.635 59.9692C265.142 59.4635 265.432 59.1205 265.505 58.9405C265.579 58.7604 265.58 58.5401 265.51 58.2796C265.439 58.0191 265.266 57.75 264.988 57.4722L264.667 57.1505L264.938 56.8806L270.103 62.056L269.832 62.3259L269.511 62.0043C269.219 61.7119 268.937 61.5315 268.665 61.463C268.47 61.4044 268.253 61.4212 268.015 61.5135C267.844 61.5766 267.51 61.8562 267.013 62.3522L260.493 68.8593C259.986 69.3651 259.696 69.708 259.623 69.8881C259.55 70.0681 259.548 70.2884 259.619 70.549C259.689 70.8095 259.863 71.0786 260.14 71.3564L260.461 71.678L260.191 71.9479L255.026 66.7726L255.296 66.5027L255.617 66.8243C255.909 67.1167 256.191 67.2971 256.464 67.3655C256.658 67.4242 256.875 67.4073 257.114 67.3151C257.284 67.252 257.618 66.9724 258.115 66.4763L261.185 63.4125L257.691 59.911ZM274.413 68.9195L269.865 72.3569L270.033 72.5793C270.569 73.2878 271.18 73.6332 271.865 73.6155C272.551 73.5978 273.361 73.3049 274.295 72.7368L274.532 73.0499L268.682 77.4713L268.446 77.1582C269.033 76.6107 269.45 76.0776 269.697 75.559C269.943 75.0403 270.031 74.588 269.959 74.202C269.887 73.8161 269.65 73.3567 269.247 72.824L266.1 75.2028C265.485 75.6677 265.129 75.9782 265.031 76.1342C264.933 76.2901 264.894 76.4727 264.914 76.682C264.934 76.8912 265.065 77.1551 265.305 77.4736L265.81 78.1409C266.599 79.1844 267.472 79.838 268.431 80.1015C269.39 80.365 270.467 80.2605 271.663 79.7878L271.894 80.0926L267.963 82.2741L260.665 72.6187L260.97 72.3883L261.25 72.759C261.495 73.083 261.75 73.3003 262.014 73.4109C262.199 73.4955 262.414 73.5057 262.659 73.4415C262.836 73.4023 263.205 73.1709 263.765 72.7475L271.114 67.1927C271.619 66.8108 271.919 66.5625 272.014 66.4479C272.165 66.2476 272.236 66.034 272.228 65.8068C272.224 65.4818 272.085 65.1381 271.811 64.7756L271.531 64.4049L271.836 64.1745L278.904 73.525L275.6 76.0222L275.364 75.7091C276.051 74.9396 276.461 74.2778 276.594 73.7237C276.728 73.1697 276.678 72.5668 276.444 71.915C276.31 71.5327 275.924 70.9186 275.285 70.0728L274.413 68.9195Z" fill="#07814B"/>
</svg>
