<svg width="1006" height="671" viewBox="0 0 1006 671" fill="none" xmlns="http://www.w3.org/2000/svg">
<path d="M0 0H1006V670.667H0L0 0Z" fill="white"/>
<path d="M201.199 0H268.266V670.667H201.199V0Z" fill="#009149"/>
<path d="M737.73 0H804.797V670.667H737.73V0Z" fill="#E2001A"/>
<path d="M295.562 49.8152V34.6858C295.565 34.1907 295.612 33.8666 295.703 33.7134C295.793 33.5603 295.907 33.491 296.045 33.5055C296.284 33.4776 296.637 33.453 297.105 33.4318C297.572 33.4106 298.166 33.3994 298.888 33.3982C301.716 33.3815 303.961 34.032 305.622 35.3498C307.282 36.6676 308.132 38.7532 308.17 41.6067C308.165 43.1324 307.921 44.4401 307.439 45.5299C306.957 46.6197 306.271 47.5116 305.38 48.2057C304.668 48.7892 303.785 49.2049 302.731 49.4531C301.677 49.7012 300.378 49.8219 298.835 49.8152H295.562ZM287.461 65.9103H300.605V65.1592C298.377 65.1066 296.959 64.7154 296.353 63.9856C295.748 63.2557 295.484 61.8585 295.562 59.7941V50.8882C297.786 50.8502 299.441 50.9396 300.525 51.1565C301.609 51.3733 302.458 51.9456 303.073 52.8733C305.725 57.212 307.908 60.3436 309.622 62.268C311.337 64.1925 312.872 65.3807 314.228 65.8328C315.585 66.2848 317.053 66.4716 318.632 66.3931L318.793 65.6957C317.379 65.2609 315.847 64.1722 314.199 62.4297C312.55 60.6872 311.059 58.9681 309.726 57.2726C308.853 56.0845 307.956 54.7857 307.037 53.3762C306.117 51.9668 305.421 50.8156 304.951 49.9225C307.031 49.006 308.638 47.8212 309.773 46.3682C310.907 44.9152 311.482 43.0598 311.496 40.802C311.365 37.4444 310.178 35.1732 307.935 33.9884C305.692 32.8036 303.177 32.2493 300.391 32.3252H287.729V33.13C289.906 33.2205 291.292 33.5894 291.887 34.2365C292.482 34.8837 292.741 36.2317 292.665 38.2804V59.7941C292.747 61.8585 292.476 63.2557 291.854 63.9856C291.231 64.7154 289.767 65.1066 287.461 65.1592V65.9103Z" fill="#FABB00" stroke="#FABB00"/>
<path d="M320.984 65.9093H346.093C346.331 64.8776 346.646 63.467 347.038 61.6776C347.431 59.8881 347.759 58.4373 348.024 57.3252H347.112C346.688 58.5391 346.194 59.5987 345.63 60.504C345.065 61.4093 344.558 62.1202 344.108 62.6366C343.219 63.59 342.045 64.1779 340.587 64.4003C339.128 64.6228 337.566 64.7144 335.899 64.6753C333.674 64.7804 332.008 64.5702 330.903 64.0449C329.798 63.5196 329.245 62.0487 329.247 59.6322V49.1704H335.524C337.506 49.0933 338.919 49.3012 339.762 49.7941C340.605 50.287 341.213 51.5277 341.586 53.5161H342.498V43.5371H341.586C341.246 45.2819 340.665 46.4197 339.842 46.9506C339.02 47.4815 337.58 47.7207 335.524 47.6682H329.247V35.114C329.219 34.4412 329.288 34.0165 329.454 33.8398C329.621 33.6633 330.052 33.5873 330.749 33.6118H335.792C338.921 33.5649 341.032 34.0612 342.123 35.1006C343.213 36.1401 343.982 38.0045 344.43 40.6937L345.342 40.5327C345.228 38.9232 345.12 37.3942 345.02 35.9456C344.919 34.4971 344.865 33.29 344.859 32.3242H321.521V33.0753C323.672 33.1201 325.043 33.5269 325.632 34.2959C326.221 35.0649 326.478 36.5716 326.403 38.8159V59.8468C326.492 61.8587 326.22 63.2267 325.585 63.951C324.95 64.6753 323.417 65.0777 320.984 65.1581V65.9093Z" fill="#FABB00" stroke="#FABB00"/>
<path d="M387.166 50.8336H374.612V51.5847C377.554 51.7602 379.382 52.1738 380.098 52.8254C380.813 53.477 381.113 54.6014 380.996 56.1986V60.8662C381.003 62.0174 380.829 62.8535 380.473 63.3743C380.118 63.8952 379.541 64.2752 378.743 64.5144C377.93 64.7849 376.94 64.995 375.772 65.1448C374.604 65.2946 373.305 65.3706 371.876 65.3728C367.944 65.3059 364.792 64.4204 362.42 62.7161C360.047 61.0119 358.334 58.8904 357.279 56.3516C356.224 53.8129 355.707 51.2582 355.727 48.6876C355.738 43.6836 357.071 39.7962 359.724 37.0254C362.378 34.2546 366.285 32.8485 371.447 32.8071C374.232 32.7267 376.615 33.2498 378.596 34.3764C380.576 35.5031 382.02 37.7162 382.928 41.0156L383.786 40.9083C383.547 39.2195 383.355 37.6748 383.209 36.2743C383.064 34.8738 382.952 33.7717 382.874 32.9681C381.925 32.673 380.524 32.3646 378.669 32.0426C376.815 31.7207 374.729 31.5464 372.412 31.5195C368.832 31.5229 365.495 32.2014 362.402 33.5543C359.308 34.9071 356.802 36.9127 354.883 39.571C352.963 42.2294 351.975 45.5186 351.918 49.4387C352.019 54.6182 353.883 58.7716 357.511 61.899C361.139 65.0263 365.927 66.6314 371.876 66.7141C374.101 66.676 376.29 66.4168 378.441 65.9361C380.593 65.4555 382.553 64.9816 384.323 64.5144C384.115 63.9723 383.981 63.3129 383.92 62.5361C383.86 61.7593 383.833 60.8986 383.84 59.9541V55.1256C383.781 53.9755 383.939 53.1506 384.316 52.651C384.693 52.1514 385.643 51.796 387.166 51.5847V50.8336Z" fill="#FABB00" stroke="#FABB00"/>
<path d="M390.574 65.9093H403.558V65.1581C401.327 65.1056 399.9 64.7144 399.279 63.9845C398.658 63.2547 398.385 61.8575 398.461 59.7931V38.4403C398.385 36.4028 398.658 35.0191 399.279 34.2892C399.9 33.5593 401.327 33.1547 403.558 33.0753V32.3242H390.574V33.0753C392.829 33.1547 394.262 33.5593 394.873 34.2892C395.484 35.0191 395.75 36.4028 395.671 38.4403V59.7931C395.75 61.8575 395.484 63.2547 394.873 63.9845C394.262 64.7144 392.829 65.1056 390.574 65.1581V65.9093Z" fill="#FABB00" stroke="#FABB00"/>
<path d="M427.021 31.5195C423.02 31.5752 419.611 32.4654 416.793 34.1901C413.975 35.9149 411.822 38.1404 410.333 40.8666C408.845 43.5928 408.094 46.486 408.082 49.546C408.208 54.6037 409.941 58.7057 413.279 61.852C416.618 64.9984 420.805 66.6191 425.84 66.7141C431.08 66.628 435.475 64.9492 439.025 61.6777C442.575 58.4061 444.421 54.0582 444.564 48.6339C444.393 43.3673 442.589 39.2139 439.152 36.1737C435.715 33.1335 431.671 31.5822 427.021 31.5195ZM425.465 32.8071C429.887 32.7994 433.542 34.2904 436.429 37.2802C439.316 40.2701 440.812 44.8058 440.916 50.8873C440.794 55.6711 439.401 59.288 436.738 61.738C434.074 64.188 430.871 65.4175 427.128 65.4265C422.688 65.3538 419.053 63.7555 416.223 60.6315C413.393 57.5075 411.931 53.2937 411.838 47.9901C411.959 42.8308 413.339 39.0127 415.975 36.5358C418.612 34.059 421.775 32.8161 425.465 32.8071Z" fill="#FABB00" stroke="#FABB00"/>
<path d="M448.667 65.9093H462.026V65.1581C460.247 65.024 458.91 64.7155 458.016 64.2327C457.122 63.7498 456.563 63.0926 456.339 62.261C456.158 61.5312 456.038 60.3755 455.977 58.7939C455.917 57.2123 455.877 55.0775 455.857 52.3894V38.1184H455.964L480.697 66.2848H481.287V45.3612C481.279 42.8654 481.308 40.8692 481.374 39.3725C481.44 37.8759 481.59 36.7247 481.823 35.9188C482.046 35.1364 482.54 34.5016 483.305 34.0142C484.071 33.5269 485.222 33.214 486.759 33.0753V32.3242H473.454V33.0753C476.464 33.1212 478.304 33.9148 478.973 35.456C479.643 36.9974 479.913 40.2991 479.785 45.3612V60.6515H479.624L454.837 32.3242H448.238V33.0753C449.629 33.2318 450.684 33.4688 451.404 33.7862C452.123 34.1037 452.696 34.5284 453.12 35.0604C453.594 35.5153 453.921 36.0138 454.1 36.5559C454.278 37.098 454.363 38.4951 454.354 40.7473V52.3894C454.357 55.0753 454.312 57.2146 454.22 58.8073C454.129 60.4 453.977 61.5871 453.764 62.3683C453.562 63.1284 453.054 63.7543 452.242 64.2461C451.429 64.7379 450.238 65.0419 448.667 65.1581V65.9093Z" fill="#FABB00" stroke="#FABB00"/>
<path d="M489.383 65.9093H514.491C514.729 64.8776 515.044 63.467 515.437 61.6776C515.829 59.8881 516.158 58.4373 516.423 57.3252H515.51C515.087 58.5391 514.593 59.5987 514.028 60.504C513.464 61.4093 512.956 62.1202 512.506 62.6366C511.617 63.59 510.444 64.1779 508.985 64.4003C507.527 64.6228 505.964 64.7144 504.298 64.6753C502.072 64.7804 500.407 64.5702 499.301 64.0449C498.196 63.5196 497.644 62.0487 497.645 59.6322V49.1704H503.922C505.905 49.0933 507.318 49.3012 508.16 49.7941C509.003 50.287 509.611 51.5277 509.984 53.5161H510.897V43.5371H509.984C509.645 45.2819 509.063 46.4197 508.241 46.9506C507.418 47.4815 505.979 47.7207 503.922 47.6682H497.645V35.114C497.617 34.4412 497.686 34.0165 497.853 33.8398C498.019 33.6633 498.451 33.5873 499.147 33.6118H504.19C507.32 33.5649 509.43 34.0612 510.521 35.1006C511.612 36.1401 512.381 38.0045 512.828 40.6937L513.74 40.5327C513.626 38.9232 513.519 37.3942 513.418 35.9456C513.317 34.4971 513.264 33.29 513.257 32.3242H489.919V33.0753C492.071 33.1201 493.441 33.5269 494.03 34.2959C494.619 35.0649 494.876 36.5716 494.801 38.8159V59.8468C494.891 61.8587 494.618 63.2267 493.983 63.951C493.348 64.6753 491.815 65.0777 489.383 65.1581V65.9093Z" fill="#FABB00" stroke="#FABB00"/>
<path d="M538.979 34.8454C538.978 34.3 539.021 33.9423 539.107 33.7724C539.193 33.6025 539.329 33.5131 539.516 33.5042C539.75 33.4528 540.086 33.4215 540.522 33.4103C540.958 33.3991 541.534 33.3946 542.252 33.3969C545.555 33.3869 548.043 34.0776 549.716 35.4691C551.389 36.8607 552.228 39.0134 552.231 41.9272C552.167 45.0121 551.315 47.2386 549.676 48.6067C548.036 49.9748 545.991 50.6454 543.54 50.6186C542.283 50.6018 541.282 50.5012 540.535 50.3168C539.789 50.1324 539.27 49.9647 538.979 49.8138V34.8454ZM531.039 65.9089H544.827V65.1578C542.189 65.0594 540.531 64.666 539.851 63.9775C539.172 63.289 538.881 61.9298 538.979 59.9001V50.9941L543.271 52.1744C545.013 52.3586 546.841 52.1095 548.754 51.4273C550.666 50.7451 552.299 49.5979 553.652 47.9857C555.004 46.3736 555.711 44.2647 555.772 41.659C555.69 38.74 554.93 36.6139 553.491 35.2806C552.052 33.9473 550.425 33.1088 548.61 32.765C546.796 32.4212 545.284 32.2742 544.076 32.3238H531.361V33.1286C533.623 33.1756 535 33.5511 535.492 34.2553C535.984 34.9595 536.181 36.3544 536.082 38.44V59.7928C536.16 61.8572 535.897 63.2543 535.291 63.9842C534.685 64.714 533.268 65.1052 531.039 65.1578V65.9089Z" fill="#FABB00" stroke="#FABB00"/>
<path d="M591.931 45.7368C591.937 42.8542 591.993 40.706 592.099 39.292C592.205 37.8782 592.328 36.7895 592.468 36.0261C592.609 35.1957 593.105 34.5362 593.957 34.0477C594.808 33.5593 595.975 33.2352 597.457 33.0753V32.3242H584.259V33.0753C586.12 33.2575 587.508 33.5906 588.424 34.0746C589.339 34.5586 589.882 35.227 590.054 36.0797C590.236 36.8208 590.354 37.9005 590.409 39.3189C590.464 40.7373 590.488 42.8766 590.483 45.7368V48.5802C590.508 53.3171 589.666 57.095 587.954 59.9138C586.243 62.7327 583.348 64.1768 579.27 64.2461C575.618 64.2696 572.781 63.1764 570.76 60.9667C568.738 58.757 567.712 55.2899 567.681 50.5653V38.6549C567.602 36.5514 567.855 35.0984 568.439 34.2959C569.024 33.4934 570.416 33.0865 572.617 33.0753V32.3242H559.688V33.0753C561.993 33.2072 563.458 33.6141 564.08 34.2959C564.703 34.9777 564.973 36.4307 564.892 38.6549V52.2284C564.894 55.225 565.251 57.6415 565.965 59.4779C566.678 61.3143 567.733 62.7785 569.13 63.8705C570.376 64.8508 571.746 65.546 573.241 65.9562C574.735 66.3664 576.28 66.5653 577.875 66.553C579.779 66.5441 581.59 66.2133 583.307 65.5605C585.024 64.9078 586.486 63.9868 587.693 62.7975C589.325 61.1109 590.447 59.1057 591.059 56.782C591.672 54.4583 591.963 51.635 591.931 48.312V45.7368Z" fill="#FABB00" stroke="#FABB00"/>
<path d="M636.346 50.8336H623.792V51.5847C626.733 51.7602 628.562 52.1738 629.277 52.8254C629.993 53.477 630.292 54.6014 630.176 56.1986V60.8662C630.183 62.0174 630.008 62.8535 629.653 63.3743C629.298 63.8952 628.721 64.2752 627.923 64.5144C627.11 64.7849 626.12 64.995 624.952 65.1448C623.784 65.2946 622.485 65.3706 621.056 65.3728C617.123 65.3059 613.971 64.4204 611.599 62.7161C609.227 61.0119 607.513 58.8904 606.459 56.3516C605.404 53.8129 604.887 51.2582 604.907 48.6876C604.918 43.6836 606.25 39.7962 608.904 37.0254C611.557 34.2546 615.465 32.8485 620.626 32.8071C623.412 32.7267 625.795 33.2498 627.775 34.3764C629.756 35.5031 631.2 37.7162 632.107 41.0156L632.966 40.9083C632.727 39.2195 632.534 37.6748 632.389 36.2743C632.244 34.8738 632.132 33.7717 632.054 32.9681C631.105 32.673 629.703 32.3646 627.849 32.0426C625.995 31.7207 623.909 31.5464 621.592 31.5195C618.012 31.5229 614.675 32.2014 611.581 33.5543C608.488 34.9071 605.981 36.9127 604.062 39.571C602.143 42.2294 601.155 45.5186 601.098 49.4387C601.198 54.6182 603.063 58.7716 606.691 61.899C610.319 65.0263 615.107 66.6314 621.056 66.7141C623.281 66.676 625.469 66.4168 627.621 65.9361C629.773 65.4555 631.733 64.9816 633.502 64.5144C633.294 63.9723 633.16 63.3129 633.1 62.5361C633.04 61.7593 633.013 60.8986 633.02 59.9541V55.1256C632.96 53.9755 633.119 53.1506 633.496 52.651C633.872 52.1514 634.822 51.796 636.346 51.5847V50.8336Z" fill="#FABB00" stroke="#FABB00"/>
<path d="M664.217 57.5398C663.769 58.7268 663.284 59.7596 662.762 60.6381C662.24 61.5166 661.795 62.2007 661.428 62.6902C660.796 63.334 659.873 63.8169 658.658 64.1388C657.443 64.4607 656.023 64.6216 654.399 64.6216C651.724 64.7334 649.913 64.4696 648.967 63.8303C648.022 63.191 647.579 61.5055 647.639 58.7738V38.4403C647.558 36.4028 647.842 35.0191 648.491 34.2892C649.141 33.5593 650.645 33.1547 653.004 33.0753V32.3242H639.699V33.0753C642.003 33.1547 643.458 33.5593 644.065 34.2892C644.672 35.0191 644.933 36.4028 644.85 38.4403V59.5249C644.929 61.7178 644.676 63.1932 644.092 63.951C643.507 64.7088 642.115 65.1112 639.914 65.1581V65.9093H663.252C663.473 64.6384 663.795 63.1697 664.217 61.5032C664.64 59.8367 664.962 58.5156 665.183 57.5398H664.217Z" fill="#FABB00" stroke="#FABB00"/>
<path d="M667.945 65.9093H680.929V65.1581C678.698 65.1056 677.272 64.7144 676.65 63.9845C676.029 63.2547 675.756 61.8575 675.832 59.7931V38.4403C675.756 36.4028 676.029 35.0191 676.65 34.2892C677.272 33.5593 678.698 33.1547 680.929 33.0753V32.3242H667.945V33.0753C670.2 33.1547 671.633 33.5593 672.244 34.2892C672.855 35.0191 673.121 36.4028 673.042 38.4403V59.7931C673.121 61.8575 672.855 63.2547 672.244 63.9845C671.633 64.7144 670.2 65.1056 667.945 65.1581V65.9093Z" fill="#FABB00" stroke="#FABB00"/>
<path d="M706.595 65.9093H718.881V65.1582C717.097 64.9336 715.863 64.4976 715.179 63.8505C714.495 63.2033 713.798 61.9224 713.087 60.0078C712.061 57.4002 710.961 54.5008 709.788 51.3098C708.614 48.1187 707.407 44.8304 706.166 41.4448L702.572 31.5195L701.928 31.7878L690.286 59.0957C689.384 61.4139 688.532 62.934 687.731 63.656C686.929 64.3781 685.635 64.8788 683.848 65.1582V65.9093H696.026V65.1582C694.526 64.9514 693.409 64.6809 692.673 64.3468C691.938 64.0126 691.571 63.4068 691.573 62.5293C691.603 61.9021 691.842 60.8735 692.289 59.4435C692.736 58.0135 693.213 56.6192 693.719 55.2607C694.226 53.9023 694.584 53.0167 694.792 52.6041H707.186C708.204 55.1145 709.051 57.3096 709.727 59.1896C710.403 61.0696 710.754 62.3796 710.78 63.1195C710.797 63.741 710.482 64.188 709.834 64.4608C709.187 64.7335 708.108 64.966 706.595 65.1582V65.9093ZM701.499 36.509L706.703 50.8873H695.436C696.301 48.615 697.24 46.2521 698.253 43.7987C699.265 41.3454 700.312 38.9155 701.391 36.509H701.499Z" fill="#FABB00" stroke="#FABB00"/>
<path d="M620.034 491.892C620.034 504.053 610.218 513.912 598.11 513.912L524.089 513.912C511.981 513.912 502.165 523.771 502.165 535.932C502.165 523.771 492.349 513.912 480.24 513.912L408.432 513.912C396.324 513.912 386.508 504.053 386.508 491.892V227.619H620.034V491.892Z" fill="#008AC9" stroke="black" stroke-width="0.900004"/>
<path d="M551.607 513.664L454.892 513.801L386.514 445.231L386.526 348.122L454.923 279.359L551.638 279.222L620.016 347.791L620.004 444.9L551.607 513.664Z" fill="#E2001A" stroke="black" stroke-width="0.900004"/>
<path d="M540.464 486.661L466.042 486.767L413.425 434.003L413.435 359.278L466.066 306.364L540.488 306.259L593.105 359.023L593.095 433.748L540.464 486.661Z" fill="white" stroke="black" stroke-width="0.900004"/>
<path d="M508.893 379.633C508.893 379.633 503.593 377.144 507.682 369.523C510.054 375.162 508.893 379.633 508.893 379.633Z" fill="#009149" stroke="black" stroke-width="0.900004"/>
<path d="M512.171 375.415C512.171 375.415 508.032 370.742 512.828 367.439C514.039 370.894 512.171 375.415 512.171 375.415Z" fill="#009149" stroke="black" stroke-width="0.900004"/>
<path d="M517.676 375.672C517.676 375.672 513.537 375.621 509.852 379.431C509.852 379.431 512.325 383.394 517.676 375.672Z" fill="#009149" stroke="black" stroke-width="0.900004"/>
<path d="M518.481 369.118C518.481 369.118 515.503 368.762 515.301 367.746C515.301 367.746 516.866 364.952 518.784 365.562C518.784 365.562 519.289 367.086 518.531 369.321" fill="#009149"/>
<path d="M518.481 369.118C518.481 369.118 515.503 368.762 515.301 367.746C515.301 367.746 516.866 364.952 518.784 365.562C518.784 365.562 519.289 367.086 518.531 369.321" stroke="black" stroke-width="0.900004"/>
<path d="M519.492 383.061C519.492 383.061 517.069 379.455 519.694 375.645C521.208 381.436 519.492 383.061 519.492 383.061Z" fill="#009149" stroke="black" stroke-width="0.900004"/>
<path d="M525.021 377.523C525.021 377.523 520.983 373.103 525.526 368.938C526.687 375.135 525.021 377.523 525.021 377.523Z" fill="#009149" stroke="black" stroke-width="0.900004"/>
<path d="M521.004 383.442C521.004 383.442 524.84 379.835 529.737 383.341C524.335 385.931 521.004 383.442 521.004 383.442Z" fill="#009149" stroke="black" stroke-width="0.900004"/>
<path d="M527.27 376.533C527.27 376.533 527.32 373.13 530.248 371.199C531.207 374.958 527.27 376.533 527.27 376.533Z" fill="#009149" stroke="black" stroke-width="0.900004"/>
<path d="M527.973 376.888C527.973 376.888 528.881 380.393 535.191 380.647C530.85 376.583 527.973 376.888 527.973 376.888Z" fill="#009149" stroke="black" stroke-width="0.900004"/>
<path d="M533.727 374.095C533.727 374.095 533.374 368.456 538.725 366.475C537.412 372.367 533.727 374.095 533.727 374.095Z" fill="#009149" stroke="black" stroke-width="0.900004"/>
<path d="M541.145 370.361C541.145 370.361 540.994 366.653 546.092 364.824C545.789 370.412 541.145 370.361 541.145 370.361Z" fill="#009149" stroke="black" stroke-width="0.900004"/>
<path d="M526.205 390.199C526.205 390.199 520.602 389.996 518.633 386.694C518.633 386.694 522.57 383.849 526.205 390.199Z" fill="#009149" stroke="black" stroke-width="0.900004"/>
<path d="M533.169 387.379C533.169 387.379 527.364 390.122 526.859 385.448C526.859 385.448 528.525 384.636 533.169 387.379Z" fill="#009149" stroke="black" stroke-width="0.900004"/>
<path d="M532.766 383.136C532.766 383.136 536.552 386.743 540.136 383.695C536.249 380.494 532.766 383.136 532.766 383.136Z" fill="#009149" stroke="black" stroke-width="0.900004"/>
<path d="M479.832 389.082C479.832 389.082 482.438 392.386 486.542 388.543C483.366 387.321 479.832 389.082 479.832 389.082Z" fill="#009149" stroke="black" stroke-width="0.900004"/>
<path d="M452.203 364.934C452.203 364.934 452.739 368.526 459.699 371.472C456.094 364.18 452.203 364.934 452.203 364.934Z" fill="#009149" stroke="black" stroke-width="0.900004"/>
<path d="M460.382 372.615C460.382 372.615 458.811 378.973 454.242 373.693C454.242 373.693 458.383 374.375 460.382 372.615Z" fill="#009149" stroke="black" stroke-width="0.900004"/>
<path d="M462.699 372.161C462.699 372.161 459.665 369.431 459.844 368.21C459.844 368.21 461.949 364.043 462.699 372.161Z" fill="#009149" stroke="black" stroke-width="0.900004"/>
<path d="M456.703 387.106C456.703 387.106 458.345 382.436 461.272 384.699C459.701 388.076 456.703 387.106 456.703 387.106Z" fill="#009149" stroke="black" stroke-width="0.900004"/>
<path d="M473.734 387.789C473.734 387.789 474.198 383.119 479.553 383.479C476.983 387.897 473.734 387.789 473.734 387.789Z" fill="#009149" stroke="black" stroke-width="0.900004"/>
<path d="M469.123 373.992C469.123 373.992 462.983 370.112 463.84 365.945C463.84 365.945 468.98 366.879 469.123 373.992Z" fill="#009149" stroke="black" stroke-width="0.900004"/>
<path d="M478.979 380.426C478.979 380.426 475.516 378.701 475.624 371.912C475.624 371.912 479.05 371.374 478.979 380.426Z" fill="#009149" stroke="black" stroke-width="0.900004"/>
<path d="M521.559 365.641C521.559 365.641 525.003 360.756 531.392 361.474C528.126 366.378 521.559 365.641 521.559 365.641Z" fill="#009149" stroke="black" stroke-width="0.900004"/>
<path d="M526.703 357.702C526.703 357.702 531.325 355.097 534.716 357.917C530.005 360.917 526.703 357.702 526.703 357.702Z" fill="#009149" stroke="black" stroke-width="0.900004"/>
<path d="M523.524 357.649C523.524 357.649 519.812 355.08 518.562 348.92C518.562 348.92 523.917 349.854 523.524 357.649Z" fill="#009149" stroke="black" stroke-width="0.900004"/>
<path d="M523.023 345.078C523.023 345.078 518.633 348.077 516.938 342.922C516.938 342.922 518.829 340.282 523.023 345.078Z" fill="#009149" stroke="black" stroke-width="0.900004"/>
<path d="M522.972 342.958C522.972 342.958 520.188 341.88 521.134 337.336C521.134 337.336 523.686 337.749 522.972 342.958Z" fill="#009149" stroke="black" stroke-width="0.900004"/>
<path d="M533.824 350.159C533.824 350.159 534.217 344.591 539.625 343.047C539.678 347.016 533.824 350.159 533.824 350.159Z" fill="#009149" stroke="black" stroke-width="0.900004"/>
<path d="M530.772 352.1C530.772 352.1 530.094 347.61 532.575 345.186C534.788 347.79 530.772 352.1 530.772 352.1Z" fill="#009149" stroke="black" stroke-width="0.900004"/>
<path d="M464.039 380.241C464.039 380.241 468.254 376.634 473.403 377.472C469.693 382.933 464.039 380.241 464.039 380.241Z" fill="#009149" stroke="black" stroke-width="0.900004"/>
<path d="M475.019 383.493C475.019 383.493 468.911 384.738 468.785 380.877C474.54 380.395 475.019 383.493 475.019 383.493Z" fill="#009149" stroke="black" stroke-width="0.900004"/>
<path d="M490.925 381.638C490.925 381.638 485.272 381.866 482.672 378.082C482.672 378.082 489.461 377.777 490.925 381.638Z" fill="#009149" stroke="black" stroke-width="0.900004"/>
<path d="M484.411 383.771C484.411 383.771 482.139 381.562 483.275 378.945C483.275 378.945 486.102 380.469 484.411 383.771Z" fill="#009149" stroke="black" stroke-width="0.900004"/>
<path d="M490.944 374.579C490.944 374.579 489.606 368.94 493.039 367.188C493.973 372.623 490.944 374.579 490.944 374.579Z" fill="#009149" stroke="black" stroke-width="0.900004"/>
<path d="M499.351 377.501C499.351 377.501 495.338 376.256 495.312 370.211C495.312 370.211 499.149 370.592 499.351 377.501Z" fill="#009149" stroke="black" stroke-width="0.900004"/>
<path d="M495.414 382.476C495.414 382.476 492.486 376.025 495.187 373.154C498.241 378.666 495.414 382.476 495.414 382.476Z" fill="#009149" stroke="black" stroke-width="0.900004"/>
<path d="M500.841 367.849C500.841 367.849 493.471 367.824 493.168 364.75C493.168 364.75 499.251 362.566 500.841 367.849Z" fill="#009149" stroke="black" stroke-width="0.900004"/>
<path d="M501.496 359.211C501.496 359.211 495.741 359.643 493.621 354.868C493.621 354.868 498.568 353.877 501.496 359.211Z" fill="#009149" stroke="black" stroke-width="0.900004"/>
<path d="M489.18 365.372C489.18 365.372 484.309 364.077 484.309 359.403C484.309 359.403 486.126 358.514 489.18 365.372Z" fill="#009149" stroke="black" stroke-width="0.900004"/>
<path d="M489.1 353.826C489.1 353.826 487.535 348.923 492.028 345.012C492.356 351.286 489.1 353.826 489.1 353.826Z" fill="#009149" stroke="black" stroke-width="0.900004"/>
<path d="M487.411 341.135C487.411 341.135 481.126 336.411 485.619 329.781C485.665 329.773 487.213 332.032 487.411 341.135Z" fill="#009149" stroke="black" stroke-width="0.900004"/>
<path d="M488.817 342.304C488.817 342.304 486.521 337.503 490.155 334.1C491.417 339.053 488.817 342.304 488.817 342.304Z" fill="#009149" stroke="black" stroke-width="0.900004"/>
<path d="M494.657 332.313C494.657 332.313 487.59 332.085 486.605 327.741C486.605 327.741 492.259 326.624 494.657 332.313Z" fill="#009149" stroke="black" stroke-width="0.900004"/>
<path d="M493.645 328.986C493.645 328.986 491.323 326.42 490.742 320.908C490.742 320.908 496.118 323.778 493.645 328.986Z" fill="#009149" stroke="black" stroke-width="0.900004"/>
<path d="M502.025 342.698C502.025 342.698 498.24 339.142 501.924 334.494C501.924 334.494 504.903 338.126 502.025 342.698Z" fill="#009149" stroke="black" stroke-width="0.900004"/>
<path d="M498.061 338.536C498.061 338.536 491.7 339.959 490.59 335.336C490.59 335.336 494.048 334.32 498.061 338.536Z" fill="#009149" stroke="black" stroke-width="0.900004"/>
<path d="M501.245 342.702C501.245 342.702 494.203 342.626 493.824 339.882C493.824 339.882 497.56 337.495 501.245 342.702Z" fill="#009149" stroke="black" stroke-width="0.900004"/>
<path d="M504.428 347.326C504.428 347.326 497.159 349.789 495.266 343.211C495.266 343.211 499.178 342.626 504.428 347.326Z" fill="#009149" stroke="black" stroke-width="0.900004"/>
<path d="M489.617 365.874C489.617 365.874 491.116 362.444 494.436 360.594C494.222 365.874 489.617 365.874 489.617 365.874Z" fill="#009149" stroke="black" stroke-width="0.900004"/>
<path d="M482.975 366.432C482.975 366.432 480.048 362.409 481.511 357.057C481.511 357.057 484.581 360.559 482.975 366.432Z" fill="#009149" stroke="black" stroke-width="0.900004"/>
<path d="M478.528 364.764C478.528 364.764 474.316 368.607 469.551 364.907C469.551 364.907 472.977 363.093 478.528 364.764Z" fill="#009149" stroke="black" stroke-width="0.900004"/>
<path d="M479.115 363.898C479.115 363.898 476.296 362.928 478.116 359.246C478.116 359.246 479.49 360.198 479.115 363.898Z" fill="#009149" stroke="black" stroke-width="0.900004"/>
<path d="M475.94 360.757C475.94 360.757 472.103 355.71 475.03 351.148C475.03 351.148 478.386 356.231 475.94 360.757Z" fill="#009149" stroke="black" stroke-width="0.900004"/>
<path d="M485.619 351.451C485.619 351.451 480.658 353.139 481.318 356.516C481.318 356.516 484.709 356.732 485.619 351.451Z" fill="#009149" stroke="black" stroke-width="0.900004"/>
<path d="M470.965 343.21C470.965 343.21 472.553 348.365 479.514 345.563C474.356 342.187 470.965 343.21 470.965 343.21Z" fill="#009149" stroke="black" stroke-width="0.900004"/>
<path d="M480.921 344.468C480.921 344.468 475.442 339.259 479.315 333.602C479.315 333.602 481.403 337.391 480.921 344.468Z" fill="#009149" stroke="black" stroke-width="0.900004"/>
<path d="M475.802 337.498C475.802 337.498 470.823 332.11 472.661 328.41C472.661 328.41 477.177 332.11 475.802 337.498Z" fill="#009149" stroke="black" stroke-width="0.900004"/>
<path d="M476.136 339.329C476.136 339.329 473.441 343.604 470.586 340.012C470.586 340.012 472.032 337.605 476.136 339.329Z" fill="#009149" stroke="black" stroke-width="0.900004"/>
<path d="M458.988 357.04C458.988 357.04 463.272 361.369 470.303 357.633C465.253 355.89 458.988 357.04 458.988 357.04Z" fill="#009149" stroke="black" stroke-width="0.900004"/>
<path d="M469.125 355.909C469.125 355.909 467.573 349.371 469.661 347.09C469.661 347.09 472.284 351.329 469.125 355.909Z" fill="#009149" stroke="black" stroke-width="0.900004"/>
<path d="M464.983 352.26C464.983 352.26 459.897 350.123 460.129 343.998C460.129 343.998 464.983 346.297 464.983 352.26Z" fill="#009149" stroke="black" stroke-width="0.900004"/>
<path d="M511.292 361.673C511.292 361.673 507.481 360.327 511.343 357.838C511.898 358.371 511.292 361.673 511.292 361.673Z" fill="#009149" stroke="black" stroke-width="0.900004"/>
<path d="M513.763 358.855C513.763 358.855 512.451 353.013 516.287 350.574C517.644 353.641 514.409 359.504 513.763 358.855Z" fill="#009149" stroke="black" stroke-width="0.900004"/>
<path d="M508.188 356.136C508.188 356.136 508.995 349.964 515.658 346.891C515.886 353.215 508.188 356.136 508.188 356.136Z" fill="#009149" stroke="black" stroke-width="0.900004"/>
<path d="M505.839 356.949C505.839 356.949 499.403 354.358 499.125 352.834C499.125 352.834 506.192 351.666 505.839 356.949Z" fill="#009149" stroke="black" stroke-width="0.900004"/>
<path d="M505.858 347.475C505.858 347.475 503.233 344.808 505.378 340.643C505.378 340.643 507.524 342.929 505.858 347.475Z" fill="#009149" stroke="black" stroke-width="0.900004"/>
<path d="M510.43 349.81C510.43 349.81 505.357 345.467 508.79 340.082C508.79 340.082 510.228 341.733 510.43 349.81Z" fill="#009149" stroke="black" stroke-width="0.900004"/>
<path d="M511.469 343.21C511.469 343.21 513.715 337.52 518.132 336.047C517.753 341.838 511.469 343.21 511.469 343.21Z" fill="#009149" stroke="black" stroke-width="0.900004"/>
<path d="M506.571 332.338C506.571 332.338 505.41 325.657 508.792 323.041C511.165 331.144 506.571 332.338 506.571 332.338Z" fill="#009149" stroke="black" stroke-width="0.900004"/>
<path d="M505.814 332.083C505.814 332.083 501.019 328.629 503.139 323.193C503.139 323.193 507.429 325.479 505.814 332.083Z" fill="#009149" stroke="black" stroke-width="0.900004"/>
<path d="M499.199 329.416C499.199 329.416 500.537 333.835 505.004 331.676C502.733 327.942 499.199 329.416 499.199 329.416Z" fill="#009149" stroke="black" stroke-width="0.900004"/>
<path d="M512.906 331.092C512.906 331.092 513.966 327.409 521.664 326.164C518.636 331.574 512.906 331.092 512.906 331.092Z" fill="#009149" stroke="black" stroke-width="0.900004"/>
<path d="M515.407 325.564C515.407 325.564 513.514 319.772 516.947 317.385C520.43 322.82 515.407 325.564 515.407 325.564Z" fill="#009149" stroke="black" stroke-width="0.900004"/>
<path d="M514.183 389.889C511.305 391.757 508.857 395.343 507.742 400.094C504.606 413.45 505.664 435.048 507.904 444.593C508.639 447.725 512.449 448.985 515.649 449.932C519.624 451.064 522.297 454.963 522.514 455.19C526.905 461.133 528.066 460.422 528.066 460.422C524.836 460.879 520.444 456.663 520.444 456.663C520.797 459.305 519.687 460.575 519.687 460.575C516.305 450.414 505.957 451.888 505.957 451.888C519.081 465.553 517.138 466.95 517.138 466.95C511.736 461.641 509.44 460.194 509.44 460.194C508.455 460.651 507.692 463.731 507.692 463.731C508.104 459.098 504.073 454.145 498.404 449.862C497.311 453.994 493.266 460.063 493.272 460.067L492.201 457.409C483.278 463.157 486.776 469.407 486.776 469.407C486.776 469.407 486.144 467.28 486.144 464.08C486.402 461.548 487.399 456.851 493.16 448.89C493.16 448.89 491.242 448.179 485.386 454.453C485.386 454.453 486.396 452.066 485.437 450.313C485.437 450.313 478.37 451.812 470.52 462.378C470.52 462.378 470.167 455.799 484.099 448.738C484.099 448.738 495.406 445.03 495.306 431.974C495.306 431.974 496.063 402.763 493.589 395.55C493.589 395.55 491.52 390.825 485.967 387.168C485.967 387.168 480.061 383.713 478.446 380.868C478.446 380.868 475.366 377.312 473.902 376.195C473.902 376.195 482.08 382.646 483.342 382.9C483.342 382.9 485.866 383.104 488.138 386.304C488.138 386.304 492.63 390.571 496.416 391.029C496.416 391.029 495.306 385.694 493.488 383.358C493.488 383.358 491.065 381.681 490.207 377.516C490.207 377.516 488.238 372.08 485.967 369.946C485.967 369.946 489.147 368.067 492.832 378.735C492.832 378.735 496.87 384.983 500.051 386.863C500.051 386.863 498.183 369.896 503.382 367.406C503.382 367.406 501.767 378.582 504.846 384.831C504.846 384.831 507.32 379.598 509.591 377.617L519.031 368.575C519.031 368.575 511.762 376.296 509.238 382.646L507.521 387.066C507.521 387.066 507.118 389.809 511.055 389.251C511.183 389.064 513.109 389.52 517.466 383.866C518.858 382.207 519.706 383.122 522.716 384.018C522.716 384.018 525.088 385.136 530.691 383.104C515.207 387.739 514.271 390.095 514.183 389.889Z" fill="#FABB00" stroke="black" stroke-width="0.900004"/>
<path d="M513.527 388.077C513.527 388.077 514.634 386.245 514.384 384.449" stroke="black" stroke-width="0.900004"/>
<path d="M530.012 383.304L537.008 381.221" stroke="black" stroke-width="0.900004"/>
<path d="M520.283 382.37C519.652 384.045 522.877 376.779 532.445 374.783C533.295 374.461 537.079 375.039 541.119 369.934" stroke="black" stroke-width="0.900004"/>
<path d="M536.293 374.041L538.827 375.19" stroke="black" stroke-width="0.900004"/>
<path d="M461.234 384.732C461.234 384.732 464.304 383.439 469.944 383.726L480.902 383.547" stroke="black" stroke-width="0.900004"/>
<path d="M468.344 386.028L470.271 383.801" stroke="black" stroke-width="0.900004"/>
<path d="M459.773 371.479C459.773 371.479 463.985 373.957 469.161 374.604C469.281 374.649 473.364 374.708 477.049 378.807" stroke="black" stroke-width="0.900004"/>
<path d="M471.945 375.323L473.659 372.377" stroke="black" stroke-width="0.900004"/>
<path d="M464.023 376.473L467.2 374.246" stroke="black" stroke-width="0.900004"/>
<path d="M487.973 386.388L489.329 384.125" stroke="black" stroke-width="0.900004"/>
<path d="M464.91 352.297L486.184 370.006" stroke="black" stroke-width="0.900004"/>
<path d="M471.836 358.007L471.801 355.312" stroke="black" stroke-width="0.900004"/>
<path d="M461.098 353.338L466.38 353.553" stroke="black" stroke-width="0.900004"/>
<path d="M469.59 361.673L476.05 361.457" stroke="black" stroke-width="0.900004"/>
<path d="M479.266 368.212L483.799 367.996" stroke="black" stroke-width="0.900004"/>
<path d="M484.723 374.603L488.221 373.453" stroke="black" stroke-width="0.900004"/>
<path d="M489.364 371.659L488.543 340.73" stroke="black" stroke-width="0.900004"/>
<path d="M488.867 353.304C488.867 353.304 478.48 345.796 475.91 337.678" stroke="black" stroke-width="0.900004"/>
<path d="M483.012 348.166L484.011 343.604" stroke="black" stroke-width="0.900004"/>
<path d="M479.012 351.148L482.831 348.311" stroke="black" stroke-width="0.900004"/>
<path d="M489.254 358.943L495.036 356.32" stroke="black" stroke-width="0.900004"/>
<path d="M503.036 367.594C503.036 367.594 506.872 357.231 506.57 352.303C506.57 352.303 506.721 349.713 501.976 343.21L493.395 329.85" stroke="black" stroke-width="0.900004"/>
<path d="M495.668 333.048L496.173 329.746" stroke="black" stroke-width="0.900004"/>
<path d="M503.035 349.811L506.266 350.928" stroke="black" stroke-width="0.900004"/>
<path d="M505.309 331.879L511.013 338.839" stroke="black" stroke-width="0.900004"/>
<path d="M510.73 349.728L510.962 337.876C510.962 337.876 511.871 331.018 515.354 325.633" stroke="black" stroke-width="0.900004"/>
<path d="M513.687 328.374L512.375 325.732" stroke="black" stroke-width="0.900004"/>
<path d="M511.012 337.11L513.839 335.637" stroke="black" stroke-width="0.900004"/>
<path d="M517.172 370.588C517.172 370.588 521.866 366.168 523.28 359.717" stroke="black" stroke-width="0.900004"/>
<path d="M519.441 359.566L522.773 361.497" stroke="black" stroke-width="0.900004"/>
<path d="M518.957 368.887L522.44 369.928" stroke="black" stroke-width="0.900004"/>
<path d="M522.82 343.006C522.82 343.006 525.723 348.975 522.896 360.862" stroke="black" stroke-width="0.900004"/>
<path d="M522.875 360.684L533.677 349.914" stroke="black" stroke-width="0.900004"/>
<path d="M531.805 352.049L534.783 353.573" stroke="black" stroke-width="0.900004"/>
<path d="M524.098 347.879L527.065 346.154" stroke="black" stroke-width="0.900004"/>
<path d="M503.07 367.778C503.07 367.778 507.711 367.275 514.064 358.834" stroke="black" stroke-width="0.900004"/>
<path d="M501.799 368.253C501.799 368.253 498.997 362.259 502.051 359.363" stroke="black" stroke-width="0.900004"/>
<path fill-rule="evenodd" clip-rule="evenodd" d="M386.508 227.619H620.034V279.242H386.508V227.619Z" fill="#FABB00" stroke="black" stroke-width="0.900004"/>
<path d="M429 253.021C429 258.409 424.652 262.777 419.287 262.777C413.923 262.777 409.574 258.409 409.574 253.021C409.574 247.633 413.923 243.266 419.287 243.266C424.652 243.266 429 247.633 429 253.021Z" fill="#009149" stroke="black" stroke-width="0.900065"/>
<path d="M462.594 253.021C462.594 258.409 458.245 262.777 452.881 262.777C447.517 262.777 443.168 258.409 443.168 253.021C443.168 247.633 447.517 243.266 452.881 243.266C458.245 243.266 462.594 247.633 462.594 253.021Z" fill="#009149" stroke="black" stroke-width="0.900065"/>
<path d="M496.188 253.021C496.188 258.409 491.839 262.777 486.475 262.777C481.11 262.777 476.762 258.409 476.762 253.021C476.762 247.633 481.11 243.266 486.475 243.266C491.839 243.266 496.188 247.633 496.188 253.021Z" fill="#009149" stroke="black" stroke-width="0.900065"/>
<path d="M529.774 253.021C529.774 258.409 525.425 262.777 520.061 262.777C514.696 262.777 510.348 258.409 510.348 253.021C510.348 247.633 514.696 243.266 520.061 243.266C525.425 243.266 529.774 247.633 529.774 253.021Z" fill="#009149" stroke="black" stroke-width="0.900065"/>
<path d="M563.368 253.021C563.368 258.409 559.019 262.777 553.655 262.777C548.29 262.777 543.941 258.409 543.941 253.021C543.941 247.633 548.29 243.266 553.655 243.266C559.019 243.266 563.368 247.633 563.368 253.021Z" fill="#009149" stroke="black" stroke-width="0.900065"/>
<path d="M596.961 253.021C596.961 258.409 592.613 262.777 587.248 262.777C581.884 262.777 577.535 258.409 577.535 253.021C577.535 247.633 581.884 243.266 587.248 243.266C592.613 243.266 596.961 247.633 596.961 253.021Z" fill="#009149" stroke="black" stroke-width="0.900065"/>
<path d="M419.23 185.586L414.575 161.386C414.575 161.386 411.843 160.471 411.944 157.116C411.944 157.116 411.919 152.49 422.949 148.016C422.949 148.016 466.856 132.556 510.076 135C510.076 135 563.651 137.445 586.836 149.811C586.836 149.811 595.059 154.116 594.705 159.404C594.705 159.404 595.262 163.318 590.809 165.911L587.925 185.586C531.694 185.868 475.462 185.652 419.23 185.586Z" fill="#FABB00" stroke="black" stroke-width="0.900004"/>
<path d="M466.459 160.013C466.697 163.01 462.504 165.789 457.092 166.22C451.68 166.65 447.1 164.569 446.862 161.572C446.623 158.574 450.817 155.795 456.228 155.365C461.64 154.934 466.22 157.015 466.459 160.013Z" fill="#FABB00" stroke="black" stroke-width="0.965017"/>
<path d="M464.723 160.267C464.914 162.434 461.56 164.501 457.231 164.882C452.903 165.262 449.239 163.814 449.049 161.646C448.858 159.478 452.212 157.412 456.541 157.031C460.869 156.65 464.533 158.099 464.723 160.267Z" fill="#009149" stroke="black" stroke-width="0.943148"/>
<path fill-rule="evenodd" clip-rule="evenodd" d="M438.555 159.035C438.555 160.159 437.648 161.07 436.529 161.07C435.411 161.07 434.504 160.159 434.504 159.035C434.504 157.911 435.411 157 436.529 157C437.648 157 438.555 157.911 438.555 159.035Z" fill="#FABB00" stroke="black" stroke-width="0.904729"/>
<path fill-rule="evenodd" clip-rule="evenodd" d="M440.594 170.808C440.594 171.932 439.687 172.843 438.568 172.843C437.45 172.843 436.543 171.932 436.543 170.808C436.543 169.685 437.45 168.773 438.568 168.773C439.687 168.773 440.594 169.685 440.594 170.808Z" fill="#FABB00" stroke="black" stroke-width="0.904729"/>
<path fill-rule="evenodd" clip-rule="evenodd" d="M477.035 164.558C477.035 165.682 476.128 166.593 475.01 166.593C473.891 166.593 472.984 165.682 472.984 164.558C472.984 163.435 473.891 162.523 475.01 162.523C476.128 162.523 477.035 163.435 477.035 164.558Z" fill="#FABB00" stroke="black" stroke-width="0.904729"/>
<path fill-rule="evenodd" clip-rule="evenodd" d="M475.402 151.133C475.402 152.257 474.495 153.168 473.377 153.168C472.258 153.168 471.352 152.257 471.352 151.133C471.352 150.009 472.258 149.098 473.377 149.098C474.495 149.098 475.402 150.009 475.402 151.133Z" fill="#FABB00" stroke="black" stroke-width="0.904729"/>
<path d="M411.801 174.247L418.092 179.168L429.716 166.577L416.256 166.234L411.801 174.247Z" fill="#FABB00" stroke="black" stroke-width="0.900004"/>
<path d="M411.828 174.221L416.882 178.174L426.221 168.058L415.407 167.783L411.828 174.221Z" fill="#E2001A" stroke="black" stroke-width="0.900004"/>
<path d="M539.94 160.013C539.701 163.01 543.895 165.789 549.306 166.22C554.718 166.65 559.298 164.569 559.537 161.572C559.775 158.574 555.582 155.795 550.17 155.365C544.759 154.934 540.178 157.015 539.94 160.013Z" fill="#FABB00" stroke="black" stroke-width="0.965017"/>
<path d="M541.683 160.267C541.492 162.434 544.846 164.501 549.175 164.882C553.503 165.262 557.167 163.814 557.358 161.646C557.548 159.478 554.194 157.412 549.866 157.031C545.537 156.65 541.874 158.099 541.683 160.267Z" fill="#009149" stroke="black" stroke-width="0.943148"/>
<path fill-rule="evenodd" clip-rule="evenodd" d="M567.844 159.035C567.844 160.159 568.751 161.07 569.869 161.07C570.988 161.07 571.895 160.159 571.895 159.035C571.895 157.911 570.988 157 569.869 157C568.751 157 567.844 157.911 567.844 159.035Z" fill="#FABB00" stroke="black" stroke-width="0.904729"/>
<path fill-rule="evenodd" clip-rule="evenodd" d="M565.801 170.808C565.801 171.932 566.708 172.843 567.826 172.843C568.945 172.843 569.852 171.932 569.852 170.808C569.852 169.685 568.945 168.773 567.826 168.773C566.708 168.773 565.801 169.685 565.801 170.808Z" fill="#FABB00" stroke="black" stroke-width="0.904729"/>
<path fill-rule="evenodd" clip-rule="evenodd" d="M529.363 164.558C529.363 165.682 530.27 166.593 531.389 166.593C532.507 166.593 533.414 165.682 533.414 164.558C533.414 163.435 532.507 162.523 531.389 162.523C530.27 162.523 529.363 163.435 529.363 164.558Z" fill="#FABB00" stroke="black" stroke-width="0.904729"/>
<path fill-rule="evenodd" clip-rule="evenodd" d="M531 151.133C531 152.257 531.907 153.168 533.025 153.168C534.144 153.168 535.051 152.257 535.051 151.133C535.051 150.009 534.144 149.098 533.025 149.098C531.907 149.098 531 150.009 531 151.133Z" fill="#FABB00" stroke="black" stroke-width="0.904729"/>
<path d="M594.599 174.247L588.308 179.168L576.684 166.577L590.144 166.234L594.599 174.247Z" fill="#FABB00" stroke="black" stroke-width="0.900004"/>
<path d="M594.569 174.221L589.514 178.174L580.176 168.058L590.99 167.783L594.569 174.221Z" fill="#E2001A" stroke="black" stroke-width="0.900004"/>
<path d="M485.242 156.139L502.653 164.976L519.194 156.814L502.031 146.014L485.242 156.139Z" fill="#FABB00" stroke="black" stroke-width="0.900004"/>
<path d="M488.379 156.025L502.546 163.346L516.006 156.584L502.04 147.637L488.379 156.025Z" fill="#008AC9" stroke="black" stroke-width="0.900004"/>
<path d="M414.59 161.216C414.59 151.184 532.871 122.065 594.644 162.03" stroke="black" stroke-width="0.900004"/>
<path d="M415.082 164.007C415.082 153.975 531.717 123.839 593.491 163.804" stroke="black" stroke-width="0.900004"/>
<path d="M418.531 181.647C423.943 175.908 511.224 152.457 588.561 181.597" stroke="black" stroke-width="0.900004"/>
<path fill-rule="evenodd" clip-rule="evenodd" d="M589.72 187.829C577.526 197.479 531.104 202.443 503.76 202.616C458.387 202.903 412.244 194.138 415.737 185.537C418.062 179.814 474.711 169.655 503.76 169.879C551.452 170.245 595.641 183.143 589.72 187.829Z" fill="#FABB00" stroke="black" stroke-width="0.900004"/>
<path fill-rule="evenodd" clip-rule="evenodd" d="M581.593 187.887C570.699 194.78 528.202 199.456 503.773 199.58C463.236 199.785 423.034 193.421 426.155 187.277C428.232 183.189 477.82 176.034 503.773 176.194C546.381 176.456 586.883 184.539 581.593 187.887Z" fill="white" stroke="black" stroke-width="0.900004"/>
<path fill-rule="evenodd" clip-rule="evenodd" d="M505.189 153.555C505.189 154.62 504.349 155.483 503.312 155.483C502.274 155.483 501.434 154.62 501.434 153.555C501.434 152.49 502.274 151.627 503.312 151.627C504.349 151.627 505.189 152.49 505.189 153.555Z" fill="#FABB00"/>
<path d="M499.133 151.279V150.891C499.694 150.939 500.412 150.963 501.286 150.963L503.863 150.937C504.82 150.937 505.518 151.141 505.957 151.548C506.397 151.961 506.616 152.52 506.616 153.226C506.616 154.047 506.321 154.734 505.729 155.289C505.137 155.844 504.324 156.121 503.289 156.121C502.889 156.121 502.911 156.09 502.363 155.976C502.358 156.66 502.356 157.149 502.356 157.443C502.356 158.557 502.378 159.204 502.421 159.384C502.439 159.459 502.48 159.516 502.545 159.555C502.667 159.625 502.58 159.685 503.276 159.786C503.337 159.795 503.424 159.813 503.537 159.839V160.227C502.71 160.179 501.938 160.155 501.221 160.155C500.542 160.155 499.846 160.179 499.133 160.227V159.839C499.303 159.795 499.429 159.767 499.511 159.753C500.085 159.635 500.405 159.549 500.47 159.497C500.579 159.4 500.633 159.144 500.633 158.727L500.653 155.542L500.646 152.358V152.213C500.646 151.932 500.604 151.752 500.519 151.673C500.434 151.595 500.081 151.489 499.459 151.358C499.389 151.34 499.281 151.314 499.133 151.279ZM502.369 155.423C502.83 155.529 502.73 155.556 503.061 155.556C503.774 155.556 503.971 155.367 504.36 154.99C504.749 154.613 504.944 154.11 504.944 153.483C504.944 152.873 504.765 152.397 504.406 152.055C504.047 151.713 503.852 151.542 503.113 151.542C502.787 151.542 502.889 151.603 502.428 151.673C502.393 152.998 502.374 154.248 502.369 155.423Z" fill="#FABB00" stroke="black" stroke-width="0.900008"/>
</svg>
