<svg width="871" height="580" viewBox="0 0 871 580" fill="none" xmlns="http://www.w3.org/2000/svg">
<path d="M871 0H0V579.861H871V0Z" fill="#0063E7"/>
<path d="M466.727 432.557H422.715V440.288H466.727V432.557Z" fill="#C8C9CA" stroke="black"/>
<path d="M519.295 496.36L507.227 433.25H523.072L535.141 496.36H519.295Z" fill="#BAB8BE" stroke="black"/>
<path d="M513.878 494.416H496.333L490.184 440.289H503.526L513.878 494.416Z" fill="#BAB8BE"/>
<path fill-rule="evenodd" clip-rule="evenodd" d="M513.878 494.416H496.333L490.184 440.289H503.526L513.878 494.416Z" stroke="black"/>
<path d="M519.297 496.36L513.879 494.414L503.527 440.287L507.229 433.25L519.297 496.36Z" fill="#F2EFEC" stroke="black"/>
<path d="M461.25 496.36L456.996 494.414V440.287L461.25 433.25V496.36Z" fill="#F2EFEC"/>
<path fill-rule="evenodd" clip-rule="evenodd" d="M461.25 496.36L456.996 494.414V440.287L461.25 433.25V496.36Z" stroke="black"/>
<path d="M496.553 496.36L489.381 433.25H461.246V496.36H496.553Z" fill="#BAB8BE" stroke="black"/>
<path d="M375.57 494.414H393.112L399.265 440.287H385.922L375.57 494.414Z" fill="#BAB8BE"/>
<path fill-rule="evenodd" clip-rule="evenodd" d="M375.57 494.414H393.112L399.265 440.287H385.922L375.57 494.414Z" stroke="black"/>
<path d="M370.152 496.36L375.57 494.414L385.922 440.287L382.221 433.25L370.152 496.36Z" fill="#57605F" stroke="black"/>
<path d="M370.15 496.36L382.218 433.25H366.369L354.301 496.36H370.15Z" fill="#BAB8BE" stroke="black"/>
<path d="M428.199 496.36L432.45 494.414V440.287L428.199 433.25V496.36Z" fill="#57605F"/>
<path fill-rule="evenodd" clip-rule="evenodd" d="M428.199 496.36L432.45 494.414V440.287L428.199 433.25V496.36Z" stroke="black"/>
<path d="M392.887 496.36L400.059 433.25H428.197V496.36H392.887Z" fill="#BAB8BE" stroke="black"/>
<path d="M456.997 440.289H432.453V494.42H456.997V440.289Z" fill="#C8C9CA" stroke="black"/>
<path d="M492.071 456.984H461.246" stroke="black"/>
<path d="M492.969 464.875H461.246" stroke="black"/>
<path d="M493.863 472.764H461.246" stroke="black"/>
<path d="M494.76 480.654H461.242" stroke="black"/>
<path d="M495.658 488.539H461.242" stroke="black"/>
<path d="M488.461 496.36V488.471" stroke="black"/>
<path d="M469.141 496.36V488.471" stroke="black"/>
<path d="M471.473 488.472V480.586" stroke="black"/>
<path d="M483.199 488.472V480.586" stroke="black"/>
<path d="M480.941 480.585V472.695" stroke="black"/>
<path d="M469.215 480.585V472.695" stroke="black"/>
<path d="M471.773 472.696V464.807" stroke="black"/>
<path d="M485.602 464.806V456.916" stroke="black"/>
<path d="M521.48 464.806V456.916" stroke="black"/>
<path d="M517.863 472.696V464.807" stroke="black"/>
<path d="M527.094 480.585V472.695" stroke="black"/>
<path d="M522.734 488.472V480.586" stroke="black"/>
<path d="M527.246 496.36V488.471" stroke="black"/>
<path d="M527.599 456.984H511.75" stroke="black"/>
<path d="M529.107 464.875H513.258" stroke="black"/>
<path d="M530.619 472.764H514.77" stroke="black"/>
<path d="M532.123 480.654H516.273" stroke="black"/>
<path d="M533.631 488.539H517.785" stroke="black"/>
<path d="M490.275 441.209H461.246" stroke="black"/>
<path d="M491.173 449.1H461.246" stroke="black"/>
<path d="M473.426 456.917V449.031" stroke="black"/>
<path d="M482.973 456.917V449.031" stroke="black"/>
<path d="M486.027 449.03V441.141" stroke="black"/>
<path d="M477.078 449.03V441.141" stroke="black"/>
<path d="M481.188 441.14V433.25" stroke="black"/>
<path d="M514.777 441.14V433.25" stroke="black"/>
<path d="M519.035 449.03V441.141" stroke="black"/>
<path d="M522.117 456.917V449.031" stroke="black"/>
<path d="M508.734 441.209H524.58" stroke="black"/>
<path d="M526.085 449.1H510.242" stroke="black"/>
<path d="M495.449 486.752H512.397" stroke="black"/>
<path d="M494.57 479.02H510.913" stroke="black"/>
<path d="M493.699 471.285H509.441" stroke="black"/>
<path d="M492.816 463.553H507.961" stroke="black"/>
<path d="M491.938 455.82H506.478" stroke="black"/>
<path d="M491.062 448.092H505.006" stroke="black"/>
<path d="M502.238 494.415V486.684" stroke="black"/>
<path d="M505.16 486.683V478.951" stroke="black"/>
<path d="M497.559 478.952V471.217" stroke="black"/>
<path d="M500.301 471.216V463.484" stroke="black"/>
<path d="M495.168 463.483V455.752" stroke="black"/>
<path d="M496.555 455.755V448.023" stroke="black"/>
<path d="M500.375 448.022V440.287" stroke="black"/>
<path d="M397.367 456.984H428.196" stroke="black"/>
<path d="M396.473 464.875H428.195" stroke="black"/>
<path d="M395.574 472.764H428.195" stroke="black"/>
<path d="M394.68 480.654H428.195" stroke="black"/>
<path d="M393.785 488.539H428.198" stroke="black"/>
<path d="M401.117 496.36V488.471" stroke="black"/>
<path d="M420.438 496.36V488.471" stroke="black"/>
<path d="M418.105 488.472V480.586" stroke="black"/>
<path d="M406.379 488.472V480.586" stroke="black"/>
<path d="M408.629 480.585V472.695" stroke="black"/>
<path d="M420.355 480.585V472.695" stroke="black"/>
<path d="M417.801 472.696V464.807" stroke="black"/>
<path d="M403.973 464.806V456.916" stroke="black"/>
<path d="M368.102 464.806V456.916" stroke="black"/>
<path d="M371.711 472.696V464.807" stroke="black"/>
<path d="M362.48 480.585V472.695" stroke="black"/>
<path d="M366.84 488.472V480.586" stroke="black"/>
<path d="M362.328 496.36V488.471" stroke="black"/>
<path d="M361.844 456.984H377.69" stroke="black"/>
<path d="M360.332 464.875H376.178" stroke="black"/>
<path d="M358.828 472.764H374.674" stroke="black"/>
<path d="M357.316 480.654H373.162" stroke="black"/>
<path d="M355.809 488.539H371.654" stroke="black"/>
<path d="M399.164 441.209H428.197" stroke="black"/>
<path d="M398.262 449.1H428.192" stroke="black"/>
<path d="M416.148 456.917V449.031" stroke="black"/>
<path d="M406.602 456.917V449.031" stroke="black"/>
<path d="M403.555 449.03V441.141" stroke="black"/>
<path d="M412.5 449.03V441.141" stroke="black"/>
<path d="M408.387 441.14V433.25" stroke="black"/>
<path d="M374.797 441.14V433.25" stroke="black"/>
<path d="M370.539 449.03V441.141" stroke="black"/>
<path d="M367.461 456.917V449.031" stroke="black"/>
<path d="M380.709 441.209H364.859" stroke="black"/>
<path d="M363.352 449.1H379.197" stroke="black"/>
<path d="M393.987 486.752H377.043" stroke="black"/>
<path d="M394.863 479.02H378.52" stroke="black"/>
<path d="M395.739 471.285H380" stroke="black"/>
<path d="M396.618 463.553H381.477" stroke="black"/>
<path d="M397.505 455.82H382.961" stroke="black"/>
<path d="M398.381 448.092H384.438" stroke="black"/>
<path d="M387.34 494.415V486.684" stroke="black"/>
<path d="M384.414 486.683V478.951" stroke="black"/>
<path d="M392.016 478.952V471.217" stroke="black"/>
<path d="M389.277 471.216V463.484" stroke="black"/>
<path d="M394.406 463.483V455.752" stroke="black"/>
<path d="M393.023 455.755V448.023" stroke="black"/>
<path d="M389.199 448.022V440.287" stroke="black"/>
<path d="M432.445 486.752H456.989" stroke="black"/>
<path d="M432.445 479.021H456.989" stroke="black"/>
<path d="M432.445 471.285H456.989" stroke="black"/>
<path d="M432.445 463.555H456.989" stroke="black"/>
<path d="M432.445 455.824H456.989" stroke="black"/>
<path d="M432.445 448.092H456.989" stroke="black"/>
<path d="M438.023 494.573V486.684" stroke="black"/>
<path d="M449.82 494.573V486.684" stroke="black"/>
<path d="M445.164 486.843V478.953" stroke="black"/>
<path d="M437.797 479.106V471.217" stroke="black"/>
<path d="M450.047 479.106V471.217" stroke="black"/>
<path d="M442.457 471.376V463.486" stroke="black"/>
<path d="M438.246 463.642V455.756" stroke="black"/>
<path d="M447.422 463.642V455.756" stroke="black"/>
<path d="M442.457 455.91V448.023" stroke="black"/>
<path d="M450.273 455.91V448.023" stroke="black"/>
<path d="M446.215 448.022V440.133" stroke="black"/>
<path d="M440.262 440.446V432.557" stroke="black"/>
<path d="M449.633 440.446V432.557" stroke="black"/>
<path d="M444.202 426.738C443.608 426.532 442.962 426.473 442.344 426.58C441.619 426.7 440.935 427.044 440.404 427.543C440.006 426.336 440.124 424.967 440.725 423.842C441.381 422.621 442.596 421.713 443.96 421.428L449.392 423.997L444.202 426.738Z" fill="#FFCE00" stroke="#1B1918"/>
<path d="M478.88 426.418C479.737 426.253 480.652 426.432 481.384 426.903C482.016 427.309 482.506 427.928 482.755 428.637C483 429.345 483.003 430.136 482.762 430.845C483.425 429.132 483.753 427.288 483.728 425.452C483.718 424.516 483.611 423.57 483.273 422.697C482.938 421.823 482.358 421.022 481.546 420.544C480.89 420.155 480.103 419.994 479.347 420.097C478.59 420.197 477.872 420.561 477.344 421.108L473.148 425.266L478.88 426.418Z" fill="#FFCE00" stroke="#1B1918"/>
<path d="M465.945 442.032C466.916 442.39 467.758 443.081 468.29 443.965C468.784 444.78 469.015 445.75 468.936 446.699C470.23 446.403 471.38 445.53 472.009 444.367C472.713 443.064 472.741 441.427 472.088 440.099L466.933 437.406L465.945 442.032Z" fill="#FFCE00" stroke="#1B1918"/>
<path d="M443.96 439.857C443.352 440.366 442.855 440.999 442.503 441.711C441.971 442.798 441.799 444.06 442.02 445.25C442.886 445.315 443.767 445.236 444.606 445.009C445.604 444.741 446.543 444.273 447.354 443.641L448.435 438.922L443.96 439.857Z" fill="#FFCE00" stroke="#1B1918"/>
<path d="M433.371 431.911C434.12 431.959 434.845 432.289 435.37 432.822C435.864 433.321 436.178 433.998 436.237 434.697C436.302 435.395 436.112 436.114 435.712 436.691C436.43 436.612 437.124 436.351 437.711 435.935C438.298 435.519 438.778 434.948 439.085 434.301C439.676 433.066 439.624 431.577 439.085 430.318C438.667 429.338 437.967 428.478 437.086 427.87L431.641 427.701L433.371 431.911Z" fill="#FFCE00" stroke="#1B1918"/>
<path d="M426.225 442.156C426.567 442.572 426.857 443.033 427.081 443.522C427.482 444.392 427.682 445.355 427.655 446.311C428.345 446.142 428.991 445.792 429.509 445.303C430.027 444.822 430.417 444.199 430.628 443.522C430.859 442.768 430.873 441.964 430.769 441.183C430.662 440.34 430.417 439.512 430.054 438.741L424.25 437.18L426.225 442.156Z" fill="#FFCE00" stroke="#1B1918"/>
<path d="M402.79 442.044C401.965 442.199 401.157 442.447 400.391 442.784C399.165 443.317 398.036 444.073 397.076 445.002C396.896 443.664 397.055 442.282 397.532 441.019C397.894 440.056 398.44 439.166 399.13 438.402L402.884 436.861L405.808 437.604L402.79 442.044Z" fill="#FFCE00" stroke="#1B1918"/>
<path d="M403.219 427.542C402.511 427.308 401.741 427.263 401.016 427.415C400.211 427.583 399.459 427.992 398.885 428.574C398.309 429.158 397.912 429.912 397.756 430.716C397.235 428.725 397.666 426.507 398.899 424.852C400.032 423.339 401.817 422.318 403.702 422.111L409.99 425.578L403.215 427.542H403.219Z" fill="#FFCE00" stroke="#1B1918"/>
<path d="M462.597 398.457C462.89 400.93 463.101 403.406 463.225 405.893C463.315 407.664 463.36 409.452 463.035 411.196C462.51 414.009 461.036 416.572 459.265 418.821C458.747 419.474 458.201 420.114 457.562 420.65C456.923 421.187 456.185 421.627 455.377 421.837C454.482 422.071 453.533 422.019 452.635 421.806C451.133 421.452 449.769 420.668 448.291 420.245C447.593 420.045 446.861 419.928 446.15 420.045C445.273 420.186 444.465 420.699 443.961 421.428C444.386 421.94 444.693 422.552 444.852 423.199C445.142 424.399 444.904 425.72 444.203 426.738C445.207 427.385 446.34 427.825 447.518 428.028C449.196 428.317 450.957 428.121 452.528 427.464C452.704 428.523 452.604 429.624 452.238 430.635C451.872 431.642 451.24 432.557 450.428 433.259C449.013 434.48 447.1 435.037 445.739 436.32C444.755 437.241 444.113 438.521 443.961 439.859C444.579 440.038 445.159 440.337 445.66 440.743C446.547 441.465 447.162 442.514 447.355 443.642C448.899 443.03 450.346 442.184 451.64 441.145C453.053 440.014 454.268 438.662 455.439 437.283C456.965 435.487 458.419 433.634 459.803 431.732C460.484 432.825 461.157 433.926 461.827 435.03C463.225 437.348 464.6 439.683 465.946 442.032C466.544 441.248 467.348 440.629 468.26 440.254C469.465 439.756 470.849 439.701 472.089 440.1C471.906 439.04 471.478 438.022 470.856 437.142C470.079 436.055 469.026 435.199 468.211 434.143C467.317 432.987 466.727 431.601 466.516 430.157C466.305 428.712 466.471 427.216 466.999 425.854C468.657 425.947 470.3 426.301 471.847 426.9C472.7 427.23 473.526 427.636 474.403 427.89C475.28 428.145 476.236 428.241 477.103 427.945C477.862 427.687 478.515 427.127 478.881 426.418C477.897 425.761 477.206 424.685 477.02 423.519C476.892 422.707 477.006 421.858 477.345 421.104C476.264 420.393 474.896 420.128 473.626 420.382C472.831 420.54 472.089 420.888 471.309 421.104C470.919 421.215 470.515 421.29 470.111 421.29C469.707 421.29 469.299 421.211 468.936 421.025C468.584 420.84 468.287 420.558 468.07 420.227C467.849 419.894 467.704 419.519 467.614 419.13C467.441 418.356 467.497 417.548 467.562 416.757C467.804 413.916 468.16 411.079 468.653 408.269C469.268 404.775 470.093 401.318 471.122 397.924L462.597 398.457Z" fill="#FFCE00"/>
<path fill-rule="evenodd" clip-rule="evenodd" d="M462.597 398.457C462.89 400.93 463.101 403.406 463.225 405.893C463.315 407.664 463.36 409.452 463.035 411.196C462.51 414.009 461.036 416.572 459.265 418.821C458.747 419.474 458.201 420.114 457.562 420.65C456.923 421.187 456.185 421.627 455.377 421.837C454.482 422.071 453.533 422.019 452.635 421.806C451.133 421.452 449.769 420.668 448.291 420.245C447.593 420.045 446.861 419.928 446.15 420.045C445.273 420.186 444.465 420.699 443.961 421.428C444.386 421.94 444.693 422.552 444.852 423.199C445.142 424.399 444.904 425.72 444.203 426.738C445.207 427.385 446.34 427.825 447.518 428.028C449.196 428.317 450.957 428.121 452.528 427.464C452.704 428.523 452.604 429.624 452.238 430.635C451.872 431.642 451.24 432.557 450.428 433.259C449.013 434.48 447.1 435.037 445.739 436.32C444.755 437.241 444.113 438.521 443.961 439.859C444.579 440.038 445.159 440.337 445.66 440.743C446.547 441.465 447.162 442.514 447.355 443.642C448.899 443.03 450.346 442.184 451.64 441.145C453.053 440.014 454.268 438.662 455.439 437.283C456.965 435.487 458.419 433.634 459.803 431.732C460.484 432.825 461.157 433.926 461.827 435.03C463.225 437.348 464.6 439.683 465.946 442.032C466.544 441.248 467.348 440.629 468.26 440.254C469.465 439.756 470.849 439.701 472.089 440.1C471.906 439.04 471.478 438.022 470.856 437.142C470.079 436.055 469.026 435.199 468.211 434.143C467.317 432.987 466.727 431.601 466.516 430.157C466.305 428.712 466.471 427.216 466.999 425.854C468.657 425.947 470.3 426.301 471.847 426.9C472.7 427.23 473.526 427.636 474.403 427.89C475.28 428.145 476.236 428.241 477.103 427.945C477.862 427.687 478.515 427.127 478.881 426.418C477.897 425.761 477.206 424.685 477.02 423.519C476.892 422.707 477.006 421.858 477.345 421.104C476.264 420.393 474.896 420.128 473.626 420.382C472.831 420.54 472.089 420.888 471.309 421.104C470.919 421.215 470.515 421.29 470.111 421.29C469.707 421.29 469.299 421.211 468.936 421.025C468.584 420.84 468.287 420.558 468.07 420.227C467.849 419.894 467.704 419.519 467.614 419.13C467.441 418.356 467.497 417.548 467.562 416.757C467.804 413.916 468.16 411.079 468.653 408.269C469.268 404.775 470.093 401.318 471.122 397.924L462.597 398.457Z" stroke="#1B1918" stroke-width="1.5"/>
<path d="M441.715 394.406C437.792 399.187 433.849 403.947 429.881 408.693C426.894 412.266 423.887 415.836 420.517 419.055C419.474 420.049 418.393 421.016 417.136 421.721C415.879 422.429 414.433 422.863 413 422.718C411.321 422.546 409.837 421.614 408.269 420.985C407.789 420.792 407.292 420.624 406.777 420.552C406.263 420.476 405.731 420.493 405.241 420.665C404.554 420.902 403.98 421.442 403.704 422.113C404.491 422.643 405.013 423.544 405.075 424.486C405.12 425.122 404.961 425.765 404.633 426.309C404.301 426.852 403.801 427.289 403.217 427.544C403.317 428.403 403.842 429.201 404.592 429.638C405.237 430.013 406.007 430.12 406.753 430.082C407.499 430.04 408.228 429.868 408.956 429.721C410.147 429.476 411.353 429.298 412.561 429.181C411.387 430.212 410.313 431.358 409.364 432.596C408.939 433.146 408.535 433.72 408.051 434.226C407.571 434.728 406.998 435.168 406.332 435.382C405.838 435.547 405.313 435.578 404.792 435.55C404.274 435.526 403.763 435.44 403.245 435.371C402.734 435.303 402.212 435.251 401.694 435.285C401.177 435.323 400.655 435.45 400.217 435.726C399.778 435.997 399.433 436.41 399.236 436.888C399.043 437.363 399.008 437.903 399.129 438.401C399.93 438.305 400.759 438.511 401.418 438.969C401.902 439.309 402.292 439.78 402.53 440.317C402.772 440.857 402.862 441.459 402.789 442.043C403.573 442.497 404.533 442.645 405.417 442.439C406.225 442.257 406.946 441.799 407.578 441.263C408.21 440.73 408.766 440.111 409.364 439.54C411.214 437.768 413.452 436.458 415.593 435.041C416.798 434.243 417.982 433.407 419.136 432.541C420.458 433.972 421.428 435.726 421.936 437.603C422.126 438.298 422.254 439.013 422.482 439.701C422.709 440.386 423.055 441.053 423.593 441.531C424.298 442.15 425.316 442.394 426.225 442.157C426.387 441.418 426.746 440.726 427.254 440.166C427.972 439.371 428.987 438.855 430.054 438.742C430.099 438.136 429.981 437.521 429.709 436.977C429.388 436.321 428.863 435.791 428.338 435.275C427.816 434.766 427.274 434.254 426.908 433.621C426.307 432.579 426.238 431.244 426.739 430.147C427.202 429.858 427.754 429.71 428.3 429.731C428.845 429.752 429.384 429.941 429.826 430.261C430.192 430.532 430.482 430.887 430.796 431.217C431.107 431.55 431.456 431.867 431.881 432.025C432.361 432.204 432.92 432.162 433.369 431.911C433.434 431.165 433.693 430.433 434.111 429.807C434.788 428.799 435.886 428.084 437.084 427.87C437.209 427.279 437.057 426.639 436.684 426.164C436.463 425.882 436.173 425.662 435.852 425.501C435.53 425.342 435.182 425.246 434.826 425.191C434.118 425.084 433.4 425.15 432.682 425.198C431.919 425.25 431.135 425.274 430.403 425.057C430.033 424.947 429.684 424.775 429.388 424.531C429.094 424.287 428.859 423.967 428.738 423.606C428.576 423.114 428.631 422.574 428.794 422.082C428.959 421.597 429.222 421.147 429.484 420.699C431.615 417.054 433.631 413.322 436.169 409.945C438.162 407.297 440.485 404.889 443.103 402.85C445.724 400.814 448.635 399.187 451.535 397.567C451.652 397.502 451.77 397.436 451.887 397.367C453.966 396.205 456.021 395.005 458.054 393.77L451.994 383.604L441.715 394.406Z" fill="#FFCE00" stroke="#1B1918" stroke-width="1.5"/>
<path d="M347.381 283.592C346.666 283.609 345.959 283.829 345.361 284.225C344.767 284.62 344.287 285.188 344.001 285.838C343.766 286.367 343.655 286.945 343.462 287.492C343.365 287.764 343.245 288.032 343.082 288.273C342.92 288.51 342.709 288.723 342.457 288.871C342.05 289.109 341.559 289.153 341.086 289.17C340.613 289.184 340.126 289.174 339.678 289.318C339.073 289.514 338.597 289.962 338.131 290.388C337.665 290.818 337.171 291.255 336.56 291.416C336.204 291.509 335.824 291.502 335.465 291.42C335.106 291.341 334.767 291.182 334.46 290.983C333.842 290.584 333.352 290.02 332.879 289.459C332.198 288.655 331.532 287.833 330.883 287C331.853 286.134 333.117 285.597 334.415 285.501C335.499 285.422 336.604 285.645 337.575 286.137C338.196 285.484 338.877 284.882 339.602 284.342C340.979 283.32 342.519 282.519 344.149 281.982L347.381 283.592Z" fill="#FFCE00"/>
<path fill-rule="evenodd" clip-rule="evenodd" d="M347.381 283.592C346.666 283.609 345.959 283.829 345.361 284.225C344.767 284.62 344.287 285.188 344.001 285.838C343.766 286.367 343.655 286.945 343.462 287.492C343.365 287.764 343.245 288.032 343.082 288.273C342.92 288.51 342.709 288.723 342.457 288.871C342.05 289.109 341.559 289.153 341.086 289.17C340.613 289.184 340.126 289.174 339.678 289.318C339.073 289.514 338.597 289.962 338.131 290.388C337.665 290.818 337.171 291.255 336.56 291.416C336.204 291.509 335.824 291.502 335.465 291.42C335.106 291.341 334.767 291.182 334.46 290.983C333.842 290.584 333.352 290.02 332.879 289.459C332.198 288.655 331.532 287.833 330.883 287C331.853 286.134 333.117 285.597 334.415 285.501C335.499 285.422 336.604 285.645 337.575 286.137C338.196 285.484 338.877 284.882 339.602 284.342C340.979 283.32 342.519 282.519 344.149 281.982L347.381 283.592Z" stroke="#1B1918"/>
<path d="M356.431 294.244C356.797 295.427 357.723 296.428 358.88 296.892C359.798 297.257 360.824 297.288 361.804 297.174C362.788 297.057 363.752 296.806 364.726 296.624C369.505 295.737 374.622 296.617 378.755 299.165C381.355 300.768 383.613 303.1 384.549 305.996C385.053 307.561 385.157 309.225 385.126 310.866C385.095 312.51 384.933 314.147 384.922 315.791C384.908 317.621 385.091 319.457 385.454 321.249L390.45 317.958C390.647 319.65 390.92 321.332 391.269 322.996C391.604 324.578 392.008 326.157 392.709 327.615C393.966 330.246 396.131 332.396 397.218 335.102C397.919 336.856 398.151 338.796 399.059 340.454C399.677 341.585 400.606 342.548 401.718 343.212L404.214 340.512C407.149 343.546 409.646 346.995 411.604 350.73C413.648 354.63 415.105 358.84 415.909 363.17C420.885 362.424 426.078 363.136 430.664 365.199C433.565 366.499 436.268 368.377 438.109 370.964C439.687 373.185 440.564 375.84 441.089 378.516C441.517 380.721 441.71 383.056 440.926 385.161C440.467 386.389 439.697 387.475 438.858 388.483C438.375 389.061 437.857 389.635 437.587 390.337C437.449 390.688 437.384 391.069 437.418 391.444C437.46 391.816 437.612 392.184 437.881 392.449C438.06 392.627 438.281 392.758 438.516 392.851C438.748 392.951 438.993 393.016 439.234 393.081C439.48 393.147 439.725 393.216 439.956 393.312C440.187 393.412 440.412 393.542 440.588 393.721C440.774 393.914 440.906 394.158 440.995 394.409C441.082 394.663 441.134 394.925 441.178 395.19C441.265 395.719 441.337 396.273 441.638 396.717C441.921 397.133 442.39 397.411 442.884 397.508C443.381 397.608 443.903 397.535 444.376 397.356C445.322 397.002 446.054 396.249 446.748 395.52C447.68 394.547 448.606 393.573 449.531 392.6C448.948 393.546 448.623 394.643 448.599 395.75C448.575 396.861 448.851 397.976 449.39 398.942C449.928 399.915 450.733 400.737 451.689 401.301C452.646 401.865 453.754 402.175 454.866 402.182C456.565 402.192 458.254 401.49 459.438 400.28C461.088 402.299 463.167 403.97 465.498 405.15C467.359 406.092 469.379 406.722 471.451 407.004C472.528 405.528 473.278 403.819 473.63 402.027C473.989 400.177 473.923 398.24 473.433 396.418C474.275 396.18 475.194 396.215 476.012 396.524C476.831 396.834 477.545 397.405 478.019 398.141C478.405 398.736 478.626 399.42 478.806 400.101C478.985 400.785 479.13 401.484 479.372 402.147C479.7 403.045 480.218 403.881 480.874 404.579C482.67 402.966 483.989 400.834 484.634 398.515C485.08 396.913 485.208 395.224 485.007 393.573L490.798 400.012C492.621 397.91 493.56 395.069 493.353 392.301C493.174 389.904 492.179 387.637 490.953 385.563C490.515 384.82 490.042 384.081 489.814 383.252C489.7 382.836 489.652 382.399 489.71 381.973C489.766 381.546 489.931 381.127 490.211 380.8C490.529 380.425 490.985 380.181 491.461 380.074C491.941 379.971 492.445 379.998 492.922 380.112C494.141 380.397 495.208 381.261 495.739 382.385C496.672 381.03 496.879 379.204 496.271 377.677C495.864 376.656 495.114 375.775 494.172 375.208C494.886 372.996 496.385 371.05 498.343 369.787C499.593 368.983 501.015 368.456 502.49 368.253C505.335 373.378 507.994 378.606 510.463 383.923C511.703 386.598 512.901 389.315 513.571 392.187C513.85 393.384 514.04 394.602 514.444 395.761C514.845 396.92 515.494 398.034 516.502 398.739C517.255 399.262 518.173 399.527 519.088 399.554C520.004 399.585 520.919 399.382 521.765 399.038C522.811 398.615 523.764 397.972 524.548 397.167C525.635 398.987 526.923 400.689 528.37 402.237C529.558 403.502 530.867 404.672 532.365 405.552C533.46 406.195 534.658 406.68 535.915 406.873C537.172 407.062 538.487 406.952 539.655 406.45C540.829 405.944 541.833 405.047 542.458 403.932C543.332 404.273 544.288 404.4 545.221 404.304C546.208 404.204 547.168 403.857 547.983 403.299C549.157 404.042 550.525 404.479 551.916 404.555C553.304 404.627 554.713 404.338 555.956 403.723C557.69 402.866 559.095 401.37 559.837 399.592C560.676 399.984 561.626 400.139 562.551 400.039C563.473 399.936 564.364 399.578 565.1 399.011C565.839 398.44 566.415 397.659 566.747 396.786C567.596 397.277 568.58 397.539 569.561 397.539C570.545 397.539 571.529 397.277 572.379 396.786C573.636 396.067 574.592 394.842 574.982 393.453C576.474 393.57 578.007 393.064 579.129 392.074C580.075 391.245 580.725 390.082 580.939 388.844C581.933 388.975 582.969 388.762 583.829 388.246C584.689 387.733 585.369 386.922 585.721 385.99C586.115 384.937 586.097 383.74 585.669 382.705C586.94 382.643 588.193 382.203 589.226 381.453C590.255 380.707 591.059 379.658 591.515 378.468C591.93 377.381 592.047 376.184 591.85 375.039C591.657 373.89 591.149 372.797 590.4 371.906C567.845 363.084 546.16 352.068 525.746 339.071C514.451 331.876 503.543 324.076 493.087 315.712C494.662 315.688 496.23 315.56 497.787 315.337C499.565 315.079 501.326 314.69 503.046 314.178C503.167 312.121 502.749 310.04 501.844 308.187C500.998 306.453 499.731 304.926 498.184 303.774C499.551 303.286 500.984 302.983 502.435 302.873C506.133 302.591 509.838 303.568 513.543 303.351C515.035 303.262 516.537 302.973 517.866 302.292C519.196 301.607 520.342 300.507 520.877 299.114C521.381 297.804 521.302 296.287 520.667 295.038C519.492 294.815 518.287 294.77 517.1 294.901C516.109 295.011 515.128 295.241 514.127 295.248C512.852 295.255 511.582 294.884 510.515 294.189C511.882 293.666 513.312 293.291 514.765 293.078C516.837 292.775 518.94 292.803 521.036 292.813C524.258 292.83 527.583 292.793 530.549 291.544C532.987 290.519 535.072 288.686 536.398 286.409C535.684 285.45 534.796 284.621 533.791 283.974C532.4 283.077 530.784 282.526 529.13 282.396C531.688 282.323 534.237 281.876 536.668 281.082C538.743 280.401 540.749 279.452 542.455 278.097C544.551 276.435 546.157 274.165 547.027 271.638L543.891 270.155C546.402 268.769 548.995 267.531 551.65 266.451C553.031 265.891 554.44 265.364 555.697 264.57C556.958 263.779 558.08 262.675 558.594 261.282C559.05 260.058 558.991 258.651 558.446 257.464C557.13 257.248 555.787 257.2 554.461 257.317C553.328 257.413 552.206 257.633 551.077 257.764C548.698 258.039 546.274 257.912 543.936 257.389C549.578 255.243 555.003 252.529 560.1 249.303C563.363 247.239 566.591 244.853 568.491 241.496C569.45 239.793 570.038 237.881 570.189 235.931L565.234 234.858C565.766 233.479 566.574 232.21 567.596 231.14C568.718 229.968 570.12 229.005 570.877 227.567C571.281 226.8 571.477 225.933 571.439 225.07C571.405 224.207 571.139 223.354 570.673 222.625C569.447 222.635 568.221 222.728 567.013 222.914C565.583 223.13 564.174 223.467 562.803 223.925C566.167 221.345 569.361 218.542 572.351 215.54C574.892 212.984 577.348 210.185 578.511 206.78C578.86 205.762 579.088 204.685 579.012 203.616C578.936 202.539 578.532 201.466 577.762 200.717C577.361 200.321 576.864 200.025 576.329 199.85C573.501 202.601 570.511 205.191 567.389 207.602C563.777 210.391 559.986 212.943 556.039 215.237C560.476 211.134 564.44 206.529 567.841 201.539C569.892 198.522 571.736 195.372 573.798 192.356C574.471 191.372 575.172 190.395 575.728 189.336C576.284 188.277 576.695 187.125 576.747 185.928C576.823 184.201 576.098 182.454 574.82 181.285C573.428 182.468 572.03 183.641 570.621 184.807C568.477 186.581 566.319 188.332 564.14 190.058C567.686 185.694 570.883 181.051 573.708 176.191C575.365 173.337 576.926 170.272 577.002 166.977C577.061 164.522 576.249 162.056 574.744 160.109C574.033 160.611 573.366 161.175 572.752 161.791C571.053 163.487 569.779 165.55 568.394 167.507C564.844 172.528 560.483 176.979 555.528 180.635C561.139 172.504 566.667 164.315 572.113 156.072C573.232 154.379 574.354 152.67 575.169 150.809C575.98 148.949 576.477 146.909 576.284 144.89C576.077 142.724 575.051 140.646 573.456 139.154C572.375 140.392 571.298 141.633 570.227 142.878C565.283 148.629 560.452 154.476 555.742 160.412C558.073 156.752 560.449 153.117 562.866 149.509C564.364 147.274 565.884 145.042 567.064 142.624C568.249 140.21 569.088 137.585 569.136 134.896C569.185 132.103 568.356 129.3 566.788 126.979C565.386 128.403 564.043 129.875 562.759 131.405C559.692 135.051 556.982 138.982 554.029 142.724C551.049 146.497 547.821 150.073 544.368 153.427C548.698 147.336 552.814 141.094 556.705 134.717C558.946 131.044 561.118 127.319 562.924 123.412C564.015 121.056 564.989 118.529 564.779 115.946C564.658 114.477 564.15 113.039 563.318 111.822C562.486 110.604 561.329 109.611 560 108.96C557.244 113.387 554.409 117.765 551.491 122.085C546.336 129.723 540.932 137.197 535.293 144.492C538.936 136.564 542.855 128.764 547.041 121.108C549.658 116.327 552.389 111.571 554.15 106.415C554.938 104.104 555.525 101.711 555.659 99.2755C555.794 96.8405 555.459 94.3539 554.468 92.1219C553.246 89.3739 551.022 87.0799 548.304 85.7695C539.534 103.747 529.841 121.28 519.282 138.277C510.777 151.972 501.609 165.433 489.969 176.607C484.224 182.124 477.932 187.032 471.855 192.18C466.824 196.445 461.81 201.043 459.01 207C456.703 211.915 456.057 217.459 456.14 222.883C456.206 227.14 456.727 231.488 458.626 235.302C459.866 237.806 461.689 240.031 463.961 241.668C465.816 243.006 467.95 243.952 469.693 245.434C470.722 246.314 471.624 247.411 471.979 248.718C472.259 249.75 472.186 250.847 471.955 251.893C471.727 252.938 471.347 253.943 471.023 254.964C470.173 257.616 469.666 260.374 469.524 263.153C466.893 261.485 464.673 259.181 463.102 256.498C461.24 253.317 460.315 249.695 459.062 246.228C458.737 245.324 458.385 244.423 457.898 243.594C457.408 242.765 456.779 242.001 455.981 241.462C455.08 240.86 453.982 240.554 452.898 240.615C453.126 238.782 453.212 236.932 453.164 235.085C453.133 233.988 453.053 232.884 452.722 231.842C452.39 230.8 451.783 229.809 450.878 229.19C449.877 228.502 448.54 228.327 447.397 228.733C447.497 227.213 447.421 225.682 447.173 224.179C446.942 222.762 446.544 221.345 445.774 220.131C445.091 219.051 444.12 218.154 442.991 217.552C441.862 216.95 440.571 216.651 439.29 216.689C438.927 215.444 438.565 214.195 438.209 212.943C437.971 212.111 437.736 211.272 437.387 210.474C437.042 209.676 436.579 208.919 435.94 208.324C434.797 207.258 433.109 206.804 431.583 207.158C431.741 205.318 431.023 203.42 429.687 202.14C428.913 201.401 427.95 200.864 426.918 200.596C425.882 200.328 424.78 200.331 423.748 200.603C423.178 198.134 422.038 195.798 420.44 193.828C418.751 191.744 416.552 190.072 414.09 188.999L410.892 195.399C409.483 190.688 407.087 186.275 403.903 182.523C400.077 178.014 395.202 174.527 390.899 170.468C390.057 169.674 389.232 168.852 388.316 168.136C387.398 167.425 386.379 166.816 385.261 166.499C383.544 166.021 381.631 166.286 380.112 167.211C382.011 170.626 384.097 173.938 386.352 177.134C387.985 179.441 389.708 181.691 391.265 184.05C392.415 185.794 393.472 187.596 394.432 189.446C391.845 186.657 389.301 183.833 386.797 180.965C383.738 177.464 380.73 173.89 377.263 170.792C373.928 167.806 370.202 165.289 366.507 162.757C365.886 162.331 365.261 161.904 364.584 161.571C363.907 161.241 363.165 161.007 362.412 160.997C361.4 160.983 360.392 161.392 359.674 162.101C358.956 162.809 358.538 163.81 358.541 164.818C355.824 162.981 353.082 161.182 350.313 159.425C349.519 158.926 348.721 158.424 347.868 158.032C347.015 157.643 346.1 157.365 345.161 157.33C344.084 157.289 342.996 157.581 342.081 158.152L348.776 169.729C345.534 166.09 341.808 162.874 337.723 160.202C334.854 158.324 331.818 156.718 328.963 154.82C327.44 153.805 325.959 152.704 324.308 151.91C322.654 151.119 320.783 150.644 318.977 150.978C317.855 151.181 316.791 151.704 315.942 152.464C317.682 154.421 319.488 156.323 321.352 158.163C324.129 160.911 327.033 163.528 330.057 166.004C325.52 163.146 321.055 160.168 316.674 157.079C314.008 155.201 311.339 153.262 308.331 151.996C306.27 151.133 303.97 150.596 301.791 151.098C300.517 151.391 299.326 152.041 298.39 152.949C301.346 156.092 304.343 159.194 307.371 162.266C310.904 165.846 314.484 169.375 318.11 172.855C313.404 168.773 308.369 165.069 303.065 161.791C299.215 159.411 295.227 157.255 291.156 155.274C289.706 154.569 288.238 153.877 286.677 153.492C285.113 153.103 283.435 153.031 281.909 153.551C279.996 154.204 278.435 155.814 277.852 157.743C280.859 159.848 283.891 161.918 286.947 163.958C295.869 169.911 305.027 175.613 313.031 182.746C321.826 190.591 329.046 199.998 336.328 209.253C345.095 220.386 354.035 231.391 363.389 242.043C368.355 247.69 373.683 253.42 380.675 256.216C384.187 257.619 387.995 258.218 391.776 258.194C393.938 258.176 396.117 257.956 398.171 257.292C399.96 256.711 401.659 255.8 403.52 255.545C404.925 255.353 406.372 255.556 407.712 256.023C409.048 256.495 410.288 257.227 411.407 258.094C413.316 259.569 414.915 261.454 416.006 263.604C418.081 267.696 418.226 272.539 417.36 277.044C417.228 277.708 417.077 278.379 416.797 278.994C416.514 279.613 416.089 280.181 415.509 280.538C414.787 280.982 413.889 281.058 413.05 280.948C412.208 280.838 411.403 280.552 410.588 280.322C409.245 279.94 407.85 279.685 406.61 279.042C405.992 278.719 405.416 278.299 404.974 277.763C404.528 277.226 404.221 276.566 404.159 275.875C404.086 275.073 404.363 274.248 404.898 273.646C405.433 273.044 406.22 272.673 407.028 272.645C406.459 271.352 405.229 270.372 403.841 270.104C402.988 269.942 402.087 270.035 401.289 270.369C400.492 270.709 399.794 271.287 399.321 272.009C398.244 271.338 397.035 270.874 395.785 270.644C393.6 270.238 391.352 270.558 389.131 270.716C388.489 270.761 387.837 270.795 387.198 270.706C386.555 270.62 385.92 270.406 385.413 270.004C384.867 269.574 384.497 268.931 384.397 268.243C385.288 268.229 386.172 267.927 386.88 267.383C387.55 266.867 388.054 266.145 388.306 265.344C388.562 264.539 388.562 263.659 388.306 262.854C387.46 263.229 386.555 263.48 385.637 263.604C384.069 263.81 382.477 263.631 380.903 263.49C379.687 263.383 378.437 263.297 377.257 263.604C376.013 263.923 374.891 264.68 374.128 265.708C371.148 265.275 368.106 265.247 365.119 265.626C363.686 265.805 362.267 266.076 360.834 266.224C358.206 266.492 355.554 266.331 352.923 266.527C351.646 266.623 350.358 266.805 349.18 267.308C347.398 268.068 345.952 269.577 345.275 271.39L356.431 294.244Z" fill="#FFCE00"/>
<path fill-rule="evenodd" clip-rule="evenodd" d="M356.431 294.244C356.797 295.427 357.723 296.428 358.88 296.892C359.798 297.257 360.824 297.288 361.804 297.174C362.788 297.057 363.752 296.806 364.726 296.624C369.505 295.737 374.622 296.617 378.755 299.165C381.355 300.768 383.613 303.1 384.549 305.996C385.053 307.561 385.157 309.225 385.126 310.866C385.095 312.51 384.933 314.147 384.922 315.791C384.908 317.621 385.091 319.457 385.454 321.249L390.45 317.958C390.647 319.65 390.92 321.332 391.269 322.996C391.604 324.578 392.008 326.157 392.709 327.615C393.966 330.246 396.131 332.396 397.218 335.102C397.919 336.856 398.151 338.796 399.059 340.454C399.677 341.585 400.606 342.548 401.718 343.212L404.214 340.512C407.149 343.546 409.646 346.995 411.604 350.73C413.648 354.63 415.105 358.84 415.909 363.17C420.885 362.424 426.078 363.136 430.664 365.199C433.565 366.499 436.268 368.377 438.109 370.964C439.687 373.185 440.564 375.84 441.089 378.516C441.517 380.721 441.71 383.056 440.926 385.161C440.467 386.389 439.697 387.475 438.858 388.483C438.375 389.061 437.857 389.635 437.587 390.337C437.449 390.688 437.384 391.069 437.418 391.444C437.46 391.816 437.612 392.184 437.881 392.449C438.06 392.627 438.281 392.758 438.516 392.851C438.748 392.951 438.993 393.016 439.234 393.081C439.48 393.147 439.725 393.216 439.956 393.312C440.187 393.412 440.412 393.542 440.588 393.721C440.774 393.914 440.906 394.158 440.995 394.409C441.082 394.663 441.134 394.925 441.178 395.19C441.265 395.719 441.337 396.273 441.638 396.717C441.921 397.133 442.39 397.411 442.884 397.508C443.381 397.608 443.903 397.535 444.376 397.356C445.322 397.002 446.054 396.249 446.748 395.52C447.68 394.547 448.606 393.573 449.531 392.6C448.948 393.546 448.623 394.643 448.599 395.75C448.575 396.861 448.851 397.976 449.39 398.942C449.928 399.915 450.733 400.737 451.689 401.301C452.646 401.865 453.754 402.175 454.866 402.182C456.565 402.192 458.254 401.49 459.438 400.28C461.088 402.299 463.167 403.97 465.498 405.15C467.359 406.092 469.379 406.722 471.451 407.004C472.528 405.528 473.278 403.819 473.63 402.027C473.989 400.177 473.923 398.24 473.433 396.418C474.275 396.18 475.194 396.215 476.012 396.524C476.831 396.834 477.545 397.405 478.019 398.141C478.405 398.736 478.626 399.42 478.806 400.101C478.985 400.785 479.13 401.484 479.372 402.147C479.7 403.045 480.218 403.881 480.874 404.579C482.67 402.966 483.989 400.834 484.634 398.515C485.08 396.913 485.208 395.224 485.007 393.573L490.798 400.012C492.621 397.91 493.56 395.069 493.353 392.301C493.174 389.904 492.179 387.637 490.953 385.563C490.515 384.82 490.042 384.081 489.814 383.252C489.7 382.836 489.652 382.399 489.71 381.973C489.766 381.546 489.931 381.127 490.211 380.8C490.529 380.425 490.985 380.181 491.461 380.074C491.941 379.971 492.445 379.998 492.922 380.112C494.141 380.397 495.208 381.261 495.739 382.385C496.672 381.03 496.879 379.204 496.271 377.677C495.864 376.656 495.114 375.775 494.172 375.208C494.886 372.996 496.385 371.05 498.343 369.787C499.593 368.983 501.015 368.456 502.49 368.253C505.335 373.378 507.994 378.606 510.463 383.923C511.703 386.598 512.901 389.315 513.571 392.187C513.85 393.384 514.04 394.602 514.444 395.761C514.845 396.92 515.494 398.034 516.502 398.739C517.255 399.262 518.173 399.527 519.088 399.554C520.004 399.585 520.919 399.382 521.765 399.038C522.811 398.615 523.764 397.972 524.548 397.167C525.635 398.987 526.923 400.689 528.37 402.237C529.558 403.502 530.867 404.672 532.365 405.552C533.46 406.195 534.658 406.68 535.915 406.873C537.172 407.062 538.487 406.952 539.655 406.45C540.829 405.944 541.833 405.047 542.458 403.932C543.332 404.273 544.288 404.4 545.221 404.304C546.208 404.204 547.168 403.857 547.983 403.299C549.157 404.042 550.525 404.479 551.916 404.555C553.304 404.627 554.713 404.338 555.956 403.723C557.69 402.866 559.095 401.37 559.837 399.592C560.676 399.984 561.626 400.139 562.551 400.039C563.473 399.936 564.364 399.578 565.1 399.011C565.839 398.44 566.415 397.659 566.747 396.786C567.596 397.277 568.58 397.539 569.561 397.539C570.545 397.539 571.529 397.277 572.379 396.786C573.636 396.067 574.592 394.842 574.982 393.453C576.474 393.57 578.007 393.064 579.129 392.074C580.075 391.245 580.725 390.082 580.939 388.844C581.933 388.975 582.969 388.762 583.829 388.246C584.689 387.733 585.369 386.922 585.721 385.99C586.115 384.937 586.097 383.74 585.669 382.705C586.94 382.643 588.193 382.203 589.226 381.453C590.255 380.707 591.059 379.658 591.515 378.468C591.93 377.381 592.047 376.184 591.85 375.039C591.657 373.89 591.149 372.797 590.4 371.906C567.845 363.084 546.16 352.068 525.746 339.071C514.451 331.876 503.543 324.076 493.087 315.712C494.662 315.688 496.23 315.56 497.787 315.337C499.565 315.079 501.326 314.69 503.046 314.178C503.167 312.121 502.749 310.04 501.844 308.187C500.998 306.453 499.731 304.926 498.184 303.774C499.551 303.286 500.984 302.983 502.435 302.873C506.133 302.591 509.838 303.568 513.543 303.351C515.035 303.262 516.537 302.973 517.866 302.292C519.196 301.607 520.342 300.507 520.877 299.114C521.381 297.804 521.302 296.287 520.667 295.038C519.492 294.815 518.287 294.77 517.1 294.901C516.109 295.011 515.128 295.241 514.127 295.248C512.852 295.255 511.582 294.884 510.515 294.189C511.882 293.666 513.312 293.291 514.765 293.078C516.837 292.775 518.94 292.803 521.036 292.813C524.258 292.83 527.583 292.793 530.549 291.544C532.987 290.519 535.072 288.686 536.398 286.409C535.684 285.45 534.796 284.621 533.791 283.974C532.4 283.077 530.784 282.526 529.13 282.396C531.688 282.323 534.237 281.876 536.668 281.082C538.743 280.401 540.749 279.452 542.455 278.097C544.551 276.435 546.157 274.165 547.027 271.638L543.891 270.155C546.402 268.769 548.995 267.531 551.65 266.451C553.031 265.891 554.44 265.364 555.697 264.57C556.958 263.779 558.08 262.675 558.594 261.282C559.05 260.058 558.991 258.651 558.446 257.464C557.13 257.248 555.787 257.2 554.461 257.317C553.328 257.413 552.206 257.633 551.077 257.764C548.698 258.039 546.274 257.912 543.936 257.389C549.578 255.243 555.003 252.529 560.1 249.303C563.363 247.239 566.591 244.853 568.491 241.496C569.45 239.793 570.038 237.881 570.189 235.931L565.234 234.858C565.766 233.479 566.574 232.21 567.596 231.14C568.718 229.968 570.12 229.005 570.877 227.567C571.281 226.8 571.477 225.933 571.439 225.07C571.405 224.207 571.139 223.354 570.673 222.625C569.447 222.635 568.221 222.728 567.013 222.914C565.583 223.13 564.174 223.467 562.803 223.925C566.167 221.345 569.361 218.542 572.351 215.54C574.892 212.984 577.348 210.185 578.511 206.78C578.86 205.762 579.088 204.685 579.012 203.616C578.936 202.539 578.532 201.466 577.762 200.717C577.361 200.321 576.864 200.025 576.329 199.85C573.501 202.601 570.511 205.191 567.389 207.602C563.777 210.391 559.986 212.943 556.039 215.237C560.476 211.134 564.44 206.529 567.841 201.539C569.892 198.522 571.736 195.372 573.798 192.356C574.471 191.372 575.172 190.395 575.728 189.336C576.284 188.277 576.695 187.125 576.747 185.928C576.823 184.201 576.098 182.454 574.82 181.285C573.428 182.468 572.03 183.641 570.621 184.807C568.477 186.581 566.319 188.332 564.14 190.058C567.686 185.694 570.883 181.051 573.708 176.191C575.365 173.337 576.926 170.272 577.002 166.977C577.061 164.522 576.249 162.056 574.744 160.109C574.033 160.611 573.366 161.175 572.752 161.791C571.053 163.487 569.779 165.55 568.394 167.507C564.844 172.528 560.483 176.979 555.528 180.635C561.139 172.504 566.667 164.315 572.113 156.072C573.232 154.379 574.354 152.67 575.169 150.809C575.98 148.949 576.477 146.909 576.284 144.89C576.077 142.724 575.051 140.646 573.456 139.154C572.375 140.392 571.298 141.633 570.227 142.878C565.283 148.629 560.452 154.476 555.742 160.412C558.073 156.752 560.449 153.117 562.866 149.509C564.364 147.274 565.884 145.042 567.064 142.624C568.249 140.21 569.088 137.585 569.136 134.896C569.185 132.103 568.356 129.3 566.788 126.979C565.386 128.403 564.043 129.875 562.759 131.405C559.692 135.051 556.982 138.982 554.029 142.724C551.049 146.497 547.821 150.073 544.368 153.427C548.698 147.336 552.814 141.094 556.705 134.717C558.946 131.044 561.118 127.319 562.924 123.412C564.015 121.056 564.989 118.529 564.779 115.946C564.658 114.477 564.15 113.039 563.318 111.822C562.486 110.604 561.329 109.611 560 108.96C557.244 113.387 554.409 117.765 551.491 122.085C546.336 129.723 540.932 137.197 535.293 144.492C538.936 136.564 542.855 128.764 547.041 121.108C549.658 116.327 552.389 111.571 554.15 106.415C554.938 104.104 555.525 101.711 555.659 99.2755C555.794 96.8405 555.459 94.3539 554.468 92.1219C553.246 89.3739 551.022 87.0799 548.304 85.7695C539.534 103.747 529.841 121.28 519.282 138.277C510.777 151.972 501.609 165.433 489.969 176.607C484.224 182.124 477.932 187.032 471.855 192.18C466.824 196.445 461.81 201.043 459.01 207C456.703 211.915 456.057 217.459 456.14 222.883C456.206 227.14 456.727 231.488 458.626 235.302C459.866 237.806 461.689 240.031 463.961 241.668C465.816 243.006 467.95 243.952 469.693 245.434C470.722 246.314 471.624 247.411 471.979 248.718C472.259 249.75 472.186 250.847 471.955 251.893C471.727 252.938 471.347 253.943 471.023 254.964C470.173 257.616 469.666 260.374 469.524 263.153C466.893 261.485 464.673 259.181 463.102 256.498C461.24 253.317 460.315 249.695 459.062 246.228C458.737 245.324 458.385 244.423 457.898 243.594C457.408 242.765 456.779 242.001 455.981 241.462C455.08 240.86 453.982 240.554 452.898 240.615C453.126 238.782 453.212 236.932 453.164 235.085C453.133 233.988 453.053 232.884 452.722 231.842C452.39 230.8 451.783 229.809 450.878 229.19C449.877 228.502 448.54 228.327 447.397 228.733C447.497 227.213 447.421 225.682 447.173 224.179C446.942 222.762 446.544 221.345 445.774 220.131C445.091 219.051 444.12 218.154 442.991 217.552C441.862 216.95 440.571 216.651 439.29 216.689C438.927 215.444 438.565 214.195 438.209 212.943C437.971 212.111 437.736 211.272 437.387 210.474C437.042 209.676 436.579 208.919 435.94 208.324C434.797 207.258 433.109 206.804 431.583 207.158C431.741 205.318 431.023 203.42 429.687 202.14C428.913 201.401 427.95 200.864 426.918 200.596C425.882 200.328 424.78 200.331 423.748 200.603C423.178 198.134 422.038 195.798 420.44 193.828C418.751 191.744 416.552 190.072 414.09 188.999L410.892 195.399C409.483 190.688 407.087 186.275 403.903 182.523C400.077 178.014 395.202 174.527 390.899 170.468C390.057 169.674 389.232 168.852 388.316 168.136C387.398 167.425 386.379 166.816 385.261 166.499C383.544 166.021 381.631 166.286 380.112 167.211C382.011 170.626 384.097 173.938 386.352 177.134C387.985 179.441 389.708 181.691 391.265 184.05C392.415 185.794 393.472 187.596 394.432 189.446C391.845 186.657 389.301 183.833 386.797 180.965C383.738 177.464 380.73 173.89 377.263 170.792C373.928 167.806 370.202 165.289 366.507 162.757C365.886 162.331 365.261 161.904 364.584 161.571C363.907 161.241 363.165 161.007 362.412 160.997C361.4 160.983 360.392 161.392 359.674 162.101C358.956 162.809 358.538 163.81 358.541 164.818C355.824 162.981 353.082 161.182 350.313 159.425C349.519 158.926 348.721 158.424 347.868 158.032C347.015 157.643 346.1 157.365 345.161 157.33C344.084 157.289 342.996 157.581 342.081 158.152L348.776 169.729C345.534 166.09 341.808 162.874 337.723 160.202C334.854 158.324 331.818 156.718 328.963 154.82C327.44 153.805 325.959 152.704 324.308 151.91C322.654 151.119 320.783 150.644 318.977 150.978C317.855 151.181 316.791 151.704 315.942 152.464C317.682 154.421 319.488 156.323 321.352 158.163C324.129 160.911 327.033 163.528 330.057 166.004C325.52 163.146 321.055 160.168 316.674 157.079C314.008 155.201 311.339 153.262 308.331 151.996C306.27 151.133 303.97 150.596 301.791 151.098C300.517 151.391 299.326 152.041 298.39 152.949C301.346 156.092 304.343 159.194 307.371 162.266C310.904 165.846 314.484 169.375 318.11 172.855C313.404 168.773 308.369 165.069 303.065 161.791C299.215 159.411 295.227 157.255 291.156 155.274C289.706 154.569 288.238 153.877 286.677 153.492C285.113 153.103 283.435 153.031 281.909 153.551C279.996 154.204 278.435 155.814 277.852 157.743C280.859 159.848 283.891 161.918 286.947 163.958C295.869 169.911 305.027 175.613 313.031 182.746C321.826 190.591 329.046 199.998 336.328 209.253C345.095 220.386 354.035 231.391 363.389 242.043C368.355 247.69 373.683 253.42 380.675 256.216C384.187 257.619 387.995 258.218 391.776 258.194C393.938 258.176 396.117 257.956 398.171 257.292C399.96 256.711 401.659 255.8 403.52 255.545C404.925 255.353 406.372 255.556 407.712 256.023C409.048 256.495 410.288 257.227 411.407 258.094C413.316 259.569 414.915 261.454 416.006 263.604C418.081 267.696 418.226 272.539 417.36 277.044C417.228 277.708 417.077 278.379 416.797 278.994C416.514 279.613 416.089 280.181 415.509 280.538C414.787 280.982 413.889 281.058 413.05 280.948C412.208 280.838 411.403 280.552 410.588 280.322C409.245 279.94 407.85 279.685 406.61 279.042C405.992 278.719 405.416 278.299 404.974 277.763C404.528 277.226 404.221 276.566 404.159 275.875C404.086 275.073 404.363 274.248 404.898 273.646C405.433 273.044 406.22 272.673 407.028 272.645C406.459 271.352 405.229 270.372 403.841 270.104C402.988 269.942 402.087 270.035 401.289 270.369C400.492 270.709 399.794 271.287 399.321 272.009C398.244 271.338 397.035 270.874 395.785 270.644C393.6 270.238 391.352 270.558 389.131 270.716C388.489 270.761 387.837 270.795 387.198 270.706C386.555 270.62 385.92 270.406 385.413 270.004C384.867 269.574 384.497 268.931 384.397 268.243C385.288 268.229 386.172 267.927 386.88 267.383C387.55 266.867 388.054 266.145 388.306 265.344C388.562 264.539 388.562 263.659 388.306 262.854C387.46 263.229 386.555 263.48 385.637 263.604C384.069 263.81 382.477 263.631 380.903 263.49C379.687 263.383 378.437 263.297 377.257 263.604C376.013 263.923 374.891 264.68 374.128 265.708C371.148 265.275 368.106 265.247 365.119 265.626C363.686 265.805 362.267 266.076 360.834 266.224C358.206 266.492 355.554 266.331 352.923 266.527C351.646 266.623 350.358 266.805 349.18 267.308C347.398 268.068 345.952 269.577 345.275 271.39L356.431 294.244Z" stroke="#1B1918" stroke-width="1.5"/>
<path d="M351.119 287.046C349.52 287.297 347.98 287.916 346.657 288.845C344.661 290.238 343.17 292.332 342.51 294.667C344.195 295.152 345.998 295.225 347.717 294.881C349.116 294.599 350.456 294.048 351.861 293.821C353.391 293.574 354.979 293.722 356.433 294.244C356.85 293.123 357.531 292.098 358.401 291.28C359.326 290.406 360.469 289.766 361.695 289.426C359.288 287.679 356.899 285.911 354.527 284.116C353.529 283.366 352.531 282.606 351.654 281.722C350.773 280.835 350.01 279.813 349.565 278.651C348.981 277.144 348.943 275.452 348.211 274.011C347.596 272.797 346.495 271.838 345.204 271.39C342.465 270.565 339.409 270.84 336.861 272.137C335.11 273.031 333.605 274.389 332.541 276.037C331.478 277.684 330.863 279.614 330.773 281.571C331.426 282.045 332.217 282.331 333.021 282.382C333.826 282.434 334.648 282.255 335.359 281.87C335.953 281.55 336.461 281.096 336.989 280.676C337.514 280.257 338.083 279.858 338.736 279.686C339.461 279.493 340.259 279.597 340.908 279.971C341.557 280.343 342.047 280.976 342.244 281.694C343.881 281.842 345.483 282.334 346.92 283.125C348.615 284.064 350.072 285.423 351.122 287.043L351.119 287.046Z" fill="#FFCE00" stroke="#1B1918"/>
<path d="M435.583 300.982C445.331 297.839 454.132 291.916 460.686 284.123C465.796 278.018 469.529 270.813 471.767 263.199C473.521 257.173 474.353 250.886 474.225 244.63C474.16 244.606 474.094 244.578 474.028 244.551C469.588 242.625 465.852 239.155 463.631 234.897C462.651 232.957 461.988 230.89 461.542 228.806C461.018 226.409 460.772 223.946 460.866 221.497C461.035 214.884 463.694 208.531 467.554 203.249C470.935 198.63 475.261 194.719 480.185 191.817C480.227 191.789 480.275 191.775 480.327 191.775C480.479 191.775 480.606 191.899 480.606 192.054C480.606 192.15 480.555 192.24 480.472 192.291C475.669 195.242 471.487 199.17 468.255 203.751C464.55 208.992 462.098 215.19 462.04 221.518C462.05 223.86 462.385 226.199 462.982 228.462C463.507 230.429 464.229 232.324 465.213 234.058C467.326 237.91 470.8 240.988 474.843 242.646C475.092 242.752 475.341 242.859 475.593 242.955C475.993 243.113 476.259 243.485 476.263 243.894C476.328 250.597 475.327 257.297 473.314 263.666C470.879 271.436 466.922 278.744 461.587 284.887C454.781 292.756 445.731 298.644 435.807 301.694C435.773 301.705 435.735 301.711 435.697 301.711C435.49 301.711 435.32 301.543 435.32 301.34C435.32 301.175 435.427 301.03 435.583 300.982Z" fill="#FEFC32"/>
<path d="M385.989 284.419L386.082 284.453C388.212 285.653 390.191 287.057 391.979 288.618C392.629 289.124 393.257 289.65 393.861 290.193C396.651 291.882 399.241 293.994 401.51 296.46C401.579 296.549 401.682 296.607 401.8 296.607C401.997 296.607 402.159 296.442 402.159 296.246C402.159 296.167 402.135 296.095 402.086 296.033C400.325 293.106 398.122 290.386 395.539 288.002C394.801 287.524 394.044 287.077 393.274 286.654C390.988 285.557 388.616 284.708 386.216 284.116L386.12 284.078C386.099 284.071 386.078 284.064 386.054 284.064C385.954 284.064 385.871 284.147 385.871 284.247C385.871 284.322 385.916 284.391 385.989 284.419Z" fill="#FEFC32"/>
<path d="M371.714 241.927L371.734 241.968C373.192 245.408 375.695 248.424 378.861 250.508C382.038 252.599 385.868 253.744 389.728 253.724C392.197 253.731 394.614 253.273 396.924 252.83C397.273 252.737 397.615 252.647 397.96 252.561C400.574 251.887 403.133 251.309 405.684 251.409C408.184 251.502 410.681 252.272 412.832 253.634C414.983 254.993 416.786 256.946 417.977 259.244C418.036 259.364 418.16 259.443 418.295 259.443C418.488 259.443 418.647 259.285 418.647 259.096C418.647 259.041 418.637 258.993 418.612 258.945C417.532 256.458 415.767 254.243 413.536 252.609C411.309 250.976 408.623 249.927 405.819 249.628C402.97 249.325 400.128 249.789 397.452 250.291C397.1 250.357 396.745 250.422 396.396 250.491C394.106 251.079 391.91 251.629 389.676 251.76C386.209 251.935 382.67 251.062 379.649 249.263C376.641 247.475 374.155 244.768 372.625 241.573L372.608 241.532C372.529 241.356 372.356 241.246 372.163 241.246C371.893 241.246 371.676 241.466 371.676 241.731C371.676 241.8 371.686 241.869 371.717 241.927H371.714Z" fill="#FEFC32"/>
<path d="M479.61 332.839C480.242 334.493 481.109 336.103 482.193 337.595C482.238 337.63 482.286 337.661 482.331 337.695C483.971 338.882 485.742 339.803 487.569 340.446C487.614 340.474 487.666 340.484 487.711 340.484C487.876 340.484 488.008 340.354 488.008 340.192C488.008 340.085 487.949 339.986 487.856 339.934C486.378 338.768 485.107 337.416 484.075 335.951C484.047 335.91 484.019 335.869 483.992 335.828C482.655 334.882 481.419 333.736 480.332 332.423C480.259 332.295 480.121 332.213 479.972 332.213C479.741 332.213 479.555 332.402 479.555 332.629C479.555 332.701 479.572 332.774 479.61 332.839Z" fill="#FEFC32"/>
<path d="M474.743 337.975C474.549 338.044 474.359 338.123 474.176 338.206C472.277 338.808 470.53 340.28 469.646 342.319C469.598 342.415 469.556 342.519 469.515 342.618C469.318 344.558 469.895 346.432 470.955 347.805C471.055 348.001 471.259 348.121 471.48 348.121C471.804 348.121 472.073 347.853 472.073 347.53C472.073 347.437 472.049 347.34 472.004 347.254C471.611 345.865 471.808 344.438 472.398 343.361C472.401 343.292 472.405 343.227 472.412 343.158C472.567 341.779 473.406 340.352 474.753 339.451C474.901 339.382 475.053 339.324 475.205 339.268C475.478 339.169 475.661 338.911 475.661 338.622C475.661 338.244 475.347 337.938 474.97 337.938C474.891 337.938 474.815 337.948 474.743 337.975Z" fill="#FEFC32"/>
<path d="M424.076 349.82C426.23 352.647 429.197 354.883 432.56 356.183C434.055 356.806 435.737 357.28 437.159 357.793C437.201 357.81 437.246 357.824 437.287 357.841C438.754 358.216 440.153 358.704 441.334 359.505C443.302 360.909 444.594 363.306 444.652 365.796C444.652 366.078 444.89 366.312 445.174 366.312C445.453 366.312 445.688 366.081 445.692 365.803C445.788 362.996 444.504 360.131 442.249 358.315C440.944 357.225 439.39 356.527 437.871 355.973C437.822 355.963 437.774 355.949 437.725 355.939C436.065 355.516 434.594 355.275 433.061 354.807C429.901 353.748 427.021 351.791 424.856 349.205C424.759 349.088 424.618 349.016 424.466 349.016C424.193 349.016 423.969 349.243 423.969 349.514C423.969 349.624 424.007 349.734 424.076 349.82Z" fill="#FEFC32"/>
<path d="M407.801 325.102C407.818 325.126 407.839 325.15 407.859 325.174C408.522 326.045 409.268 326.856 410.09 327.596C410.736 328.184 411.433 328.724 412.169 329.216C412.179 329.315 412.186 329.418 412.196 329.522C412.435 330.932 412.773 332.325 413.208 333.68C414.123 336.748 415.529 339.657 417.352 342.268C417.421 342.371 417.535 342.436 417.659 342.436C417.859 342.436 418.025 342.268 418.025 342.068C418.025 341.992 418.004 341.924 417.966 341.862C416.295 339.244 415.052 336.369 414.292 333.381C413.978 332.046 413.764 330.694 413.643 329.336C413.612 329.136 413.581 328.937 413.553 328.738C413.519 328.493 413.388 328.294 413.198 328.201C412.359 327.785 411.554 327.296 410.794 326.739C409.962 326.124 409.185 325.429 408.481 324.659C408.46 324.638 408.44 324.614 408.422 324.59C408.346 324.5 408.232 324.445 408.115 324.445C407.89 324.445 407.711 324.628 407.711 324.848C407.711 324.941 407.742 325.03 407.801 325.102Z" fill="#FEFC32"/>
<path d="M403.822 317.674C402.666 316.866 401.823 315.662 401.461 314.359C401.226 313.516 401.191 312.632 401.34 311.79C401.36 311.315 401.44 310.84 401.581 310.383C401.896 309.296 402.545 308.278 403.45 307.501C403.557 307.422 403.622 307.294 403.622 307.164C403.622 306.933 403.432 306.744 403.197 306.744C403.111 306.744 403.025 306.772 402.952 306.823C401.806 307.535 400.846 308.598 400.249 309.874C400 310.417 399.82 310.999 399.713 311.594C399.63 312.684 399.782 313.781 400.166 314.785C400.767 316.347 401.909 317.66 403.325 318.462C403.398 318.506 403.484 318.53 403.57 318.53C403.826 318.53 404.037 318.321 404.037 318.066C404.037 317.905 403.957 317.757 403.822 317.674Z" fill="#FEFC32"/>
<path d="M522.748 257.759L522.761 257.742C525.693 253.319 527.716 248.277 528.642 243.022C529.453 238.506 529.453 233.894 529.163 229.361C529.015 227.452 528.818 225.547 528.566 223.648C526.839 212.839 523.424 202.332 518.49 192.626L518.473 192.595C518.4 192.444 518.248 192.348 518.079 192.348C517.841 192.348 517.641 192.544 517.641 192.784C517.641 192.85 517.658 192.912 517.686 192.974L517.699 193.005C522.199 202.817 525.127 213.303 526.387 223.951C526.656 225.805 526.877 227.669 527.043 229.536C527.502 233.963 527.665 238.413 527.054 242.771C526.332 247.837 524.547 252.769 521.839 257.157L521.826 257.174C521.77 257.264 521.739 257.36 521.739 257.467C521.739 257.762 521.988 258.01 522.288 258.01C522.475 258.01 522.647 257.917 522.748 257.759Z" fill="#FEFC32"/>
<path d="M497.229 175.13C497.284 175.174 497.343 175.212 497.398 175.253C499.021 176.584 501.193 177.351 503.423 177.276C503.589 177.269 503.751 177.258 503.917 177.241C506.099 176.684 507.978 175.329 509.152 173.582C509.186 173.541 509.204 173.489 509.204 173.437C509.204 173.31 509.1 173.207 508.972 173.207C508.903 173.207 508.838 173.238 508.793 173.293C507.387 174.713 505.502 175.535 503.648 175.652C503.52 175.687 503.385 175.718 503.254 175.742C501.438 176.113 499.418 175.811 497.702 174.823C497.646 174.786 497.595 174.748 497.543 174.71C497.498 174.676 497.443 174.658 497.387 174.658C497.242 174.658 497.125 174.779 497.125 174.923C497.125 175.006 497.166 175.081 497.229 175.13Z" fill="#FEFC32"/>
<path d="M463.654 413.915L463.613 414.015C462.995 415.319 462.366 416.619 461.727 417.912C461.223 418.93 460.726 419.903 460.07 420.725C459.89 420.99 459.7 421.241 459.486 421.478C458.827 422.228 457.953 422.809 456.98 423.139C456.009 423.47 454.935 423.545 453.903 423.342C453.886 423.339 453.865 423.335 453.848 423.335C453.716 423.335 453.609 423.445 453.609 423.573C453.609 423.679 453.682 423.776 453.789 423.803C454.877 424.12 456.064 424.151 457.197 423.879C458.323 423.607 459.393 423.033 460.253 422.214C460.522 421.953 460.767 421.674 460.992 421.385C461.638 420.395 462.076 419.274 462.47 418.232C462.984 416.88 463.485 415.525 463.975 414.163L464.017 414.067C464.027 414.043 464.034 414.015 464.034 413.991C464.034 413.884 463.941 413.795 463.834 413.795C463.758 413.795 463.685 413.843 463.654 413.915Z" fill="#FEFC32"/>
<path d="M428.559 413.068C427.644 414.898 426.453 416.556 425.058 417.973C424.471 418.564 423.846 419.115 423.194 419.61C422.475 420.384 421.678 421.096 420.811 421.718C418.746 423.135 416.284 424.043 413.718 424.294C413.646 424.301 413.57 424.301 413.497 424.304C413.422 424.308 413.359 424.37 413.359 424.445C413.359 424.525 413.425 424.59 413.501 424.59H413.504C413.58 424.586 413.656 424.583 413.729 424.583C416.357 424.604 419.022 423.954 421.398 422.678C422.42 422.148 423.387 421.512 424.292 420.783C424.889 420.115 425.435 419.41 425.928 418.678C427.106 416.934 427.993 415.032 428.556 413.068H428.559Z" fill="#FEFC32"/>
<path d="M333.592 278.738C334.694 276.912 336.348 275.289 338.413 274.15L338.43 274.143C341.358 273.565 344.331 274.002 346.783 275.213C346.821 275.227 346.855 275.237 346.89 275.251C347.021 275.295 347.111 275.419 347.111 275.56C347.111 275.739 346.962 275.887 346.783 275.887C346.745 275.887 346.71 275.88 346.676 275.87C346.641 275.859 346.607 275.846 346.575 275.835C344.013 275.375 341.434 275.798 339.341 276.881L339.328 276.884C337.46 277.053 335.526 277.744 333.824 278.955C333.796 278.989 333.751 279.003 333.71 279.003C333.62 279.003 333.551 278.934 333.551 278.848C333.551 278.807 333.565 278.769 333.592 278.738Z" fill="#FEFC32"/>
<path d="M355.047 272.441C355.382 273.493 355.634 274.57 355.8 275.66C355.893 276.258 355.958 276.86 356 277.462C356.704 277.376 357.381 277.108 357.954 276.692C358.465 276.317 358.9 275.811 359.108 275.209C359.342 274.535 359.27 273.761 358.914 273.139C358.562 272.52 357.93 272.062 357.229 271.918L355.047 272.441Z" fill="black"/>
<path fill-rule="evenodd" clip-rule="evenodd" d="M355.047 272.441C355.382 273.493 355.634 274.57 355.8 275.66C355.893 276.258 355.958 276.86 356 277.462C356.704 277.376 357.381 277.108 357.954 276.692C358.465 276.317 358.9 275.811 359.108 275.209C359.342 274.535 359.27 273.761 358.914 273.139C358.562 272.52 357.93 272.062 357.229 271.918L355.047 272.441Z" stroke="black"/>
<path d="M371.687 275.555C373.569 275.314 375.323 274.224 376.366 272.646C376.88 271.861 377.229 270.967 377.374 270.042C373.97 270.238 370.551 270.211 367.153 269.963C365.216 269.822 363.238 269.616 361.363 270.118C359.899 270.51 358.579 271.322 357.153 271.837C355.527 272.432 353.763 272.639 352.043 272.436" stroke="black"/>
<path d="M373.988 278.128C375.511 278.93 377.427 278.93 378.95 278.128C379.917 277.619 380.701 276.828 381.581 276.182C382.869 275.236 384.413 274.586 386.015 274.534C387.351 274.493 388.667 274.858 389.931 275.291C391.198 275.728 392.445 276.233 393.757 276.481C394.703 276.66 395.666 276.708 396.619 276.815C397.576 276.925 398.536 277.104 399.395 277.53C400.348 278.001 401.146 278.768 401.65 279.704L394.661 282.548C398.732 284.35 402.476 286.892 405.649 290.011C408.104 292.422 410.221 295.173 411.919 298.162C412.835 299.765 413.646 301.509 413.622 303.352C413.601 304.924 412.938 306.478 411.816 307.586C410.853 305.842 409.167 304.514 407.244 303.985C405.307 303.452 403.214 303.706 401.291 303.139C399.42 302.585 397.855 301.306 396.429 299.978C395.007 298.644 393.636 297.22 391.937 296.257C389.675 294.977 386.899 294.627 384.389 295.304" stroke="black"/>
<path d="M469.528 263.154C468.782 265.851 467.746 268.465 466.444 270.941C462.273 278.882 455.522 285.159 448.489 290.751C445.681 292.983 442.736 295.174 439.311 296.254C436.586 297.11 433.627 297.224 430.844 296.574" stroke="black"/>
<path d="M449.819 289.69C444.601 288.972 439.453 287.764 434.46 286.089C428.369 284.047 422.509 281.309 417.043 277.945" stroke="black"/>
<path d="M405.758 290.063C407.771 289.093 410.171 288.935 412.294 289.64C414.118 290.242 415.727 291.439 417.609 291.81C419.007 292.085 420.499 291.872 421.762 291.215C423.026 290.555 424.055 289.458 424.625 288.158C422.715 287.167 420.885 286.036 419.152 284.77C417.536 283.59 416.01 282.297 414.58 280.904" stroke="black"/>
<path d="M406.387 310.771C405.986 313.454 406.498 316.261 407.817 318.63C409.595 321.832 412.851 324.174 416.459 324.845C416.352 327.156 416.556 329.481 417.064 331.734C417.906 335.486 419.581 339.018 421.722 342.217C424.17 345.879 427.233 349.13 430.741 351.798" stroke="black"/>
<path d="M428.185 336.301C428.133 337.752 428.475 339.214 429.162 340.493C429.901 341.869 431.016 343.007 432.246 343.97C433.475 344.933 434.825 345.731 436.154 346.56C438.464 347.994 440.723 349.518 442.919 351.124" stroke="black"/>
<path d="M447.129 355.691C448.296 357.373 449.028 359.351 449.235 361.38C449.449 363.54 449.073 365.754 448.151 367.718C447.232 369.682 445.772 371.391 443.973 372.612C444.069 370.05 443.32 367.464 441.866 365.349C440.309 363.086 438.023 361.421 435.644 360.042C433.262 358.666 430.741 357.531 428.41 356.066C425.44 354.199 422.809 351.805 420.672 349.029" stroke="black"/>
<path d="M416.687 346.779C415.42 345.466 414.274 344.035 413.272 342.511C412.395 341.18 411.625 339.777 410.973 338.322" stroke="black"/>
<path d="M407.354 338.078C406.774 336.434 406.38 334.725 406.184 332.995C406.032 331.661 405.997 330.312 406.077 328.975" stroke="black"/>
<path d="M402.254 333.381C401.601 330.898 400.745 328.466 399.699 326.117C398.787 324.078 397.73 322.1 396.539 320.205C398.214 319.95 399.958 320.188 401.504 320.879C402.754 321.436 403.866 322.293 404.736 323.348" stroke="black"/>
<path d="M390.453 317.958C391.886 316.665 393.033 315.069 393.799 313.302C394.707 311.214 395.077 308.896 394.863 306.633" stroke="black"/>
<path d="M452.531 372.275C451.036 374.545 450.014 377.121 449.554 379.794C449.175 381.995 449.175 384.261 449.554 386.462" stroke="black"/>
<path d="M453.914 381.168C455.136 382.475 456.024 384.095 456.462 385.828C457.118 388.414 456.787 391.173 457.419 393.769C457.802 395.331 458.534 396.806 459.546 398.055" stroke="black"/>
<path d="M467.347 397.768C462.143 392.898 459.056 385.861 459.001 378.749C458.963 373.752 460.372 368.789 462.758 364.39C464.387 361.381 466.473 358.615 468.925 356.215" stroke="black"/>
<path d="M469.077 372.912C468.725 374.535 468.511 376.193 468.438 377.854C468.383 379.02 468.397 380.193 468.597 381.342C468.797 382.49 469.184 383.619 469.83 384.592C470.821 386.081 472.426 387.158 474.191 387.508" stroke="black"/>
<path d="M471.453 365.393C473.577 370.008 476.767 374.132 480.7 377.358C481.315 377.863 481.95 378.348 482.496 378.923C483.038 379.5 483.497 380.185 483.677 380.959C483.901 381.915 483.663 382.964 483.055 383.734C482.444 384.505 481.474 384.976 480.49 384.983" stroke="black"/>
<path d="M480.203 347.529C481.681 349.063 482.741 350.989 483.249 353.049C483.639 354.642 483.701 356.293 483.863 357.923C484.029 359.556 484.309 361.211 485.089 362.652C485.738 363.855 486.705 364.86 487.758 365.74C488.808 366.617 489.948 367.384 491.032 368.216C492.648 369.465 494.139 370.868 495.479 372.405" stroke="black"/>
<path d="M451.641 348.055L459.382 356.887C460.432 356.044 461.288 354.961 461.865 353.743C462.338 352.736 462.621 351.635 462.69 350.524" stroke="black"/>
<path d="M430.844 326.855C432.48 330.322 434.908 333.421 437.884 335.846C441.403 338.704 445.764 340.63 450.298 340.829C455.66 341.066 460.954 338.858 465.066 335.423C467.888 333.063 470.222 330.13 471.876 326.855" stroke="black"/>
<path d="M439.836 321.623C440.475 324.271 442.436 326.569 444.953 327.628C447.471 328.684 450.488 328.481 452.84 327.092C454.432 326.149 455.709 324.694 456.431 322.995C457.156 321.3 457.322 319.374 456.901 317.582" stroke="black"/>
<path d="M460.277 313.016C461.724 313.762 463.254 314.333 464.835 314.718C465.657 314.921 466.507 315.073 467.353 315.042C468.202 315.011 469.058 314.784 469.749 314.288C470.585 313.687 471.113 312.724 471.334 311.719C471.551 310.715 471.489 309.669 471.317 308.655C471.106 307.396 470.73 306.168 470.198 305.006" stroke="black"/>
<path d="M473.586 302.984C475.029 303.569 476.576 303.899 478.134 303.957C479.107 303.995 480.102 303.923 481.027 303.613C481.949 303.304 482.809 302.74 483.358 301.938C483.962 301.051 484.152 299.933 484.059 298.867C483.959 297.804 483.596 296.779 483.171 295.796C482.457 294.159 481.562 292.597 480.502 291.156" stroke="black"/>
<path d="M483.359 288.987C484.796 289.898 486.443 290.483 488.135 290.679C489.015 290.779 489.917 290.779 490.776 290.569C491.64 290.359 492.458 289.936 493.055 289.286C493.832 288.437 494.181 287.254 494.15 286.105C494.122 284.956 493.743 283.838 493.218 282.817C492.537 281.503 491.612 280.31 490.5 279.326" stroke="black"/>
<path d="M489.742 274.761C491.282 276.147 493.199 277.113 495.229 277.53C496.078 277.705 496.956 277.784 497.812 277.65C498.665 277.519 499.504 277.162 500.118 276.556C500.592 276.085 500.92 275.48 501.089 274.837C501.261 274.194 501.272 273.513 501.165 272.856C500.947 271.542 500.26 270.345 499.442 269.293C498.095 267.573 496.362 266.156 494.404 265.176" stroke="black"/>
<path d="M495.371 263.223C497.16 263.632 499.017 263.742 500.844 263.539C501.576 263.46 502.308 263.33 502.988 263.051C503.669 262.772 504.301 262.339 504.725 261.741C505.06 261.266 505.254 260.695 505.316 260.117C505.374 259.539 505.298 258.948 505.126 258.394C504.78 257.283 504.055 256.324 503.234 255.491C501.234 253.466 498.575 252.093 495.761 251.626C497.422 251.375 499.024 250.756 500.423 249.83C501.69 248.988 502.823 247.836 503.278 246.384C503.696 245.05 503.496 243.564 502.881 242.309C502.267 241.05 501.262 240.011 500.122 239.196C498.613 238.127 496.842 237.425 495.008 237.177C497.926 235.764 500.385 233.435 501.959 230.612C502.778 229.14 503.368 227.506 503.385 225.828C503.396 224.985 503.258 224.139 502.95 223.355C502.647 222.574 502.167 221.852 501.535 221.295C500.827 220.665 499.936 220.249 499.007 220.057C498.078 219.864 497.111 219.888 496.179 220.07C494.318 220.438 492.636 221.432 491.117 222.564C489.649 223.661 488.292 224.906 487.077 226.271C488.786 224.621 490.033 222.502 490.64 220.208C490.927 219.125 491.072 217.993 490.948 216.879C490.82 215.765 490.409 214.667 489.674 213.818C488.676 212.666 487.143 212.05 485.616 211.968C484.094 211.885 482.571 212.294 481.179 212.92C478.683 214.041 476.518 215.881 475.016 218.162" stroke="black"/>
<path d="M424.801 307.627C425.933 310.43 427.401 313.102 429.162 315.561C429.652 316.246 430.174 316.92 430.83 317.449C431.489 317.975 432.304 318.344 433.147 318.33C434.058 318.316 434.928 317.855 435.564 317.205C436.206 316.555 436.638 315.733 436.98 314.887C437.988 312.387 438.223 309.584 437.646 306.949" stroke="black"/>
<path d="M440.945 308.115C441.85 309.346 442.844 310.515 443.922 311.605C444.498 312.197 445.106 312.768 445.817 313.191C446.525 313.614 447.347 313.886 448.172 313.831C448.718 313.793 449.246 313.614 449.716 313.335C450.186 313.057 450.593 312.682 450.928 312.252C451.598 311.392 451.978 310.34 452.212 309.277C453.014 305.649 452.178 301.693 449.978 298.688" stroke="black"/>
<path d="M453.742 299.542C455.199 301.506 457.319 302.978 459.678 303.659C460.569 303.917 461.505 304.068 462.433 303.996C463.359 303.927 464.281 303.628 465.016 303.061C465.779 302.469 466.311 301.609 466.574 300.684C466.839 299.756 466.843 298.768 466.67 297.819C466.408 296.395 465.738 295.04 464.761 293.964C463.787 292.887 462.506 292.086 461.107 291.684" stroke="black"/>
<path d="M465.094 290.404C466.468 292.028 468.277 293.28 470.28 293.999C471.085 294.284 471.927 294.49 472.78 294.477C473.633 294.466 474.5 294.225 475.166 293.699C475.86 293.149 476.302 292.324 476.475 291.457C476.651 290.59 476.575 289.693 476.371 288.833C475.881 286.779 474.634 284.915 472.925 283.674" stroke="black"/>
<path d="M470.129 281.576C471.707 283.154 473.737 284.286 475.916 284.795C476.665 284.967 477.435 285.07 478.199 285.008C478.965 284.95 479.728 284.716 480.35 284.269C480.864 283.897 481.275 283.385 481.545 282.814C481.817 282.239 481.952 281.607 481.966 280.97C481.993 279.705 481.541 278.46 480.878 277.383C479.59 275.292 477.47 273.727 475.091 273.115C476.641 273.59 478.281 273.769 479.897 273.638C481.044 273.545 482.183 273.297 483.209 272.788C484.231 272.276 485.139 271.495 485.688 270.494C486.299 269.377 486.434 268.032 486.168 266.787C485.906 265.542 485.26 264.393 484.421 263.434C482.722 261.504 480.194 260.321 477.615 260.259C480.388 260.091 483.133 259.447 485.688 258.364C486.731 257.924 487.756 257.401 488.589 256.634C489.421 255.871 490.049 254.832 490.132 253.707C490.191 252.865 489.942 252.015 489.514 251.286C489.086 250.554 488.482 249.938 487.819 249.408C486.686 248.511 485.36 247.857 483.958 247.51" stroke="black"/>
<path d="M479.226 246.385C481.512 245.817 483.577 244.411 484.937 242.491C485.697 241.422 486.246 240.177 486.346 238.866C486.443 237.563 486.063 236.191 485.165 235.231C484.526 234.55 483.663 234.103 482.758 233.859C481.857 233.615 480.911 233.563 479.978 233.591C477.479 233.659 474.999 234.275 472.762 235.383" stroke="black"/>
<path d="M472.761 235.382C474.65 234.251 476.245 232.638 477.347 230.739C477.872 229.831 478.289 228.848 478.452 227.812C478.61 226.777 478.503 225.68 478.02 224.748C477.626 223.981 476.998 223.348 476.266 222.887C475.534 222.426 474.705 222.131 473.859 221.952C472.409 221.649 470.89 221.684 469.453 222.055" stroke="black"/>
<path d="M489.742 296.846C490.419 297.317 491.251 297.554 492.073 297.513C492.898 297.472 493.703 297.156 494.328 296.622C494.804 296.217 495.181 295.687 495.402 295.102C495.623 294.514 495.695 293.874 495.605 293.252" stroke="black"/>
<path d="M500.195 289.434C501.466 289.613 502.795 289.344 503.897 288.681C504.995 288.02 505.851 286.971 506.283 285.767C506.67 284.688 506.711 283.491 506.407 282.387C506.1 281.283 505.444 280.278 504.553 279.553" stroke="black"/>
<path d="M508.16 277.305C509.355 277.646 510.677 277.536 511.8 277.006C512.922 276.473 513.837 275.524 514.327 274.385C514.856 273.151 514.873 271.706 514.372 270.458C513.871 269.213 512.86 268.178 511.62 267.645" stroke="black"/>
<path d="M512.898 259.036C514.311 259.466 515.906 259.246 517.146 258.451C518.385 257.657 519.245 256.302 519.438 254.843C519.601 253.595 519.276 252.288 518.548 251.26C517.819 250.231 516.69 249.492 515.454 249.23" stroke="black"/>
<path d="M511.844 249.08C514.206 249.589 516.768 249.09 518.76 247.732C519.42 247.281 520.02 246.745 520.487 246.098C520.956 245.455 521.288 244.705 521.388 243.914C521.533 242.831 521.236 241.716 520.694 240.76C520.152 239.808 519.378 239.003 518.536 238.298C516.654 236.729 514.389 235.612 511.996 235.082" stroke="black"/>
<path d="M512 235.083C514.403 235.867 517.152 235.527 519.289 234.182C520.311 233.542 521.199 232.679 521.841 231.661C522.487 230.643 522.887 229.467 522.974 228.267C523.063 227.022 522.808 225.756 522.252 224.631C521.699 223.51 520.85 222.537 519.814 221.828C518.108 220.659 515.898 220.239 513.878 220.707" stroke="black"/>
<path d="M513.876 220.706C516.258 219.812 518.399 218.302 520.039 216.362C520.716 215.561 521.317 214.674 521.648 213.676C521.98 212.682 522.025 211.565 521.617 210.598C521.227 209.673 520.45 208.94 519.556 208.476C518.661 208.008 517.66 207.788 516.659 207.678C513.282 207.317 509.784 208.242 507.035 210.223" stroke="black"/>
<path d="M507.035 210.227C509.759 208.889 512.087 206.757 513.651 204.16C514.286 203.101 514.804 201.949 514.967 200.728C515.129 199.503 514.904 198.196 514.176 197.199C513.416 196.154 512.163 195.534 510.885 195.332C509.604 195.129 508.292 195.311 507.035 195.627C504.304 196.308 501.738 197.626 499.594 199.445" stroke="black"/>
<path d="M499.596 199.445C503.971 197.312 507.5 193.512 509.295 189C509.665 188.078 509.965 187.115 510.02 186.121C510.075 185.131 509.868 184.099 509.295 183.284C508.946 182.788 508.473 182.383 507.938 182.09C507.403 181.801 506.812 181.619 506.208 181.537C505.003 181.365 503.77 181.571 502.6 181.908C498.315 183.139 494.734 186.025 491.333 188.897C488.208 191.531 485.124 194.214 482.082 196.941" stroke="black"/>
<path d="M491.592 188.685C493.322 186.983 494.447 184.685 494.731 182.281C494.81 181.604 494.824 180.912 494.71 180.238C494.592 179.564 494.344 178.907 493.933 178.364C493.315 177.545 492.331 177.016 491.305 176.943C490.283 176.875 489.237 177.267 488.512 177.992" stroke="black"/>
<path d="M524.55 397.167C521.977 392.466 519.346 387.802 516.66 383.166C513.314 377.399 509.878 371.683 506.359 366.021" stroke="black"/>
<path d="M542.458 403.932C538.101 401.109 534.095 397.745 530.563 393.948C527.096 390.223 524.095 386.096 521.098 381.986C517.023 376.408 512.939 370.836 508.84 365.271" stroke="black"/>
<path d="M547.984 403.297C543.174 398.884 538.526 394.293 534.058 389.533C525.726 380.66 518.012 371.205 510.992 361.266" stroke="black"/>
<path d="M559.838 399.594C550.48 392.997 541.63 385.689 533.392 377.748C526.385 370.997 519.821 363.788 513.758 356.184" stroke="black"/>
<path d="M566.749 396.786C556.5 388.92 546.518 380.708 536.829 372.171C529.353 365.585 522.05 358.806 514.93 351.842" stroke="black"/>
<path d="M574.988 393.451C563.724 385.179 552.526 376.815 541.397 368.361C533.103 362.057 524.847 355.705 516.629 349.301" stroke="black"/>
<path d="M580.94 388.846C570.588 382.218 560.346 375.426 550.218 368.465C539.493 361.094 528.896 353.542 518.434 345.807" stroke="black"/>
<path d="M585.67 382.706C574.175 376.783 562.911 370.407 551.92 363.594C541.088 356.88 530.518 349.744 520.242 342.205" stroke="black"/>
<path d="M478.465 320.188C482.263 324.129 486.089 328.046 489.946 331.936C493.641 335.668 497.36 339.372 501.106 343.055" stroke="black"/>
<path d="M490.16 322.195C491.987 324.104 494.021 325.81 496.22 327.279C498.223 328.616 500.367 329.751 502.598 330.666" stroke="black"/>
<path d="M499.512 333.842C501.266 334.53 503.037 335.162 504.826 335.751C506.722 336.37 508.638 336.934 510.568 337.443" stroke="black"/>
<path d="M506.426 343.9L512.061 344.43" stroke="black"/>
<path d="M506.527 348.242L509.29 351.42" stroke="black"/>
<path d="M496.32 345.807C498.295 346.532 500.032 347.884 501.213 349.621C502.011 350.794 502.56 352.138 502.805 353.535" stroke="black"/>
<path d="M502.277 358.088L502.702 361.689" stroke="black"/>
<path d="M491.645 355.23L495.47 359.148" stroke="black"/>
<path d="M468.699 232.159L473.361 227.895" stroke="black"/>
<path d="M477.418 242.119L481.928 238.824" stroke="black"/>
<path d="M479.75 253.424L484.412 253.572" stroke="black"/>
<path d="M475.918 267.35L481.605 268.674" stroke="black"/>
<path d="M472.727 276.67L476.608 280.639" stroke="black"/>
<path d="M467.41 286.516L471.025 288.686" stroke="black"/>
<path d="M458.219 295.568L461.568 298.956" stroke="black"/>
<path d="M444.453 302.662L447.16 306.848" stroke="black"/>
<path d="M431.855 307.637L432.546 311.502" stroke="black"/>
<path d="M535.298 144.492C532.916 148.647 530.226 152.629 527.26 156.392C523.91 160.64 520.209 164.612 516.203 168.251" stroke="black"/>
<path d="M544.373 153.428C543.099 155.292 541.731 157.094 540.281 158.827C538.568 160.87 536.742 162.817 534.805 164.65" stroke="black"/>
<path d="M555.744 160.412C553.963 162.816 552.084 165.151 550.109 167.404C547.032 170.922 543.724 174.248 540.227 177.357" stroke="black"/>
<path d="M555.537 180.635C552.595 183.658 549.58 186.605 546.497 189.484C539.152 196.349 531.421 202.801 523.348 208.802" stroke="black"/>
<path d="M564.142 190.059C561.736 192.48 559.308 194.884 556.867 197.271C553.887 200.191 550.879 203.087 547.848 205.955" stroke="black"/>
<path d="M556.044 215.24C553.945 216.396 551.815 217.493 549.653 218.532C545.976 220.306 542.212 221.906 538.379 223.323" stroke="black"/>
<path d="M562.811 223.926C559.206 226.632 555.411 229.085 551.461 231.262C546.744 233.862 541.813 236.07 536.727 237.851" stroke="black"/>
<path d="M565.238 234.859C561.426 238.704 556.875 241.82 551.909 243.991C545.328 246.862 538.018 248.059 530.863 247.433" stroke="black"/>
<path d="M543.94 257.388C541.954 258.011 539.848 258.241 537.776 258.062C535.338 257.856 532.952 257.079 530.863 255.816" stroke="black"/>
<path d="M529.13 282.396C526.885 282.682 524.627 282.857 522.365 282.916C519.917 282.978 517.469 282.909 515.031 282.706" stroke="black"/>
<path d="M543.897 270.154C540.689 270.973 537.443 271.626 534.169 272.115C529.946 272.744 525.682 273.098 521.414 273.174" stroke="black"/>
<path d="M510.52 294.189C509.301 294.468 508.058 294.63 506.811 294.674C505.554 294.719 504.294 294.643 503.051 294.451" stroke="black"/>
<path d="M498.183 303.776C496.539 304.017 494.861 304.054 493.204 303.883C491.85 303.745 490.514 303.47 489.219 303.061" stroke="black"/>
<path d="M495.156 211.767C496.641 209.779 498.357 207.963 500.256 206.364C502.301 204.651 504.555 203.189 506.955 202.023" stroke="black"/>
<path d="M490.797 199.377C492.396 197.554 494.098 195.821 495.897 194.191C497.558 192.688 499.298 191.274 501.108 189.957" stroke="black"/>
<path d="M484.523 186.885L488.67 183.604" stroke="black"/>
<path d="M502.75 170.321C512.532 160.413 521.355 149.562 529.062 137.978C537.484 125.312 544.569 111.764 550.16 97.6289" stroke="black"/>
<path d="M511.844 183.814C520.034 173.85 527.976 163.684 535.656 153.321C543.819 142.309 551.688 131.08 559.253 119.654" stroke="black"/>
<path d="M520.352 189.111C529.74 181.823 538.314 173.5 545.862 164.334C553.583 154.959 560.234 144.706 565.638 133.842" stroke="black"/>
<path d="M535.016 190.803C543.006 183.367 550.537 175.443 557.553 167.086C562.253 161.486 566.725 155.691 570.948 149.721" stroke="black"/>
<path d="M531.406 210.708C538.668 204.862 545.626 198.636 552.242 192.071C559.068 185.296 565.525 178.152 571.585 170.686" stroke="black"/>
<path d="M543.098 216.425C548.895 212.666 554.316 208.332 559.254 203.507C563.021 199.827 566.509 195.858 569.672 191.648" stroke="black"/>
<path d="M543.312 229.767C550.208 226.296 556.752 222.131 562.808 217.354C565.539 215.198 568.178 212.921 570.702 210.527" stroke="black"/>
<path d="M540.035 242.49C545.201 241.606 550.208 239.825 554.769 237.252C557.68 235.608 560.404 233.648 562.887 231.412" stroke="black"/>
<path d="M542.441 252.525C545.912 251.359 549.285 249.904 552.514 248.181C554.793 246.964 557.003 245.612 559.126 244.137" stroke="black"/>
<path d="M514.395 261.527C518.207 263.79 522.523 265.214 526.939 265.658C530.568 266.022 534.246 265.737 537.844 265.142C540.737 264.661 543.593 263.986 546.39 263.116" stroke="black"/>
<path d="M522.797 277.831C524.641 277.917 526.488 277.866 528.325 277.673C529.575 277.542 530.815 277.35 532.044 277.092" stroke="black"/>
<path d="M516.312 287.469C517.821 287.483 519.327 287.448 520.829 287.362C522.393 287.273 523.954 287.132 525.508 286.939" stroke="black"/>
<path d="M491.961 230.852L497.562 225.273" stroke="black"/>
<path d="M482.34 221.979L486.325 217.15" stroke="black"/>
<path d="M493.355 244.067L496.964 243.768" stroke="black"/>
<path d="M495.762 257.766L498.617 258.591" stroke="black"/>
<path d="M506.316 270.369L508.495 271.057" stroke="black"/>
<path d="M510.039 253.219L513.067 254.065" stroke="black"/>
<path d="M513.648 243.09L517.443 244.627" stroke="black"/>
<path d="M512.219 227.432L517.857 227.295" stroke="black"/>
<path d="M511.102 214.305L515.035 212.189" stroke="black"/>
<path d="M479.051 200.332L475.277 203.771" stroke="black"/>
<path d="M472.252 207.373C471.523 207.83 470.864 208.395 470.297 209.041C469.731 209.681 469.258 210.406 468.902 211.184" stroke="black"/>
<path d="M466.565 217.377C466.278 217.958 466.099 218.598 466.043 219.244C465.992 219.839 466.04 220.448 466.192 221.029" stroke="black"/>
<path d="M452.312 277.725C455.42 275.957 458.024 273.326 459.757 270.21C461.453 267.153 462.305 263.641 462.198 260.15" stroke="black"/>
<path d="M372.058 237.176C371.937 235.525 372.075 233.857 372.465 232.244C372.652 231.467 372.901 230.7 373.277 229.991C373.657 229.286 374.168 228.64 374.82 228.175C375.77 227.501 376.982 227.237 378.142 227.333C379.306 227.433 380.421 227.876 381.409 228.492C382.98 229.482 384.254 230.937 385.027 232.622C385.331 230.559 386.367 228.605 387.907 227.188C389.423 225.799 391.478 224.925 393.529 225.108C395.09 225.245 396.585 225.995 397.621 227.161C398.653 228.33 399.219 229.902 399.164 231.456C399.689 230.019 400.438 228.66 401.374 227.443C401.899 226.769 402.486 226.129 403.18 225.627C403.877 225.125 404.689 224.764 405.542 224.681C406.806 224.557 408.073 225.049 409.067 225.833C410.062 226.617 410.804 227.673 411.422 228.777C412.455 230.624 413.169 232.653 413.515 234.741C414.167 232.956 415.145 231.295 416.384 229.854C417.013 229.128 417.71 228.454 418.535 227.962C419.357 227.47 420.317 227.164 421.274 227.223C421.944 227.261 422.596 227.474 423.173 227.811C423.749 228.144 424.254 228.605 424.664 229.128C425.486 230.181 425.935 231.481 426.16 232.794C426.56 235.109 426.301 237.537 425.421 239.718C426.284 238.541 427.465 237.602 428.805 237.025C429.654 236.657 430.579 236.433 431.508 236.478C432.43 236.523 433.359 236.856 434.032 237.492C434.806 238.222 435.186 239.291 435.3 240.347C435.417 241.406 435.289 242.472 435.196 243.532C435.079 244.797 435.013 246.066 434.989 247.339C436.246 247.274 437.52 247.446 438.718 247.841C439.499 248.096 440.258 248.453 440.9 248.966C441.546 249.478 442.071 250.156 442.323 250.936C442.603 251.8 442.53 252.752 442.244 253.612C441.954 254.472 441.456 255.249 440.887 255.958C439.875 257.217 438.625 258.286 437.22 259.091C438.946 259.294 440.635 259.803 442.185 260.59C443.228 261.12 444.212 261.78 445.016 262.627C445.821 263.476 446.436 264.515 446.681 265.653C446.905 266.702 446.805 267.806 446.481 268.828C446.156 269.849 445.607 270.791 444.94 271.634C443.656 273.264 441.926 274.54 439.982 275.29" stroke="black"/>
<path d="M426.685 280.036C428.201 279.51 429.651 278.791 430.991 277.907C431.588 277.508 432.165 277.078 432.662 276.562C433.156 276.043 433.563 275.438 433.788 274.76C433.995 274.124 434.033 273.432 433.898 272.779C433.76 272.126 433.449 271.51 433.001 271.008C432.514 270.464 431.865 270.062 431.16 269.863C430.452 269.666 429.689 269.677 428.985 269.89C429.803 269.154 430.466 268.25 430.922 267.249C431.274 266.485 431.505 265.639 431.378 264.81C431.295 264.257 431.05 263.734 430.718 263.28C430.387 262.829 429.965 262.447 429.513 262.117C428.415 261.316 427.099 260.814 425.742 260.68C427.51 260.883 429.354 260.15 430.497 258.798C431.06 258.131 431.461 257.32 431.606 256.46C431.757 255.6 431.65 254.692 431.271 253.904C430.777 252.873 429.845 252.092 428.798 251.624C427.752 251.156 426.595 250.984 425.449 250.947C423.601 250.888 421.744 251.174 420.003 251.786C421.83 250.685 423.084 248.687 423.277 246.572C423.384 245.396 423.163 244.151 422.448 243.208C422.03 242.658 421.454 242.228 420.818 241.949C420.183 241.667 419.486 241.537 418.795 241.526C417.403 241.509 416.046 241.98 414.81 242.617C413.056 243.518 411.488 244.773 410.225 246.28C410.687 244.264 410.452 242.094 409.572 240.216C409.23 239.49 408.788 238.799 408.222 238.225C407.656 237.65 406.958 237.193 406.185 236.963C405.049 236.626 403.802 236.794 402.711 237.255C401.616 237.716 400.663 238.452 399.797 239.26C398.215 240.732 396.882 242.469 395.874 244.378C395.339 242.548 394.344 240.856 393.008 239.49C392.359 238.83 391.627 238.239 390.798 237.819C389.969 237.399 389.044 237.148 388.115 237.176C386.844 237.214 385.622 237.771 384.665 238.603C383.712 239.439 383.015 240.536 382.532 241.705C381.91 243.215 381.637 244.866 381.734 246.493" stroke="black"/>
<path d="M389.211 242.49L390.15 245.448" stroke="black"/>
<path d="M404.458 242.191L404.32 246.384" stroke="black"/>
<path d="M418.614 246.438L416.863 249.034" stroke="black"/>
<path d="M426.431 255.602L423.348 256.025" stroke="black"/>
<path d="M440.811 266.373L438.332 266.975" stroke="black"/>
<path d="M438.938 252.598L436.082 253.87" stroke="black"/>
<path d="M430.589 241.219L428.406 244.139" stroke="black"/>
<path d="M420.819 231.787L418.488 235.98" stroke="black"/>
<path d="M406.463 228.867L406.238 232.833" stroke="black"/>
<path d="M392.332 229.314L392.636 233.283" stroke="black"/>
<path d="M377.676 231.936L379.855 236.204" stroke="black"/>
<path d="M449.34 254.594C450.396 252.888 451.236 251.052 451.836 249.143C452.7 246.395 453.062 243.492 452.9 240.617" stroke="black"/>
<path d="M444.133 238.13C445.041 236.514 445.79 234.808 446.367 233.047C446.823 231.641 447.171 230.196 447.403 228.734" stroke="black"/>
<path d="M437.434 232.837C438.117 229.907 438.615 226.932 438.918 223.943C439.17 221.532 439.291 219.111 439.295 216.689" stroke="black"/>
<path d="M429.891 228.071C430.302 224.336 430.657 220.594 430.954 216.849C431.21 213.623 431.424 210.393 431.59 207.16" stroke="black"/>
<path d="M421.277 221.93C422.137 218.553 422.776 215.121 423.19 211.661C423.632 207.994 423.819 204.297 423.753 200.604" stroke="black"/>
<path d="M415.429 216.531C415.125 213.154 414.628 209.794 413.941 206.471C413.167 202.723 412.148 199.022 410.898 195.4" stroke="black"/>
<path d="M409.161 221.08C407.656 214.872 405.477 208.829 402.676 203.082C400.346 198.305 397.587 193.738 394.438 189.449" stroke="black"/>
<path d="M398.719 216.139C393.363 205.752 386.958 195.906 379.627 186.792C373.26 178.875 366.195 171.511 358.543 164.818" stroke="black"/>
<path d="M388.201 218.837C382.659 209.028 376.264 199.697 369.106 190.986C362.88 183.405 356.081 176.296 348.781 169.734" stroke="black"/>
<path d="M373.611 222.425C368.065 210.45 361.028 199.159 352.717 188.886C345.956 180.532 338.349 172.855 330.055 166.008" stroke="black"/>
<path d="M357.077 217.487C351.497 208.407 345.098 199.826 337.985 191.881C331.863 185.044 325.213 178.678 318.113 172.855" stroke="black"/>
<path d="M359.336 227.82C350.645 216.089 341.305 204.835 331.374 194.129C323.698 185.857 315.673 177.913 307.32 170.322" stroke="black"/>
<path d="M366.55 225.874C360.935 213.589 353.798 201.991 345.355 191.433C336.118 179.887 325.317 169.58 313.332 160.889" stroke="black"/>
<path d="M368.956 201.464C363.072 193.34 356.608 185.626 349.64 178.407C343.525 172.075 337.019 166.118 330.172 160.588" stroke="black"/>
<path d="M381.587 197.869C377.16 191.916 372.388 186.214 367.305 180.8C362.92 176.133 358.3 171.686 353.473 167.477" stroke="black"/>
<path d="M402.33 192.479C400.766 188.514 398.636 184.768 396.015 181.398C394.102 178.939 391.933 176.676 389.551 174.66" stroke="black"/>
<path d="M491.645 308.855L496.962 310.974" stroke="black"/>
<path d="M452.742 268.831C454.234 268.164 455.487 266.991 456.25 265.55C456.834 264.45 457.127 263.198 457.1 261.949" stroke="black"/>
<path d="M456.996 259.306L457.134 257.346" stroke="black"/>
<path d="M416.309 197.422L417.362 203.637" stroke="black"/>
<path d="M426.158 205.209L425.93 212.844" stroke="black"/>
<path d="M433.75 213.67L433.301 218.01" stroke="black"/>
<path d="M441.565 221.604L440.664 226.769" stroke="black"/>
<path d="M448.378 236.328L447.211 241.095" stroke="black"/>
<path d="M477.348 335.625C478.712 337.551 480.248 339.357 481.93 341.014C483.273 342.335 484.703 343.563 486.215 344.684" stroke="black"/>
<path d="M364.973 284.196C365.408 284.42 365.919 284.499 366.402 284.42C366.886 284.341 367.341 284.097 367.676 283.746C367.956 283.454 368.156 283.086 368.25 282.693C368.339 282.301 368.326 281.882 368.205 281.5" stroke="black"/>
<path d="M369.742 283.632C370.305 283.9 370.996 283.886 371.548 283.594C371.966 283.374 372.304 282.995 372.474 282.552C372.643 282.108 372.65 281.609 372.487 281.162" stroke="black"/>
<path d="M369.035 290.107C369.349 290.403 369.798 290.554 370.23 290.513C370.665 290.472 371.072 290.234 371.324 289.884C371.542 289.581 371.642 289.199 371.601 288.828C371.559 288.46 371.376 288.109 371.1 287.861" stroke="black"/>
<path d="M374.629 287.449C375.023 287.57 375.458 287.552 375.841 287.404C376.228 287.257 376.559 286.978 376.773 286.627C377.06 286.149 377.119 285.54 376.922 285.018" stroke="black"/>
<path d="M379.293 283.554C379.659 283.792 380.125 283.874 380.55 283.778C380.978 283.682 381.358 283.406 381.586 283.031C381.796 282.684 381.869 282.254 381.786 281.859C381.703 281.46 381.468 281.099 381.133 280.861" stroke="black"/>
<path d="M378.801 290.744C379.322 290.971 379.92 291.022 380.469 290.888C381.021 290.754 381.525 290.434 381.884 289.994C382.323 289.457 382.53 288.739 382.447 288.051" stroke="black"/>
<path d="M384.398 268.244C382.713 268.113 381.038 267.852 379.391 267.457C377.592 267.027 375.831 266.442 374.129 265.713" stroke="black"/>
</svg>
