<svg width="882" height="591" viewBox="0 0 882 591" fill="none" xmlns="http://www.w3.org/2000/svg">
<path d="M881.105 0H0V590.685H881.105V0Z" fill="white"/>
<path fill-rule="evenodd" clip-rule="evenodd" d="M411.529 0V265.86H0V324.824H411.529V590.685H469.576V324.824H881.105V265.86H469.576V0L411.529 0Z" fill="#D81921"/>
<path fill-rule="evenodd" clip-rule="evenodd" d="M162.443 181.177C177.689 188.246 181.416 197.556 188.149 204.981C194.882 212.406 204.921 228.379 224.447 222.979C225.059 218.979 227.581 207.946 234.944 202.956C239.493 200.178 245.043 196.206 246.053 189.456C254.133 191.481 274.366 193.101 275.342 182.368C275.679 178.656 272.506 172.968 275.899 169.052C276.666 169.077 280.96 169.163 282.085 168.636C283.263 167.241 282.1 162.166 281.247 161.039L281.256 160.992C283.271 160.807 288.472 156.043 282.075 152.668C280.388 150.681 280.684 149.056 280.689 147.224C281.746 147.239 284.344 147.209 284.724 147.183C291.466 147.158 290.6 142.797 288.658 138.156C287.311 135.118 279.719 120.606 278.372 118.581C277.025 116.556 277.025 115.543 278.035 113.518C279.045 111.493 278.709 108.118 278.035 105.756C277.362 103.393 276.016 99.6807 277.025 98.6682C278.035 97.6557 277.699 94.2808 277.362 93.6057C277.025 92.9307 277.025 91.2433 277.025 90.5682C277.025 89.8932 276.689 88.2058 275.679 87.5307C274.669 86.8557 273.996 84.4932 274.669 83.8182C275.342 83.1432 274.332 78.4182 273.322 78.0807C272.312 77.7432 270.292 77.0682 269.282 74.7057C269.402 71.3727 266.79 67.5902 265.243 65.9307C264.233 64.9182 264.569 61.5431 264.569 61.5431L261.607 61.6111C261.284 61.5033 258.846 58.1682 256.49 57.4931C254.133 56.8182 248.747 54.1182 248.747 54.1182L245.043 50.0682L241.677 51.7556C241.677 51.7556 238.984 50.7431 236.627 50.4057C234.27 50.0682 229.221 48.3807 227.537 45.6806C225.854 42.9806 226.191 48.8939 226.137 49.2175C225.922 49.2713 223.161 47.7056 218.448 48.0432C213.734 48.3807 208.348 50.4057 206.665 49.7306C204.981 49.0557 203.298 51.0807 203.298 51.0807C203.298 51.0807 199.932 53.1057 197.238 53.1057C194.545 53.1057 192.189 53.1057 192.189 53.1057L191.852 55.4681C191.852 55.4681 186.802 57.2096 184.446 58.2221C182.089 59.2345 180.069 60.5306 177.039 60.8682C174.009 61.2057 172.999 62.2182 172.999 62.2182L174.346 64.9182C174.346 64.9182 170.711 65.6611 169.633 69.3057C167.613 72.0057 164.92 76.3932 162.9 76.7307C160.88 77.0682 159.533 78.0807 159.533 78.0807L162.226 81.4557C162.226 81.4557 161.553 82.4682 160.206 83.8182C158.86 85.1683 156.167 87.5307 156.167 87.5307L157.85 90.5682C157.85 90.5682 157.85 91.2433 157.513 92.9307C157.177 94.6182 157.177 97.6557 155.493 98.3308C153.81 99.0058 153.81 101.031 153.81 101.031C153.81 101.031 153.473 101.368 155.493 102.043C157.513 102.718 158.86 102.718 157.85 104.068C156.84 105.418 155.157 107.781 155.157 107.781C155.157 107.781 156.84 108.793 158.523 109.131C160.206 109.468 161.89 109.468 161.89 109.468C161.89 109.468 160.543 115.881 159.197 116.893C157.85 117.906 161.217 118.581 163.236 117.568C165.256 116.556 163.994 120.606 162.648 120.943C161.301 121.281 163.136 121.753 164.718 121.77C166.065 121.432 167.798 121.668 167.024 123.66C166.014 126.36 164.92 127.693 167.613 129.043C170.306 130.393 172.747 136.468 171.401 138.493C170.054 140.518 169.296 143.556 169.296 143.556L175.693 143.893C175.693 143.893 176.13 144.906 174.447 146.593C172.764 148.281 171.081 150.205 171.316 150.677C171.265 151.407 176.382 151.111 176.332 151.841C171.978 173.415 161.638 179.466 161.624 180.602L162.443 181.177Z" fill="black" stroke="black" stroke-width="0.968759"/>
<path fill-rule="evenodd" clip-rule="evenodd" d="M269.709 77.8364C271.952 79.5233 273.915 82.3349 271.952 84.0218C269.428 86.271 268.306 87.1145 268.306 87.1145C268.306 87.1145 272.793 85.7087 273.635 87.3956C274.476 89.0826 275.458 91.6484 273.635 92.1753C272.233 93.0188 269.148 94.7057 269.148 94.7057C269.148 94.7057 276.159 93.8623 274.476 94.1434C275.318 96.3926 276.159 100.329 271.672 102.016C267.184 103.703 253.162 108.763 250.638 110.169C248.114 111.575 242.505 112.418 239.7 112.418C236.896 112.418 226.518 112.981 228.202 112.981L234.372 114.668C235.424 114.773 221.611 119.376 219.577 118.955C218.491 116.424 204.364 103.14 196.511 119.447C195.67 123.102 198.474 128.726 201.279 129.85C204.083 130.975 205.486 132.38 206.607 135.473C207.729 138.566 210.601 144.083 213.687 143.627C217.931 140.851 219.788 141.096 217.825 143.346C215.652 146.439 210.569 146.58 208.01 142.783C205.871 140.147 203.944 133.33 199.596 131.537C197.353 130.694 194.548 125.352 194.548 125.352C194.548 125.352 190.622 125.07 188.939 126.757C187.256 128.444 183.05 128.444 180.525 128.163C178.001 127.882 173.759 126.934 175.162 126.934C176.564 126.934 171.269 126.758 169.587 127.039C167.904 127.32 168.466 122.821 171.271 120.572C174.075 118.323 181.928 114.668 183.61 112.418C185.293 110.169 197.352 103.422 200.718 103.14C204.083 102.859 208.29 100.61 208.29 100.61C208.29 100.61 201.979 100.505 205.064 99.9427C208.149 99.3804 214.179 96.9549 217.264 95.8303C220.349 94.7057 222.873 94.7057 226.239 94.7057C229.604 94.7057 251.946 89.22 257.521 85.8096C261.727 84.4039 237.562 91.4373 234.758 91.7186C229.99 92.4215 228.482 91.4725 236.335 87.6768C239.7 85.7087 254.688 77.8292 266.684 74.5371C267.912 75.7681 267.465 76.1495 269.709 77.8364Z" fill="white" stroke="black" stroke-width="0.5"/>
<path d="M208.471 124.123C208.362 124.136 207.91 124.216 207.62 124.52C207.298 124.936 207.025 125.31 206.863 125.712C206.744 126.248 206.587 126.691 206.674 127.201C206.855 127.701 207.099 128.057 207.431 128.393C207.805 128.857 208.078 129.092 208.471 129.386C208.91 129.594 209.331 130 209.702 130.18C209.879 130.421 210.336 130.599 210.553 130.875C210.806 131.214 211 131.383 211.026 131.868C211.19 132.351 211.245 132.945 211.31 133.457C211.403 134.021 211.535 134.55 211.594 135.046C211.831 135.471 212.089 135.689 212.635 135.84C213.087 135.921 213.555 135.94 214.055 135.94C214.337 135.668 214.819 135.362 215.096 135.046C215.096 134.781 215.096 134.516 215.096 134.251" stroke="white" stroke-width="2.45079" stroke-linecap="round"/>
<path fill-rule="evenodd" clip-rule="evenodd" d="M216.357 121.906C213.936 118.003 198.782 110.828 202.465 124.755C203.307 126.232 201.728 126.865 201.307 125.81C197.413 109.351 214.147 116.209 216.778 120.535C217.83 122.328 216.357 122.012 216.357 121.906Z" fill="white" stroke="white" stroke-width="0.968759"/>
<path d="M270.977 98.1691C265.294 98.0636 259.295 98.3801 254.665 101.334C250.034 104.288 245.93 105.132 240.984 105.132C236.037 105.132 233.512 105.238 233.512 105.238" stroke="black" stroke-width="1.93752" stroke-linecap="round"/>
<path d="M201.037 106.72C191.54 110.406 189.857 111.49 185.847 114.091C181.837 116.693 180.355 117.126 176.978 119.294C174.467 120.811 172.968 122.546 172.968 122.546C170.806 124.28 182.351 115.825 189.852 117.56C192.595 117.56 193.018 117.56 195.55 114.742C198.083 111.923 201.037 109.539 205.258 107.804C209.479 106.07 216.865 103.252 216.865 103.252" stroke="black" stroke-width="1.91409"/>
<path d="M190.486 123.196C189.91 123.196 187.515 123.105 186.594 123.413C185.79 123.522 184.504 123.626 183.782 123.847C182.56 123.992 181.432 124.248 180.106 124.28C178.68 124.293 178.173 124.73 176.863 124.93C176.453 125.444 175.679 126.06 175.133 126.448" stroke="black" stroke-width="1.69533" stroke-linecap="round"/>
<path d="M268.946 115.205C265.459 120.026 260.114 122.67 254.273 123.924C254.421 125.341 261.362 125.431 263.95 128.717" stroke="white" stroke-width="2.17971"/>
<path d="M138.505 59.6777C138.393 60.9087 138.007 66.2839 138.542 66.3445C141.569 66.778 143.657 67.2862 146.252 69.8876C148.847 72.489 154.785 76.9183 158.152 70.8386C159.882 67.3701 155.669 65.7477 153.507 65.7477C151.382 65.6731 148.042 64.0275 144.583 63.1602C141.123 62.2932 139.718 60.0648 139.286 60.4984L138.505 59.6777Z" fill="white" stroke="black" stroke-width="1.93752"/>
<path d="M124.869 72.9571C124.395 72.6957 122.152 69.6902 123.313 66.0272C124.996 63.4968 115.693 68.7517 117.656 71.5632C120.141 73.5035 125.063 73.4798 124.869 72.9571Z" fill="white" stroke="black" stroke-width="1.93752"/>
<path d="M147.021 61.2223C147.061 60.6488 147.13 55.519 147.043 54.3864C145.305 54.125 140.158 53.3767 139.036 55.0636C135.047 61.1067 146.666 64.1174 146.946 63.2739L147.021 61.2223Z" fill="white" stroke="black" stroke-width="1.93752"/>
<path d="M156.407 73.338L149.116 98.642C149.116 98.642 144.999 116.604 157.529 121.415C161.455 121.697 162.858 121.134 162.858 121.134L161.736 127.32C156.174 133.07 152.587 131.711 147.82 129.743C143.052 127.775 142.859 127.621 140.335 126.215C137.811 124.809 134.331 116.885 133.944 114.632C132.861 108.807 129.208 97.3639 118.238 73.0568C120.217 72.8826 133.122 74.1894 133.991 74.1894C134.426 74.8863 136.455 78.2102 139.58 79.5234C143.013 80.9291 147.957 76.8768 142.946 73.6191C140.497 72.0543 132.37 73.8984 132.522 69.6433C132.728 65.9462 138.178 66.3091 140.422 66.5903C142.665 66.8714 145.75 69.4018 147.152 70.8075C150.293 73.9558 154.725 74.4626 156.407 73.338Z" fill="white" stroke="black" stroke-width="1.93752"/>
<path d="M167.624 133.505C165.941 136.317 164.259 139.691 163.417 144.189C162.576 148.688 160.147 154.98 153.882 156.56C148.834 157.966 144.347 160.215 143.225 164.151C142.103 168.087 141.301 173.109 141.301 173.022L133.496 161.95C133.583 160.469 133.642 156.861 133.642 152.644C133.729 146.51 138.264 145.013 142.751 143.326C147.238 141.639 152.266 139.544 153.669 137.014C155.071 134.484 158.65 130.132 160.613 128.445C162.576 126.758 167.624 133.505 167.624 133.505Z" fill="white" stroke="black" stroke-width="1.93752"/>
<path d="M159.378 185.698C155.042 193.513 154.05 203.548 152.267 211.024C149.174 205.134 144.358 200.935 139.282 197.629C138.984 191.764 137.503 183.668 135.82 181.138C127.692 169.263 133.412 162.465 133.412 162.465C141.534 172.027 141.814 178.868 159.364 185.684L159.378 185.698Z" fill="white" stroke="black" stroke-width="1.93752"/>
<path d="M167.1 209.851C167.324 211.791 164.735 218.534 160.353 218.835C156.048 219.131 153.564 215.811 152.777 211.93L154.934 198.898L167.1 209.851Z" fill="white" stroke="black" stroke-width="1.93752"/>
<path fill-rule="evenodd" clip-rule="evenodd" d="M167.13 123.412C167.995 121.027 166.698 121.027 164.319 122.111C160.426 124.496 163.238 130.566 167.562 131.867C169.941 132.951 171.239 130.132 167.779 128.832C164.535 127.965 167.13 123.195 167.13 123.412Z" fill="white"/>
<path d="M167.13 123.412C167.995 121.027 166.698 121.027 164.319 122.111C160.426 124.496 163.238 130.566 167.562 131.867C169.941 132.951 171.239 130.132 167.779 128.832C164.535 127.965 167.13 123.195 167.13 123.412ZM167.13 123.412H166.914" stroke="black" stroke-width="0.968759"/>
<path d="M139.018 160.51C139.018 160.608 139.018 160.706 139.018 160.804C139.018 160.01 139.033 160.414 138.802 161.98C138.802 163.571 138.683 164.907 138.586 166.391C138.586 167.619 138.731 168.5 138.802 169.625" fill="white"/>
<path d="M139.018 160.51C139.018 160.608 139.018 160.706 139.018 160.804C139.018 160.01 139.033 160.414 138.802 161.98C138.802 163.571 138.683 164.907 138.586 166.391C138.586 167.619 138.731 168.5 138.802 169.625" stroke="black" stroke-width="1.21095"/>
<path d="M141.184 161.978C141.184 162.157 141.184 162.336 141.184 162.515C141.184 161.521 141.212 161.802 140.968 163.32C140.881 164.833 140.578 165.623 140.535 167.078C140.535 168.555 140.711 169.702 140.751 171.105" fill="white"/>
<path d="M141.184 161.978C141.184 162.157 141.184 162.336 141.184 162.515C141.184 161.521 141.212 161.802 140.968 163.32C140.881 164.833 140.578 165.623 140.535 167.078C140.535 168.555 140.711 169.702 140.751 171.105" stroke="black" stroke-width="1.21095"/>
<path d="M142.263 194.303C142.191 194.303 142.119 194.303 142.047 194.303C142.104 194.507 142.047 195.669 142.047 196.445C142.047 197.613 142.069 198.754 142.263 199.506" fill="white"/>
<path d="M142.263 194.303C142.191 194.303 142.119 194.303 142.047 194.303C142.104 194.507 142.047 195.669 142.047 196.445C142.047 197.613 142.069 198.754 142.263 199.506" stroke="black" stroke-width="1.21095"/>
<path d="M144.644 195.385C144.644 195.529 144.644 195.674 144.644 195.818V195.385C144.644 195.529 144.644 195.674 144.644 195.818V195.385C144.597 196.987 144.427 197.873 144.427 199.504C144.427 200.002 144.334 200.381 144.644 200.588" fill="white"/>
<path d="M144.644 195.385C144.644 195.529 144.644 195.674 144.644 195.818V195.385ZM144.644 195.385C144.597 196.987 144.427 197.873 144.427 199.504C144.427 200.002 144.334 200.381 144.644 200.588" stroke="black" stroke-width="1.21095"/>
<path d="M146.804 196.686C146.716 198.431 146.424 199.574 146.371 201.368C146.371 202.269 146.551 202.37 146.587 203.189" fill="white"/>
<path d="M146.804 196.686C146.716 198.431 146.424 199.574 146.371 201.368C146.371 202.269 146.551 202.37 146.587 203.189" stroke="black" stroke-width="1.21095"/>
<path d="M149.397 198.007C149.397 198.098 149.397 198.19 149.397 198.281C149.397 197.541 149.411 197.918 149.181 199.377C149.142 200.723 148.965 201.448 148.965 202.938C149.005 204.369 149.321 204.965 149.397 206.225" fill="white"/>
<path d="M149.397 198.007C149.397 198.098 149.397 198.19 149.397 198.281C149.397 197.541 149.411 197.918 149.181 199.377C149.142 200.723 148.965 201.448 148.965 202.938C149.005 204.369 149.321 204.965 149.397 206.225" stroke="black" stroke-width="1.21095"/>
<path d="M151.345 198.854C151.345 199.241 151.228 200.744 151.129 201.672C151.129 202.683 151.129 203.695 151.129 204.707C151.249 205.717 151.469 206.803 151.778 207.525C151.778 207.742 151.778 207.958 151.778 208.175" fill="white"/>
<path d="M151.345 198.854C151.345 199.241 151.228 200.744 151.129 201.672C151.129 202.683 151.129 203.695 151.129 204.707C151.249 205.717 151.469 206.803 151.778 207.525C151.778 207.742 151.778 207.958 151.778 208.175" stroke="black" stroke-width="1.21095"/>
<path d="M136.859 160.986C136.804 161.393 136.484 162.948 136.859 163.948C136.859 164.831 136.96 165.284 137.076 165.922" fill="white"/>
<path d="M136.859 160.986C136.804 161.393 136.484 162.948 136.859 163.948C136.859 164.831 136.96 165.284 137.076 165.922" stroke="black" stroke-width="1.21095"/>
<path d="M161.827 123.502C158.924 124.099 151.855 123.502 149.027 121.413C146.199 119.324 146.199 119.324 146.199 119.324" fill="white"/>
<path d="M161.827 123.502C158.924 124.099 151.855 123.502 149.027 121.413C146.199 119.324 146.199 119.324 146.199 119.324" stroke="black" stroke-width="0.968759"/>
<path d="M161.815 124.926C159.043 125.974 151.968 126.502 148.847 124.886C145.727 123.27 145.727 123.27 145.727 123.27" fill="white"/>
<path d="M161.815 124.926C159.043 125.974 151.968 126.502 148.847 124.886C145.727 123.27 145.727 123.27 145.727 123.27" stroke="black" stroke-width="0.968759"/>
<path d="M162.048 128.725C160.56 130.515 159.518 131.41 159.072 133.798C158.625 136.185 158.625 136.185 158.625 136.185" fill="white"/>
<path d="M162.048 128.725C160.56 130.515 159.518 131.41 159.072 133.798C158.625 136.185 158.625 136.185 158.625 136.185" stroke="black" stroke-width="0.968759"/>
<path d="M163.835 129.619C162.049 132.156 160.859 133.051 160.263 135.587C159.668 138.124 159.668 138.124 159.668 138.124" fill="white"/>
<path d="M163.835 129.619C162.049 132.156 160.859 133.051 160.263 135.587C159.668 138.124 159.668 138.124 159.668 138.124" stroke="black" stroke-width="0.968759"/>
<path d="M165.326 131.262C164.582 135.141 161.606 142.452 159.373 144.839C157.141 147.227 157.141 147.227 157.141 147.227" fill="white"/>
<path d="M165.326 131.262C164.582 135.141 161.606 142.452 159.373 144.839C157.141 147.227 157.141 147.227 157.141 147.227" stroke="black" stroke-width="0.968759"/>
<path d="M154.164 213.669C155.666 213.475 158.587 211.043 159.243 210.169C159.899 209.296 159.947 208.928 159.947 208.928" fill="white"/>
<path d="M154.164 213.669C155.666 213.475 158.587 211.043 159.243 210.169C159.899 209.296 159.947 208.928 159.947 208.928" stroke="black" stroke-width="1.15845"/>
<path d="M155.203 215.646C156.827 215.252 159.988 212.586 160.698 211.684C161.408 210.782 161.551 210.547 161.551 210.547" fill="white"/>
<path d="M155.203 215.646C156.827 215.252 159.988 212.586 160.698 211.684C161.408 210.782 161.551 210.547 161.551 210.547" stroke="black" stroke-width="1.15834"/>
<path d="M156.094 217.462C157.808 217.273 161.356 214.581 162.185 213.606C163.015 212.631 163.015 212.631 163.015 212.631" fill="white"/>
<path d="M156.094 217.462C157.808 217.273 161.356 214.581 162.185 213.606C163.015 212.631 163.015 212.631 163.015 212.631" stroke="black" stroke-width="1.3103"/>
<path d="M134.79 82.2812C135.009 84.0917 135.118 87.6576 134.461 89.9069C133.805 92.1562 133.805 92.1562 133.805 92.1562" fill="white"/>
<path d="M134.79 82.2812C135.009 84.0917 135.118 87.6576 134.461 89.9069C133.805 92.1562 133.805 92.1562 133.805 92.1562" stroke="black" stroke-width="0.968759"/>
<path d="M129.539 76.5762C130.798 77.015 132.658 78.0025 133.26 78.8255C133.862 79.6484 133.862 79.6484 133.862 79.6484" fill="white"/>
<path d="M129.539 76.5762C130.798 77.015 132.658 78.0025 133.26 78.8255C133.862 79.6484 133.862 79.6484 133.862 79.6484" stroke="black" stroke-width="0.968759"/>
<path d="M144.724 78.2012C142.013 82.978 142.854 98.5857 143.415 100.363C143.976 102.14 143.976 102.14 143.976 102.14" fill="white"/>
<path d="M144.724 78.2012C142.013 82.978 142.854 98.5857 143.415 100.363C143.976 102.14 143.976 102.14 143.976 102.14" stroke="black" stroke-width="1.27403"/>
<path d="M153.566 68.5195C154.683 68.8925 156.99 70.7203 157.176 71.7274Z" fill="white"/>
<path d="M153.566 68.5195C154.683 68.8925 156.99 70.7203 157.176 71.7274" stroke="black" stroke-width="0.968759"/>
<path d="M151.777 69.8262C152.894 70.1992 155.201 72.027 155.387 73.034Z" fill="white"/>
<path d="M151.777 69.8262C152.894 70.1992 155.201 72.027 155.387 73.034" stroke="black" stroke-width="0.968759"/>
<path d="M263.873 119.996C266.083 119.877 266.263 126.303 263.414 126.154" stroke="white" stroke-width="1.4047"/>
<path d="M263.562 120.123L263.638 125.508" stroke="white" stroke-width="3.4602"/>
<path d="M263.408 119.996C261.197 119.877 261.018 126.303 263.866 126.154" stroke="white" stroke-width="1.4047"/>
<path fill-rule="evenodd" clip-rule="evenodd" d="M162.443 502.167C177.689 509.237 181.416 518.546 188.149 525.971C194.882 533.396 204.921 549.369 224.447 543.969C225.059 539.969 227.581 528.936 234.944 523.946C239.493 521.168 245.043 517.196 246.053 510.446C254.133 512.471 274.366 514.091 275.342 503.359C275.679 499.646 272.506 493.958 275.899 490.042C276.666 490.067 280.96 490.153 282.085 489.626C283.263 488.231 282.1 483.156 281.247 482.029L281.256 481.982C283.271 481.798 288.472 477.034 282.075 473.659C280.388 471.671 280.684 470.046 280.689 468.214C281.746 468.229 284.344 468.199 284.724 468.173C291.466 468.148 290.6 463.788 288.658 459.146C287.311 456.109 279.719 441.596 278.372 439.571C277.025 437.546 277.025 436.534 278.035 434.509C279.045 432.483 278.709 429.109 278.035 426.746C277.362 424.383 276.016 420.671 277.025 419.658C278.035 418.646 277.699 415.271 277.362 414.596C277.025 413.921 277.025 412.233 277.025 411.558C277.025 410.883 276.689 409.196 275.679 408.521C274.669 407.846 273.996 405.483 274.669 404.808C275.342 404.133 274.332 399.408 273.322 399.071C272.312 398.733 270.292 398.058 269.282 395.696C269.402 392.363 266.79 388.58 265.243 386.921C264.233 385.908 264.569 382.533 264.569 382.533L261.607 382.601C261.284 382.494 258.846 379.158 256.49 378.483C254.133 377.808 248.747 375.108 248.747 375.108L245.043 371.058L241.677 372.746C241.677 372.746 238.984 371.733 236.627 371.396C234.27 371.058 229.221 369.371 227.537 366.671C225.854 363.971 226.191 369.884 226.137 370.208C225.922 370.262 223.161 368.696 218.448 369.033C213.734 369.371 208.348 371.396 206.665 370.721C204.981 370.046 203.298 372.071 203.298 372.071C203.298 372.071 199.932 374.096 197.238 374.096C194.545 374.096 192.189 374.096 192.189 374.096L191.852 376.458C191.852 376.458 186.802 378.2 184.446 379.212C182.089 380.225 180.069 381.521 177.039 381.858C174.009 382.196 172.999 383.208 172.999 383.208L174.346 385.908C174.346 385.908 170.711 386.651 169.633 390.296C167.613 392.996 164.92 397.383 162.9 397.721C160.88 398.058 159.533 399.071 159.533 399.071L162.226 402.446C162.226 402.446 161.553 403.458 160.206 404.808C158.86 406.158 156.167 408.521 156.167 408.521L157.85 411.558C157.85 411.558 157.85 412.233 157.513 413.921C157.177 415.608 157.177 418.646 155.493 419.321C153.81 419.996 153.81 422.021 153.81 422.021C153.81 422.021 153.473 422.358 155.493 423.034C157.513 423.709 158.86 423.709 157.85 425.059C156.84 426.408 155.157 428.771 155.157 428.771C155.157 428.771 156.84 429.784 158.523 430.121C160.206 430.458 161.89 430.458 161.89 430.458C161.89 430.458 160.543 436.871 159.197 437.884C157.85 438.896 161.217 439.571 163.236 438.559C165.256 437.546 163.994 441.596 162.648 441.934C161.301 442.271 163.136 442.743 164.718 442.76C166.065 442.423 167.798 442.659 167.024 444.65C166.014 447.35 164.92 448.684 167.613 450.034C170.306 451.384 172.747 457.459 171.401 459.484C170.054 461.509 169.296 464.546 169.296 464.546L175.693 464.884C175.693 464.884 176.13 465.896 174.447 467.584C172.764 469.271 171.081 471.195 171.316 471.667C171.265 472.397 176.382 472.101 176.332 472.831C171.978 494.405 161.638 500.456 161.624 501.593L162.443 502.167Z" fill="black" stroke="black" stroke-width="0.968759"/>
<path fill-rule="evenodd" clip-rule="evenodd" d="M269.709 398.827C271.952 400.514 273.915 403.325 271.952 405.012C269.428 407.261 268.306 408.105 268.306 408.105C268.306 408.105 272.793 406.699 273.635 408.386C274.476 410.073 275.458 412.639 273.635 413.166C272.233 414.009 269.148 415.696 269.148 415.696C269.148 415.696 276.159 414.852 274.476 415.134C275.318 417.383 276.159 421.319 271.672 423.006C267.184 424.693 253.162 429.754 250.638 431.16C248.114 432.565 242.505 433.409 239.7 433.409C236.896 433.409 226.518 433.971 228.202 433.971L234.372 435.658C235.424 435.763 221.611 440.366 219.577 439.945C218.491 437.414 204.364 424.131 196.511 440.438C195.67 444.093 198.474 449.716 201.279 450.84C204.083 451.965 205.486 453.371 206.607 456.463C207.729 459.556 210.601 465.073 213.687 464.618C217.931 461.841 219.788 462.087 217.825 464.336C215.652 467.429 210.569 467.57 208.01 463.773C205.871 461.138 203.944 454.32 199.596 452.527C197.353 451.684 194.548 446.342 194.548 446.342C194.548 446.342 190.622 446.061 188.939 447.748C187.256 449.435 183.05 449.435 180.525 449.153C178.001 448.872 173.759 447.924 175.162 447.924C176.564 447.924 171.269 447.748 169.587 448.029C167.904 448.31 168.466 443.811 171.271 441.562C174.075 439.313 181.928 435.658 183.61 433.409C185.293 431.16 197.352 424.412 200.718 424.131C204.083 423.849 208.29 421.6 208.29 421.6C208.29 421.6 201.979 421.495 205.064 420.933C208.149 420.371 214.179 417.945 217.264 416.821C220.349 415.696 222.873 415.696 226.239 415.696C229.604 415.696 251.946 410.21 257.521 406.8C261.727 405.394 237.562 412.428 234.758 412.709C229.99 413.412 228.482 412.463 236.335 408.667C239.7 406.699 254.688 398.819 266.684 395.527C267.912 396.758 267.465 397.14 269.709 398.827Z" fill="white" stroke="black" stroke-width="0.5"/>
<path d="M208.471 445.113C208.362 445.126 207.91 445.206 207.62 445.511C207.298 445.927 207.025 446.3 206.863 446.702C206.744 447.238 206.587 447.681 206.674 448.192C206.855 448.691 207.099 449.047 207.431 449.383C207.805 449.847 208.078 450.082 208.471 450.376C208.91 450.584 209.331 450.99 209.702 451.17C209.879 451.412 210.336 451.59 210.553 451.866C210.806 452.205 211 452.373 211.026 452.859C211.19 453.341 211.245 453.935 211.31 454.447C211.403 455.011 211.535 455.54 211.594 456.036C211.831 456.461 212.089 456.679 212.635 456.831C213.087 456.911 213.555 456.93 214.055 456.93C214.337 456.659 214.819 456.352 215.096 456.036C215.096 455.771 215.096 455.507 215.096 455.242" stroke="white" stroke-width="2.45079" stroke-linecap="round"/>
<path fill-rule="evenodd" clip-rule="evenodd" d="M216.357 442.897C213.936 438.993 198.782 431.819 202.465 445.745C203.307 447.222 201.728 447.855 201.307 446.8C197.413 430.342 214.147 437.199 216.778 441.525C217.83 443.319 216.357 443.002 216.357 442.897Z" fill="white" stroke="white" stroke-width="0.968759"/>
<path d="M270.977 419.159C265.294 419.054 259.295 419.37 254.665 422.324C250.034 425.279 245.93 426.123 240.984 426.123C236.037 426.123 233.512 426.228 233.512 426.228" stroke="black" stroke-width="1.93752" stroke-linecap="round"/>
<path d="M201.037 427.711C191.54 431.396 189.857 432.48 185.847 435.081C181.837 437.683 180.355 438.116 176.978 440.284C174.467 441.802 172.968 443.536 172.968 443.536C170.806 445.27 182.351 436.816 189.852 438.55C192.595 438.55 193.018 438.55 195.55 435.732C198.083 432.914 201.037 430.529 205.258 428.795C209.479 427.06 216.865 424.242 216.865 424.242" stroke="black" stroke-width="1.91409"/>
<path d="M190.486 444.186C189.91 444.186 187.515 444.095 186.594 444.403C185.79 444.512 184.504 444.617 183.782 444.837C182.56 444.983 181.432 445.238 180.106 445.27C178.68 445.283 178.173 445.72 176.863 445.921C176.453 446.434 175.679 447.051 175.133 447.438" stroke="black" stroke-width="1.69533" stroke-linecap="round"/>
<path d="M268.946 436.195C265.459 441.016 260.114 443.66 254.273 444.914C254.421 446.331 261.362 446.421 263.95 449.707" stroke="white" stroke-width="2.17971"/>
<path d="M138.505 380.67C138.393 381.901 138.007 387.276 138.542 387.337C141.569 387.77 143.657 388.278 146.252 390.88C148.847 393.481 154.785 397.91 158.152 391.831C159.882 388.362 155.669 386.74 153.507 386.74C151.382 386.665 148.042 385.02 144.583 384.152C141.123 383.285 139.718 381.057 139.286 381.491L138.505 380.67Z" fill="white" stroke="black" stroke-width="1.93752"/>
<path d="M124.869 393.947C124.395 393.686 122.152 390.68 123.313 387.017C124.996 384.487 115.693 389.742 117.656 392.553C120.141 394.494 125.063 394.47 124.869 393.947Z" fill="white" stroke="black" stroke-width="1.93752"/>
<path d="M147.021 382.212C147.061 381.639 147.13 376.509 147.043 375.377C145.305 375.115 140.158 374.367 139.036 376.054C135.047 382.097 146.666 385.108 146.946 384.264L147.021 382.212Z" fill="white" stroke="black" stroke-width="1.93752"/>
<path d="M156.407 394.328L149.116 419.632C149.116 419.632 144.999 437.594 157.529 442.406C161.455 442.687 162.858 442.125 162.858 442.125L161.736 448.31C156.174 454.06 152.587 452.702 147.82 450.734C143.052 448.765 142.859 448.611 140.335 447.205C137.811 445.799 134.331 437.875 133.944 435.622C132.861 429.797 129.208 418.354 118.238 394.047C120.217 393.873 133.122 395.18 133.991 395.18C134.426 395.877 136.455 399.2 139.58 400.514C143.013 401.919 147.957 397.867 142.946 394.609C140.497 393.045 132.37 394.889 132.522 390.634C132.728 386.936 138.178 387.299 140.422 387.58C142.665 387.862 145.75 390.392 147.152 391.798C150.293 394.946 154.725 395.453 156.407 394.328Z" fill="white" stroke="black" stroke-width="1.93752"/>
<path d="M167.624 454.496C165.941 457.307 164.259 460.681 163.417 465.18C162.576 469.678 160.147 475.97 153.882 477.55C148.834 478.956 144.347 481.205 143.225 485.142C142.103 489.078 141.301 494.099 141.301 494.012L133.496 482.94C133.583 481.459 133.642 477.851 133.642 473.634C133.729 467.5 138.264 466.003 142.751 464.316C147.238 462.629 152.266 460.535 153.669 458.004C155.071 455.474 158.65 451.122 160.613 449.435C162.576 447.748 167.624 454.496 167.624 454.496Z" fill="white" stroke="black" stroke-width="1.93752"/>
<path d="M159.378 506.689C155.042 514.503 154.05 524.538 152.267 532.014C149.174 526.124 144.358 521.925 139.282 518.619C138.984 512.754 137.503 504.658 135.82 502.128C127.692 490.253 133.412 483.455 133.412 483.455C141.534 493.017 141.814 499.858 159.364 506.674L159.378 506.689Z" fill="white" stroke="black" stroke-width="1.93752"/>
<path d="M167.1 530.843C167.324 532.783 164.735 539.526 160.353 539.827C156.048 540.123 153.564 536.803 152.777 532.923L154.934 519.891L167.1 530.843Z" fill="white" stroke="black" stroke-width="1.93752"/>
<path fill-rule="evenodd" clip-rule="evenodd" d="M167.13 444.402C167.995 442.018 166.698 442.018 164.319 443.101C160.426 445.486 163.238 451.556 167.562 452.857C169.941 453.941 171.239 451.123 167.779 449.822C164.535 448.955 167.13 444.185 167.13 444.402Z" fill="white"/>
<path d="M167.13 444.402C167.995 442.018 166.698 442.018 164.319 443.101C160.426 445.486 163.238 451.556 167.562 452.857C169.941 453.941 171.239 451.123 167.779 449.822C164.535 448.955 167.13 444.185 167.13 444.402ZM167.13 444.402H166.914" stroke="black" stroke-width="0.968759"/>
<path d="M139.018 481.5C139.018 481.598 139.018 481.696 139.018 481.794C139.018 481.001 139.033 481.404 138.802 482.97C138.802 484.561 138.683 485.897 138.586 487.381C138.586 488.61 138.731 489.49 138.802 490.615" fill="white"/>
<path d="M139.018 481.5C139.018 481.598 139.018 481.696 139.018 481.794C139.018 481.001 139.033 481.404 138.802 482.97C138.802 484.561 138.683 485.897 138.586 487.381C138.586 488.61 138.731 489.49 138.802 490.615" stroke="black" stroke-width="1.21095"/>
<path d="M141.184 482.968C141.184 483.147 141.184 483.326 141.184 483.505C141.184 482.512 141.212 482.792 140.968 484.31C140.881 485.823 140.578 486.613 140.535 488.069C140.535 489.545 140.711 490.692 140.751 492.095" fill="white"/>
<path d="M141.184 482.968C141.184 483.147 141.184 483.326 141.184 483.505C141.184 482.512 141.212 482.792 140.968 484.31C140.881 485.823 140.578 486.613 140.535 488.069C140.535 489.545 140.711 490.692 140.751 492.095" stroke="black" stroke-width="1.21095"/>
<path d="M142.263 515.293C142.191 515.293 142.119 515.293 142.047 515.293C142.104 515.497 142.047 516.659 142.047 517.435C142.047 518.604 142.069 519.745 142.263 520.496" fill="white"/>
<path d="M142.263 515.293C142.191 515.293 142.119 515.293 142.047 515.293C142.104 515.497 142.047 516.659 142.047 517.435C142.047 518.604 142.069 519.745 142.263 520.496" stroke="black" stroke-width="1.21095"/>
<path d="M144.644 516.377C144.644 516.521 144.644 516.666 144.644 516.81V516.377C144.644 516.521 144.644 516.666 144.644 516.81V516.377C144.597 517.979 144.427 518.865 144.427 520.496C144.427 520.994 144.334 521.373 144.644 521.58" fill="white"/>
<path d="M144.644 516.377C144.644 516.521 144.644 516.666 144.644 516.81V516.377ZM144.644 516.377C144.597 517.979 144.427 518.865 144.427 520.496C144.427 520.994 144.334 521.373 144.644 521.58" stroke="black" stroke-width="1.21095"/>
<path d="M146.804 517.676C146.716 519.422 146.424 520.564 146.371 522.358C146.371 523.259 146.551 523.36 146.587 524.179" fill="white"/>
<path d="M146.804 517.676C146.716 519.422 146.424 520.564 146.371 522.358C146.371 523.259 146.551 523.36 146.587 524.179" stroke="black" stroke-width="1.21095"/>
<path d="M149.397 518.997C149.397 519.089 149.397 519.18 149.397 519.271C149.397 518.532 149.411 518.908 149.181 520.367C149.142 521.713 148.965 522.438 148.965 523.928C149.005 525.359 149.321 525.956 149.397 527.215" fill="white"/>
<path d="M149.397 518.997C149.397 519.089 149.397 519.18 149.397 519.271C149.397 518.532 149.411 518.908 149.181 520.367C149.142 521.713 148.965 522.438 148.965 523.928C149.005 525.359 149.321 525.956 149.397 527.215" stroke="black" stroke-width="1.21095"/>
<path d="M151.345 519.846C151.345 520.233 151.228 521.736 151.129 522.664C151.129 523.676 151.129 524.687 151.129 525.699C151.249 526.709 151.469 527.795 151.778 528.517C151.778 528.734 151.778 528.951 151.778 529.167" fill="white"/>
<path d="M151.345 519.846C151.345 520.233 151.228 521.736 151.129 522.664C151.129 523.676 151.129 524.687 151.129 525.699C151.249 526.709 151.469 527.795 151.778 528.517C151.778 528.734 151.778 528.951 151.778 529.167" stroke="black" stroke-width="1.21095"/>
<path d="M136.859 481.979C136.804 482.386 136.484 483.941 136.859 484.94C136.859 485.823 136.96 486.277 137.076 486.914" fill="white"/>
<path d="M136.859 481.979C136.804 482.386 136.484 483.941 136.859 484.94C136.859 485.823 136.96 486.277 137.076 486.914" stroke="black" stroke-width="1.21095"/>
<path d="M161.827 444.492C158.924 445.089 151.855 444.492 149.027 442.403C146.199 440.314 146.199 440.314 146.199 440.314" fill="white"/>
<path d="M161.827 444.492C158.924 445.089 151.855 444.492 149.027 442.403C146.199 440.314 146.199 440.314 146.199 440.314" stroke="black" stroke-width="0.968759"/>
<path d="M161.815 445.919C159.043 446.966 151.968 447.494 148.847 445.878C145.727 444.262 145.727 444.262 145.727 444.262" fill="white"/>
<path d="M161.815 445.919C159.043 446.966 151.968 447.494 148.847 445.878C145.727 444.262 145.727 444.262 145.727 444.262" stroke="black" stroke-width="0.968759"/>
<path d="M162.048 449.715C160.56 451.505 159.518 452.401 159.072 454.788C158.625 457.175 158.625 457.175 158.625 457.175" fill="white"/>
<path d="M162.048 449.715C160.56 451.505 159.518 452.401 159.072 454.788C158.625 457.175 158.625 457.175 158.625 457.175" stroke="black" stroke-width="0.968759"/>
<path d="M163.835 450.611C162.049 453.148 160.859 454.043 160.263 456.58C159.668 459.116 159.668 459.116 159.668 459.116" fill="white"/>
<path d="M163.835 450.611C162.049 453.148 160.859 454.043 160.263 456.58C159.668 459.116 159.668 459.116 159.668 459.116" stroke="black" stroke-width="0.968759"/>
<path d="M165.326 452.252C164.582 456.131 161.606 463.442 159.373 465.83C157.141 468.217 157.141 468.217 157.141 468.217" fill="white"/>
<path d="M165.326 452.252C164.582 456.131 161.606 463.442 159.373 465.83C157.141 468.217 157.141 468.217 157.141 468.217" stroke="black" stroke-width="0.968759"/>
<path d="M154.164 534.66C155.666 534.465 158.587 532.033 159.243 531.16C159.899 530.286 159.947 529.918 159.947 529.918" fill="white"/>
<path d="M154.164 534.66C155.666 534.465 158.587 532.033 159.243 531.16C159.899 530.286 159.947 529.918 159.947 529.918" stroke="black" stroke-width="1.15845"/>
<path d="M155.203 536.636C156.827 536.242 159.988 533.576 160.698 532.674C161.408 531.772 161.551 531.537 161.551 531.537" fill="white"/>
<path d="M155.203 536.636C156.827 536.242 159.988 533.576 160.698 532.674C161.408 531.772 161.551 531.537 161.551 531.537" stroke="black" stroke-width="1.15834"/>
<path d="M156.094 538.452C157.808 538.263 161.356 535.572 162.185 534.596C163.015 533.621 163.015 533.621 163.015 533.621" fill="white"/>
<path d="M156.094 538.452C157.808 538.263 161.356 535.572 162.185 534.596C163.015 533.621 163.015 533.621 163.015 533.621" stroke="black" stroke-width="1.3103"/>
<path d="M134.79 403.271C135.009 405.082 135.118 408.648 134.461 410.897C133.805 413.146 133.805 413.146 133.805 413.146" fill="white"/>
<path d="M134.79 403.271C135.009 405.082 135.118 408.648 134.461 410.897C133.805 413.146 133.805 413.146 133.805 413.146" stroke="black" stroke-width="0.968759"/>
<path d="M129.539 397.566C130.798 398.005 132.658 398.993 133.26 399.816C133.862 400.639 133.862 400.639 133.862 400.639" fill="white"/>
<path d="M129.539 397.566C130.798 398.005 132.658 398.993 133.26 399.816C133.862 400.639 133.862 400.639 133.862 400.639" stroke="black" stroke-width="0.968759"/>
<path d="M144.724 399.191C142.013 403.968 142.854 419.576 143.415 421.353C143.976 423.131 143.976 423.131 143.976 423.131" fill="white"/>
<path d="M144.724 399.191C142.013 403.968 142.854 419.576 143.415 421.353C143.976 423.131 143.976 423.131 143.976 423.131" stroke="black" stroke-width="1.27403"/>
<path d="M153.566 389.51C154.683 389.883 156.99 391.711 157.176 392.718Z" fill="white"/>
<path d="M153.566 389.51C154.683 389.883 156.99 391.711 157.176 392.718" stroke="black" stroke-width="0.968759"/>
<path d="M151.777 390.816C152.894 391.189 155.201 393.017 155.387 394.024Z" fill="white"/>
<path d="M151.777 390.816C152.894 391.189 155.201 393.017 155.387 394.024" stroke="black" stroke-width="0.968759"/>
<path d="M263.873 440.986C266.083 440.867 266.263 447.293 263.414 447.144" stroke="white" stroke-width="1.4047"/>
<path d="M263.562 441.113L263.638 446.498" stroke="white" stroke-width="3.4602"/>
<path d="M263.408 440.986C261.197 440.867 261.018 447.293 263.866 447.144" stroke="white" stroke-width="1.4047"/>
<path fill-rule="evenodd" clip-rule="evenodd" d="M630.087 181.177C645.334 188.246 649.06 197.556 655.793 204.981C662.526 212.406 672.565 228.379 692.091 222.979C692.704 218.979 695.226 207.946 702.588 202.956C707.138 200.178 712.688 196.206 713.698 189.456C721.777 191.481 742.01 193.101 742.987 182.368C743.323 178.656 740.151 172.968 743.544 169.052C744.31 169.077 748.604 169.163 749.73 168.636C750.908 167.241 749.745 162.166 748.891 161.039L748.9 160.992C750.916 160.807 756.116 156.043 749.72 152.668C748.033 150.681 748.328 149.056 748.334 147.224C749.391 147.239 751.988 147.209 752.368 147.183C759.11 147.158 758.244 142.797 756.302 138.156C754.956 135.118 747.363 120.606 746.017 118.581C744.67 116.556 744.67 115.543 745.68 113.518C746.69 111.493 746.353 108.118 745.68 105.756C745.007 103.393 743.66 99.6807 744.67 98.6682C745.68 97.6557 745.343 94.2808 745.007 93.6057C744.67 92.9307 744.67 91.2433 744.67 90.5682C744.67 89.8932 744.333 88.2058 743.323 87.5307C742.313 86.8557 741.64 84.4932 742.313 83.8182C742.987 83.1432 741.977 78.4182 740.967 78.0807C739.957 77.7432 737.937 77.0682 736.927 74.7057C737.046 71.3727 734.435 67.5902 732.887 65.9307C731.877 64.9182 732.214 61.5431 732.214 61.5431L729.252 61.6111C728.929 61.5033 726.491 58.1682 724.134 57.4931C721.778 56.8182 716.391 54.1182 716.391 54.1182L712.688 50.0682L709.321 51.7556C709.321 51.7556 706.628 50.7431 704.272 50.4057C701.915 50.0682 696.865 48.3807 695.182 45.6806C693.499 42.9806 693.835 48.8939 693.781 49.2175C693.566 49.2713 690.805 47.7056 686.092 48.0432C681.379 48.3807 675.993 50.4057 674.309 49.7306C672.626 49.0557 670.943 51.0807 670.943 51.0807C670.943 51.0807 667.576 53.1057 664.883 53.1057C662.19 53.1057 659.833 53.1057 659.833 53.1057L659.497 55.4681C659.497 55.4681 654.447 57.2096 652.09 58.2221C649.734 59.2345 647.714 60.5306 644.684 60.8682C641.654 61.2057 640.644 62.2182 640.644 62.2182L641.991 64.9182C641.991 64.9182 638.355 65.6611 637.277 69.3057C635.257 72.0057 632.564 76.3932 630.544 76.7307C628.524 77.0682 627.178 78.0807 627.178 78.0807L629.871 81.4557C629.871 81.4557 629.198 82.4682 627.851 83.8182C626.504 85.1683 623.811 87.5307 623.811 87.5307L625.494 90.5682C625.494 90.5682 625.494 91.2433 625.158 92.9307C624.821 94.6182 624.821 97.6557 623.138 98.3308C621.455 99.0058 621.455 101.031 621.455 101.031C621.455 101.031 621.118 101.368 623.138 102.043C625.158 102.718 626.504 102.718 625.494 104.068C624.485 105.418 622.801 107.781 622.801 107.781C622.801 107.781 624.485 108.793 626.168 109.131C627.851 109.468 629.534 109.468 629.534 109.468C629.534 109.468 628.188 115.881 626.841 116.893C625.494 117.906 628.861 118.581 630.881 117.568C632.901 116.556 631.639 120.606 630.292 120.943C628.945 121.281 630.781 121.753 632.363 121.77C633.71 121.432 635.443 121.668 634.669 123.66C633.659 126.36 632.564 127.693 635.257 129.043C637.951 130.393 640.392 136.468 639.045 138.493C637.698 140.518 636.941 143.556 636.941 143.556L643.337 143.893C643.337 143.893 643.775 144.906 642.092 146.593C640.408 148.281 638.725 150.205 638.961 150.677C638.91 151.407 644.027 151.111 643.976 151.841C639.623 173.415 629.282 179.466 629.268 180.602L630.087 181.177Z" fill="black" stroke="black" stroke-width="0.968759"/>
<path fill-rule="evenodd" clip-rule="evenodd" d="M737.353 77.8364C739.597 79.5233 741.56 82.3349 739.597 84.0218C737.073 86.271 735.951 87.1145 735.951 87.1145C735.951 87.1145 740.438 85.7087 741.279 87.3956C742.121 89.0826 743.103 91.6484 741.279 92.1753C739.877 93.0188 736.792 94.7057 736.792 94.7057C736.792 94.7057 743.803 93.8623 742.121 94.1434C742.962 96.3926 743.803 100.329 739.316 102.016C734.829 103.703 720.807 108.763 718.282 110.169C715.758 111.575 710.149 112.418 707.345 112.418C704.54 112.418 694.163 112.981 695.846 112.981L702.016 114.668C703.069 114.773 689.256 119.376 687.222 118.955C686.135 116.424 672.008 103.14 664.156 119.447C663.314 123.102 666.119 128.726 668.923 129.85C671.728 130.975 673.13 132.38 674.252 135.473C675.374 138.566 678.246 144.083 681.332 143.627C685.576 140.851 687.433 141.096 685.47 143.346C683.296 146.439 678.213 146.58 675.654 142.783C673.516 140.147 671.589 133.33 667.241 131.537C664.997 130.694 662.193 125.352 662.193 125.352C662.193 125.352 658.266 125.07 656.584 126.757C654.901 128.444 650.694 128.444 648.17 128.163C645.646 127.882 641.404 126.934 642.806 126.934C644.208 126.934 638.914 126.758 637.231 127.039C635.549 127.32 636.111 122.821 638.915 120.572C641.72 118.323 649.572 114.668 651.255 112.418C652.938 110.169 664.997 103.422 668.362 103.14C671.728 102.859 675.935 100.61 675.935 100.61C675.935 100.61 669.624 100.505 672.709 99.9427C675.793 99.3804 681.824 96.9549 684.909 95.8303C687.994 94.7057 690.518 94.7057 693.883 94.7057C697.249 94.7057 719.59 89.22 725.165 85.8096C729.372 84.4039 705.207 91.4373 702.402 91.7186C697.634 92.4215 696.127 91.4725 703.98 87.6768C707.345 85.7087 722.333 77.8292 734.328 74.5371C735.556 75.7681 735.109 76.1495 737.353 77.8364Z" fill="white" stroke="black" stroke-width="0.5"/>
<path d="M676.116 124.123C676.007 124.136 675.554 124.216 675.264 124.52C674.943 124.936 674.67 125.31 674.507 125.712C674.388 126.248 674.231 126.691 674.318 127.201C674.5 127.701 674.743 128.057 675.075 128.393C675.45 128.857 675.722 129.092 676.116 129.386C676.555 129.594 676.975 130 677.346 130.18C677.524 130.421 677.98 130.599 678.198 130.875C678.45 131.214 678.645 131.383 678.671 131.868C678.835 132.351 678.889 132.945 678.955 133.457C679.048 134.021 679.18 134.55 679.239 135.046C679.475 135.471 679.733 135.689 680.28 135.84C680.732 135.921 681.2 135.94 681.699 135.94C681.982 135.668 682.464 135.362 682.74 135.046C682.74 134.781 682.74 134.516 682.74 134.251" stroke="white" stroke-width="2.45079" stroke-linecap="round"/>
<path fill-rule="evenodd" clip-rule="evenodd" d="M684.001 121.906C681.581 118.003 666.426 110.828 670.11 124.755C670.951 126.232 669.373 126.865 668.952 125.81C665.058 109.351 681.791 116.209 684.422 120.535C685.475 122.328 684.001 122.012 684.001 121.906Z" fill="white" stroke="white" stroke-width="0.968759"/>
<path d="M738.622 98.1691C732.939 98.0636 726.94 98.3801 722.309 101.334C717.679 104.288 713.575 105.132 708.628 105.132C703.682 105.132 701.156 105.238 701.156 105.238" stroke="black" stroke-width="1.93752" stroke-linecap="round"/>
<path d="M668.682 106.72C659.185 110.406 657.502 111.49 653.492 114.091C649.482 116.693 647.999 117.126 644.623 119.294C642.111 120.811 640.613 122.546 640.613 122.546C638.451 124.28 649.996 115.825 657.496 117.56C660.24 117.56 660.662 117.56 663.195 114.742C665.727 111.923 668.682 109.539 672.903 107.804C677.123 106.07 684.51 103.252 684.51 103.252" stroke="black" stroke-width="1.91409"/>
<path d="M658.13 123.196C657.555 123.196 655.159 123.105 654.238 123.413C653.434 123.522 652.148 123.626 651.427 123.847C650.204 123.992 649.077 124.248 647.751 124.28C646.325 124.293 645.818 124.73 644.507 124.93C644.098 125.444 643.324 126.06 642.777 126.448" stroke="black" stroke-width="1.69533" stroke-linecap="round"/>
<path d="M736.59 115.205C733.103 120.026 727.759 122.67 721.918 123.924C722.066 125.341 729.007 125.431 731.594 128.717" stroke="white" stroke-width="2.17971"/>
<path d="M606.153 59.6777C606.042 60.9087 605.656 66.2839 606.19 66.3445C609.218 66.778 611.306 67.2862 613.901 69.8876C616.495 72.489 622.434 76.9183 625.801 70.8386C627.531 67.3701 623.318 65.7477 621.155 65.7477C619.03 65.6731 615.691 64.0275 612.231 63.1602C608.771 62.2932 607.367 60.0648 606.934 60.4984L606.153 59.6777Z" fill="white" stroke="black" stroke-width="1.93752"/>
<path d="M592.514 72.9571C592.04 72.6957 589.796 69.6902 590.957 66.0272C592.64 63.4968 583.338 68.7517 585.301 71.5632C587.786 73.5035 592.707 73.4798 592.514 72.9571Z" fill="white" stroke="black" stroke-width="1.93752"/>
<path d="M614.665 61.2223C614.705 60.6488 614.774 55.519 614.688 54.3864C612.949 54.125 607.803 53.3767 606.681 55.0636C602.691 61.1067 614.31 64.1174 614.591 63.2739L614.665 61.2223Z" fill="white" stroke="black" stroke-width="1.93752"/>
<path d="M624.052 73.338L616.76 98.642C616.76 98.642 612.644 116.604 625.174 121.415C629.1 121.697 630.502 121.134 630.502 121.134L629.38 127.32C623.818 133.07 620.232 131.711 615.464 129.743C610.697 127.775 610.503 127.621 607.979 126.215C605.455 124.809 601.975 116.885 601.588 114.632C600.506 108.807 596.852 97.3639 585.883 73.0568C587.862 72.8826 600.766 74.1894 601.636 74.1894C602.07 74.8863 604.099 78.2102 607.225 79.5234C610.657 80.9291 615.601 76.8768 610.59 73.6191C608.141 72.0543 600.015 73.8984 600.166 69.6433C600.373 65.9462 605.823 66.3091 608.066 66.5903C610.31 66.8714 613.395 69.4018 614.797 70.8075C617.937 73.9558 622.369 74.4626 624.052 73.338Z" fill="white" stroke="black" stroke-width="1.93752"/>
<path d="M635.269 133.505C633.586 136.317 631.903 139.691 631.062 144.189C630.221 148.688 627.791 154.98 621.527 156.56C616.479 157.966 611.991 160.215 610.869 164.151C609.748 168.087 608.946 173.109 608.946 173.022L601.141 161.95C601.228 160.469 601.287 156.861 601.287 152.644C601.374 146.51 605.908 145.013 610.395 143.326C614.883 141.639 619.911 139.544 621.313 137.014C622.716 134.484 626.294 130.132 628.257 128.445C630.221 126.758 635.269 133.505 635.269 133.505Z" fill="white" stroke="black" stroke-width="1.93752"/>
<path d="M627.022 185.698C622.687 193.513 621.695 203.548 619.912 211.024C616.818 205.134 612.003 200.935 606.926 197.629C606.629 191.764 605.147 183.668 603.464 181.138C595.337 169.263 601.057 162.465 601.057 162.465C609.178 172.027 609.458 178.868 627.008 185.684L627.022 185.698Z" fill="white" stroke="black" stroke-width="1.93752"/>
<path d="M634.745 209.851C634.968 211.791 632.379 218.534 627.997 218.835C623.692 219.131 621.209 215.811 620.422 211.93L622.579 198.898L634.745 209.851Z" fill="white" stroke="black" stroke-width="1.93752"/>
<path fill-rule="evenodd" clip-rule="evenodd" d="M634.774 123.412C635.639 121.027 634.342 121.027 631.963 122.111C628.071 124.496 630.882 130.566 635.207 131.867C637.586 132.951 638.883 130.132 635.423 128.832C632.18 127.965 634.774 123.195 634.774 123.412Z" fill="white"/>
<path d="M634.774 123.412C635.639 121.027 634.342 121.027 631.963 122.111C628.071 124.496 630.882 130.566 635.207 131.867C637.586 132.951 638.883 130.132 635.423 128.832C632.18 127.965 634.774 123.195 634.774 123.412ZM634.774 123.412H634.558" stroke="black" stroke-width="0.968759"/>
<path d="M606.663 160.51C606.663 160.608 606.663 160.706 606.663 160.804C606.663 160.01 606.677 160.414 606.447 161.98C606.447 163.571 606.328 164.907 606.23 166.391C606.23 167.619 606.376 168.5 606.447 169.625" fill="white"/>
<path d="M606.663 160.51C606.663 160.608 606.663 160.706 606.663 160.804C606.663 160.01 606.677 160.414 606.447 161.98C606.447 163.571 606.328 164.907 606.23 166.391C606.23 167.619 606.376 168.5 606.447 169.625" stroke="black" stroke-width="1.21095"/>
<path d="M608.828 161.978C608.828 162.157 608.828 162.336 608.828 162.515C608.828 161.521 608.857 161.802 608.612 163.32C608.525 164.833 608.223 165.623 608.18 167.078C608.18 168.555 608.356 169.702 608.396 171.105" fill="white"/>
<path d="M608.828 161.978C608.828 162.157 608.828 162.336 608.828 162.515C608.828 161.521 608.857 161.802 608.612 163.32C608.525 164.833 608.223 165.623 608.18 167.078C608.18 168.555 608.356 169.702 608.396 171.105" stroke="black" stroke-width="1.21095"/>
<path d="M609.908 194.303C609.836 194.303 609.764 194.303 609.691 194.303C609.749 194.507 609.691 195.669 609.691 196.445C609.691 197.613 609.713 198.754 609.908 199.506" fill="white"/>
<path d="M609.908 194.303C609.836 194.303 609.764 194.303 609.691 194.303C609.749 194.507 609.691 195.669 609.691 196.445C609.691 197.613 609.713 198.754 609.908 199.506" stroke="black" stroke-width="1.21095"/>
<path d="M612.288 195.385C612.288 195.529 612.288 195.674 612.288 195.818V195.385C612.288 195.529 612.288 195.674 612.288 195.818V195.385C612.241 196.987 612.072 197.873 612.072 199.504C612.072 200.002 611.978 200.381 612.288 200.588" fill="white"/>
<path d="M612.288 195.385C612.288 195.529 612.288 195.674 612.288 195.818V195.385ZM612.288 195.385C612.241 196.987 612.072 197.873 612.072 199.504C612.072 200.002 611.978 200.381 612.288 200.588" stroke="black" stroke-width="1.21095"/>
<path d="M614.448 196.686C614.36 198.431 614.069 199.574 614.016 201.368C614.016 202.269 614.196 202.37 614.232 203.189" fill="white"/>
<path d="M614.448 196.686C614.36 198.431 614.069 199.574 614.016 201.368C614.016 202.269 614.196 202.37 614.232 203.189" stroke="black" stroke-width="1.21095"/>
<path d="M617.042 198.007C617.042 198.098 617.042 198.19 617.042 198.281C617.042 197.541 617.056 197.918 616.826 199.377C616.786 200.723 616.609 201.448 616.609 202.938C616.65 204.369 616.965 204.965 617.042 206.225" fill="white"/>
<path d="M617.042 198.007C617.042 198.098 617.042 198.19 617.042 198.281C617.042 197.541 617.056 197.918 616.826 199.377C616.786 200.723 616.609 201.448 616.609 202.938C616.65 204.369 616.965 204.965 617.042 206.225" stroke="black" stroke-width="1.21095"/>
<path d="M618.99 198.854C618.99 199.241 618.873 200.744 618.773 201.672C618.773 202.683 618.773 203.695 618.773 204.707C618.893 205.717 619.113 206.803 619.422 207.525C619.422 207.742 619.422 207.958 619.422 208.175" fill="white"/>
<path d="M618.99 198.854C618.99 199.241 618.873 200.744 618.773 201.672C618.773 202.683 618.773 203.695 618.773 204.707C618.893 205.717 619.113 206.803 619.422 207.525C619.422 207.742 619.422 207.958 619.422 208.175" stroke="black" stroke-width="1.21095"/>
<path d="M604.504 160.986C604.449 161.393 604.129 162.948 604.504 163.948C604.504 164.831 604.605 165.284 604.72 165.922" fill="white"/>
<path d="M604.504 160.986C604.449 161.393 604.129 162.948 604.504 163.948C604.504 164.831 604.605 165.284 604.72 165.922" stroke="black" stroke-width="1.21095"/>
<path d="M629.471 123.502C626.569 124.099 619.499 123.502 616.672 121.413C613.844 119.324 613.844 119.324 613.844 119.324" fill="white"/>
<path d="M629.471 123.502C626.569 124.099 619.499 123.502 616.672 121.413C613.844 119.324 613.844 119.324 613.844 119.324" stroke="black" stroke-width="0.968759"/>
<path d="M629.46 124.926C626.688 125.974 619.613 126.502 616.492 124.886C613.371 123.27 613.371 123.27 613.371 123.27" fill="white"/>
<path d="M629.46 124.926C626.688 125.974 619.613 126.502 616.492 124.886C613.371 123.27 613.371 123.27 613.371 123.27" stroke="black" stroke-width="0.968759"/>
<path d="M629.693 128.725C628.204 130.515 627.163 131.41 626.716 133.798C626.27 136.185 626.27 136.185 626.27 136.185" fill="white"/>
<path d="M629.693 128.725C628.204 130.515 627.163 131.41 626.716 133.798C626.27 136.185 626.27 136.185 626.27 136.185" stroke="black" stroke-width="0.968759"/>
<path d="M631.48 129.619C629.694 132.156 628.503 133.051 627.908 135.587C627.312 138.124 627.312 138.124 627.312 138.124" fill="white"/>
<path d="M631.48 129.619C629.694 132.156 628.503 133.051 627.908 135.587C627.312 138.124 627.312 138.124 627.312 138.124" stroke="black" stroke-width="0.968759"/>
<path d="M632.971 131.262C632.227 135.141 629.25 142.452 627.018 144.839C624.785 147.227 624.785 147.227 624.785 147.227" fill="white"/>
<path d="M632.971 131.262C632.227 135.141 629.25 142.452 627.018 144.839C624.785 147.227 624.785 147.227 624.785 147.227" stroke="black" stroke-width="0.968759"/>
<path d="M621.809 213.669C623.31 213.475 626.232 211.043 626.887 210.169C627.543 209.296 627.591 208.928 627.591 208.928" fill="white"/>
<path d="M621.809 213.669C623.31 213.475 626.232 211.043 626.887 210.169C627.543 209.296 627.591 208.928 627.591 208.928" stroke="black" stroke-width="1.15845"/>
<path d="M622.848 215.646C624.471 215.252 627.633 212.586 628.342 211.684C629.052 210.782 629.196 210.547 629.196 210.547" fill="white"/>
<path d="M622.848 215.646C624.471 215.252 627.633 212.586 628.342 211.684C629.052 210.782 629.196 210.547 629.196 210.547" stroke="black" stroke-width="1.15834"/>
<path d="M623.738 217.462C625.453 217.273 629 214.581 629.83 213.606C630.66 212.631 630.66 212.631 630.66 212.631" fill="white"/>
<path d="M623.738 217.462C625.453 217.273 629 214.581 629.83 213.606C630.66 212.631 630.66 212.631 630.66 212.631" stroke="black" stroke-width="1.3103"/>
<path d="M602.434 82.2812C602.653 84.0917 602.763 87.6576 602.106 89.9069C601.449 92.1562 601.449 92.1562 601.449 92.1562" fill="white"/>
<path d="M602.434 82.2812C602.653 84.0917 602.763 87.6576 602.106 89.9069C601.449 92.1562 601.449 92.1562 601.449 92.1562" stroke="black" stroke-width="0.968759"/>
<path d="M597.188 76.5762C598.446 77.015 600.307 78.0025 600.909 78.8255C601.511 79.6484 601.511 79.6484 601.511 79.6484" fill="white"/>
<path d="M597.188 76.5762C598.446 77.015 600.307 78.0025 600.909 78.8255C601.511 79.6484 601.511 79.6484 601.511 79.6484" stroke="black" stroke-width="0.968759"/>
<path d="M612.368 78.2012C609.657 82.978 610.499 98.5857 611.059 100.363C611.62 102.14 611.62 102.14 611.62 102.14" fill="white"/>
<path d="M612.368 78.2012C609.657 82.978 610.499 98.5857 611.059 100.363C611.62 102.14 611.62 102.14 611.62 102.14" stroke="black" stroke-width="1.27403"/>
<path d="M621.211 68.5195C622.327 68.8925 624.634 70.7203 624.82 71.7274Z" fill="white"/>
<path d="M621.211 68.5195C622.327 68.8925 624.634 70.7203 624.82 71.7274" stroke="black" stroke-width="0.968759"/>
<path d="M619.426 69.8262C620.542 70.1992 622.849 72.027 623.035 73.034Z" fill="white"/>
<path d="M619.426 69.8262C620.542 70.1992 622.849 72.027 623.035 73.034" stroke="black" stroke-width="0.968759"/>
<path d="M731.517 119.996C733.728 119.877 733.907 126.303 731.059 126.154" stroke="white" stroke-width="1.4047"/>
<path d="M731.207 120.123L731.283 125.508" stroke="white" stroke-width="3.4602"/>
<path d="M731.052 119.996C728.842 119.877 728.662 126.303 731.511 126.154" stroke="white" stroke-width="1.4047"/>
<path fill-rule="evenodd" clip-rule="evenodd" d="M630.087 502.167C645.334 509.237 649.06 518.546 655.793 525.971C662.526 533.396 672.565 549.369 692.091 543.969C692.704 539.969 695.226 528.936 702.588 523.946C707.138 521.168 712.688 517.196 713.698 510.446C721.777 512.471 742.01 514.091 742.987 503.359C743.323 499.646 740.151 493.958 743.544 490.042C744.31 490.067 748.604 490.153 749.73 489.626C750.908 488.231 749.745 483.156 748.891 482.029L748.9 481.982C750.916 481.798 756.116 477.034 749.72 473.659C748.033 471.671 748.328 470.046 748.334 468.214C749.391 468.229 751.988 468.199 752.368 468.173C759.11 468.148 758.244 463.788 756.302 459.146C754.956 456.109 747.363 441.596 746.017 439.571C744.67 437.546 744.67 436.534 745.68 434.509C746.69 432.483 746.353 429.109 745.68 426.746C745.007 424.383 743.66 420.671 744.67 419.658C745.68 418.646 745.343 415.271 745.007 414.596C744.67 413.921 744.67 412.233 744.67 411.558C744.67 410.883 744.333 409.196 743.323 408.521C742.313 407.846 741.64 405.483 742.313 404.808C742.987 404.133 741.977 399.408 740.967 399.071C739.957 398.733 737.937 398.058 736.927 395.696C737.046 392.363 734.435 388.58 732.887 386.921C731.877 385.908 732.214 382.533 732.214 382.533L729.252 382.601C728.929 382.494 726.491 379.158 724.134 378.483C721.778 377.808 716.391 375.108 716.391 375.108L712.688 371.058L709.321 372.746C709.321 372.746 706.628 371.733 704.272 371.396C701.915 371.058 696.865 369.371 695.182 366.671C693.499 363.971 693.835 369.884 693.781 370.208C693.566 370.262 690.805 368.696 686.092 369.033C681.379 369.371 675.993 371.396 674.309 370.721C672.626 370.046 670.943 372.071 670.943 372.071C670.943 372.071 667.576 374.096 664.883 374.096C662.19 374.096 659.833 374.096 659.833 374.096L659.497 376.458C659.497 376.458 654.447 378.2 652.09 379.212C649.734 380.225 647.714 381.521 644.684 381.858C641.654 382.196 640.644 383.208 640.644 383.208L641.991 385.908C641.991 385.908 638.355 386.651 637.277 390.296C635.257 392.996 632.564 397.383 630.544 397.721C628.524 398.058 627.178 399.071 627.178 399.071L629.871 402.446C629.871 402.446 629.198 403.458 627.851 404.808C626.504 406.158 623.811 408.521 623.811 408.521L625.494 411.558C625.494 411.558 625.494 412.233 625.158 413.921C624.821 415.608 624.821 418.646 623.138 419.321C621.455 419.996 621.455 422.021 621.455 422.021C621.455 422.021 621.118 422.358 623.138 423.034C625.158 423.709 626.504 423.709 625.494 425.059C624.485 426.408 622.801 428.771 622.801 428.771C622.801 428.771 624.485 429.784 626.168 430.121C627.851 430.458 629.534 430.458 629.534 430.458C629.534 430.458 628.188 436.871 626.841 437.884C625.494 438.896 628.861 439.571 630.881 438.559C632.901 437.546 631.639 441.596 630.292 441.934C628.945 442.271 630.781 442.743 632.363 442.76C633.71 442.423 635.443 442.659 634.669 444.65C633.659 447.35 632.564 448.684 635.257 450.034C637.951 451.384 640.392 457.459 639.045 459.484C637.698 461.509 636.941 464.546 636.941 464.546L643.337 464.884C643.337 464.884 643.775 465.896 642.092 467.584C640.408 469.271 638.725 471.195 638.961 471.667C638.91 472.397 644.027 472.101 643.976 472.831C639.623 494.405 629.282 500.456 629.268 501.593L630.087 502.167Z" fill="black" stroke="black" stroke-width="0.968759"/>
<path fill-rule="evenodd" clip-rule="evenodd" d="M737.353 398.827C739.597 400.514 741.56 403.325 739.597 405.012C737.073 407.261 735.951 408.105 735.951 408.105C735.951 408.105 740.438 406.699 741.279 408.386C742.121 410.073 743.103 412.639 741.279 413.166C739.877 414.009 736.792 415.696 736.792 415.696C736.792 415.696 743.803 414.852 742.121 415.134C742.962 417.383 743.803 421.319 739.316 423.006C734.829 424.693 720.807 429.754 718.282 431.16C715.758 432.565 710.149 433.409 707.345 433.409C704.54 433.409 694.163 433.971 695.846 433.971L702.016 435.658C703.069 435.763 689.256 440.366 687.222 439.945C686.135 437.414 672.008 424.131 664.156 440.438C663.314 444.093 666.119 449.716 668.923 450.84C671.728 451.965 673.13 453.371 674.252 456.463C675.374 459.556 678.246 465.073 681.332 464.618C685.576 461.841 687.433 462.087 685.47 464.336C683.296 467.429 678.213 467.57 675.654 463.773C673.516 461.138 671.589 454.32 667.241 452.527C664.997 451.684 662.193 446.342 662.193 446.342C662.193 446.342 658.266 446.061 656.584 447.748C654.901 449.435 650.694 449.435 648.17 449.153C645.646 448.872 641.404 447.924 642.806 447.924C644.208 447.924 638.914 447.748 637.231 448.029C635.549 448.31 636.111 443.811 638.915 441.562C641.72 439.313 649.572 435.658 651.255 433.409C652.938 431.16 664.997 424.412 668.362 424.131C671.728 423.849 675.935 421.6 675.935 421.6C675.935 421.6 669.624 421.495 672.709 420.933C675.793 420.371 681.824 417.945 684.909 416.821C687.994 415.696 690.518 415.696 693.883 415.696C697.249 415.696 719.59 410.21 725.165 406.8C729.372 405.394 705.207 412.428 702.402 412.709C697.634 413.412 696.127 412.463 703.98 408.667C707.345 406.699 722.333 398.819 734.328 395.527C735.556 396.758 735.109 397.14 737.353 398.827Z" fill="white" stroke="black" stroke-width="0.5"/>
<path d="M676.116 445.113C676.007 445.126 675.554 445.206 675.264 445.511C674.943 445.927 674.67 446.3 674.507 446.702C674.388 447.238 674.231 447.681 674.318 448.192C674.5 448.691 674.743 449.047 675.075 449.383C675.45 449.847 675.722 450.082 676.116 450.376C676.555 450.584 676.975 450.99 677.346 451.17C677.524 451.412 677.98 451.59 678.198 451.866C678.45 452.205 678.645 452.373 678.671 452.859C678.835 453.341 678.889 453.935 678.955 454.447C679.048 455.011 679.18 455.54 679.239 456.036C679.475 456.461 679.733 456.679 680.28 456.831C680.732 456.911 681.2 456.93 681.699 456.93C681.982 456.659 682.464 456.352 682.74 456.036C682.74 455.771 682.74 455.507 682.74 455.242" stroke="white" stroke-width="2.45079" stroke-linecap="round"/>
<path fill-rule="evenodd" clip-rule="evenodd" d="M684.001 442.897C681.581 438.993 666.426 431.819 670.11 445.745C670.951 447.222 669.373 447.855 668.952 446.8C665.058 430.342 681.791 437.199 684.422 441.525C685.475 443.319 684.001 443.002 684.001 442.897Z" fill="white" stroke="white" stroke-width="0.968759"/>
<path d="M738.622 419.159C732.939 419.054 726.94 419.37 722.309 422.324C717.679 425.279 713.575 426.123 708.628 426.123C703.682 426.123 701.156 426.228 701.156 426.228" stroke="black" stroke-width="1.93752" stroke-linecap="round"/>
<path d="M668.682 427.711C659.185 431.396 657.502 432.48 653.492 435.081C649.482 437.683 647.999 438.116 644.623 440.284C642.111 441.802 640.613 443.536 640.613 443.536C638.451 445.27 649.996 436.816 657.496 438.55C660.24 438.55 660.662 438.55 663.195 435.732C665.727 432.914 668.682 430.529 672.903 428.795C677.123 427.06 684.51 424.242 684.51 424.242" stroke="black" stroke-width="1.91409"/>
<path d="M658.13 444.186C657.555 444.186 655.159 444.095 654.238 444.403C653.434 444.512 652.148 444.617 651.427 444.837C650.204 444.983 649.077 445.238 647.751 445.27C646.325 445.283 645.818 445.72 644.507 445.921C644.098 446.434 643.324 447.051 642.777 447.438" stroke="black" stroke-width="1.69533" stroke-linecap="round"/>
<path d="M736.59 436.195C733.103 441.016 727.759 443.66 721.918 444.914C722.066 446.331 729.007 446.421 731.594 449.707" stroke="white" stroke-width="2.17971"/>
<path d="M606.153 380.67C606.042 381.901 605.656 387.276 606.19 387.337C609.218 387.77 611.306 388.278 613.901 390.88C616.495 393.481 622.434 397.91 625.801 391.831C627.531 388.362 623.318 386.74 621.155 386.74C619.03 386.665 615.691 385.02 612.231 384.152C608.771 383.285 607.367 381.057 606.934 381.491L606.153 380.67Z" fill="white" stroke="black" stroke-width="1.93752"/>
<path d="M592.514 393.947C592.04 393.686 589.796 390.68 590.957 387.017C592.64 384.487 583.338 389.742 585.301 392.553C587.786 394.494 592.707 394.47 592.514 393.947Z" fill="white" stroke="black" stroke-width="1.93752"/>
<path d="M614.665 382.212C614.705 381.639 614.774 376.509 614.688 375.377C612.949 375.115 607.803 374.367 606.681 376.054C602.691 382.097 614.31 385.108 614.591 384.264L614.665 382.212Z" fill="white" stroke="black" stroke-width="1.93752"/>
<path d="M624.052 394.328L616.76 419.632C616.76 419.632 612.644 437.594 625.174 442.406C629.1 442.687 630.502 442.125 630.502 442.125L629.38 448.31C623.818 454.06 620.232 452.702 615.464 450.734C610.697 448.765 610.503 448.611 607.979 447.205C605.455 445.799 601.975 437.875 601.588 435.622C600.506 429.797 596.852 418.354 585.883 394.047C587.862 393.873 600.766 395.18 601.636 395.18C602.07 395.877 604.099 399.2 607.225 400.514C610.657 401.919 615.601 397.867 610.59 394.609C608.141 393.045 600.015 394.889 600.166 390.634C600.373 386.936 605.823 387.299 608.066 387.58C610.31 387.862 613.395 390.392 614.797 391.798C617.937 394.946 622.369 395.453 624.052 394.328Z" fill="white" stroke="black" stroke-width="1.93752"/>
<path d="M635.269 454.496C633.586 457.307 631.903 460.681 631.062 465.18C630.221 469.678 627.791 475.97 621.527 477.55C616.479 478.956 611.991 481.205 610.869 485.142C609.748 489.078 608.946 494.099 608.946 494.012L601.141 482.94C601.228 481.459 601.287 477.851 601.287 473.634C601.374 467.5 605.908 466.003 610.395 464.316C614.883 462.629 619.911 460.535 621.313 458.004C622.716 455.474 626.294 451.122 628.257 449.435C630.221 447.748 635.269 454.496 635.269 454.496Z" fill="white" stroke="black" stroke-width="1.93752"/>
<path d="M627.022 506.689C622.687 514.503 621.695 524.538 619.912 532.014C616.818 526.124 612.003 521.925 606.926 518.619C606.629 512.754 605.147 504.658 603.464 502.128C595.337 490.253 601.057 483.455 601.057 483.455C609.178 493.017 609.458 499.858 627.008 506.674L627.022 506.689Z" fill="white" stroke="black" stroke-width="1.93752"/>
<path d="M634.745 530.843C634.968 532.783 632.379 539.526 627.997 539.827C623.692 540.123 621.209 536.803 620.422 532.923L622.579 519.891L634.745 530.843Z" fill="white" stroke="black" stroke-width="1.93752"/>
<path fill-rule="evenodd" clip-rule="evenodd" d="M634.774 444.402C635.639 442.018 634.342 442.018 631.963 443.101C628.071 445.486 630.882 451.556 635.207 452.857C637.586 453.941 638.883 451.123 635.423 449.822C632.18 448.955 634.774 444.185 634.774 444.402Z" fill="white"/>
<path d="M634.774 444.402C635.639 442.018 634.342 442.018 631.963 443.101C628.071 445.486 630.882 451.556 635.207 452.857C637.586 453.941 638.883 451.123 635.423 449.822C632.18 448.955 634.774 444.185 634.774 444.402ZM634.774 444.402H634.558" stroke="black" stroke-width="0.968759"/>
<path d="M606.663 481.5C606.663 481.598 606.663 481.696 606.663 481.794C606.663 481.001 606.677 481.404 606.447 482.97C606.447 484.561 606.328 485.897 606.23 487.381C606.23 488.61 606.376 489.49 606.447 490.615" fill="white"/>
<path d="M606.663 481.5C606.663 481.598 606.663 481.696 606.663 481.794C606.663 481.001 606.677 481.404 606.447 482.97C606.447 484.561 606.328 485.897 606.23 487.381C606.23 488.61 606.376 489.49 606.447 490.615" stroke="black" stroke-width="1.21095"/>
<path d="M608.828 482.968C608.828 483.147 608.828 483.326 608.828 483.505C608.828 482.512 608.857 482.792 608.612 484.31C608.525 485.823 608.223 486.613 608.18 488.069C608.18 489.545 608.356 490.692 608.396 492.095" fill="white"/>
<path d="M608.828 482.968C608.828 483.147 608.828 483.326 608.828 483.505C608.828 482.512 608.857 482.792 608.612 484.31C608.525 485.823 608.223 486.613 608.18 488.069C608.18 489.545 608.356 490.692 608.396 492.095" stroke="black" stroke-width="1.21095"/>
<path d="M609.908 515.293C609.836 515.293 609.764 515.293 609.691 515.293C609.749 515.497 609.691 516.659 609.691 517.435C609.691 518.604 609.713 519.745 609.908 520.496" fill="white"/>
<path d="M609.908 515.293C609.836 515.293 609.764 515.293 609.691 515.293C609.749 515.497 609.691 516.659 609.691 517.435C609.691 518.604 609.713 519.745 609.908 520.496" stroke="black" stroke-width="1.21095"/>
<path d="M612.288 516.377C612.288 516.521 612.288 516.666 612.288 516.81V516.377C612.288 516.521 612.288 516.666 612.288 516.81V516.377C612.241 517.979 612.072 518.865 612.072 520.496C612.072 520.994 611.978 521.373 612.288 521.58" fill="white"/>
<path d="M612.288 516.377C612.288 516.521 612.288 516.666 612.288 516.81V516.377ZM612.288 516.377C612.241 517.979 612.072 518.865 612.072 520.496C612.072 520.994 611.978 521.373 612.288 521.58" stroke="black" stroke-width="1.21095"/>
<path d="M614.448 517.676C614.36 519.422 614.069 520.564 614.016 522.358C614.016 523.259 614.196 523.36 614.232 524.179" fill="white"/>
<path d="M614.448 517.676C614.36 519.422 614.069 520.564 614.016 522.358C614.016 523.259 614.196 523.36 614.232 524.179" stroke="black" stroke-width="1.21095"/>
<path d="M617.042 518.997C617.042 519.089 617.042 519.18 617.042 519.271C617.042 518.532 617.056 518.908 616.826 520.367C616.786 521.713 616.609 522.438 616.609 523.928C616.65 525.359 616.965 525.956 617.042 527.215" fill="white"/>
<path d="M617.042 518.997C617.042 519.089 617.042 519.18 617.042 519.271C617.042 518.532 617.056 518.908 616.826 520.367C616.786 521.713 616.609 522.438 616.609 523.928C616.65 525.359 616.965 525.956 617.042 527.215" stroke="black" stroke-width="1.21095"/>
<path d="M618.99 519.846C618.99 520.233 618.873 521.736 618.773 522.664C618.773 523.676 618.773 524.687 618.773 525.699C618.893 526.709 619.113 527.795 619.422 528.517C619.422 528.734 619.422 528.951 619.422 529.167" fill="white"/>
<path d="M618.99 519.846C618.99 520.233 618.873 521.736 618.773 522.664C618.773 523.676 618.773 524.687 618.773 525.699C618.893 526.709 619.113 527.795 619.422 528.517C619.422 528.734 619.422 528.951 619.422 529.167" stroke="black" stroke-width="1.21095"/>
<path d="M604.504 481.979C604.449 482.386 604.129 483.941 604.504 484.94C604.504 485.823 604.605 486.277 604.72 486.914" fill="white"/>
<path d="M604.504 481.979C604.449 482.386 604.129 483.941 604.504 484.94C604.504 485.823 604.605 486.277 604.72 486.914" stroke="black" stroke-width="1.21095"/>
<path d="M629.471 444.492C626.569 445.089 619.499 444.492 616.672 442.403C613.844 440.314 613.844 440.314 613.844 440.314" fill="white"/>
<path d="M629.471 444.492C626.569 445.089 619.499 444.492 616.672 442.403C613.844 440.314 613.844 440.314 613.844 440.314" stroke="black" stroke-width="0.968759"/>
<path d="M629.46 445.919C626.688 446.966 619.613 447.494 616.492 445.878C613.371 444.262 613.371 444.262 613.371 444.262" fill="white"/>
<path d="M629.46 445.919C626.688 446.966 619.613 447.494 616.492 445.878C613.371 444.262 613.371 444.262 613.371 444.262" stroke="black" stroke-width="0.968759"/>
<path d="M629.693 449.715C628.204 451.505 627.163 452.401 626.716 454.788C626.27 457.175 626.27 457.175 626.27 457.175" fill="white"/>
<path d="M629.693 449.715C628.204 451.505 627.163 452.401 626.716 454.788C626.27 457.175 626.27 457.175 626.27 457.175" stroke="black" stroke-width="0.968759"/>
<path d="M631.48 450.611C629.694 453.148 628.503 454.043 627.908 456.58C627.312 459.116 627.312 459.116 627.312 459.116" fill="white"/>
<path d="M631.48 450.611C629.694 453.148 628.503 454.043 627.908 456.58C627.312 459.116 627.312 459.116 627.312 459.116" stroke="black" stroke-width="0.968759"/>
<path d="M632.971 452.252C632.227 456.131 629.25 463.442 627.018 465.83C624.785 468.217 624.785 468.217 624.785 468.217" fill="white"/>
<path d="M632.971 452.252C632.227 456.131 629.25 463.442 627.018 465.83C624.785 468.217 624.785 468.217 624.785 468.217" stroke="black" stroke-width="0.968759"/>
<path d="M621.809 534.66C623.31 534.465 626.232 532.033 626.887 531.16C627.543 530.286 627.591 529.918 627.591 529.918" fill="white"/>
<path d="M621.809 534.66C623.31 534.465 626.232 532.033 626.887 531.16C627.543 530.286 627.591 529.918 627.591 529.918" stroke="black" stroke-width="1.15845"/>
<path d="M622.848 536.636C624.471 536.242 627.633 533.576 628.342 532.674C629.052 531.772 629.196 531.537 629.196 531.537" fill="white"/>
<path d="M622.848 536.636C624.471 536.242 627.633 533.576 628.342 532.674C629.052 531.772 629.196 531.537 629.196 531.537" stroke="black" stroke-width="1.15834"/>
<path d="M623.738 538.452C625.453 538.263 629 535.572 629.83 534.596C630.66 533.621 630.66 533.621 630.66 533.621" fill="white"/>
<path d="M623.738 538.452C625.453 538.263 629 535.572 629.83 534.596C630.66 533.621 630.66 533.621 630.66 533.621" stroke="black" stroke-width="1.3103"/>
<path d="M602.434 403.271C602.653 405.082 602.763 408.648 602.106 410.897C601.449 413.146 601.449 413.146 601.449 413.146" fill="white"/>
<path d="M602.434 403.271C602.653 405.082 602.763 408.648 602.106 410.897C601.449 413.146 601.449 413.146 601.449 413.146" stroke="black" stroke-width="0.968759"/>
<path d="M597.188 397.566C598.446 398.005 600.307 398.993 600.909 399.816C601.511 400.639 601.511 400.639 601.511 400.639" fill="white"/>
<path d="M597.188 397.566C598.446 398.005 600.307 398.993 600.909 399.816C601.511 400.639 601.511 400.639 601.511 400.639" stroke="black" stroke-width="0.968759"/>
<path d="M612.368 399.191C609.657 403.968 610.499 419.576 611.059 421.353C611.62 423.131 611.62 423.131 611.62 423.131" fill="white"/>
<path d="M612.368 399.191C609.657 403.968 610.499 419.576 611.059 421.353C611.62 423.131 611.62 423.131 611.62 423.131" stroke="black" stroke-width="1.27403"/>
<path d="M621.211 389.51C622.327 389.883 624.634 391.711 624.82 392.718Z" fill="white"/>
<path d="M621.211 389.51C622.327 389.883 624.634 391.711 624.82 392.718" stroke="black" stroke-width="0.968759"/>
<path d="M619.426 390.816C620.542 391.189 622.849 393.017 623.035 394.024Z" fill="white"/>
<path d="M619.426 390.816C620.542 391.189 622.849 393.017 623.035 394.024" stroke="black" stroke-width="0.968759"/>
<path d="M731.517 440.986C733.728 440.867 733.907 447.293 731.059 447.144" stroke="white" stroke-width="1.4047"/>
<path d="M731.207 441.113L731.283 446.498" stroke="white" stroke-width="3.4602"/>
<path d="M731.052 440.986C728.842 440.867 728.662 447.293 731.511 447.144" stroke="white" stroke-width="1.4047"/>
</svg>
