<svg width="889" height="589" viewBox="0 0 889 589" fill="none" xmlns="http://www.w3.org/2000/svg">
<path d="M0 0H888.889V588.885L0 0Z" fill="#EC1B23"/>
<path d="M0 588.885V0L888.889 588.885H0Z" fill="#FFF100"/>
<path d="M619.379 200.704C621.86 206.622 605.826 212.349 602.354 216.662C598.262 222.132 580.246 238.51 579.93 243.548C578.916 259.65 587.909 274.91 594.686 302.206C600.785 326.769 603.126 345.624 605.825 351.231C607.762 355.253 615.409 366.347 614.505 373.517C613.349 382.718 605.295 389.956 599.46 390.626C593.623 391.296 581.327 386.265 576.937 385.497C572.55 384.731 530.593 379.843 508.264 370.545C487.84 362.041 453.914 333.547 453.914 333.547L474.169 299.042C474.169 299.042 510.663 308.625 531.894 319.027C544.56 325.233 574.719 352.094 574.719 352.094C574.719 352.094 559.094 334.986 556.344 320.033C554.276 308.782 559.769 269.185 553.451 254.042C550.979 248.117 540.333 237.364 543.034 229.888C545.734 222.412 557.502 225.575 565.314 220.83C569.55 218.258 578.459 205.422 589.669 201.469C598.637 198.305 601.097 202.427 604.714 201.852C610.504 197.636 617.449 196.103 619.379 200.704Z" fill="#FFC8A0" stroke="black" stroke-width="1.5" stroke-linecap="round" stroke-linejoin="round"/>
<path d="M434.667 480.599C426.121 479.428 432.927 464.328 430.904 459.183C428.821 454.891 422.262 436.106 417.374 431.001C406.181 419.315 385.051 421.611 357.874 413.796C333.419 406.765 315.816 399.35 309.579 398.871C305.107 398.527 290.879 397.988 285.084 393.627C277.644 388.03 275.363 377.482 277.697 372.124C280.032 366.766 290.564 358.698 293.426 355.306C296.289 351.913 320.431 324.195 344.934 308.135C363.419 296.018 418.445 281.193 418.445 281.193L429.915 320.051C429.915 320.051 408.558 338.487 387.685 349.582C365.266 361.498 322.954 372.665 322.954 372.665C322.954 372.665 347.102 366.776 361.506 371.886C372.346 375.732 404.106 400.257 420.463 402.392C426.863 403.227 441.554 399.443 446.721 405.504C451.885 411.565 443.246 420.112 443.474 429.208C443.598 434.139 451.313 443.751 449.153 455.376C447.424 464.677 441.562 467.29 440.255 470.69C439.411 475.02 437.588 481 434.667 480.599Z" fill="#FFC8A0" stroke="black" stroke-width="1.5" stroke-linecap="round" stroke-linejoin="round"/>
<path d="M274.11 191.882C278.778 187.059 284.14 194.566 294.557 200.124C302.926 204.591 331.594 206.45 337.382 203C351.303 194.7 360.393 181.281 380.79 161.799C399.147 144.269 413.25 131.675 416.788 126.548C419.324 122.87 424.746 112.313 431.444 109.506C440.042 105.9 450.376 109.212 453.877 113.9C457.378 118.586 462.273 130.926 463.799 135.087C465.325 139.247 475.3 162.024 478.397 191.041C482.046 225.235 471.098 268.237 471.098 268.237L424.697 265.129C424.697 265.129 418.442 223.681 421.047 208.139C422.713 198.211 434.518 153.041 434.518 153.041C434.518 153.041 423.68 179.488 412.024 189.329C403.253 196.736 366.002 209.507 355.962 222.516C352.034 227.605 348.955 241.243 339.406 242.393C328.743 243.677 320.887 237.217 313.943 227.153C306.708 225.429 297.633 222.232 290.216 218.239C283.272 214.502 282.024 208.363 282.114 204.724C277.395 202.612 270.6 195.508 274.11 191.882Z" fill="#FFC8A0" stroke="black" stroke-width="1.5" stroke-linecap="round" stroke-linejoin="round"/>
<path d="M470.002 285.626C469.616 301.92 480.805 314.571 480.805 314.571C480.805 314.571 486.466 308.151 490.354 308.151C494.887 308.151 523.92 323.103 529.127 322.145C531.142 321.774 526.245 300.456 522.085 289.364C518.131 278.821 510.801 268.756 502.7 265.115C497.885 262.951 484.181 261.664 478.394 265.499C472.606 269.331 470.133 280.067 470.002 285.626Z" fill="#EBB437" stroke="black" stroke-width="1.99376" stroke-linecap="round" stroke-linejoin="round"/>
<path d="M418.057 285.052C418.117 298.95 407.7 314.764 407.7 314.764C407.7 314.764 401.593 307.577 397.706 307.577C393.173 307.577 362.658 323.87 357.45 322.912C355.435 322.541 361.816 299.881 365.975 288.791C369.929 278.248 377.259 268.182 385.361 264.541C390.176 262.377 403.88 261.09 409.667 264.924C415.452 268.759 418.033 279.492 418.057 285.052Z" fill="#EBB432" stroke="black" stroke-width="1.99376" stroke-linecap="round" stroke-linejoin="round"/>
<path d="M374.135 274.22C365.58 274.552 355.78 281.893 348.002 284.653C349.335 279.353 355.345 274.056 356.677 268.757C353.012 268.374 343.252 272.823 340.474 274.699C338.03 278.786 331.89 290.323 329.478 296.744C327.838 293.101 330.231 287.59 327.453 290.131C324.231 292.89 317.904 301.249 310.574 304.125C311.345 301.155 315.786 294.245 313.564 295.019C312.231 296.013 300.786 302.623 299.675 303.837C298.325 301.346 302.371 297.283 299.482 296.841C298.148 297.725 285.658 302.541 284.435 303.645C282.657 302.32 289.974 297.207 288.196 295.882C284.641 296.874 276.831 300.844 274.018 300.387C272.943 300.213 278.744 296.037 275.465 295.979C269.834 295.878 263.005 296.931 261.77 295.978C265.658 293.769 282.002 288.298 283.891 284.322C285.113 282.555 275.856 281.805 275.08 280.258C277.413 279.043 287.136 275.658 290.126 275.273C291.237 273.617 290.907 274.179 291.573 272.302C288.004 270.865 280.633 271.661 278.745 271.44C283.078 269.121 296.395 264.635 302.665 263.964C299.221 261.644 294.015 261.339 290.126 260.896C293.681 259.24 299.335 259.699 303.224 259.92C309.114 260.361 311.146 259.666 317.036 259.555C313.481 258.119 309.804 256.81 306.137 255.817C320.544 253.373 327.838 263.293 343.447 261.686C337.966 259.074 334.27 254.054 333.047 249.969C347.418 254.665 360.73 252.078 371.048 252.557C377.493 252.668 389.971 255.964 396.415 256.295C399.116 245.656 406.253 239.378 419.66 239.139C423.711 234.25 433.548 224.282 445.798 233.771C456.311 224.57 461.953 235.352 466.293 235.352C483.075 235.352 489.393 246.52 490.937 251.695C494.408 248.054 495.277 243.932 496.916 241.536C498.267 239.427 499.425 237.989 501.74 235.976C501.961 233.768 501.353 231.567 502.8 227.83C503.764 224.763 504.633 222.462 504.344 219.97C502.801 217.382 500.004 214.699 500.388 211.152C497.611 206.736 495.045 200.541 494.602 195.241C493.934 186.299 494.426 183.357 495.76 174.634C496.627 178.468 498.026 180.546 498.46 180.002C499.413 178.805 498.654 166.523 499.714 164.283C500.775 166.871 503.041 169.481 503.861 167.637C504.827 165.464 504.596 154.223 505.018 151.535C505.352 151.535 506.112 163.902 508.781 166.103C508.224 163.343 509.606 155.823 511.385 153.835C512.253 155.369 512.944 158.91 514.278 159.682C515.436 158.052 518.337 145.196 518.226 142.105C520.337 146.08 520.838 154.601 520.645 159.298C522.188 161.407 524.117 164.666 524.792 169.554C526.143 167.541 528.553 163.752 528.553 159.778C531.446 171.567 527.396 182.59 529.421 183.931C530.026 183.563 532.701 181.152 534.148 175.401C535.402 188.244 533.473 193.996 531.93 197.541C532.508 197.733 535.208 196.679 536.365 195.528C534.437 202.716 530.386 208.946 523.538 211.823C521.995 218.819 518.576 217.624 515.243 221.599C515.531 227.062 514.664 235.401 512.35 240.577C513.41 239.236 527.88 227.734 537.234 214.794C536.945 222.653 533.183 230.896 528.843 239.235C525.95 244.027 521.271 249.678 518.716 251.886C512.639 257.542 506.372 262.668 499.572 264.681C491.035 270.145 499.487 281.38 492.772 288.548C488.865 292.717 483.368 294.443 477.436 292.43C477.717 297.891 480.234 304.411 486.695 309.394C484.96 331.967 467.694 340.737 459.352 346.488C461.281 350.129 461.106 354.15 460.944 354.828C460.055 357.697 459.895 356.755 460.116 359.736C461.228 364.816 465.228 368.459 469.006 371.771C467.117 371.55 465.34 371.329 463.451 371.109C465.006 374.2 467.006 377.401 470.673 378.174C476.228 379.499 485.252 383.008 490.362 385.88C485.252 388.639 476.236 385.551 471.458 388.755C474.158 392.206 479 395.118 482.451 395.952C487.781 397.388 493.447 397.72 498.892 397.499C501.225 397.611 507.333 398.439 510.034 399.398C518.425 402.178 522.328 405.673 528.552 410.42C526.996 410.31 522.668 410.087 521.114 409.976C523.447 413.069 537.104 417.696 539.548 420.676C535.593 421.634 532.526 423.149 535.304 425.468C537.748 426.683 543.195 428.265 545.527 429.59C543.417 429.039 537.003 429.962 534.892 429.52C538.873 432.178 547.265 434.286 552.28 436.011C548.324 437.162 539.358 436.525 537.136 435.531C539.355 438.12 540.898 439.941 543.213 442.049C536.847 440.995 530.13 437.749 527.684 436.202C527.781 438.119 530.482 441.379 532.411 444.256C529.411 444.364 516.026 438.668 514.471 436.682C512.805 437.345 516.283 442.354 517.172 443.68C513.396 442.576 505.405 436.97 502.993 435.244C503.283 438.215 504.053 441.762 503.572 443.007C498.845 435.915 481.484 430.548 479.941 418.184C476.72 415.975 474.668 413.84 473.78 409.975C473.446 407.766 470.643 404.675 468.753 403.901C468.705 410.649 466.772 421.059 466.438 421.059C463.327 410.457 460.181 404.654 453.514 396.042C451.393 394.124 449.065 388.396 446.955 388.949C445.4 389.282 443.162 394.214 441.94 393.55C439.763 393.367 443.686 386.647 442.326 384.54C441.185 382.771 434.61 385.498 431.91 383.581C430.131 376.735 430.293 370.697 430.848 363.74C431.404 361.201 428.051 359.524 427.473 355.977C426.694 352.445 429.95 347.912 428.726 344.38C414.934 337.575 404.083 328.805 402.636 309.539C402.636 309.539 403.745 301.344 408.857 294.155C402.492 292.142 395.403 287.014 393.666 277.621C385.131 290.416 371.531 291.855 365.021 291.279C366.612 284.092 372.11 275.897 374.135 274.22Z" fill="black" stroke="black" stroke-width="0.5" stroke-linecap="round" stroke-linejoin="round"/>
<path d="M402.589 293.289C398.924 298.752 398.055 307.475 398.055 307.475" stroke="black" stroke-width="0.99688" stroke-linecap="round" stroke-linejoin="round"/>
<path d="M398.722 288.309C393.9 295.21 392.164 308.436 392.164 308.436" stroke="black" stroke-width="0.99688" stroke-linecap="round" stroke-linejoin="round"/>
<path d="M394.001 283.992C388.406 292.906 385.898 311.213 385.898 311.213" stroke="black" stroke-width="0.99688" stroke-linecap="round" stroke-linejoin="round"/>
<path d="M387.154 286.012C377.605 301.539 377.99 315.055 377.99 315.055" stroke="black" stroke-width="0.99688" stroke-linecap="round" stroke-linejoin="round"/>
<path d="M377.31 291.766C367.761 306.909 368.919 318.986 368.919 318.986" stroke="black" stroke-width="0.99688" stroke-linecap="round" stroke-linejoin="round"/>
<path d="M483.699 295.408C487.654 300.297 488.329 308.252 488.329 308.252" stroke="black" stroke-width="0.99688" stroke-linecap="round" stroke-linejoin="round"/>
<path d="M488.133 293.488C491.894 297.801 494.209 308.633 494.209 308.633" stroke="black" stroke-width="0.99688" stroke-linecap="round" stroke-linejoin="round"/>
<path d="M492.668 289.557C498.455 296.555 500.48 310.931 500.48 310.931" stroke="black" stroke-width="0.99688" stroke-linecap="round" stroke-linejoin="round"/>
<path d="M497.199 284.092C507.906 299.043 508.291 314.188 508.291 314.188" stroke="black" stroke-width="0.99688" stroke-linecap="round" stroke-linejoin="round"/>
<path d="M507.812 287.635C517.361 302.778 517.265 318.593 517.265 318.593" stroke="black" stroke-width="0.99688" stroke-linecap="round" stroke-linejoin="round"/>
<path d="M443.966 267.219C455.54 267.219 475.198 272.636 476.662 294.056C478.784 325.11 453.128 343.513 444.061 343.513C433.741 343.513 409.532 325.494 411.654 293.193C413.05 271.961 432.577 267.219 443.966 267.219Z" fill="#FFC8A0" stroke="black" stroke-width="1.99376" stroke-linecap="round" stroke-linejoin="round"/>
<path d="M465.956 299.716C465.956 299.716 462.483 297.655 459.204 297.704C455.925 297.751 452.453 300.004 452.453 300.004C452.453 300.004 456.552 302.4 459.542 302.401C462.532 302.402 465.956 299.716 465.956 299.716Z" fill="black" stroke="black" stroke-width="0.5" stroke-linecap="round" stroke-linejoin="round"/>
<path d="M436.054 299.814C436.054 299.814 432.1 297.274 429.929 296.939C427.759 296.605 422.551 298.664 422.551 298.664C422.551 298.664 426.554 301.73 429.254 302.019C431.955 302.308 436.054 299.814 436.054 299.814Z" fill="black" stroke="black" stroke-width="0.5" stroke-linecap="round" stroke-linejoin="round"/>
<path d="M467.878 292.814C467.878 292.814 464.213 289.603 457.847 289.795C451.482 289.988 448.347 293.821 447.576 295.402C447.085 296.409 447.287 308.294 447.673 309.78C448.058 311.266 451.819 315.146 451.337 317.064C450.855 318.982 448.974 318.118 447.624 318.884C446.274 319.652 445.165 320.608 444.248 320.608C442.513 320.608 442.272 319.6 440.39 319.027C438.69 318.507 436.532 319.027 435.954 317.445C435.378 315.873 437.737 313.898 437.737 313.898" stroke="black" stroke-width="0.99688" stroke-linecap="round" stroke-linejoin="round"/>
<path d="M437.501 293.001C437.501 293.001 434.849 289.935 428.628 289.791C422.407 289.646 418.549 293.577 418.116 294.967C417.683 296.357 418.647 297.747 418.647 297.747" stroke="black" stroke-width="0.99688" stroke-linecap="round" stroke-linejoin="round"/>
<path d="M467.212 304.221C467.212 304.221 463.402 307.959 459.207 307.959C455.011 307.959 449.273 303.646 449.273 303.646" stroke="black" stroke-width="0.99688" stroke-linecap="round" stroke-linejoin="round"/>
<path d="M436.59 304.65C436.59 304.65 431.766 307.814 428.681 307.814C425.594 307.814 423.664 306.616 423.664 306.616" stroke="black" stroke-width="0.99688" stroke-linecap="round" stroke-linejoin="round"/>
<path d="M443.868 329.572C442.879 329.572 441.244 328.859 441.244 328.859C440.13 328.734 436.874 328.804 435.114 328.469C433.242 328.112 430.963 326.32 430.75 326.025C430.564 325.768 431.164 325.264 431.423 325.079C431.684 324.895 432.182 324.896 432.232 325.21C432.413 326.361 434.352 327.445 435.331 327.608C437.935 328.039 441.581 326.514 441.725 326.624L443.858 327.113L445.962 326.561C446.098 326.45 450.187 327.75 453.175 327.509C454.095 327.436 455.924 326.479 456.343 325.183C456.44 324.88 456.91 324.898 457.158 325.099C457.405 325.299 457.813 325.874 457.611 326.121C457.381 326.402 455.224 327.965 453.392 328.397C451.741 328.787 447.918 328.757 446.448 328.949C446.448 328.949 445.025 329.572 443.868 329.572Z" fill="black"/>
<path d="M449.655 332.686C449.655 332.686 445.822 334.34 444.013 334.34C441.77 334.34 437.984 332.686 437.984 332.686" stroke="black" stroke-width="1.49532" stroke-linecap="round" stroke-linejoin="round"/>
<path d="M476.855 255.382C475.89 255.429 474.25 252.459 474.25 250.205C474.25 247.953 474.058 245.893 472.418 244.264C471.162 243.017 468.849 242.826 467.017 242.898C465.185 242.97 461.712 243.498 461.665 241.604C461.616 239.711 465.017 237.459 468.512 237.459C472.008 237.459 474.973 239.448 476.276 241.293C477.578 243.138 478.46 246.399 478.543 248.242C478.638 250.35 478.432 255.305 476.855 255.382Z" fill="#EBB437" stroke="#EBB437" stroke-width="0.5" stroke-linecap="round" stroke-linejoin="round"/>
<path d="M420.135 242.044C420.424 243.027 413.2 247.426 411.021 248.945C407.621 251.317 404.56 254.337 405.234 258.363C405.763 261.518 408.09 263.073 410.153 263.585C413.046 264.304 416.76 263.298 416.76 263.298C416.76 263.298 417.073 265.143 418.303 265.935C419.533 266.726 422.161 267.707 422.161 267.707C422.161 267.707 417.314 269.792 411.744 269.505C406.174 269.217 401.111 265.766 400.676 260.95C400.242 256.133 400.966 252.539 403.57 249.232C405.345 246.978 408.85 244.056 411.961 242.835C414.365 241.89 419.846 241.061 420.135 242.044Z" fill="#EBB437" stroke="#EBB437" stroke-width="0.5" stroke-linecap="round" stroke-linejoin="round"/>
<path d="M418.787 257.482C417.548 258.288 416.851 259.414 417.23 259.996C417.609 260.578 418.92 260.396 420.159 259.59C421.398 258.783 422.095 257.657 421.716 257.075C421.337 256.493 420.025 256.675 418.787 257.482Z" fill="#EBB437" stroke="#EBB437" stroke-width="0.5" stroke-linecap="round" stroke-linejoin="round"/>
<path d="M435.111 250.237C435.111 250.237 428.239 250.165 425.852 251.961C423.844 253.473 423.393 254.837 423.826 255.844C424.261 256.851 425.78 257.785 428.817 256.563C432.273 255.173 435.111 250.237 435.111 250.237Z" fill="#EBB437" stroke="#EBB437" stroke-width="0.5" stroke-linecap="round" stroke-linejoin="round"/>
<path d="M433.651 243.126C430.747 244.141 428.785 246.087 429.27 247.474C429.754 248.861 432.501 249.163 435.405 248.149C438.31 247.135 440.271 245.188 439.787 243.801C439.303 242.414 436.556 242.112 433.651 243.126Z" fill="#EBB437" stroke="#EBB437" stroke-width="0.5" stroke-linecap="round" stroke-linejoin="round"/>
<path d="M442.779 240.167C444.803 237.938 442.025 233.051 435.521 233.051C429.445 233.051 423.737 242.367 422.269 243.967C419.845 246.611 414.906 251.241 409.552 254.456C406.32 256.701 409.648 260.51 412.613 260.008C413.835 259.8 421.865 252.651 423.826 250.519C426.14 248.002 428.758 244.293 429.829 242.755C431.131 240.886 433.496 238.658 435.182 238.658C438.872 238.658 441.135 241.976 442.779 240.167Z" fill="#EBB437" stroke="#EBB437" stroke-width="0.5" stroke-linecap="round" stroke-linejoin="round"/>
<path d="M460.791 238.367C461.588 236.93 460.694 233.766 454.762 233.766C449.553 233.766 443.871 243.471 442.778 245.268C440.97 248.239 438.752 252.408 433.398 256.051C438.896 256.339 442.345 256.051 442.345 256.051C442.345 256.051 445.672 253.104 446.974 250.588C448.276 248.071 449.361 244.262 450.375 242.752C451.387 241.243 452.856 239.546 454.353 239.158C456.016 238.727 459.633 240.451 460.791 238.367Z" fill="#EBB437" stroke="#EBB437" stroke-width="0.5" stroke-linecap="round" stroke-linejoin="round"/>
<path d="M455.054 241.581C455.728 240.719 458.96 242.157 459.538 242.732C460.117 243.307 462.384 248.675 464.987 250.448C467.591 252.221 470.341 252.844 471.306 253.276C472.27 253.707 474.151 256.679 473.958 258.356C473.765 260.033 467.881 263.819 467.881 263.819C467.881 263.819 468.847 258.643 465.664 256.583C463.134 254.945 458.429 255.481 456.741 255.192C455.054 254.905 449.459 252.94 449.508 251.359C449.556 249.777 451.871 246.087 451.871 246.087C451.871 246.087 456.307 250.4 457.368 249.298C458.43 248.195 454.378 242.445 455.054 241.581Z" fill="#EBB437" stroke="#EBB437" stroke-width="0.5" stroke-linecap="round" stroke-linejoin="round"/>
<path d="M465.267 260.672C465.227 259.631 458.57 257.453 455.33 257.399C452.091 257.345 447.354 258.315 446.907 260.35C446.528 262.067 450.795 265.448 452.145 265.448C453.494 265.448 454.358 262.711 456.41 262.12C458.461 261.529 465.374 263.57 465.267 260.672Z" fill="#EBB437" stroke="#EBB437" stroke-width="0.99688" stroke-linecap="round" stroke-linejoin="round"/>
<path d="M465.854 277.191C461.829 277.742 454.043 276.306 450.808 273.884C448.875 272.436 440.327 264.43 436.052 263.676C431.06 262.796 424.477 269.714 419.724 264.56C417.674 262.337 423.896 259.934 426.505 259.234C429.113 258.535 436.632 257.351 439.814 258.212C442.996 259.073 449.822 265.045 452.69 267.465C455.556 269.887 463.828 275.561 465.854 277.191Z" fill="#EBB437" stroke="black" stroke-width="1.99376" stroke-linecap="round" stroke-linejoin="round"/>
<path d="M481.91 244.772C484.225 244.269 485.311 251.17 485.454 254.477C485.597 257.784 484.442 264.828 483.284 264.828C482.126 264.828 481.404 262.815 481.404 262.815C481.404 262.815 482.633 258.286 480.391 256.273C480.825 254.549 481.476 252.966 481.258 250.738C481.041 248.51 480.353 245.11 481.91 244.772Z" fill="#EBB437" stroke="#EBB437" stroke-width="0.5" stroke-linecap="round" stroke-linejoin="round"/>
<path d="M479.521 257.414C483.283 258.869 475.379 268.296 473.666 269.301C470.307 271.272 460.365 271.855 458.134 270.734C455.533 269.428 451.867 266.17 451.867 266.17C451.867 266.17 464.363 268.179 469.132 266.265C474.641 264.056 477.203 256.517 479.521 257.414Z" fill="#EBB437" stroke="black" stroke-width="0.99688" stroke-linecap="round" stroke-linejoin="round"/>
<path d="M483.887 274.052C484.91 273.454 484.748 271.275 483.526 269.184C482.304 267.094 480.485 265.884 479.462 266.482C478.439 267.08 478.6 269.259 479.822 271.35C481.044 273.44 482.864 274.65 483.887 274.052Z" fill="#EBB437" stroke="#EBB437" stroke-width="0.5" stroke-linecap="round" stroke-linejoin="round"/>
<path d="M477.129 273.875C477.933 273.378 478.043 272.099 477.376 271.019C476.708 269.939 475.514 269.467 474.71 269.965C473.906 270.462 473.795 271.741 474.463 272.82C475.131 273.9 476.324 274.372 477.129 273.875Z" fill="#EBB437" stroke="#EBB437" stroke-width="0.5" stroke-linecap="round" stroke-linejoin="round"/>
<path d="M488.233 254.234C488.184 260.13 486.014 265.018 486.159 266.599C486.304 268.18 487.895 269.425 489.535 270.384C491.176 271.343 493.297 272.109 493.875 271.582C494.454 271.055 494.55 269.329 494.02 268.371C493.488 267.413 491.512 267.173 491.029 265.639C490.547 264.107 491.078 262.332 490.74 260.176C490.402 258.021 488.957 255.145 488.233 254.234Z" fill="#EBB437" stroke="#EBB437" stroke-width="0.5" stroke-linecap="round" stroke-linejoin="round"/>
<path d="M459.59 271.824C462.118 271.939 468.891 270.836 470.297 271.633C471.703 272.429 476.404 279.286 476.854 281.217C477.302 283.15 476.918 286.106 475.68 287.526C470.778 282.942 464.027 274.796 459.59 271.824Z" fill="#EBB437" stroke="black" stroke-width="1.99376" stroke-linecap="round" stroke-linejoin="round"/>
<path d="M478.444 275.71C476.227 276.285 479.601 282.324 479.457 283.761C479.311 285.199 477.19 286.971 477.239 287.691C477.288 288.411 481.675 291.381 484.376 291.381C486.596 291.381 491.03 287.979 491.755 286.35C492.479 284.72 493.201 280.839 492.671 278.011C492.14 275.183 487.558 272.213 487.558 272.213C487.558 272.213 486.354 274.513 486.305 276.286C486.256 278.058 487.704 280.216 487.897 281.654C488.09 283.091 487.077 285.584 486.546 286.206C486.015 286.829 483.122 287.453 482.255 286.781C481.387 286.11 484.086 283.091 484.086 280.839C484.086 278.826 480.661 275.135 478.444 275.71Z" fill="#EBB437" stroke="#EBB437" stroke-width="0.5" stroke-linecap="round" stroke-linejoin="round"/>
<path d="M437.501 264.537C439.959 264.537 444.446 269.138 444.446 269.138C444.446 269.138 437.039 273.263 433.491 274.146C429.941 275.028 424.05 275.379 420.658 276.417C417.266 277.455 414.23 285.661 411.15 285.505C408.07 285.35 409.01 280.163 409.01 280.163C409.01 280.163 409.898 274.405 413.811 272.123C417.726 269.84 424.042 269.789 428.06 268.959C432.08 268.128 433.9 264.537 437.501 264.537Z" fill="#EBB437" stroke="black" stroke-width="1.99376" stroke-linecap="round" stroke-linejoin="round"/>
<path d="M408.077 272.685C408.077 272.685 407.258 276.471 406.294 277.047C405.328 277.622 400.361 272.062 400.507 269.474C400.651 266.879 408.077 272.685 408.077 272.685Z" fill="#EBB437" stroke="#EBB437" stroke-width="0.5" stroke-linecap="round" stroke-linejoin="round"/>
<path d="M406.408 282.637C406.896 282.253 406.471 280.899 405.459 279.612C404.447 278.326 403.231 277.595 402.743 277.979C402.255 278.363 402.68 279.717 403.692 281.003C404.704 282.289 405.92 283.021 406.408 282.637Z" fill="#EBB437" stroke="#EBB437" stroke-width="0.5" stroke-linecap="round" stroke-linejoin="round"/>
<path d="M399.223 272.486C397.115 271.035 395.98 274.415 395.98 277.32C395.98 280.812 397.764 284.678 400.79 287.954C403.817 291.23 411.172 293.103 411.172 293.103L412.184 286.968C412.184 286.968 405.337 287.154 402.142 283.227C399.168 279.576 401.33 273.936 399.223 272.486Z" fill="#EBB437" stroke="black" stroke-width="0.99688" stroke-linecap="round" stroke-linejoin="round"/>
<path d="M399.31 266.315C395.259 269.143 393.668 274.606 393.668 274.606C393.668 274.606 391.69 267.035 391.739 264.111C391.787 261.187 393.571 257.546 395.79 257.738C398.008 257.929 397.237 263.392 399.31 266.315Z" fill="#EBB437" stroke="#EBB437" stroke-width="0.5" stroke-linecap="round" stroke-linejoin="round"/>
<path d="M386.187 267.893C388.792 267.893 389.948 276.422 389.852 277.765C389.755 279.108 386.379 283.131 382.522 285.528C378.663 287.924 372.925 289.459 371.237 288.117C369.548 286.774 373.645 279.08 376.012 275.992C378.47 272.781 383.583 267.893 386.187 267.893Z" fill="#EBB437" stroke="#EBB437" stroke-width="0.5" stroke-linecap="round" stroke-linejoin="round"/>
<path d="M476.199 309.035C476.533 310.178 478.025 310.32 479.867 309.789C481.709 309.258 482.32 307.662 481.986 306.52C481.653 305.376 480.499 305.116 478.657 305.646C476.815 306.177 475.864 307.892 476.199 309.035Z" fill="#EBB437" stroke="#EBB437" stroke-width="0.5" stroke-linecap="round" stroke-linejoin="round"/>
<path d="M483.365 311.408C483.365 311.408 478.952 313.061 475.697 312.942C475.697 313.853 473.672 317.639 473.672 317.639C473.672 317.639 480.689 317.927 482.352 316.441C484.016 314.955 483.365 311.408 483.365 311.408Z" fill="#EBB437" stroke="#EBB437" stroke-width="0.5" stroke-linecap="round" stroke-linejoin="round"/>
<path d="M483.513 319.027C483.513 319.027 476.424 320.321 472.806 319.841C472.589 320.896 471.359 322.333 471.359 322.333C471.359 322.333 476.616 326.359 479.172 325.352C481.728 324.346 483.513 319.027 483.513 319.027Z" fill="#EBB437" stroke="#EBB437" stroke-width="0.5" stroke-linecap="round" stroke-linejoin="round"/>
<path d="M478.301 327.651C478.301 327.651 472.298 326.5 469.694 324.918C469.187 326.212 467.668 327.793 467.668 327.793C467.668 327.793 470.417 331.316 473.094 331.244C475.77 331.172 478.301 327.651 478.301 327.651Z" fill="#EBB437" stroke="#EBB437" stroke-width="0.5" stroke-linecap="round" stroke-linejoin="round"/>
<path d="M473.665 333.26C473.665 333.26 467.372 331.821 465.781 330.6C465.274 331.606 462.598 334.122 462.598 334.122C462.598 334.122 464.913 336.925 467.3 336.71C469.687 336.495 473.665 333.26 473.665 333.26Z" fill="#EBB437" stroke="#EBB437" stroke-width="0.5" stroke-linecap="round" stroke-linejoin="round"/>
<path d="M460.213 336.572L466.723 339.017C466.723 339.017 463.18 342.109 460.069 342.252C456.957 342.396 455.801 340.455 455.801 340.455L460.213 336.572Z" fill="#EBB437" stroke="#EBB437" stroke-width="0.5" stroke-linecap="round" stroke-linejoin="round"/>
<path d="M411.313 305.081C411.457 306.806 410.514 306.51 408.672 305.979C406.83 305.448 405.607 304.089 405.942 302.946C406.275 301.803 407.59 301.531 409.433 302.061C411.274 302.593 411.214 303.895 411.313 305.081Z" fill="#EBB437" stroke="#EBB437" stroke-width="0.5" stroke-linecap="round" stroke-linejoin="round"/>
<path d="M404.655 306.23C404.655 306.23 408.289 309.925 412.788 310.656C412.616 311.551 414.349 316.151 414.349 316.151C414.349 316.151 407.965 314.667 405.958 312.773C403.95 310.878 404.655 306.23 404.655 306.23Z" fill="#EBB437" stroke="#EBB437" stroke-width="0.5" stroke-linecap="round" stroke-linejoin="round"/>
<path d="M405.957 316.586C405.957 316.586 411.477 318.592 415.867 319.748C416.157 321.187 417.386 323.918 417.386 323.918C417.386 323.918 411.093 324.565 409.139 323.342C406.306 321.57 405.957 316.586 405.957 316.586Z" fill="#EBB437" stroke="#EBB437" stroke-width="0.5" stroke-linecap="round" stroke-linejoin="round"/>
<path d="M410.301 326.359C410.301 326.359 416.42 327.101 419.85 327.222C419.994 328.443 422.164 330.6 422.164 330.6C422.164 330.6 417.611 333.422 414.931 331.822C412.25 330.223 410.301 326.359 410.301 326.359Z" fill="#EBB437" stroke="#EBB437" stroke-width="0.5" stroke-linecap="round" stroke-linejoin="round"/>
<path d="M417.535 334.849C417.535 334.849 422.526 333.77 424.117 332.549C424.624 333.555 426.722 335.568 426.722 335.568C426.722 335.568 424.552 338.228 422.164 338.012C419.776 337.797 417.535 334.849 417.535 334.849Z" fill="#EBB437" stroke="#EBB437" stroke-width="0.5" stroke-linecap="round" stroke-linejoin="round"/>
<path d="M429.112 338.229L425.074 339.953C425.074 339.953 426.216 342.222 429.329 342.325C431.499 342.396 432.439 340.743 432.439 340.743L429.112 338.229Z" fill="#EBB437" stroke="#EBB437" stroke-width="0.5" stroke-linecap="round" stroke-linejoin="round"/>
<path d="M453.557 342.324C451.097 344.336 447.047 345.271 447.047 345.271C447.047 345.271 455.368 358.639 457.754 356.27C461.369 352.676 456.306 344.337 453.557 342.324Z" fill="#EBB437" stroke="#EBB437" stroke-width="0.5" stroke-linecap="round" stroke-linejoin="round"/>
<path d="M441.477 345.99C441.477 345.99 439.378 347.858 437.715 348.722C441.187 350.304 446.252 359.217 447.842 355.191C449.434 351.165 441.477 345.99 441.477 345.99Z" fill="#EBB437" stroke="#EBB437" stroke-width="0.5" stroke-linecap="round" stroke-linejoin="round"/>
<path d="M450.376 356.48C450.376 356.48 449.033 359.317 449.291 360.937C449.942 365.034 459.417 369.851 459.491 366.257C459.562 362.662 450.376 356.48 450.376 356.48Z" fill="#EBB437" stroke="#EBB437" stroke-width="0.5" stroke-linecap="round" stroke-linejoin="round"/>
<path d="M434.68 342.469L437.935 344.482C437.935 344.482 435.692 348.219 433.161 347.07C430.629 345.919 434.68 342.469 434.68 342.469Z" fill="#EBB437" stroke="#EBB437" stroke-width="0.5" stroke-linecap="round" stroke-linejoin="round"/>
<path d="M434.567 359.14C436.344 359.14 437.785 357.193 437.785 354.791C437.785 352.389 436.344 350.441 434.567 350.441C432.789 350.441 431.348 352.389 431.348 354.791C431.348 357.193 432.789 359.14 434.567 359.14Z" fill="#EBB437" stroke="#EBB437" stroke-width="0.5" stroke-linecap="round" stroke-linejoin="round"/>
<path d="M441.268 356.193C440.4 357.559 439.098 359.573 439.098 359.573C439.098 359.573 441.051 362.736 441.629 365.683C443.221 365.827 445.173 364.245 445.173 361.37C445.173 359.357 442.57 356.338 441.268 356.193Z" fill="#EBB437" stroke="#EBB437" stroke-width="0.5" stroke-linecap="round" stroke-linejoin="round"/>
<path d="M447.988 365.182L446.613 366.835C446.613 366.835 449.941 373.807 452.039 376.251C453.486 368.919 447.988 365.182 447.988 365.182Z" fill="#EBB437" stroke="#EBB437" stroke-width="0.5" stroke-linecap="round" stroke-linejoin="round"/>
<path d="M455.299 370.569C454.792 371.432 454.938 375.169 455.806 377.11C456.673 379.052 460.375 382.975 463.401 383.941C469.478 385.882 483.077 385.02 483.077 385.02C483.077 385.02 471.937 380.275 466.728 377.543C462.541 375.348 459.783 370.14 459.783 370.14C459.783 370.14 455.806 369.707 455.299 370.569Z" fill="#EBB437" stroke="#EBB437" stroke-width="0.5" stroke-linecap="round" stroke-linejoin="round"/>
<path d="M436.122 361.516C434.386 361.516 433.156 363.384 433.156 365.684C433.156 367.409 434.748 371.004 436.773 371.147C438.798 371.291 439.016 366.546 439.016 366.546C439.016 366.546 437.857 361.516 436.122 361.516Z" fill="#EBB437" stroke="#EBB437" stroke-width="0.5" stroke-linecap="round" stroke-linejoin="round"/>
<path d="M443.643 368.053C443.643 368.053 441.729 370.532 442.124 372.654C443.136 378.117 448.594 386.826 451.238 389.259C454.204 391.991 457.169 396.655 458.183 398.245C460.932 402.558 466.139 413.486 466.139 413.486C466.139 413.486 466.718 405.434 464.693 399.396C463.988 397.295 460.424 392.566 458.905 390.482C457.386 388.397 453.914 385.737 451.599 382.575C449.285 379.412 443.643 368.053 443.643 368.053Z" fill="#EBB437" stroke="#EBB437" stroke-width="0.5" stroke-linecap="round" stroke-linejoin="round"/>
<path d="M439.232 373.518C439.666 376.825 442.27 380.707 442.27 380.707C442.27 380.707 437.193 380.774 435.76 378.477C434.457 376.393 435.181 373.948 435.181 373.948C435.181 373.948 437.352 373.734 439.232 373.518Z" fill="#EBB437" stroke="#EBB437" stroke-width="0.5" stroke-linecap="round" stroke-linejoin="round"/>
<path d="M461.8 388.114C459.92 389.48 474.773 402.564 480.127 415.217C481.067 414.857 484.731 410.687 485.745 405.44C488.131 406.59 491.17 407.164 494.713 407.381C498.258 407.596 503.322 407.166 503.322 407.166C503.322 407.166 501.369 400.983 497.246 399.833C493.122 398.682 488.853 400.408 485.237 399.689C481.621 398.969 462.968 387.266 461.8 388.114Z" fill="#EBB437" stroke="#EBB437" stroke-width="0.99688" stroke-linecap="round" stroke-linejoin="round"/>
<path d="M503.543 401.773L507.232 407.237L513.235 407.38C513.235 407.38 512.006 404.002 509.112 402.492C507.707 401.759 503.543 401.773 503.543 401.773Z" fill="#EBB437" stroke="#EBB437" stroke-width="0.99688" stroke-linecap="round" stroke-linejoin="round"/>
<path d="M510.999 413.776L506.221 409.967H498.91L502.966 413.71L510.999 413.776Z" fill="#EBB437" stroke="#EBB437" stroke-width="0.99688" stroke-linecap="round" stroke-linejoin="round"/>
<path d="M512.156 409.823L517.001 414.494L523.367 414.781L517.578 409.746L512.156 409.823Z" fill="#EBB437" stroke="#EBB437" stroke-width="0.99688" stroke-linecap="round" stroke-linejoin="round"/>
<path d="M498.555 413.843L494.066 409.967L487.777 409.746L493.855 415.642L498.7 416.073L498.555 413.843Z" fill="#EBB437" stroke="#EBB437" stroke-width="0.99688" stroke-linecap="round" stroke-linejoin="round"/>
<path d="M491.389 417.662L485.678 413.268L483 416.933L487.344 421.759L492.111 422.189L491.389 417.662Z" fill="#EBB437" stroke="#EBB437" stroke-width="0.99688" stroke-linecap="round" stroke-linejoin="round"/>
<path d="M502.023 422.256L498.845 418.59H495.367L495.223 422.477L499.2 425.855L502.1 425.712L502.023 422.256Z" fill="#EBB437" stroke="#EBB437" stroke-width="0.99688" stroke-linecap="round" stroke-linejoin="round"/>
<path d="M498.768 429.808L493.857 424.707L490.023 424.917L490.168 427.799L496.168 432.823L498.768 432.756V429.808Z" fill="#EBB437" stroke="#EBB437" stroke-width="0.99688" stroke-linecap="round" stroke-linejoin="round"/>
<path d="M510.346 419.384L506.58 416.502L502.535 416.436L502.602 418.522L506.368 421.758L510.491 421.824L510.346 419.384Z" fill="#EBB437" stroke="#EBB437" stroke-width="0.99688" stroke-linecap="round" stroke-linejoin="round"/>
<path d="M519.167 416.789L512.512 416.933L519.678 421.614H523.001V419.307L519.167 416.789Z" fill="#EBB437" stroke="#EBB437" stroke-width="0.99688" stroke-linecap="round" stroke-linejoin="round"/>
<path d="M520.623 425.634L515.845 421.327L512.945 421.25L513.234 424.264L516.49 428.085L520.545 428.295L520.623 425.634Z" fill="#EBB437" stroke="#EBB437" stroke-width="0.99688" stroke-linecap="round" stroke-linejoin="round"/>
<path d="M507.234 428.373L507.156 425.281L511.001 425.491L515.334 430.018L515.19 433.618L511.434 433.187L507.234 428.373Z" fill="#EBB437" stroke="#EBB437" stroke-width="0.99688" stroke-linecap="round" stroke-linejoin="round"/>
<path d="M503.623 429.233L501.156 429.156L504.556 433.827L508.245 434.048L504.267 426.926L503.623 429.233Z" fill="#EBB437" stroke="#EBB437" stroke-width="0.99688" stroke-linecap="round" stroke-linejoin="round"/>
<path d="M532.479 423.834L528.291 420.102L525.468 420.168L525.391 423.69L529.302 426.064L532.557 426.716L532.479 423.834Z" fill="#EBB437" stroke="#EBB437" stroke-width="0.99688" stroke-linecap="round" stroke-linejoin="round"/>
<path d="M524.956 434.258L520.467 430.67L517.578 430.736V433.828L522.067 436.92L525.323 436.997L524.956 434.258Z" fill="#EBB437" stroke="#EBB437" stroke-width="0.99688" stroke-linecap="round" stroke-linejoin="round"/>
<path d="M532.623 431.674L526.256 426.429L523.223 426.352L523.289 429.73L529.156 433.97L533.345 434.335L532.623 431.674Z" fill="#EBB437" stroke="#EBB437" stroke-width="0.99688" stroke-linecap="round" stroke-linejoin="round"/>
<path d="M532.41 223.902C516.495 242.689 494.891 259.557 494.891 259.557C494.891 259.557 498.042 262.429 502.508 261.283C508.488 259.749 521.288 244.565 524.306 240.484C527.78 235.786 530.866 229.844 532.41 223.902Z" fill="#EBB437" stroke="#EBB437" stroke-width="0.99688" stroke-linecap="round" stroke-linejoin="round"/>
<path d="M502.413 239.902C503.087 241.819 503.571 246.515 502.799 248.433C502.027 250.35 493.346 256.677 493.346 256.677L492.672 252.746C492.672 252.746 498.843 246.612 502.413 239.902Z" fill="#EBB437" stroke="#EBB437" stroke-width="0.99688" stroke-linecap="round" stroke-linejoin="round"/>
<path d="M520.255 212.596C516.444 213.099 507.862 213.243 504.244 212.596C503.713 215.352 507.702 218.543 507.523 220.647C507.185 224.625 504.679 228.435 504.439 231.574C504.196 234.713 506.56 244.61 506.56 244.61C506.56 244.61 510.37 239.026 511.575 234.834C512.78 230.64 512.203 224.554 512.83 222.086C513.455 219.616 520.666 217.627 520.255 212.596Z" fill="#EBB437" stroke="#EBB437" stroke-width="0.99688" stroke-linecap="round" stroke-linejoin="round"/>
<path d="M528.132 196.674L521.984 202.353V209.829C521.984 209.829 526.469 206.738 527.699 204.007C528.506 202.215 528.132 196.674 528.132 196.674Z" fill="#EBB437" stroke="#EBB437" stroke-width="0.99688" stroke-linecap="round" stroke-linejoin="round"/>
<path d="M519.244 201.213C519.244 201.213 519.678 207.827 518.593 209.121C517.507 210.415 515.988 209.768 515.988 209.768L515.844 203.586L519.244 201.213Z" fill="#EBB437" stroke="#EBB437" stroke-width="0.99688" stroke-linecap="round" stroke-linejoin="round"/>
<path d="M512.733 209.263L512.662 199.486C512.662 199.486 509.695 200.349 509.695 202.146C509.695 203.944 512.733 209.263 512.733 209.263Z" fill="#EBB437" stroke="#EBB437" stroke-width="0.99688" stroke-linecap="round" stroke-linejoin="round"/>
<path d="M508.533 209.262L504.989 199.629L500.938 203.655C500.938 203.655 501.082 208.615 502.818 209.477C504.553 210.339 508.533 209.262 508.533 209.262Z" fill="#EBB437" stroke="#EBB437" stroke-width="0.99688" stroke-linecap="round" stroke-linejoin="round"/>
<path d="M528.355 192.656L524.233 195.604L522.711 186.98L526.911 183.314L528.355 192.656Z" fill="#EBB437" stroke="#EBB437" stroke-width="0.99688" stroke-linecap="round" stroke-linejoin="round"/>
<path d="M519.967 189.498L521.845 197.183L520.323 198.906L518.156 192.656L519.967 189.498Z" fill="#EBB437" stroke="#EBB437" stroke-width="0.99688" stroke-linecap="round" stroke-linejoin="round"/>
<path d="M514.69 187.477L516.065 199.697C516.065 199.697 513.244 196.679 512.954 194.593C512.666 192.508 514.69 187.477 514.69 187.477Z" fill="#EBB437" stroke="#EBB437" stroke-width="0.99688" stroke-linecap="round" stroke-linejoin="round"/>
<path d="M508.1 185.754L511 193.086L507.6 197.756L505.855 191.142L508.1 185.754Z" fill="#EBB437" stroke="#EBB437" stroke-width="0.99688" stroke-linecap="round" stroke-linejoin="round"/>
<path d="M498.188 196.321L498.265 190.789L500.143 187.697L503.688 190.789V196.829L500.287 199.766L498.188 196.321Z" fill="#EBB437" stroke="#EBB437" stroke-width="0.99688" stroke-linecap="round" stroke-linejoin="round"/>
<path d="M502.389 175.188L504.989 177.131L506.223 183.458L503.912 186.538L500.434 184.098L500.223 178.997L502.389 175.188Z" fill="#EBB437" stroke="#EBB437" stroke-width="0.99688" stroke-linecap="round" stroke-linejoin="round"/>
<path d="M511.724 176.622L509.835 171.664L507.746 176.114L508.902 183.026L511.868 185.179L511.724 176.622Z" fill="#EBB437" stroke="#EBB437" stroke-width="0.99688" stroke-linecap="round" stroke-linejoin="round"/>
<path d="M518.376 179.062L515.765 174.182L514.176 176.843L514.109 183.313L518.154 186.471L518.376 179.062Z" fill="#EBB437" stroke="#EBB437" stroke-width="0.99688" stroke-linecap="round" stroke-linejoin="round"/>
<path d="M524.154 177.131L522.932 173.531L520.543 177.992L520.754 185.18L523.51 182.95L524.154 177.131Z" fill="#EBB437" stroke="#EBB437" stroke-width="0.99688" stroke-linecap="round" stroke-linejoin="round"/>
<path d="M514.398 165.482L514.609 171.158L519.243 173.675L521.554 169.435L518.954 162.181L516.421 160.094L514.398 165.482Z" fill="#EBB437" stroke="#EBB437" stroke-width="0.99688" stroke-linecap="round" stroke-linejoin="round"/>
<path d="M388.745 258.927C388.745 258.927 384.187 256.843 380.498 256.196C376.809 255.549 362.92 255.764 357.785 255.62C352.648 255.477 341.147 254.111 338.109 252.889C338.109 253.967 338.182 256.843 343.463 259.071C348.743 261.3 365.236 259.933 370.373 260.078C375.508 260.221 386.793 263.672 387.878 263.097C388.964 262.521 388.745 258.927 388.745 258.927Z" fill="#EBB437" stroke="#EBB437" stroke-width="0.5" stroke-linecap="round" stroke-linejoin="round"/>
<path d="M380.135 265.111C380.135 264.249 373.697 263.17 371.237 263.674C368.777 264.177 364.252 266.756 360.965 269.639C357.276 272.875 353.152 279.057 353.152 279.057C353.152 279.057 363.931 273.163 374.709 270.502C376.662 269.424 380.135 265.974 380.135 265.111Z" fill="#EBB437" stroke="#EBB437" stroke-width="0.5" stroke-linecap="round" stroke-linejoin="round"/>
<path d="M365.456 262.603C365.456 262.603 361.477 265.839 359.234 266.413C356.992 266.988 352.146 266.054 347.443 267.707C342.741 269.361 336.424 276.814 334.881 279.114C334.302 273.075 330.975 265.671 328.516 262.437C331.12 262.365 334.568 263.609 334.568 263.609C334.568 263.609 336.81 265.766 338.908 265.622C341.006 265.479 342.452 263.609 345.057 263.25C347.661 262.89 365.456 262.603 365.456 262.603Z" fill="#EBB437" stroke="#EBB437" stroke-width="0.5" stroke-linecap="round" stroke-linejoin="round"/>
<path d="M324.367 279.641L330.589 274.959L331.745 280.645L328.123 284.742L324.434 284.598L324.367 279.641Z" fill="#EBB437" stroke="#EBB437" stroke-width="0.99688" stroke-linecap="round" stroke-linejoin="round"/>
<path d="M328.123 270.51L330.801 271.294L322.478 277.764L319.078 277.477L319.012 274.098L328.123 270.51Z" fill="#EBB437" stroke="#EBB437" stroke-width="0.99688" stroke-linecap="round" stroke-linejoin="round"/>
<path d="M327.479 267.275L318.943 270.439L318.871 267.348C318.871 267.348 322.271 263.322 324.152 263.322C326.031 263.322 327.479 267.275 327.479 267.275Z" fill="#EBB437" stroke="#EBB437" stroke-width="0.99688" stroke-linecap="round" stroke-linejoin="round"/>
<path d="M319.876 293.444L325.665 287.548L320.532 286.035L315.821 289.624L315.754 293.588L319.876 293.444Z" fill="#EBB437" stroke="#EBB437" stroke-width="0.99688" stroke-linecap="round" stroke-linejoin="round"/>
<path d="M314.955 287.327L320.822 282.733V280.282L316.411 280.139L312.355 283.374V287.261L314.955 287.327Z" fill="#EBB437" stroke="#EBB437" stroke-width="0.99688" stroke-linecap="round" stroke-linejoin="round"/>
<path d="M308.09 278.272L313.156 274.607L315.612 274.529L315.468 277.555L310.401 281.651L308.156 281.287L308.09 278.272Z" fill="#EBB437" stroke="#EBB437" stroke-width="0.99688" stroke-linecap="round" stroke-linejoin="round"/>
<path d="M312.21 268.996L316.476 268.775V270.94L308.088 274.959L305.332 274.528L312.21 268.996Z" fill="#EBB437" stroke="#EBB437" stroke-width="0.99688" stroke-linecap="round" stroke-linejoin="round"/>
<path d="M308.01 262.958L314.743 261.953L319.01 262.605L316.332 265.762L308.232 267.562L304.688 266.845L308.01 262.958Z" fill="#EBB437" stroke="#EBB437" stroke-width="0.99688" stroke-linecap="round" stroke-linejoin="round"/>
<path d="M305.043 270.145C302.439 269.283 300.848 267.342 300.848 267.342C300.848 267.342 296.073 269.355 294.771 271.368C294.521 271.755 293.613 274.675 294.554 275.25C295.496 275.825 298.533 275.682 298.533 275.682C298.533 275.682 302.729 273.236 305.043 270.145Z" fill="#EBB437" stroke="#EBB437" stroke-width="0.99688" stroke-linecap="round" stroke-linejoin="round"/>
<path d="M305.491 281.143L305.268 277.19L301.002 277.047L298.035 279.134L298.535 280.646L305.491 281.143Z" fill="#EBB437" stroke="#EBB437" stroke-width="0.99688" stroke-linecap="round" stroke-linejoin="round"/>
<path d="M305.412 289.127L309.612 286.609L309.179 284.092L305.49 283.805L302.734 286.322L302.59 289.414L305.412 289.127Z" fill="#EBB437" stroke="#EBB437" stroke-width="0.99688" stroke-linecap="round" stroke-linejoin="round"/>
<path d="M303.679 291.932L309.313 289.414L312.502 289.988L312.424 292.506L306.713 295.233H303.102L303.679 291.932Z" fill="#EBB437" stroke="#EBB437" stroke-width="0.99688" stroke-linecap="round" stroke-linejoin="round"/>
<path d="M291.445 293.156L296.012 289.623L299.412 289.987L299.19 293.443L294.268 296.171L291.523 296.237L291.445 293.156Z" fill="#EBB437" stroke="#EBB437" stroke-width="0.99688" stroke-linecap="round" stroke-linejoin="round"/>
<path d="M293.477 284.742L297.521 282.512L300.999 283.02L300.343 285.239L296.732 287.116L293.543 287.26L293.477 284.742Z" fill="#EBB437" stroke="#EBB437" stroke-width="0.99688" stroke-linecap="round" stroke-linejoin="round"/>
<path d="M286.535 280.646L290.601 276.66L292.679 276.715L292.435 278.824L294.946 278.482L294.779 280.359L290.801 283.804L286.457 283.738L286.535 280.646Z" fill="#EBB437" stroke="#EBB437" stroke-width="0.99688" stroke-linecap="round" stroke-linejoin="round"/>
<path d="M279.3 290.848L285.234 286.465L290.223 286.829V290.352L284.434 294.592L278.578 293.222L279.3 290.848Z" fill="#EBB437" stroke="#EBB437" stroke-width="0.99688" stroke-linecap="round" stroke-linejoin="round"/>
</svg>
